# Blender v2.79 (sub 0) OBJ File: ''
# www.blender.org
mtllib Bullfrog.mtl
o Melon_Rip
v 3.483604 3.576931 5.563915
v 3.506885 3.551588 -6.959424
v 2.085499 4.985718 5.568399
v 2.085499 4.985718 5.568399
v 3.506885 3.551588 -6.959424
v 2.102925 6.992330 -3.765572
v -3.503735 3.577665 5.551707
v -2.105690 4.986202 5.560924
v -3.480693 3.552321 -6.971586
v -3.480693 3.552321 -6.971586
v -2.105690 4.986202 5.560924
v -2.088222 6.992922 -3.772833
v 2.102925 6.992330 -3.765572
v -2.088222 6.992922 -3.772833
v -2.105690 4.986202 5.560924
v 2.085499 4.985718 5.568399
v -37.388466 -4.255281 0.496453
v -37.397198 -4.277267 5.121102
v -24.925930 -1.946118 0.529116
v -24.925930 -1.946118 0.529116
v -37.397198 -4.277267 5.121102
v -24.943125 -2.449962 9.776387
v -24.925930 -1.946118 0.529116
v -24.943125 -2.449962 9.776387
v -12.970240 -1.472910 9.775560
v 3.483604 3.576931 5.563915
v 2.085499 4.985718 5.568399
v -0.054331 -1.276961 29.224411
v -0.054331 -1.276961 29.224411
v 2.085499 4.985718 5.568399
v -2.105690 4.986202 5.560924
v -0.054331 -1.276961 29.224411
v -2.105690 4.986202 5.560924
v -3.503735 3.577665 5.551707
v 20.366093 -0.535806 -5.750683
v 12.933688 -1.476149 9.820780
v 24.923670 -1.951920 0.616341
v 24.923670 -1.951920 0.616341
v 12.933688 -1.476149 9.820780
v 24.906433 -2.455873 9.863397
v 24.923670 -1.951920 0.616341
v 24.906433 -2.455873 9.863397
v 37.377296 -4.286297 5.251808
v -37.388466 -4.255281 0.496453
v -24.925953 -2.868486 0.524820
v -37.397198 -4.277267 5.121102
v -37.397198 -4.277267 5.121102
v -24.925953 -2.868486 0.524820
v -24.943125 -2.449962 9.776387
v -24.943125 -2.449962 9.776387
v -24.925953 -2.868486 0.524820
v -12.970240 -1.472910 9.775560
v -12.970240 -1.472910 9.775560
v -24.925953 -2.868486 0.524820
v -20.253883 -2.264788 -5.829822
v 20.275175 -2.269612 -5.758996
v 24.923624 -2.874616 0.611935
v 12.933688 -1.476149 9.820780
v 12.933688 -1.476149 9.820780
v 24.923624 -2.874616 0.611935
v 24.906433 -2.455873 9.863397
v 24.906433 -2.455873 9.863397
v 24.923624 -2.874616 0.611935
v 37.377296 -4.286297 5.251808
v 37.377296 -4.286297 5.251808
v 24.923624 -2.874616 0.611935
v 37.386024 -4.264312 0.627158
v -0.054331 -1.276961 29.224411
v -3.503735 3.577665 5.551707
v -12.970240 -1.472910 9.775560
v -12.970240 -1.472910 9.775560
v -3.503735 3.577665 5.551707
v -12.962070 -0.585658 5.515516
v -0.054331 -1.276961 29.224411
v 12.933688 -1.476149 9.820780
v 3.483604 3.576931 5.563915
v 3.483604 3.576931 5.563915
v 12.933688 -1.476149 9.820780
v 12.941617 -0.588898 5.560782
v -20.253883 -2.264788 -5.829822
v -24.925953 -2.868486 0.524820
v -24.925930 -1.946118 0.529116
v -20.344685 -0.530980 -5.821851
v 1.823756 -3.397019 13.722583
v -1.875037 -3.396759 13.716076
v -2.762617 -4.913972 -7.154165
v 2.788640 -4.914579 -7.144621
v 12.933688 -1.476149 9.820780
v 12.964808 -2.263103 -6.970476
v 12.964877 -0.529406 -6.962280
v 12.941617 -0.588898 5.560782
v 12.933688 -1.476149 9.820780
v 1.823756 -3.397019 13.722583
v 2.788640 -4.914579 -7.144621
v 12.964808 -2.263103 -6.970476
v -12.970240 -1.472910 9.775560
v -12.962070 -0.585658 5.515516
v -12.939051 -0.526166 -7.007499
v -12.939120 -2.259864 -7.015695
v 20.275175 -2.269612 -5.758996
v 20.366093 -0.535806 -5.750683
v 24.923670 -1.951920 0.616341
v 24.923624 -2.874616 0.611935
v -12.970240 -1.472910 9.775560
v -12.939120 -2.259864 -7.015695
v -2.762617 -4.913972 -7.154165
v -1.875037 -3.396759 13.716076
v -20.344685 -0.530980 -5.821851
v -24.925930 -1.946118 0.529116
v -12.970240 -1.472910 9.775560
v -24.925953 -2.868486 0.524820
v -37.388466 -4.255281 0.496453
v -24.925930 -1.946118 0.529116
v -12.970240 -1.472910 9.775560
v -1.875037 -3.396759 13.716076
v -0.054331 -1.276961 29.224411
v 12.933688 -1.476149 9.820780
v -0.054331 -1.276961 29.224411
v 1.823756 -3.397019 13.722583
v -1.875037 -3.396759 13.716076
v 1.823756 -3.397019 13.722583
v -0.054331 -1.276961 29.224411
v 37.386024 -4.264312 0.627158
v 24.923670 -1.951920 0.616341
v 37.377296 -4.286297 5.251808
v 24.923624 -2.874616 0.611935
v 24.923670 -1.951920 0.616341
v 37.386024 -4.264312 0.627158
v -3.480693 3.552321 -6.971586
v -2.065516 7.051235 -15.988198
v 2.125631 7.050642 -15.980937
v 3.506885 3.551588 -6.959424
v 2.102925 6.992330 -3.765572
v 2.125631 7.050642 -15.980937
v -2.065516 7.051235 -15.988198
v -2.088222 6.992922 -3.772833
v -12.939051 -0.526166 -7.007499
v -12.939120 -2.259864 -7.015695
v -20.253883 -2.264788 -5.829822
v -20.344685 -0.530980 -5.821851
v -7.390790 4.241610 -5.263577
v -7.402099 4.212421 0.923222
v -3.500952 3.577773 5.551939
v -3.480693 3.552321 -6.971586
v -12.962070 -0.585658 5.515516
v -11.103918 2.798122 0.910107
v -11.092631 2.827529 -5.276796
v -12.939051 -0.526166 -7.007499
v -11.092631 2.827529 -5.276796
v -7.390790 4.241610 -5.263577
v -3.480693 3.552321 -6.971586
v -12.939051 -0.526166 -7.007499
v -7.402099 4.212421 0.923222
v -7.390790 4.241610 -5.263577
v -11.092631 2.827529 -5.276796
v -11.103918 2.798122 0.910107
v -3.500952 3.577773 5.551939
v -7.402099 4.212421 0.923222
v -11.103918 2.798122 0.910107
v -12.962070 -0.585658 5.515516
v 7.410580 4.240023 -5.237659
v 3.506885 3.551588 -6.959424
v 3.480624 3.576931 5.563948
v 7.399251 4.210508 0.949031
v 12.941617 -0.588898 5.560782
v 12.964877 -0.529406 -6.962280
v 11.112285 2.824877 -5.237928
v 11.100934 2.795580 0.948653
v 11.112285 2.824877 -5.237928
v 12.964877 -0.529406 -6.962280
v 3.506885 3.551588 -6.959424
v 7.410580 4.240023 -5.237659
v 7.399251 4.210508 0.949031
v 11.100934 2.795580 0.948653
v 11.112285 2.824877 -5.237928
v 7.410580 4.240023 -5.237659
v 3.480624 3.576931 5.563948
v 12.941617 -0.588898 5.560782
v 11.100934 2.795580 0.948653
v 7.399251 4.210508 0.949031
v 12.964877 -0.529406 -6.962280
v 20.366093 -0.535806 -5.750683
v 20.275175 -2.269612 -5.758996
v 12.964808 -2.263103 -6.970476
v 3.506885 3.551588 -6.959424
v 2.125631 7.050642 -15.980937
v 2.102925 6.992330 -3.765572
v -2.088222 6.992922 -3.772833
v -2.065516 7.051235 -15.988198
v -3.480693 3.552321 -6.971586
v -12.939120 -2.259864 -7.015695
v -20.049500 -16.285780 -21.649338
v -20.253883 -2.264788 -5.829822
v -20.253883 -2.264788 -5.829822
v -20.049500 -16.285780 -21.649338
v -12.970240 -1.472910 9.775560
v -12.939120 -2.259864 -7.015695
v -12.970240 -1.472910 9.775560
v -20.049500 -16.285780 -21.649338
v -12.970240 -1.472910 9.775560
v -20.397022 14.163870 -21.420153
v -20.344685 -0.530980 -5.821851
v -12.939051 -0.526166 -7.007499
v -20.397022 14.163870 -21.420153
v -12.970240 -1.472910 9.775560
v -20.397022 14.163870 -21.420153
v -12.939051 -0.526166 -7.007499
v -20.344685 -0.530980 -5.821851
v 12.964808 -2.263103 -6.970476
v 20.275175 -2.269612 -5.758996
v 20.127842 -16.290491 -21.579058
v 20.275175 -2.269612 -5.758996
v 12.933688 -1.476149 9.820780
v 20.127842 -16.290491 -21.579058
v 12.964808 -2.263103 -6.970476
v 20.127842 -16.290491 -21.579058
v 12.933688 -1.476149 9.820780
v 12.933688 -1.476149 9.820780
v 20.366093 -0.535806 -5.750683
v 20.478033 14.158935 -21.348764
v 12.964877 -0.529406 -6.962280
v 12.933688 -1.476149 9.820780
v 20.478033 14.158935 -21.348764
v 20.478033 14.158935 -21.348764
v 20.366093 -0.535806 -5.750683
v 12.964877 -0.529406 -6.962280
v 2.788640 -4.914579 -7.144621
v -2.762617 -4.913972 -7.154165
v -3.480693 3.552321 -6.971586
v 3.506885 3.551588 -6.959424
v -2.762617 -4.913972 -7.154165
v -12.939120 -2.259864 -7.015695
v -12.939051 -0.526166 -7.007499
v -3.480693 3.552321 -6.971586
v 2.788640 -4.914579 -7.144621
v 3.506885 3.551588 -6.959424
v 12.964877 -0.529406 -6.962280
v 12.964808 -2.263103 -6.970476
vt 0.000000 -3.000000
vt 0.000000 -3.000000
vt 0.000000 -3.000000
vt 0.000000 -3.000000
vt 0.000000 -3.000000
vt 0.000000 -3.000000
vt 0.000000 -3.000000
vt 0.000000 -3.000000
vt 0.000000 -3.000000
vt 0.000000 -3.000000
vt 0.000000 -3.000000
vt 0.000000 -3.000000
vt 0.000000 -3.000000
vt 0.000000 -3.000000
vt 0.000000 -3.000000
vt 0.000000 -3.000000
vt 1.500000 0.453125
vt 1.500000 0.046875
vt 1.000000 0.000000
vt 1.000000 0.500000
vt -0.755859 -0.171875
vt -0.801758 0.170898
vt -0.944336 0.170898
vt -0.993652 -0.170898
vt -0.681641 1.514648
vt -0.681641 1.933594
vt -0.450195 1.933594
vt -0.450195 1.514648
vt -0.855957 -2.079102
vt -0.855957 -1.987305
vt -0.566895 -1.987305
vt -0.563477 -2.079102
vt -0.556641 -1.015625
vt -0.554688 -0.711914
vt -0.742676 -0.520508
vt -0.746094 -1.097656
vt -0.742676 -0.520508
vt -0.554688 -0.711914
vt -0.556641 -1.015625
vt -0.746094 -1.097656
vt 0.501465 -0.305664
vt 0.396484 -0.304688
vt 0.286133 -0.352539
vt 0.553223 -0.354492
vt 1.333008 1.703125
vt 1.334473 1.399414
vt 1.155273 1.399414
vt 1.153809 1.703125
vt 0.661621 0.784180
vt 0.510742 0.977539
vt 0.367676 0.977539
vt 0.296387 0.784180
vt -0.556641 -1.015625
vt -0.746094 -1.097656
vt -0.743164 -0.520508
vt -0.555176 -0.711914
vt -0.742676 -0.520508
vt -0.746094 -1.097656
vt -0.556641 -1.015625
vt -0.554688 -0.711914
vt 0.500977 -0.305664
vt 0.553223 -0.354492
vt 0.285645 -0.352539
vt 0.396484 -0.304688
vt 1.333008 1.703125
vt 1.153809 1.703125
vt 1.155273 1.399414
vt 1.334473 1.399414
vt 0.661621 0.784180
vt 0.296387 0.784180
vt 0.367676 0.977539
vt 0.510742 0.977539
vt -0.855957 -2.079102
vt -0.563965 -2.079102
vt -0.567383 -1.987305
vt -0.855957 -1.987305
vt -0.758789 1.624023
vt -0.681641 1.933594
vt -0.681641 1.514648
vt -0.681641 1.514648
vt -0.681641 1.933594
vt -0.758789 1.624023
vt -0.855957 -1.987305
vt -0.574219 -1.240234
vt -0.566895 -1.987305
vt 0.496094 -0.941406
vt 1.304199 -1.636719
vt -0.270020 -0.939453
vt 0.555176 -0.938477
vt -0.270020 -0.939453
vt 1.304199 -1.636719
vt -2.216797 -2.046875
vt -0.328613 -0.953125
vt -1.296875 -2.041992
vt -1.226074 -2.046875
vt -0.328613 -0.953125
vt -2.216797 -2.046875
vt -0.560059 -1.213867
vt -0.855957 -1.989258
vt -0.563477 -1.989258
vt -0.855957 -1.987305
vt -0.567383 -1.987305
vt -0.574219 -1.240234
vt 0.496094 -0.941406
vt -0.270020 -0.939453
vt 1.304199 -1.636719
vt 0.555176 -0.938477
vt 1.304199 -1.636719
vt -0.270020 -0.939453
vt -2.216797 -2.046875
vt -1.296875 -2.041992
vt -0.328613 -0.953125
vt -1.226074 -2.046875
vt -2.216797 -2.046875
vt -0.328613 -0.953125
vt -0.560547 -1.213867
vt -0.563965 -1.989258
vt -0.855957 -1.989258
vt -0.152344 0.504883
vt -1.141602 0.739258
vt -1.125977 0.838867
vt -0.156250 1.000000
vt -0.152344 0.504883
vt -0.155273 1.000000
vt -1.125000 0.837891
vt -1.141602 0.739258
vt -1.203125 0.849609
vt -1.203125 0.747559
vt -1.450684 0.849609
vt -1.450684 0.849609
vt -1.203125 0.747559
vt -1.450684 0.645508
vt -1.450684 0.849609
vt -1.450684 0.645508
vt -1.688477 0.645996
vt 2.603027 0.285645
vt 2.603027 0.243164
vt 3.411133 0.179688
vt 3.411133 0.179688
vt 2.603027 0.243164
vt 2.603027 0.116211
vt 3.411133 0.179688
vt 2.603027 0.116211
vt 2.603027 0.074219
vt -1.541504 0.990234
vt -1.688477 0.645996
vt -1.450684 0.849609
vt -1.450684 0.849609
vt -1.688477 0.645996
vt -1.450684 0.645508
vt -1.450684 0.849609
vt -1.450684 0.645508
vt -1.203125 0.747559
vt -1.203125 0.849609
vt -1.450684 0.849609
vt -1.203125 0.747559
vt -1.203125 0.747559
vt -1.450684 0.849609
vt -1.450684 0.645508
vt -1.450684 0.645508
vt -1.450684 0.849609
vt -1.688477 0.645996
vt -1.688477 0.645996
vt -1.450684 0.849609
vt -1.542969 0.990234
vt -1.542969 0.990234
vt -1.450684 0.849609
vt -1.688477 0.645996
vt -1.688477 0.645996
vt -1.450684 0.849609
vt -1.450684 0.645508
vt -1.450684 0.645508
vt -1.450684 0.849609
vt -1.203125 0.747559
vt -1.203125 0.747559
vt -1.450684 0.849609
vt -1.203125 0.849609
vt -0.820312 -0.517578
vt -0.092773 -0.514648
vt -0.186523 -0.789062
vt -0.186523 -0.789062
vt -0.092773 -0.514648
vt -0.057617 -0.771484
vt -0.820801 -0.515625
vt -0.186523 -0.787109
vt -0.092773 -0.513184
vt -0.092773 -0.513184
vt -0.186523 -0.787109
vt -0.058105 -0.769531
vt 0.145508 0.975586
vt 0.145508 0.975586
vt 0.145508 0.975586
vt 0.145508 0.975586
vt -0.777344 -0.766113
vt -0.778320 -0.867188
vt -0.143066 -0.901367
vt -0.142090 -0.749512
vt 0.803223 0.626465
vt 0.930176 1.082520
vt 0.741699 0.805176
vt 0.742188 0.693359
vt -0.186523 -0.787109
vt -0.346191 -0.502441
vt 0.286621 -0.441406
vt 0.319824 -0.718262
vt 0.803223 0.626465
vt 0.742188 0.693359
vt 0.741699 0.805176
vt 0.930176 1.082520
vt 0.145508 0.975586
vt 0.145508 0.975586
vt 0.145508 0.975586
vt 0.145508 0.975586
vt -0.186523 -0.789062
vt 0.319824 -0.719727
vt 0.286621 -0.443359
vt -0.346191 -0.503906
vt -1.541504 0.990234
vt -1.450684 0.849609
vt -1.688477 0.645996
vt 0.397949 0.303223
vt 0.397949 0.303223
vt 0.397949 0.303223
vt -0.186523 -0.789062
vt -0.346191 -0.503906
vt -0.820312 -0.517578
vt -0.186523 -0.787109
vt -0.820801 -0.515625
vt -0.346191 -0.502441
vt -0.778320 -0.867188
vt -0.777344 -0.766113
vt -1.249512 -0.824219
vt -1.203125 0.849609
vt -1.450684 0.849609
vt -1.203125 0.747559
vt 0.397949 0.303223
vt 0.397949 0.303223
vt 0.397949 0.303223
vn 0.7098 0.7044 -0.0001
vn 0.9448 0.3200 0.0706
vn -0.7097 0.7045 -0.0027
vn -0.9450 0.3201 0.0671
vn -0.0002 0.9777 0.2102
vn 0.0017 0.0217 -0.9998
vn 0.0005 -0.9323 -0.3617
vn 0.0001 1.0000 0.0048
vn -0.1591 0.0004 -0.9873
vn 0.1669 0.9860 0.0005
vn -0.8761 0.4820 0.0007
vn -0.2305 0.5595 -0.7961
vn -0.3569 0.9341 0.0038
vn -0.3522 0.8272 0.4379
vn -0.1667 0.9860 -0.0001
vn 0.8762 0.4819 0.0039
vn 0.2335 0.5595 -0.7953
vn 0.3571 0.9341 0.0051
vn 0.3508 0.8271 0.4392
vn 0.1625 0.0004 -0.9867
vn 0.9270 0.3750 0.0035
vn -0.9270 0.3751 0.0001
vn -0.1075 0.7433 -0.6602
vn -0.7967 -0.4574 0.3951
vn 0.8815 -0.4716 0.0237
vn -0.8062 0.4293 0.4071
vn 0.8798 0.4745 0.0284
vn -0.1086 -0.7237 -0.6815
vn 0.1100 0.7433 -0.6598
vn 0.7952 -0.4574 0.3980
vn -0.8816 -0.4715 0.0205
vn 0.8048 0.4291 0.4101
vn -0.8798 0.4747 0.0251
vn 0.1109 -0.7238 -0.6811
vn -0.0065 0.0182 -0.9998
vn 0.0101 0.0182 -0.9998
vn -0.1822 0.9833 0.0043
vn -0.1645 0.9849 0.0534
vn -0.0812 0.9952 0.0541
vn 0.6889 0.6829 0.2431
vn -0.0003 0.9667 0.2559
vn -0.6897 0.6830 0.2406
vn 0.1335 0.9834 0.1231
vn 0.0812 0.9952 0.0544
vn 0.1645 0.9849 0.0540
vn 0.1106 -0.9939 -0.0045
vn 0.1285 -0.9907 0.0451
vn 0.0813 -0.9957 0.0452
vn 0.1204 -0.9927 -0.0058
vn -0.1206 -0.9927 -0.0063
vn -0.0816 -0.9956 0.0449
vn -0.1289 -0.9907 0.0446
vn -0.1108 -0.9938 -0.0049
vn -0.3723 0.8970 0.2382
vn -0.3964 0.8989 0.1865
vn 0.3717 0.8969 0.2396
vn 0.3960 0.8988 0.1879
vn -0.8062 -0.0248 -0.5911
vn -0.0002 -0.9974 0.0725
vn 1.0000 -0.0000 0.0019
vn 0.2205 -0.9732 0.0654
vn -1.0000 0.0001 -0.0019
vn 0.8084 -0.0249 -0.5882
vn -0.2210 -0.9731 0.0646
vn -0.1338 0.9834 0.1226
vn 0.0018 0.0047 -1.0000
vn -0.2228 -0.9620 0.1577
vn 0.2220 -0.9621 0.1585
vn -0.0003 -0.9908 0.1355
vn 0.1824 0.9832 0.0050
vn 0.0018 0.0048 -1.0000
usemtl NDS_Material
s 1
f 1/1/1 2/2/1 3/3/1
f 4/4/2 5/5/2 6/6/2
f 7/7/3 8/8/3 9/9/3
f 10/10/4 11/11/4 12/12/4
f 13/13/5 14/14/5 15/15/5 16/16/5
usemtl NDS_Material.003
f 227/17/6 228/18/6 229/19/6 230/20/6
usemtl NDS_Material.002
f 129/21/7 130/22/7 131/23/7 132/24/7
f 133/25/8 134/26/8 135/27/8 136/28/8
f 137/29/9 138/30/9 139/31/9 140/32/9
f 141/33/10 142/34/10 143/35/10 144/36/10
f 145/37/11 146/38/11 147/39/11 148/40/11
f 149/41/12 150/42/12 151/43/12 152/44/12
f 153/45/13 154/46/13 155/47/13 156/48/13
f 157/49/14 158/50/14 159/51/14 160/52/14
f 161/53/15 162/54/15 163/55/15 164/56/15
f 165/57/16 166/58/16 167/59/16 168/60/16
f 169/61/17 170/62/17 171/63/17 172/64/17
f 173/65/18 174/66/18 175/67/18 176/68/18
f 177/69/19 178/70/19 179/71/19 180/72/19
f 181/73/20 182/74/20 183/75/20 184/76/20
f 185/77/21 186/78/21 187/79/21
f 188/80/22 189/81/22 190/82/22
f 191/83/23 192/84/23 193/85/23
f 194/86/24 195/87/24 196/88/24
f 197/89/25 198/90/25 199/91/25
f 200/92/26 201/93/26 202/94/26
f 203/95/27 204/96/27 205/97/27
f 206/98/28 207/99/28 208/100/28
f 209/101/29 210/102/29 211/103/29
f 212/104/30 213/105/30 214/106/30
f 215/107/31 216/108/31 217/109/31
f 218/110/32 219/111/32 220/112/32
f 221/113/33 222/114/33 223/115/33
f 224/116/34 225/117/34 226/118/34
usemtl NDS_Material.004
f 231/119/35 232/120/35 233/121/35 234/122/35
f 235/123/36 236/124/36 237/125/36 238/126/36
usemtl NDS_Material.001
f 17/127/37 18/128/37 19/129/37
f 20/130/38 21/131/38 22/132/38
f 23/133/39 24/134/39 25/135/39
f 26/136/40 27/137/40 28/138/40
f 29/139/41 30/140/41 31/141/41
f 32/142/42 33/143/42 34/144/42
f 35/145/43 36/146/43 37/147/43
f 38/148/44 39/149/44 40/150/44
f 41/151/45 42/152/45 43/153/45
f 44/154/46 45/155/46 46/156/46
f 47/157/47 48/158/47 49/159/47
f 50/160/48 51/161/48 52/162/48
f 53/163/49 54/164/49 55/165/49
f 56/166/50 57/167/50 58/168/50
f 59/169/51 60/170/51 61/171/51
f 62/172/52 63/173/52 64/174/52
f 65/175/53 66/176/53 67/177/53
f 68/178/54 69/179/54 70/180/54
f 71/181/55 72/182/55 73/183/55
f 74/184/56 75/185/56 76/186/56
f 77/187/57 78/188/57 79/189/57
f 80/190/58 81/191/58 82/192/58 83/193/58
f 84/194/59 85/195/59 86/196/59 87/197/59
f 88/198/60 89/199/60 90/200/60 91/201/60
f 92/202/61 93/203/61 94/204/61 95/205/61
f 96/206/62 97/207/62 98/208/62 99/209/62
f 100/210/63 101/211/63 102/212/63 103/213/63
f 104/214/64 105/215/64 106/216/64 107/217/64
f 108/218/65 109/219/65 110/220/65
f 111/221/66 112/222/66 113/223/66
f 114/224/67 115/225/67 116/226/67
f 117/227/68 118/228/68 119/229/68
f 120/230/69 121/231/69 122/232/69
f 123/233/70 124/234/70 125/235/70
f 126/236/71 127/237/71 128/238/71
