# Blender v2.79 (sub 0) OBJ File: ''
# www.blender.org
mtllib CatsPaw2.mtl
o Melon_Rip
v 0.503108 -6.526978 -7.129509
v 0.886170 -5.381021 -8.542953
v 4.652706 -5.502111 -6.278118
v 3.609661 -6.643854 -5.259137
v 3.609661 -6.643854 -5.259137
v 4.652706 -5.502111 -6.278118
v 6.920377 -5.628366 -2.439723
v 5.495625 -6.707362 -2.066155
v 5.538688 -6.798922 1.619563
v 6.974237 -5.739083 2.018527
v 4.775479 -5.804719 5.899766
v 3.711666 -6.895205 4.848922
v 3.711666 -6.895205 4.848922
v 4.775479 -5.804719 5.899766
v 1.055512 -5.798479 8.242470
v 0.643472 -6.872862 6.781252
v 0.528072 6.536064 7.119131
v 0.959252 5.397109 8.524658
v 4.677526 5.584055 6.186797
v 3.594735 6.707014 5.191791
v 3.594735 6.707014 5.191791
v 4.677526 5.584055 6.186797
v 6.875495 5.749338 2.308128
v 5.421758 6.803298 1.962431
v 5.378778 6.894639 -1.723219
v 6.821634 5.860055 -2.150122
v 4.554916 5.886769 -5.990940
v 3.492730 6.958365 -4.916269
v 3.492730 6.958365 -4.916269
v 4.554916 5.886769 -5.990940
v 0.789910 5.814567 -8.260766
v 0.387870 6.882055 -6.791483
v 6.974237 -5.739083 2.018527
v 5.538688 -6.798922 1.619563
v 6.948848 -5.683617 -0.212165
v 6.948848 -5.683617 -0.212165
v 5.538688 -6.798922 1.619563
v 5.495625 -6.707362 -2.066155
v 6.948848 -5.683617 -0.212165
v 5.495625 -6.707362 -2.066155
v 6.920377 -5.628366 -2.439723
v 6.875495 5.749338 2.308128
v 6.850105 5.804804 0.077435
v 5.421758 6.803298 1.962431
v 5.421758 6.803298 1.962431
v 6.850105 5.804804 0.077435
v 5.378778 6.894639 -1.723219
v 0.886170 -5.381021 -8.542953
v 0.503108 -6.526978 -7.129509
v -17.829027 -5.897477 -6.931502
v -17.852036 -4.875029 -8.343833
v -17.682692 -5.292487 8.441591
v -17.688663 -6.243361 6.979258
v 0.643472 -6.872862 6.781252
v 1.055512 -5.798479 8.242470
v -17.936714 4.979610 -8.095396
v -17.930582 5.930490 -6.633246
v 0.387870 6.882055 -6.791483
v 0.789910 5.814567 -8.260766
v 0.959252 5.397109 8.524658
v 0.528072 6.536064 7.119131
v -17.790218 5.584607 7.277515
v -17.767372 4.562152 8.690028
v 9.979318 -2.682922 17.831860
v 15.867965 -2.400058 6.982332
v 15.827446 2.319342 7.101338
v 9.939384 1.960296 17.948883
v 15.722863 -2.042184 -7.408492
v 9.616542 -1.788493 -18.139343
v 9.576609 2.854725 -18.022320
v 15.682344 2.677215 -7.289485
v 6.821634 5.860055 -2.150122
v 5.378778 6.894639 -1.723219
v 6.850105 5.804804 0.077435
v -17.688663 -6.243361 6.979258
v -17.790218 5.584607 7.277515
v -17.860481 5.757545 0.322226
v -17.758926 -6.070422 0.023970
v -17.758926 -6.070422 0.023970
v -17.860481 5.757545 0.322226
v -17.930582 5.930490 -6.633246
v -17.829027 -5.897477 -6.931502
v -17.682692 -5.292487 8.441591
v -17.767372 4.562152 8.690028
v -17.790218 5.584607 7.277515
v -17.688663 -6.243361 6.979258
v -17.930582 5.930490 -6.633246
v -17.936714 4.979610 -8.095396
v -17.852036 -4.875029 -8.343833
v -17.829027 -5.897477 -6.931502
v 6.974237 -5.739083 2.018527
v 6.948848 -5.683617 -0.212165
v 15.795455 -2.221231 -0.213046
v 15.867965 -2.400058 6.982332
v 15.867965 -2.400058 6.982332
v 15.795455 -2.221231 -0.213046
v 15.754853 2.498388 -0.094106
v 15.827446 2.319342 7.101338
v 15.827446 2.319342 7.101338
v 15.754853 2.498388 -0.094106
v 6.850105 5.804804 0.077435
v 6.875495 5.749338 2.308128
v 6.948848 -5.683617 -0.212165
v 6.920377 -5.628366 -2.439723
v 15.722863 -2.042184 -7.408492
v 15.795455 -2.221231 -0.213046
v 15.795455 -2.221231 -0.213046
v 15.722863 -2.042184 -7.408492
v 15.682344 2.677215 -7.289485
v 15.754853 2.498388 -0.094106
v 15.754853 2.498388 -0.094106
v 15.682344 2.677215 -7.289485
v 6.821634 5.860055 -2.150122
v 6.850105 5.804804 0.077435
v 9.576609 2.854725 -18.022320
v 9.616542 -1.788493 -18.139343
v -2.439410 -1.627772 -24.014992
v -2.477292 2.781331 -23.903835
v -2.477292 2.781331 -23.903835
v -2.439410 -1.627772 -24.014992
v -18.034584 -1.530535 -23.857340
v -18.068527 2.410231 -23.758066
v -17.584824 1.217659 24.203535
v -17.550880 -2.723106 24.104261
v -1.955709 -2.820343 23.946611
v -1.993591 1.588761 24.057768
v -1.993591 1.588761 24.057768
v -1.955709 -2.820343 23.946611
v 9.979318 -2.682922 17.831860
v 9.939384 1.960296 17.948883
v 6.821634 5.860055 -2.150122
v 15.682344 2.677215 -7.289485
v 4.554916 5.886769 -5.990940
v 4.554916 5.886769 -5.990940
v 15.682344 2.677215 -7.289485
v 9.576609 2.854725 -18.022320
v 4.554916 5.886769 -5.990940
v 9.576609 2.854725 -18.022320
v 0.789910 5.814567 -8.260766
v 0.789910 5.814567 -8.260766
v 9.576609 2.854725 -18.022320
v -2.477292 2.781331 -23.903835
v 15.722863 -2.042184 -7.408492
v 4.652706 -5.502111 -6.278118
v 9.616542 -1.788493 -18.139343
v 9.616542 -1.788493 -18.139343
v 4.652706 -5.502111 -6.278118
v 0.886170 -5.381021 -8.542953
v 9.616542 -1.788493 -18.139343
v 0.886170 -5.381021 -8.542953
v -2.439410 -1.627772 -24.014992
v 15.867965 -2.400058 6.982332
v 9.979318 -2.682922 17.831860
v 4.775479 -5.804719 5.899766
v 4.775479 -5.804719 5.899766
v 9.979318 -2.682922 17.831860
v 1.055512 -5.798479 8.242470
v -1.993591 1.588761 24.057768
v 9.939384 1.960296 17.948883
v 0.959252 5.397109 8.524658
v 0.959252 5.397109 8.524658
v 9.939384 1.960296 17.948883
v 4.677526 5.584055 6.186797
v 9.939384 1.960296 17.948883
v 15.827446 2.319342 7.101338
v 4.677526 5.584055 6.186797
v 4.677526 5.584055 6.186797
v 15.827446 2.319342 7.101338
v 6.875495 5.749338 2.308128
v -17.584824 1.217659 24.203535
v -1.993591 1.588761 24.057768
v 0.959252 5.397109 8.524658
v -17.767372 4.562152 8.690028
v -18.034584 -1.530535 -23.857340
v -50.311275 -0.738811 -11.681331
v -50.321709 0.461559 -11.651175
v -18.068527 2.410231 -23.758066
v -18.068527 2.410231 -23.758066
v -17.936714 4.979610 -8.095396
v 0.789910 5.814567 -8.260766
v -2.477292 2.781331 -23.903835
v -50.066204 -1.343212 12.624364
v -17.550880 -2.723106 24.104261
v -17.584824 1.217659 24.203535
v -50.076473 -0.142736 12.654671
v -17.852036 -4.875029 -8.343833
v -18.034584 -1.530535 -23.857340
v -2.439410 -1.627772 -24.014992
v 0.886170 -5.381021 -8.542953
v -17.550880 -2.723106 24.104261
v -17.682692 -5.292487 8.441591
v 1.055512 -5.798479 8.242470
v -1.955709 -2.820343 23.946611
v 6.974237 -5.739083 2.018527
v 15.867965 -2.400058 6.982332
v 4.775479 -5.804719 5.899766
v 4.652706 -5.502111 -6.278118
v 15.722863 -2.042184 -7.408492
v 6.920377 -5.628366 -2.439723
v -1.955709 -2.820343 23.946611
v 1.055512 -5.798479 8.242470
v 9.979318 -2.682922 17.831860
v -17.852036 -4.875029 -8.343833
v -50.311275 -0.738811 -11.681331
v -18.034584 -1.530535 -23.857340
v -50.321709 0.461559 -11.651175
v -17.936714 4.979610 -8.095396
v -18.068527 2.410231 -23.758066
v -17.584824 1.217659 24.203535
v -17.767372 4.562152 8.690028
v -50.076473 -0.142736 12.654671
v -17.682692 -5.292487 8.441591
v -17.550880 -2.723106 24.104261
v -50.066204 -1.343212 12.624364
v 5.495625 -6.707362 -2.066155
v 5.538688 -6.798922 1.619563
v 3.711666 -6.895205 4.848922
v 3.609661 -6.643854 -5.259137
v 3.609661 -6.643854 -5.259137
v 3.711666 -6.895205 4.848922
v 0.643472 -6.872862 6.781252
v 0.503108 -6.526978 -7.129509
v 5.421758 6.803298 1.962431
v 5.378778 6.894639 -1.723219
v 3.492730 6.958365 -4.916269
v 3.594735 6.707014 5.191791
v 3.594735 6.707014 5.191791
v 3.492730 6.958365 -4.916269
v 0.387870 6.882055 -6.791483
v 0.528072 6.536064 7.119131
v -17.790218 5.584607 7.277515
v 0.528072 6.536064 7.119131
v -17.860481 5.757545 0.322226
v -17.860481 5.757545 0.322226
v 0.528072 6.536064 7.119131
v 0.387870 6.882055 -6.791483
v -17.860481 5.757545 0.322226
v 0.387870 6.882055 -6.791483
v -17.930582 5.930490 -6.633246
v -17.688663 -6.243361 6.979258
v -17.758926 -6.070422 0.023970
v 0.643472 -6.872862 6.781252
v 0.643472 -6.872862 6.781252
v -17.758926 -6.070422 0.023970
v 0.503108 -6.526978 -7.129509
v 15.852802 -0.631702 7.026941
v 30.251608 -0.528838 7.483806
v 30.241261 0.671312 7.514030
v 15.842607 0.550987 7.056728
v 30.241261 0.671312 7.514030
v 30.251608 -0.528838 7.483806
v 14.872406 -0.682194 8.834055
v 14.862179 0.494711 8.863623
v 15.707539 -0.273936 -7.364028
v 15.697507 0.908859 -7.334095
v 30.084045 1.058795 -8.071151
v 30.094397 -0.141356 -8.101374
v 30.084045 1.058795 -8.071151
v 14.680791 0.941925 -9.121980
v 14.691017 -0.234981 -9.151548
v 30.094397 -0.141356 -8.101374
v -1.969872 -1.166043 23.988363
v 6.383538 -1.011495 19.708250
v 4.864896 -1.153938 47.918736
v -0.532150 -1.201429 47.971165
v 6.373649 0.136267 19.737160
v -1.979267 -0.065432 24.016165
v -0.532150 -1.201429 47.971165
v 4.864896 -1.153938 47.918736
v -2.453573 0.026529 -23.973240
v -1.499554 1.183713 -47.952045
v 3.897494 1.231203 -48.004475
v 5.984476 -0.027727 -19.857733
v 5.974586 1.120036 -19.828823
v 3.897494 1.231203 -48.004475
v -1.499554 1.183713 -47.952045
v -2.462967 1.127138 -23.945438
v 15.852802 -0.631702 7.026941
v 14.872406 -0.682194 8.834055
v 30.251608 -0.528838 7.483806
v 30.241261 0.671312 7.514030
v 14.862179 0.494711 8.863623
v 15.842607 0.550987 7.056728
v 15.707539 -0.273936 -7.364028
v 30.094397 -0.141356 -8.101374
v 14.691017 -0.234981 -9.151548
v 30.084045 1.058795 -8.071151
v 15.697507 0.908859 -7.334095
v 14.680791 0.941925 -9.121980
v -1.979267 -0.065432 24.016165
v -1.969872 -1.166043 23.988363
v -0.532150 -1.201429 47.971165
v 6.383538 -1.011495 19.708250
v 6.373649 0.136267 19.737160
v 4.864896 -1.153938 47.918736
v -2.462967 1.127138 -23.945438
v -1.499554 1.183713 -47.952045
v -2.453573 0.026529 -23.973240
v 5.984476 -0.027727 -19.857733
v 3.897494 1.231203 -48.004475
v 5.974586 1.120036 -19.828823
v -17.758926 -6.070422 0.023970
v -17.829027 -5.897477 -6.931502
v 0.503108 -6.526978 -7.129509
v -17.767372 4.562152 8.690028
v -17.682692 -5.292487 8.441591
v -50.066204 -1.343212 12.624364
v -50.076473 -0.142736 12.654671
v -50.321709 0.461559 -11.651175
v -50.311275 -0.738811 -11.681331
v -17.852036 -4.875029 -8.343833
v -17.936714 4.979610 -8.095396
vt 0.360840 0.737305
vt 0.296875 0.737305
vt 0.296875 0.996094
vt 0.503418 0.996094
vt 0.503418 0.996094
vt 0.296875 0.996094
vt 0.296875 0.996094
vt 0.503418 0.996094
vt 0.503418 0.996094
vt 0.296875 0.996094
vt 0.296875 0.737305
vt 0.360840 0.737305
vt 0.296875 0.737305
vt 0.360840 0.736816
vt 0.503418 0.996094
vt 0.296875 0.996094
vt 0.296875 0.996094
vt 0.503418 0.996094
vt 0.503418 0.996094
vt 0.296875 0.996094
vt 0.296875 0.996094
vt 0.503418 0.996094
vt 0.360840 0.736816
vt 0.296875 0.737305
vt 0.812988 0.822266
vt 0.812988 0.822266
vt 0.984863 0.467285
vt 0.984863 0.467285
vt 0.984863 0.467285
vt 0.984863 0.467285
vt 0.984863 0.005371
vt 0.984863 0.005371
vt 0.984863 0.005371
vt 0.984863 0.005371
vt 0.984863 0.467285
vt 0.984863 0.467285
vt 0.984863 0.467285
vt 0.984863 0.467285
vt 0.812988 0.822266
vt 0.812988 0.822266
vt 0.360840 0.736816
vt 0.503418 0.996094
vt 0.471680 0.670898
vt 0.471680 0.670898
vt 0.503418 0.996094
vt 0.812988 0.822266
vt 0.471680 0.670898
vt 0.812988 0.822266
vt 0.537598 0.560059
vt 0.537598 0.560059
vt 0.812988 0.822266
vt 0.984863 0.467285
vt 0.503418 0.996094
vt 0.471680 0.670898
vt 0.812988 0.822266
vt 0.812988 0.822266
vt 0.471680 0.670898
vt 0.537598 0.560059
vt 0.812988 0.822266
vt 0.537598 0.560059
vt 0.984863 0.467285
vt 0.503418 0.996094
vt 0.812988 0.822266
vt 0.471680 0.670898
vt 0.471680 0.670898
vt 0.812988 0.822266
vt 0.537598 0.560059
vt 0.984863 0.467285
vt 0.812988 0.822266
vt 0.537598 0.560059
vt 0.537598 0.560059
vt 0.812988 0.822266
vt 0.471680 0.670898
vt 0.812988 0.822266
vt 0.503418 0.996094
vt 0.471680 0.670898
vt 0.471680 0.670898
vt 0.503418 0.996094
vt 0.360840 0.737305
vt 0.984863 0.005371
vt 0.984863 0.467285
vt 0.537598 0.560059
vt 0.537598 0.005371
vt 0.491211 0.008301
vt 0.042480 0.912598
vt 0.042480 0.912598
vt 0.491211 0.008301
vt 0.984863 0.005371
vt 0.537598 0.005371
vt 0.537598 0.560059
vt 0.984863 0.467285
vt 0.042480 0.912598
vt 0.491211 0.008301
vt 0.491211 0.008301
vt 0.042480 0.912598
vt 0.537598 0.005371
vt 0.984863 0.005371
vt 0.984863 0.467285
vt 0.537598 0.560059
vt 0.984863 0.005371
vt 0.537598 0.005371
vt 0.537598 0.560059
vt 0.984863 0.467285
vt 0.360840 0.737305
vt 0.503418 0.996094
vt 0.471680 0.670898
vt 0.471680 0.670898
vt 0.503418 0.996094
vt 0.360840 0.736816
vt 0.984863 0.467285
vt 0.537598 0.560059
vt 0.812988 0.822266
vt 0.043945 0.008301
vt 0.042480 0.912598
vt 0.491211 0.008301
vt 0.042480 0.912598
vt 0.043945 0.008301
vt 0.491211 0.008301
vt 0.491211 0.008301
vt 0.043457 0.008301
vt 0.042480 0.912598
vt 0.043457 0.008301
vt 0.491211 0.008301
vt 0.042480 0.912598
vt 0.218750 0.725586
vt 0.218750 0.790039
vt 0.328125 0.790039
vt 0.328125 0.725586
vt 0.328125 0.725586
vt 0.328125 0.790039
vt 0.437500 0.790039
vt 0.437500 0.725586
vt 0.218750 0.725586
vt 0.218750 0.790039
vt 0.328125 0.790039
vt 0.328125 0.725586
vt 0.328125 0.725586
vt 0.328125 0.790039
vt 0.437500 0.790039
vt 0.437500 0.725586
vt 0.218750 0.790039
vt 0.218750 0.725586
vt 0.328125 0.725586
vt 0.328125 0.790039
vt 0.328125 0.790039
vt 0.328125 0.725586
vt 0.437500 0.725586
vt 0.437500 0.790039
vt 0.218750 0.790039
vt 0.218750 0.725586
vt 0.328125 0.725586
vt 0.328125 0.790039
vt 0.328125 0.790039
vt 0.328125 0.725586
vt 0.437500 0.725586
vt 0.437500 0.790039
vt 0.000000 0.790039
vt 0.000000 0.725586
vt 0.000000 0.790039
vt 0.000000 0.790039
vt 0.000000 0.725586
vt 0.000000 0.725586
vt 0.000000 0.790039
vt 0.000000 0.725586
vt 0.000000 0.790039
vt 0.000000 0.725586
vt 0.000000 0.725586
vt 0.000000 0.790039
vt 0.000000 0.790039
vt 0.000000 0.725586
vt 0.000000 0.790039
vt 0.437500 0.790039
vt 0.437500 0.725586
vt 0.000000 0.725586
vt 0.000000 0.790039
vt 0.437500 0.790039
vt 0.437500 0.725586
vt 0.000000 0.725586
vt 0.000000 0.790039
vt 0.437500 0.725586
vt 0.437500 0.790039
vt 0.000000 0.790039
vt 0.000000 0.725586
vt 0.437500 0.725586
vt 0.437500 0.790039
vt 0.000000 0.790039
vt 0.000000 0.725586
vt 0.437500 0.808105
vt 0.000000 0.808105
vt 0.000000 0.980469
vt 0.437500 0.980469
vt 0.000000 0.808105
vt 0.437500 0.808105
vt 0.437500 0.980469
vt 0.000000 0.980469
vt 0.000000 0.725586
vt 0.000000 0.790039
vt 0.000000 0.725586
vt 1.440918 0.002441
vt 1.440918 0.433105
vt 1.652344 0.433105
vt 1.652344 0.002441
vt 1.652344 0.002441
vt 1.652344 0.433105
vt 1.440918 0.433105
vt 1.440918 0.002441
vt 0.035156 0.725586
vt 0.402344 0.725586
vt 0.437500 0.790039
vt 0.000000 0.790039
vt 0.437500 0.790039
vt 0.402344 0.725586
vt 0.035156 0.725586
vt 0.000000 0.790039
vt -0.723633 0.716797
vt -0.838867 0.717285
vt -0.938965 0.660156
vt -0.623535 0.660156
vt -0.623535 0.660156
vt -0.938965 0.660156
vt -0.998047 0.565430
vt -0.564453 0.565430
vt -0.838867 0.717285
vt -0.723633 0.716797
vt -0.623535 0.660156
vt -0.938965 0.660156
vt -0.938965 0.660156
vt -0.623535 0.660156
vt -0.564453 0.565430
vt -0.998047 0.565430
vt -0.998047 0.003418
vt -0.998047 0.565430
vt -0.781250 0.003418
vt -0.781250 0.003418
vt -0.998047 0.565430
vt -0.564453 0.565430
vt -0.781250 0.003418
vt -0.564453 0.565430
vt -0.564453 0.003418
vt -0.998047 0.003418
vt -0.781250 0.003418
vt -0.998047 0.565430
vt -0.998047 0.565430
vt -0.781250 0.003418
vt -0.564453 0.565430
vt 0.478027 0.983887
vt 0.991211 0.962402
vt 0.991211 0.962402
vt 0.478027 0.983887
vt 0.991211 0.962402
vt 0.991211 0.962402
vt 0.442383 0.919922
vt 0.442383 0.919922
vt 0.478027 0.983887
vt 0.478027 0.983887
vt 0.991211 0.962402
vt 0.991211 0.962402
vt 0.991211 0.962402
vt 0.442383 0.919922
vt 0.442383 0.919922
vt 0.991211 0.962402
vt -0.246094 0.141602
vt -0.003906 0.005371
vt -0.055664 0.920898
vt -0.211426 0.920898
vt -0.003906 0.005371
vt -0.246094 0.141602
vt -0.211426 0.920898
vt -0.055664 0.920898
vt -0.246094 0.141602
vt -0.211426 0.920898
vt -0.055664 0.920898
vt -0.003906 0.005371
vt -0.003906 0.005371
vt -0.055664 0.920898
vt -0.211426 0.920898
vt -0.246094 0.141602
vt 0.478027 0.983887
vt 0.442383 0.919922
vt 0.991211 0.962402
vt 0.991211 0.962402
vt 0.442383 0.919922
vt 0.478027 0.983887
vt 0.478027 0.983887
vt 0.991211 0.962402
vt 0.442383 0.919922
vt 0.991211 0.962402
vt 0.478027 0.983887
vt 0.442383 0.919922
vt -0.246094 0.141602
vt -0.246094 0.141602
vt -0.211426 0.920898
vt -0.003906 0.005371
vt -0.003906 0.005371
vt -0.055664 0.920898
vt -0.246094 0.141602
vt -0.211426 0.920898
vt -0.246094 0.141602
vt -0.003906 0.005371
vt -0.055664 0.920898
vt -0.003906 0.005371
vt -0.781250 0.003418
vt -0.564453 0.003418
vt -0.564453 0.565430
vt 1.661621 0.435059
vt 1.661621 0.004395
vt 1.745605 0.193359
vt 1.745605 0.246094
vt 1.745605 0.246094
vt 1.745605 0.193359
vt 1.661621 0.004395
vt 1.661621 0.435059
vn 0.3644 -0.9309 -0.0269
vn 0.9999 0.0088 -0.0099
vn 0.3484 0.9371 0.0197
vn 0.3642 -0.9309 -0.0271
vn 0.3482 0.9372 0.0196
vn 0.4382 0.0264 -0.8985
vn -0.0099 0.0251 -0.9996
vn 0.0099 -0.0251 0.9996
vn 0.4561 -0.0185 0.8898
vn 0.2584 0.9550 -0.1459
vn 0.2604 0.9564 -0.1323
vn 0.1033 0.9739 -0.2023
vn 0.0959 0.9733 -0.2088
vn 0.2767 -0.9440 -0.1798
vn 0.1198 -0.9606 -0.2506
vn 0.1125 -0.9598 -0.2570
vn 0.2797 -0.9517 0.1270
vn 0.1243 -0.9719 0.2000
vn 0.1006 0.9617 0.2549
vn 0.1078 0.9627 0.2484
vn 0.2635 0.9488 0.1744
vn 0.2617 0.9465 0.1886
vn -0.0322 0.9746 0.2217
vn -0.3524 0.0205 -0.9356
vn -0.0362 0.9844 -0.1722
vn -0.3338 -0.0266 0.9423
vn -0.0194 -0.9750 -0.2212
vn -0.0155 -0.9848 0.1728
vn 0.2778 -0.9502 0.1413
vn 0.2747 -0.9419 -0.1932
vn 0.1171 -0.9714 0.2067
vn -0.1025 -0.9726 -0.2085
vn -0.1192 0.9799 -0.1598
vn -0.1155 0.9707 0.2106
vn -0.0988 -0.9818 0.1619
vn 0.3049 -0.7765 -0.5515
vn 0.5220 -0.7867 -0.3296
vn 0.5274 -0.8020 0.2803
vn 0.3155 -0.8026 0.5063
vn 0.3020 0.7815 0.5459
vn 0.5138 0.7959 0.3202
vn 0.5083 0.8110 -0.2897
vn 0.2914 0.8082 -0.5118
vn 0.5985 -0.8007 -0.0267
vn 0.5984 -0.8007 -0.0269
vn 0.5989 -0.8003 -0.0275
vn 0.5848 0.8111 0.0135
vn 0.5846 0.8112 0.0133
vn -0.0308 -0.7911 -0.6110
vn -0.0190 -0.8206 0.5712
vn -0.0445 0.8200 -0.5706
vn -0.0328 0.7905 0.6116
vn 0.8789 -0.0045 0.4769
vn 0.8692 0.0199 -0.4941
vn 0.5851 0.8108 0.0126
vn -0.9999 -0.0088 0.0099
vn -0.9999 -0.0088 0.0098
vn 0.0086 -0.9997 -0.0249
vn -0.0228 -0.9994 -0.0246
vn -0.0085 0.9997 0.0249
vn -0.0398 0.9989 0.0252
vn -0.0516 0.9983 0.0253
vn -0.0516 0.9983 0.0254
vn -0.0346 -0.9991 -0.0245
vn -0.0315 -0.0254 0.9992
vn -0.0877 0.0243 -0.9959
vn -0.0514 0.0248 -0.9984
vn -0.0678 -0.0257 0.9974
vn 0.0136 -0.9999 -0.0034
vn -0.0035 0.9989 0.0465
vn 0.0132 -0.9988 -0.0466
vn -0.0039 1.0000 0.0033
vn -0.0079 0.9997 0.0237
vn 0.0092 -0.9996 -0.0262
vn -0.0079 0.9996 0.0263
vn 0.0092 -0.9997 -0.0237
vn -0.9982 -0.0100 0.0598
vn 0.9985 0.0072 0.0538
vn -0.9992 -0.0075 -0.0401
vn 0.9972 0.0104 -0.0735
vn -0.1252 0.0239 -0.9918
vn -0.1055 -0.0260 0.9941
usemtl NDS_Material.001
s 1
f 91/1/1 92/2/1 93/3/1 94/4/1
f 95/5/2 96/6/2 97/7/2 98/8/2
f 99/9/3 100/10/3 101/11/3 102/12/3
f 103/13/4 104/14/4 105/15/4 106/16/4
f 107/17/2 108/18/2 109/19/2 110/20/2
f 111/21/5 112/22/5 113/23/5 114/24/5
f 115/25/6 116/26/6 117/27/6 118/28/6
f 119/29/7 120/30/7 121/31/7 122/32/7
f 123/33/8 124/34/8 125/35/8 126/36/8
f 127/37/9 128/38/9 129/39/9 130/40/9
f 131/41/10 132/42/10 133/43/10
f 134/44/11 135/45/11 136/46/11
f 137/47/12 138/48/12 139/49/12
f 140/50/13 141/51/13 142/52/13
f 143/53/14 144/54/14 145/55/14
f 146/56/15 147/57/15 148/58/15
f 149/59/16 150/60/16 151/61/16
f 152/62/17 153/63/17 154/64/17
f 155/65/18 156/66/18 157/67/18
f 158/68/19 159/69/19 160/70/19
f 161/71/20 162/72/20 163/73/20
f 164/74/21 165/75/21 166/76/21
f 167/77/22 168/78/22 169/79/22
f 170/80/23 171/81/23 172/82/23 173/83/23
f 174/84/24 175/85/24 176/86/24 177/87/24
f 178/88/25 179/89/25 180/90/25 181/91/25
f 182/92/26 183/93/26 184/94/26 185/95/26
f 186/96/27 187/97/27 188/98/27 189/99/27
f 190/100/28 191/101/28 192/102/28 193/103/28
f 194/104/29 195/105/29 196/106/29
f 197/107/30 198/108/30 199/109/30
f 200/110/31 201/111/31 202/112/31
f 203/113/32 204/114/32 205/115/32
f 206/116/33 207/117/33 208/118/33
f 209/119/34 210/120/34 211/121/34
f 212/122/35 213/123/35 214/124/35
usemtl NDS_Material
f 1/125/36 2/126/36 3/127/36 4/128/36
f 5/129/37 6/130/37 7/131/37 8/132/37
f 9/133/38 10/134/38 11/135/38 12/136/38
f 13/137/39 14/138/39 15/139/39 16/140/39
f 17/141/40 18/142/40 19/143/40 20/144/40
f 21/145/41 22/146/41 23/147/41 24/148/41
f 25/149/42 26/150/42 27/151/42 28/152/42
f 29/153/43 30/154/43 31/155/43 32/156/43
f 33/157/44 34/158/44 35/159/44
f 36/160/45 37/161/45 38/162/45
f 39/163/46 40/164/46 41/165/46
f 42/166/47 43/167/47 44/168/47
f 45/169/48 46/170/48 47/171/48
f 48/172/49 49/173/49 50/174/49 51/175/49
f 52/176/50 53/177/50 54/178/50 55/179/50
f 56/180/51 57/181/51 58/182/51 59/183/51
f 60/184/52 61/185/52 62/186/52 63/187/52
f 64/188/53 65/189/53 66/190/53 67/191/53
f 68/192/54 69/193/54 70/194/54 71/195/54
f 72/196/55 73/197/55 74/198/55
f 75/199/56 76/200/56 77/201/56 78/202/56
f 79/203/56 80/204/56 81/205/56 82/206/56
f 83/207/57 84/208/57 85/209/57 86/210/57
f 87/211/56 88/212/56 89/213/56 90/214/56
usemtl NDS_Material.002
f 215/215/58 216/216/58 217/217/58 218/218/58
f 219/219/59 220/220/59 221/221/59 222/222/59
f 223/223/60 224/224/60 225/225/60 226/226/60
f 227/227/61 228/228/61 229/229/61 230/230/61
f 231/231/62 232/232/62 233/233/62
f 234/234/63 235/235/63 236/236/63
f 237/237/62 238/238/62 239/239/62
f 240/240/64 241/241/64 242/242/64
f 243/243/64 244/244/64 245/245/64
f 246/246/65 247/247/65 248/248/65 249/249/65
f 250/250/66 251/251/66 252/252/66 253/253/66
f 254/254/67 255/255/67 256/256/67 257/257/67
f 258/258/68 259/259/68 260/260/68 261/261/68
f 262/262/69 263/263/69 264/264/69 265/265/69
f 266/266/70 267/267/70 268/268/70 269/269/70
f 270/270/71 271/271/71 272/272/71 273/273/71
f 274/274/72 275/275/72 276/276/72 277/277/72
f 278/278/73 279/279/73 280/280/73
f 281/281/74 282/282/74 283/283/74
f 284/284/75 285/285/75 286/286/75
f 287/287/76 288/288/76 289/289/76
f 290/290/77 291/291/77 292/292/77
f 293/293/78 294/294/78 295/295/78
f 296/296/79 297/297/79 298/298/79
f 299/299/80 300/300/80 301/301/80
f 302/302/64 303/303/64 304/304/64
f 305/305/81 306/306/81 307/307/81 308/308/81
f 309/309/82 310/310/82 311/311/82 312/312/82
