# Blender v2.77 (sub 0) OBJ File: ''
# www.blender.org
mtllib Dagger.mtl
o ShapeIndexedFaceSet.007
v -0.046006 0.912476 0.489228
v -0.677358 0.374354 1.265406
v -0.036535 0.899166 0.993831
v -0.046006 0.912476 0.489228
v -1.885270 0.007944 0.339372
v -0.677358 0.374354 1.265406
v 1.277158 0.845831 -0.127117
v 1.186872 0.438740 -0.108090
v 1.395892 0.949477 -0.779276
v 1.342246 0.576726 -0.948148
v 1.395892 0.949477 -0.779276
v 1.186872 0.438740 -0.108090
v -1.026550 -0.000893 2.102405
v -0.623320 0.197613 2.134754
v -0.677358 0.374354 1.265406
v -0.051701 0.478839 2.180629
v 0.520360 0.198382 2.138800
v 0.580315 0.375199 1.269856
v -1.026550 -0.000893 2.102405
v -0.677358 0.374354 1.265406
v -1.885270 0.007944 0.339372
v -0.046006 0.912476 0.489228
v 0.580315 0.375199 1.269856
v 1.795504 0.010418 0.352396
v -0.036535 0.899166 0.993831
v 0.580315 0.375199 1.269856
v -0.046006 0.912476 0.489228
v 0.580315 0.375199 1.269856
v 0.924080 0.000419 2.109306
v 1.795504 0.010418 0.352396
v 0.520360 0.198382 2.138800
v 0.924080 0.000419 2.109306
v 0.580315 0.375199 1.269856
v -0.623320 0.197613 2.134754
v -0.051701 0.478839 2.180629
v -0.677358 0.374354 1.265406
v -0.051701 0.478839 2.180629
v -0.036535 0.899166 0.993831
v -0.677358 0.374354 1.265406
v -0.051701 0.478839 2.180629
v 0.580315 0.375199 1.269856
v -0.036535 0.899166 0.993831
v -0.040444 0.015866 -0.908560
v -0.044882 0.009180 0.345884
v -1.885270 0.007944 0.339372
v -0.044882 0.009180 0.345884
v -0.040444 0.015866 -0.908560
v 1.795505 0.010417 0.352396
v -2.497793 0.014214 -0.917256
v -0.040444 0.015866 -0.908560
v -1.885270 0.007944 0.339372
v -0.040444 0.015866 -0.908560
v 2.416654 0.017518 -0.899868
v 1.795505 0.010417 0.352396
v -0.058132 -0.010788 4.090619
v -0.051701 0.478839 2.180629
v -0.623319 0.197613 2.134753
v -0.058132 -0.010788 4.090619
v 0.924080 0.000419 2.109306
v 0.520361 0.198382 2.138799
v -1.026549 -0.000893 2.102405
v -0.058132 -0.010788 4.090619
v -0.623319 0.197613 2.134753
v -0.051701 0.478839 2.180629
v -0.058132 -0.010788 4.090619
v 0.520361 0.198382 2.138799
v -0.040444 0.015866 -0.908560
v -1.543997 0.023007 -1.791899
v -0.582636 0.019941 -1.765104
v -0.333381 0.034290 -2.902411
v -0.040444 0.015866 -0.908560
v -0.582636 0.019941 -1.765104
v -0.040444 0.015866 -0.908560
v -2.497793 0.014214 -0.917256
v -1.543997 0.023007 -1.791899
v -0.333381 0.034290 -2.902411
v -0.582636 0.019941 -1.765104
v -0.965399 0.028298 -2.322604
v -0.333381 0.034290 -2.902411
v -0.033400 0.034492 -2.901350
v -0.040444 0.015866 -0.908560
v 1.469066 0.025032 -1.781239
v -0.040444 0.015866 -0.908560
v 0.507546 0.020674 -1.761246
v -0.040444 0.015866 -0.908560
v 0.266332 0.034694 -2.900290
v 0.507546 0.020674 -1.761246
v 2.416654 0.017518 -0.899868
v -0.040444 0.015866 -0.908560
v 1.469066 0.025032 -1.781239
v 0.507546 0.020674 -1.761246
v 0.266332 0.034694 -2.900290
v 0.894237 0.029549 -2.316022
v -0.033400 0.034492 -2.901350
v 0.266332 0.034694 -2.900290
v -0.040444 0.015866 -0.908560
v -1.423583 0.574867 -0.957935
v -0.462023 1.171588 -1.808694
v -2.497793 0.014214 -0.917256
v -0.632658 0.998278 -1.029240
v -0.038562 1.479222 -1.721730
v -0.462023 1.171588 -1.808694
v -1.179348 0.731687 -1.763735
v -1.869706 0.344389 -1.578611
v -2.497793 0.014214 -0.917256
v -0.488991 1.118931 -1.948511
v -2.497793 0.014214 -0.917256
v -0.462023 1.171588 -1.808694
v -0.462023 1.171588 -1.808694
v -1.423583 0.574867 -0.957935
v -0.632658 0.998278 -1.029240
v -2.497793 0.014214 -0.917256
v -0.488991 1.118931 -1.948511
v -1.179348 0.731687 -1.763735
v -0.040888 1.302105 -1.030896
v -0.038562 1.479222 -1.721730
v -0.632658 0.998278 -1.029240
v 2.416654 0.017518 -0.899868
v 1.103513 0.733222 -1.755658
v 0.413704 1.119538 -1.945317
v 2.416654 0.017518 -0.899868
v 0.413704 1.119538 -1.945317
v 0.385675 1.172158 -1.805694
v 1.342246 0.576726 -0.948148
v 2.416654 0.017518 -0.899868
v 0.385675 1.172158 -1.805694
v 1.103513 0.733222 -1.755658
v 2.416654 0.017518 -0.899868
v 1.793068 0.346852 -1.565650
v 0.385675 1.172158 -1.805694
v -0.038562 1.479222 -1.721730
v 0.551270 0.999074 -1.025051
v 0.385675 1.172158 -1.805694
v 0.551270 0.999074 -1.025051
v 1.342246 0.576726 -0.948148
v -0.040888 1.302105 -1.030896
v 0.551270 0.999074 -1.025051
v -0.038562 1.479222 -1.721730
v -0.058132 -0.010788 4.090619
v -0.051110 -0.000237 2.105856
v 0.924080 0.000419 2.109306
v -1.526464 0.230506 -1.770723
v -2.497793 0.014214 -0.917256
v -1.869706 0.344389 -1.578611
v -1.543997 0.023007 -1.791899
v -2.497793 0.014214 -0.917256
v -1.526464 0.230506 -1.770723
v -0.533664 0.676989 -2.237329
v -0.891815 0.224948 -2.243894
v -0.885274 0.469445 -2.161580
v -0.422007 0.286754 -2.631951
v -0.891815 0.224948 -2.243894
v -0.533664 0.676989 -2.237329
v -0.422007 0.286754 -2.631951
v -0.333381 0.034290 -2.902411
v -0.891815 0.224948 -2.243894
v -0.965399 0.028298 -2.322604
v -0.891815 0.224948 -2.243894
v -0.333381 0.034290 -2.902411
v -1.869706 0.344389 -1.578611
v -1.542871 0.331361 -1.816521
v -1.526464 0.230506 -1.770723
v 2.416654 0.017518 -0.899868
v 1.451352 0.232509 -1.760187
v 1.793068 0.346852 -1.565650
v 2.416654 0.017518 -0.899868
v 1.469066 0.025032 -1.781239
v 1.451352 0.232509 -1.760187
v 0.352696 0.287276 -2.629209
v 0.461023 0.677658 -2.233810
v 0.819829 0.226099 -2.237837
v 0.819829 0.226099 -2.237837
v 0.461023 0.677658 -2.233810
v 0.812371 0.470586 -2.155573
v 0.266332 0.034694 -2.900290
v 0.352696 0.287276 -2.629209
v 0.819829 0.226099 -2.237837
v 0.819829 0.226099 -2.237837
v 0.894237 0.029549 -2.316022
v 0.266332 0.034694 -2.900290
v 1.467944 0.333386 -1.805868
v 1.793068 0.346852 -1.565650
v 1.451352 0.232509 -1.760187
v -0.051110 -0.000237 2.105856
v -1.026549 -0.000893 2.102405
v -0.044882 0.009180 0.345884
v -0.044882 0.009180 0.345884
v -1.026549 -0.000893 2.102405
v -1.885270 0.007944 0.339372
v -0.044882 0.009180 0.345884
v 1.795505 0.010417 0.352396
v 0.924080 0.000419 2.109306
v -0.058132 -0.010788 4.090619
v -1.026549 -0.000893 2.102405
v -0.051110 -0.000237 2.105856
v 0.924080 0.000419 2.109306
v -0.051110 -0.000237 2.105856
v -0.044882 0.009180 0.345884
v -1.364679 0.844054 -0.136466
v -0.742458 1.152856 -0.196291
v -1.479181 0.947544 -0.789449
v -0.483301 0.860294 -0.187958
v -0.742458 1.152856 -0.196291
v -1.274226 0.437085 -0.116799
v -1.479181 0.947544 -0.789449
v -1.423583 0.574867 -0.957935
v -1.274226 0.437085 -0.116799
v -1.423583 0.574867 -0.957935
v -1.479181 0.947544 -0.789449
v -0.632658 0.998278 -1.029240
v -0.632658 0.998278 -1.029240
v -0.742458 1.152856 -0.196291
v -0.483301 0.860294 -0.187958
v -2.497793 0.014214 -0.917256
v -1.274226 0.437085 -0.116799
v -1.423583 0.574867 -0.957935
v -1.364679 0.844054 -0.136466
v -1.274226 0.437085 -0.116799
v -0.742458 1.152856 -0.196291
v -0.856710 1.256199 -0.849477
v -0.632658 0.998278 -1.029240
v -1.479181 0.947544 -0.789449
v -0.856710 1.256199 -0.849477
v -0.742458 1.152856 -0.196291
v -0.632658 0.998278 -1.029240
v -0.856710 1.256199 -0.849477
v -1.479181 0.947544 -0.789449
v -0.742458 1.152856 -0.196291
v 0.654706 1.153795 -0.191347
v 1.277158 0.845831 -0.127117
v 1.395892 0.949477 -0.779277
v 0.654706 1.153795 -0.191347
v 1.186872 0.438740 -0.108090
v 1.277158 0.845831 -0.127117
v 1.395892 0.949477 -0.779277
v 1.342246 0.576726 -0.948148
v 0.551270 0.999074 -1.025051
v 0.654706 1.153795 -0.191347
v 0.551270 0.999074 -1.025051
v 0.395896 0.860885 -0.184847
v 1.186872 0.438740 -0.108090
v 2.416654 0.017518 -0.899868
v 1.342246 0.576726 -0.948148
v 1.186872 0.438740 -0.108090
v 0.654706 1.153795 -0.191347
v 0.395896 0.860885 -0.184847
v 0.551270 0.999074 -1.025051
v 0.773441 1.257295 -0.843708
v 1.395892 0.949477 -0.779277
v 0.654706 1.153795 -0.191347
v 0.773441 1.257295 -0.843708
v 0.551270 0.999074 -1.025051
v 1.186872 0.438740 -0.108090
v 0.395896 0.860885 -0.184847
v -0.046006 0.912476 0.489228
v 1.395892 0.949477 -0.779277
v 0.773441 1.257295 -0.843708
v 0.654706 1.153795 -0.191347
v 0.395896 0.860885 -0.184847
v 0.551270 0.999074 -1.025051
v -0.040888 1.302105 -1.030896
v -1.274226 0.437085 -0.116799
v -1.364679 0.844054 -0.136466
v -1.479181 0.947544 -0.789449
v -0.483301 0.860294 -0.187958
v -0.046006 0.912476 0.489228
v -0.040888 1.302105 -1.030896
v -1.274226 0.437085 -0.116799
v -2.497793 0.014214 -0.917256
v -1.885270 0.007944 0.339372
v -0.046006 0.912476 0.489228
v -1.274226 0.437085 -0.116799
v -1.885270 0.007944 0.339372
v -0.483301 0.860294 -0.187958
v -1.274226 0.437085 -0.116799
v -0.046006 0.912476 0.489228
v -0.040888 1.302105 -1.030896
v -0.046006 0.912476 0.489228
v 0.395896 0.860885 -0.184847
v 2.416654 0.017518 -0.899868
v 1.186872 0.438740 -0.108090
v 1.795505 0.010417 0.352396
v 1.186872 0.438740 -0.108090
v -0.046006 0.912476 0.489228
v 1.795505 0.010417 0.352396
v -0.632658 0.998278 -1.029240
v -0.483301 0.860294 -0.187958
v -0.040888 1.302105 -1.030896
v -0.250578 -0.450741 4.021572
v -0.209568 -0.167435 2.975452
v -0.246923 -0.281638 2.957200
v -0.190560 -0.267038 4.050931
v -0.209568 -0.167435 2.975452
v -0.250578 -0.450741 4.021572
v -0.190560 -0.267038 4.050931
v -0.065163 -0.097855 2.986990
v -0.186906 -0.097936 2.986559
v 0.004928 -0.266907 4.051623
v -0.065163 -0.097855 2.986990
v -0.190560 -0.267038 4.050931
v 0.004928 -0.266907 4.051623
v 0.046221 -0.212306 2.969208
v 0.008582 -0.097805 2.987250
v 0.065402 -0.450529 4.022691
v 0.046221 -0.212306 2.969208
v 0.004928 -0.266907 4.051623
v -0.033400 0.034492 -2.901350
v -0.311718 0.322373 -2.792367
v -0.033984 0.322560 -2.791384
v -0.333381 0.034290 -2.902411
v -0.422007 0.286754 -2.631951
v -0.311718 0.322373 -2.792367
v -0.038562 1.479222 -1.721730
v -0.036898 1.312645 -2.159626
v -0.462023 1.171588 -1.808694
v -0.351624 1.247198 -3.207903
v -0.533664 0.676989 -2.237329
v -0.534448 1.307236 -2.137315
v -0.311718 0.322373 -2.792367
v -0.422007 0.286754 -2.631951
v -0.533664 0.676989 -2.237329
v -0.534448 1.307236 -2.137315
v -0.488991 1.118931 -1.948511
v -0.462023 1.171588 -1.808694
v -0.351624 1.247198 -3.207903
v -0.534448 1.307236 -2.137315
v -0.036898 1.312645 -2.159626
v -0.534448 1.307236 -2.137315
v -0.462023 1.171588 -1.808694
v -0.036898 1.312645 -2.159626
v -0.534448 1.307236 -2.137315
v -0.533664 0.676989 -2.237329
v -0.488991 1.118931 -1.948511
v -0.533664 0.676989 -2.237329
v -0.351624 1.247198 -3.207903
v -0.311718 0.322373 -2.792367
v -0.036898 1.312645 -2.159626
v -0.033144 1.247412 -3.206777
v -0.351624 1.247198 -3.207903
v -0.311718 0.322373 -2.792367
v -0.351624 1.247198 -3.207903
v -0.033144 1.247412 -3.206777
v -0.033400 0.034492 -2.901350
v -0.333381 0.034290 -2.902411
v -0.311718 0.322373 -2.792367
v -0.033144 1.247412 -3.206777
v -0.033984 0.322560 -2.791384
v -0.311718 0.322373 -2.792367
v 0.243747 0.322746 -2.790403
v -0.033400 0.034492 -2.901350
v -0.033984 0.322560 -2.791384
v 0.352696 0.287276 -2.629209
v 0.266332 0.034694 -2.900290
v 0.243747 0.322746 -2.790403
v -0.036898 1.312645 -2.159626
v -0.038562 1.479222 -1.721730
v 0.385675 1.172158 -1.805694
v 0.243747 0.322746 -2.790403
v 0.285086 1.247626 -3.205652
v 0.461023 0.677658 -2.233810
v 0.352696 0.287276 -2.629209
v 0.243747 0.322746 -2.790403
v 0.461023 0.677658 -2.233810
v -0.033144 1.247412 -3.206777
v -0.036898 1.312645 -2.159626
v 0.285086 1.247626 -3.205652
v 0.285086 1.247626 -3.205652
v 0.243747 0.322746 -2.790403
v -0.033144 1.247412 -3.206777
v 0.266332 0.034694 -2.900290
v -0.033400 0.034492 -2.901350
v 0.243747 0.322746 -2.790403
v -0.033984 0.322560 -2.791384
v -0.033144 1.247412 -3.206777
v 0.243747 0.322746 -2.790403
v -0.209568 -0.167435 2.975452
v -0.190560 -0.267038 4.050931
v -0.186906 -0.097936 2.986559
v -0.065163 -0.097855 2.986990
v 0.004928 -0.266907 4.051623
v 0.008582 -0.097805 2.987250
v 0.413704 1.119538 -1.945317
v 0.460241 1.307905 -2.133795
v 0.385675 1.172158 -1.805694
v 0.460241 1.307905 -2.133795
v 0.285086 1.247626 -3.205652
v -0.036898 1.312645 -2.159626
v 0.385675 1.172158 -1.805694
v 0.460241 1.307905 -2.133795
v -0.036898 1.312645 -2.159626
v 0.461023 0.677658 -2.233810
v 0.460241 1.307905 -2.133795
v 0.413704 1.119538 -1.945317
v 0.460241 1.307905 -2.133795
v 0.461023 0.677658 -2.233810
v 0.285086 1.247626 -3.205652
v -0.086576 -0.292754 2.294309
v -0.187374 -0.324546 2.950596
v -0.244707 -0.179178 2.311613
v -0.246923 -0.281638 2.957200
v -0.244707 -0.179178 2.311613
v -0.187374 -0.324546 2.950596
v -0.246923 -0.281638 2.957200
v -0.209568 -0.167435 2.975452
v -0.244707 -0.179178 2.311613
v -0.186906 -0.097936 2.986559
v -0.184689 0.004524 2.340971
v -0.209568 -0.167435 2.975452
v -0.186906 -0.097936 2.986559
v -0.065163 -0.097855 2.986990
v 0.010799 0.004655 2.341662
v 0.008582 -0.097805 2.987250
v 0.010799 0.004655 2.341662
v -0.065163 -0.097855 2.986990
v 0.008582 -0.097805 2.987250
v 0.046221 -0.212306 2.969208
v 0.010799 0.004655 2.341662
v 0.069057 -0.281426 2.958318
v 0.071273 -0.178966 2.312730
v 0.046221 -0.212306 2.969208
v 0.069057 -0.281426 2.958318
v -0.029349 -0.352373 2.946722
v 0.071273 -0.178966 2.312730
v -0.088792 -0.395011 2.939751
v -0.086576 -0.292754 2.294309
v -0.029349 -0.352373 2.946722
v 0.046221 -0.212306 2.969208
v 0.065402 -0.450529 4.022691
v 0.069057 -0.281426 2.958318
v -0.088792 -0.395011 2.939751
v -0.187374 -0.324546 2.950596
v -0.086576 -0.292754 2.294309
v -0.209568 -0.167435 2.975452
v -0.184689 0.004524 2.340971
v -0.244707 -0.179178 2.311613
v -0.186906 -0.097936 2.986559
v 0.010799 0.004655 2.341662
v -0.184689 0.004524 2.340971
v 0.046221 -0.212306 2.969208
v 0.071273 -0.178966 2.312730
v 0.010799 0.004655 2.341662
v -0.029349 -0.352373 2.946722
v -0.086576 -0.292754 2.294309
v 0.071273 -0.178966 2.312730
v -0.190560 -0.267038 4.050931
v -0.250578 -0.450741 4.021572
v -0.092447 -0.564114 4.004123
v 0.004928 -0.266907 4.051623
v -0.190560 -0.267038 4.050931
v -0.092447 -0.564114 4.004123
v 0.065402 -0.450529 4.022691
v 0.004928 -0.266907 4.051623
v -0.092447 -0.564114 4.004123
v -0.092447 -0.564114 4.004123
v -0.187374 -0.324546 2.950596
v -0.088792 -0.395011 2.939751
v -0.250578 -0.450741 4.021572
v -0.187374 -0.324546 2.950596
v -0.092447 -0.564114 4.004123
v 0.065402 -0.450529 4.022691
v -0.029349 -0.352373 2.946722
v 0.069057 -0.281426 2.958318
v -0.088792 -0.395011 2.939751
v -0.029349 -0.352373 2.946722
v -0.092447 -0.564114 4.004123
v -0.244707 -0.179178 2.311613
v -0.184689 0.004524 2.340971
v -0.086576 -0.292754 2.294309
v -0.184689 0.004524 2.340971
v 0.010799 0.004655 2.341662
v -0.086576 -0.292754 2.294309
v 0.010799 0.004655 2.341662
v 0.071273 -0.178966 2.312730
v -0.086576 -0.292754 2.294309
v -1.971560 0.799501 -2.482517
v -1.427592 1.052109 -2.388481
v -0.845639 0.974446 -2.509237
v -0.845639 0.974446 -2.509237
v -1.318831 0.736765 -2.614441
v -1.971560 0.799501 -2.482517
v -1.179348 0.731687 -1.763735
v -0.488991 1.118931 -1.948511
v -0.533664 0.676989 -2.237329
v -1.195915 0.437528 -2.252726
v -1.971560 0.799501 -2.482517
v -1.318831 0.736765 -2.614441
v -1.971560 0.799501 -2.482517
v -1.542871 0.331361 -1.816521
v -1.869706 0.344389 -1.578611
v -1.869706 0.344389 -1.578611
v -1.427592 1.052109 -2.388481
v -1.971560 0.799501 -2.482517
v -1.427592 1.052109 -2.388481
v -1.869706 0.344389 -1.578611
v -1.179348 0.731687 -1.763735
v -1.179348 0.731687 -1.763735
v -0.845639 0.974446 -2.509237
v -1.427592 1.052109 -2.388481
v -0.845639 0.974446 -2.509237
v -1.179348 0.731687 -1.763735
v -0.533664 0.676989 -2.237329
v -0.845639 0.974446 -2.509237
v -0.885274 0.469445 -2.161580
v -1.195915 0.437528 -2.252726
v -1.318831 0.736765 -2.614441
v -0.845639 0.974446 -2.509237
v -1.195915 0.437528 -2.252726
v -0.533664 0.676989 -2.237329
v -0.885274 0.469445 -2.161580
v -0.845639 0.974446 -2.509237
v -1.971560 0.799501 -2.482517
v -1.195915 0.437528 -2.252726
v -1.542871 0.331361 -1.816521
v -1.543997 0.023007 -1.791899
v -1.508824 -0.174959 -2.861796
v -0.582636 0.019941 -1.765104
v -1.542871 0.331361 -1.816521
v -1.853084 0.178073 -2.710485
v -1.526464 0.230506 -1.770723
v -1.853084 0.178073 -2.710485
v -1.508951 0.162769 -2.891068
v -1.852958 -0.159509 -2.681012
v -1.508951 0.162769 -2.891068
v -0.891815 0.224948 -2.243894
v -0.965399 0.028298 -2.322604
v -1.526464 0.230506 -1.770723
v -1.852958 -0.159509 -2.681012
v -1.543997 0.023007 -1.791899
v -0.582636 0.019941 -1.765104
v -1.508824 -0.174959 -2.861796
v -0.965399 0.028298 -2.322604
v -1.195915 0.437528 -2.252726
v -0.885274 0.469445 -2.161580
v -0.891815 0.224948 -2.243894
v -1.853084 0.178073 -2.710485
v -1.542871 0.331361 -1.816521
v -1.195915 0.437528 -2.252726
v -0.891815 0.224948 -2.243894
v -1.508951 0.162769 -2.891068
v -1.195915 0.437528 -2.252726
v -1.508824 -0.174959 -2.861796
v -1.543997 0.023007 -1.791899
v -1.852958 -0.159509 -2.681012
v -1.853084 0.178073 -2.710485
v -1.195915 0.437528 -2.252726
v -1.508951 0.162769 -2.891068
v -1.852958 -0.159509 -2.681012
v -1.526464 0.230506 -1.770723
v -1.853084 0.178073 -2.710485
v -1.508824 -0.174959 -2.861796
v -1.852958 -0.159509 -2.681012
v -1.508951 0.162769 -2.891068
v -0.965399 0.028298 -2.322604
v -1.508824 -0.174959 -2.861796
v -1.508951 0.162769 -2.891068
v 0.065402 -0.450529 4.022691
v -0.092447 -0.564114 4.004123
v -0.029349 -0.352373 2.946722
v 1.355487 1.053979 -2.378633
v 1.900452 0.802105 -2.468816
v 0.774511 0.975536 -2.503503
v 1.248761 0.738492 -2.605356
v 0.774511 0.975536 -2.503503
v 1.900452 0.802105 -2.468816
v 0.413704 1.119538 -1.945317
v 1.103513 0.733222 -1.755658
v 0.461023 0.677658 -2.233810
v 1.467944 0.333386 -1.805868
v 1.123692 0.439088 -2.244518
v 1.900452 0.802105 -2.468816
v 1.248761 0.738492 -2.605356
v 1.900452 0.802105 -2.468816
v 1.123692 0.439088 -2.244518
v 1.103513 0.733222 -1.755658
v 1.793068 0.346852 -1.565650
v 1.355487 1.053979 -2.378633
v 1.900452 0.802105 -2.468816
v 1.355487 1.053979 -2.378633
v 1.793068 0.346852 -1.565650
v 0.461023 0.677658 -2.233810
v 1.103513 0.733222 -1.755658
v 0.774511 0.975536 -2.503503
v 1.355487 1.053979 -2.378633
v 0.774511 0.975536 -2.503503
v 1.103513 0.733222 -1.755658
v 0.812371 0.470586 -2.155573
v 0.774511 0.975536 -2.503503
v 1.123692 0.439088 -2.244518
v 0.774511 0.975536 -2.503503
v 1.248761 0.738492 -2.605356
v 1.123692 0.439088 -2.244518
v 0.812371 0.470586 -2.155573
v 0.461023 0.677658 -2.233810
v 0.774511 0.975536 -2.503503
v 1.900452 0.802105 -2.468816
v 1.793068 0.346852 -1.565650
v 1.467944 0.333386 -1.805868
v 1.784566 -0.157063 -2.668142
v 1.469066 0.025032 -1.781239
v 1.441743 -0.172975 -2.851357
v 1.784441 0.180518 -2.697616
v 1.467944 0.333386 -1.805868
v 1.451352 0.232509 -1.760187
v 1.441617 0.164753 -2.880628
v 1.784441 0.180518 -2.697616
v 1.784566 -0.157063 -2.668142
v 0.819829 0.226099 -2.237837
v 1.441617 0.164753 -2.880628
v 0.894237 0.029549 -2.316022
v 1.784566 -0.157063 -2.668142
v 1.451352 0.232509 -1.760187
v 1.469066 0.025032 -1.781239
v 1.441743 -0.172975 -2.851357
v 0.507546 0.020674 -1.761246
v 0.894237 0.029549 -2.316022
v 1.123692 0.439088 -2.244518
v 1.441617 0.164753 -2.880628
v 0.819829 0.226099 -2.237837
v 1.467944 0.333386 -1.805868
v 1.784441 0.180518 -2.697616
v 1.123692 0.439088 -2.244518
v 0.819829 0.226099 -2.237837
v 0.812371 0.470586 -2.155573
v 1.123692 0.439088 -2.244518
v 0.507546 0.020674 -1.761246
v 1.441743 -0.172975 -2.851357
v 1.469066 0.025032 -1.781239
v 1.123692 0.439088 -2.244518
v 1.784441 0.180518 -2.697616
v 1.441617 0.164753 -2.880628
v 1.451352 0.232509 -1.760187
v 1.784566 -0.157063 -2.668142
v 1.784441 0.180518 -2.697616
v 1.784566 -0.157063 -2.668142
v 1.441743 -0.172975 -2.851357
v 1.441617 0.164753 -2.880628
v 1.441743 -0.172975 -2.851357
v 0.894237 0.029549 -2.316022
v 1.441617 0.164753 -2.880628
v -0.187374 -0.324546 2.950596
v -0.250578 -0.450741 4.021572
v -0.246923 -0.281638 2.957200
vt 0.5938 0.4375
vt 0.7188 0.4375
vt 0.5625 0.1875
vt 0.8125 0.4688
vt 0.7188 0.4375
vt 0.5000 0.5312
vt 0.5625 0.1875
vt 0.5000 0.0938
vt 0.5000 0.5312
vt 0.5000 0.0938
vt 0.5625 0.1875
vt 0.7812 0.0625
vt 0.7812 0.0625
vt 0.7188 0.4375
vt 0.8125 0.4688
vt 0.0000 0.1562
vt 0.5000 0.5312
vt 0.5000 0.0938
vt 0.5938 0.4375
vt 0.5000 0.5312
vt 0.7188 0.4375
vt 0.7188 0.1562
vt 0.7812 0.0625
vt 0.5625 0.1875
vt 0.7188 0.1562
vt 0.7188 0.4375
vt 0.7812 0.0625
vt 0.7188 0.1562
vt 0.5625 0.1875
vt 0.7188 0.4375
vt 0.7188 0.4375
vt 0.5938 0.4375
vt 0.5625 0.1875
vt 0.7188 0.4375
vt 0.5000 0.5312
vt 0.5938 0.4375
vt 0.5625 0.1875
vt 0.5000 0.0938
vt 0.7812 0.0625
vt 0.7188 0.4375
vt 0.7812 0.0625
vt 0.8125 0.4688
vt 0.5000 0.5312
vt 0.0000 0.1562
vt 0.5000 0.0938
vt 0.5000 0.5312
vt 0.7188 0.4375
vt 0.8125 0.4688
vt 0.7812 0.0625
vt 0.7188 0.1562
vt 0.5625 0.1875
vt 0.7188 0.4375
vt 0.7188 0.1562
vt 0.7812 0.0625
vt 0.5000 0.5312
vt 0.8125 0.4688
vt 0.9688 0.9375
vt 0.5625 0.1875
vt 0.7188 0.1562
vt 0.7188 0.4375
vt 0.8125 0.4688
vt 0.7812 0.0625
vt 0.9688 0.0000
vt 0.5000 0.5312
vt 0.5938 0.4375
vt 0.5625 0.1875
vt 0.8125 0.4688
vt 0.9688 0.9375
vt 0.9688 0.0000
vt 0.5000 0.5312
vt 0.0000 0.1562
vt 0.2812 0.9375
vt 0.9688 0.9375
vt 0.5000 0.5312
vt 0.2812 0.9375
vt 0.8125 0.4688
vt 0.5000 0.5312
vt 0.9688 0.9375
vt 0.9688 0.0000
vt 0.9688 0.9375
vt 0.8125 0.4688
vt 0.0000 0.1562
vt 0.5000 0.5312
vt 0.2812 0.9375
vt 0.5000 0.5312
vt 0.9688 0.9375
vt 0.2812 0.9375
vt 0.7812 0.0625
vt 0.8125 0.4688
vt 0.9688 0.0000
vt 0.9375 0.9688
vt 0.9375 0.0000
vt 0.4062 0.0000
vt 0.9375 0.9688
vt 0.0000 0.0000
vt 0.4062 0.0000
vt 0.0000 0.0000
vt 0.9375 0.9688
vt 0.4062 0.0000
vt 0.9375 0.0000
vt 0.9375 0.9688
vt 0.4062 0.0000
vt 1.0000 1.0000
vt 0.6562 0.4375
vt 0.6562 1.0000
vt 1.0000 0.0000
vt 0.6562 0.4375
vt 1.0000 1.0000
vt 1.0000 1.0000
vt 0.6875 0.5000
vt 0.6875 1.0000
vt 1.0000 0.0000
vt 0.6875 0.5000
vt 1.0000 1.0000
vt 1.0000 0.0000
vt 0.6875 0.5938
vt 0.6875 0.0000
vt 1.0000 1.0000
vt 0.6875 0.5938
vt 1.0000 0.0000
vt 0.1562 0.9688
vt 0.0000 0.0000
vt 0.1562 0.0000
vt 0.0000 0.8438
vt 0.1562 0.1562
vt 0.0000 0.0000
vt 0.9688 1.0000
vt 0.9688 0.6875
vt 0.0938 1.0000
vt 0.5625 0.0000
vt 0.0000 0.5938
vt 0.5625 0.6250
vt 0.0000 0.0000
vt 0.1562 0.1562
vt 0.1562 0.0000
vt 0.5625 0.6250
vt 0.0000 0.7188
vt 0.1250 0.9688
vt 0.2500 0.0000
vt 0.0938 0.7500
vt 0.9688 0.6875
vt 0.0938 0.7500
vt 0.0938 1.0000
vt 0.9688 0.6875
vt 0.5625 0.6250
vt 0.0000 0.5938
vt 0.0000 0.7188
vt 0.0000 0.5938
vt 0.5625 0.0000
vt 0.0000 0.0000
vt 0.9688 0.6875
vt 0.9688 0.0000
vt 0.2500 0.0000
vt 0.0000 0.0000
vt 0.5938 0.0000
vt 0.5938 0.3750
vt 0.1562 0.9688
vt 0.0000 0.9688
vt 0.0000 0.0000
vt 0.5938 0.3750
vt 0.0000 0.3750
vt 0.0000 0.0000
vt 0.0000 0.0000
vt 0.1562 0.9688
vt 0.1562 0.0000
vt 0.1562 0.1562
vt 0.0000 0.8438
vt 0.0000 0.0000
vt 0.9688 0.6875
vt 0.9688 1.0000
vt 0.0938 1.0000
vt 0.0000 0.0000
vt 0.5625 0.0000
vt 0.0000 0.5938
vt 0.1562 0.1562
vt 0.0000 0.0000
vt 0.1562 0.0000
vt 0.9688 0.0000
vt 0.9688 0.6875
vt 0.2500 0.0000
vt 0.5938 0.0000
vt 0.0000 0.0000
vt 0.5938 0.3750
vt 0.0000 0.9688
vt 0.1562 0.9688
vt 0.0000 0.0000
vt 0.0000 0.3750
vt 0.5938 0.3750
vt 0.0000 0.0000
vt 0.6562 0.4375
vt 1.0000 0.0000
vt 0.6562 0.0000
vt 0.6875 0.5000
vt 1.0000 0.0000
vt 0.6875 0.0000
vt 0.0000 0.7188
vt 0.5625 0.6250
vt 0.1250 0.9688
vt 0.0938 0.7500
vt 0.2500 0.0000
vt 0.9688 0.6875
vt 0.0938 1.0000
vt 0.0938 0.7500
vt 0.9688 0.6875
vt 0.0000 0.5938
vt 0.5625 0.6250
vt 0.0000 0.7188
vt 0.5625 0.6250
vt 0.0000 0.5938
vt 0.5625 0.0000
vt 0.0000 0.0000
vt 0.5000 1.0000
vt 1.0000 0.0000
vt 1.0000 1.0000
vt 1.0000 0.0000
vt 0.5000 1.0000
vt 0.6562 1.0000
vt 0.6562 0.4375
vt 0.0000 1.0000
vt 0.6562 0.0000
vt 0.0000 0.0000
vt 0.6562 0.4375
vt 0.6875 1.0000
vt 0.6875 0.5000
vt 0.0000 0.0000
vt 0.6875 0.0000
vt 0.0000 0.0000
vt 0.6875 0.5000
vt 0.6875 0.0000
vt 0.6875 0.5938
vt 0.0000 0.0000
vt 0.6875 1.0000
vt 0.0000 1.0000
vt 0.6875 0.5938
vt 1.0000 1.0000
vt 0.5000 1.0000
vt 1.0000 0.0000
vt 0.0000 1.0000
vt 0.0000 0.0000
vt 0.5000 1.0000
vt 0.6875 0.5938
vt 1.0000 1.0000
vt 0.6875 1.0000
vt 0.0000 1.0000
vt 0.5000 1.0000
vt 0.0000 0.0000
vt 0.6562 0.4375
vt 0.0000 0.0000
vt 0.0000 1.0000
vt 0.6875 1.0000
vt 0.0000 0.0000
vt 0.0000 1.0000
vt 0.6875 0.5938
vt 0.0000 1.0000
vt 0.0000 0.0000
vt 0.5000 1.0000
vt 0.0000 0.0000
vt 1.0000 0.0000
vt 0.0000 1.0000
vt 0.0000 0.0000
vt 0.7188 0.0000
vt 0.0000 0.0000
vt 0.0000 1.0000
vt 0.7188 0.0000
vt 1.0000 1.0000
vt 0.0000 1.0000
vt 0.7188 0.0000
vt 0.0000 1.0000
vt 1.0000 1.0000
vt 0.7188 0.0000
vt 0.0312 0.0000
vt 0.0312 1.0000
vt 0.4375 1.0000
vt 0.8438 0.0938
vt 0.0000 0.9688
vt 0.0000 0.2812
vt 0.9375 0.7188
vt 0.0000 0.9688
vt 0.8438 0.0938
vt 0.5625 0.0000
vt 0.1250 0.5312
vt 0.0000 0.0000
vt 0.7812 0.5312
vt 0.1250 0.5312
vt 0.5625 0.0000
vt 0.7812 0.5312
vt 1.0000 1.0000
vt 0.1250 0.5312
vt 0.2188 1.0000
vt 0.1250 0.5312
vt 1.0000 1.0000
vt 0.0000 0.2812
vt 0.2188 0.0312
vt 0.8438 0.0938
vt 0.0000 0.9688
vt 0.8438 0.0938
vt 0.0000 0.2812
vt 0.0000 0.9688
vt 0.9375 0.7188
vt 0.8438 0.0938
vt 0.7812 0.5312
vt 0.5625 0.0000
vt 0.1250 0.5312
vt 0.1250 0.5312
vt 0.5625 0.0000
vt 0.0000 0.0000
vt 0.9688 1.0000
vt 0.7812 0.5312
vt 0.1250 0.5312
vt 0.1250 0.5312
vt 0.2188 1.0000
vt 0.9688 1.0000
vt 0.2188 0.0312
vt 0.0000 0.2812
vt 0.8438 0.0938
vt 1.0000 1.0000
vt 0.5938 1.0000
vt 1.0000 0.0000
vt 1.0000 0.0000
vt 0.5938 1.0000
vt 0.2188 0.0000
vt 1.0000 0.0000
vt 0.2188 0.0000
vt 0.5938 1.0000
vt 0.0312 0.0000
vt 0.4375 1.0000
vt 0.0312 1.0000
vt 0.5938 1.0000
vt 1.0000 1.0000
vt 1.0000 0.0000
vt 0.4062 0.8125
vt 0.8125 0.1562
vt 0.0000 0.9062
vt 0.7500 0.6250
vt 0.9688 0.1562
vt 0.8125 0.1562
vt 0.5312 0.2500
vt 0.2500 0.5000
vt 0.0000 0.9062
vt 0.8125 0.0625
vt 0.0000 0.9062
vt 0.8125 0.1562
vt 0.8125 0.1562
vt 0.4062 0.8125
vt 0.7500 0.6250
vt 0.0000 0.9062
vt 0.8125 0.0625
vt 0.5312 0.2500
vt 0.9688 0.5938
vt 0.9688 0.1562
vt 0.7500 0.6250
vt 0.0000 0.9062
vt 0.5312 0.2500
vt 0.8125 0.0625
vt 0.0000 0.9062
vt 0.8125 0.0625
vt 0.8125 0.1562
vt 0.4062 0.8125
vt 0.0000 0.9062
vt 0.8125 0.1562
vt 0.5312 0.2500
vt 0.0000 0.9062
vt 0.2500 0.5000
vt 0.8125 0.1562
vt 0.9688 0.1562
vt 0.7500 0.6250
vt 0.8125 0.1562
vt 0.7500 0.6250
vt 0.4062 0.8125
vt 0.9688 0.5938
vt 0.7500 0.6250
vt 0.9688 0.1562
vt 0.0000 0.0000
vt 0.6875 0.4062
vt 0.3125 0.4688
vt 0.1250 1.0000
vt 0.0000 0.0000
vt 0.3125 0.4688
vt 0.0000 0.0000
vt 1.0000 0.0000
vt 0.6875 0.4062
vt 0.1250 1.0000
vt 0.3125 0.4688
vt 0.6250 0.7812
vt 0.1250 1.0000
vt 0.0000 1.0000
vt 0.0000 0.0000
vt 0.6875 0.4062
vt 0.0000 0.0000
vt 0.3125 0.4688
vt 0.0000 0.0000
vt 0.1250 1.0000
vt 0.3125 0.4688
vt 1.0000 0.0000
vt 0.0000 0.0000
vt 0.6875 0.4062
vt 0.3125 0.4688
vt 0.1250 1.0000
vt 0.6250 0.7812
vt 0.0000 1.0000
vt 0.1250 1.0000
vt 0.0000 0.0000
vt 0.9688 0.0000
vt 0.6875 0.4688
vt 0.9688 0.2812
vt 0.9688 0.0000
vt 0.0000 0.0000
vt 0.6875 0.4688
vt 0.5938 0.4375
vt 0.5000 0.5312
vt 0.5625 0.1875
vt 0.5000 0.0938
vt 0.5625 0.1875
vt 0.5000 0.5312
vt 0.5312 0.9688
vt 0.7188 0.9688
vt 0.6875 0.4688
vt 0.9688 0.9688
vt 0.7188 0.9688
vt 0.6875 0.4688
vt 0.5312 0.9688
vt 0.6875 0.4688
vt 0.0000 0.0000
vt 0.9688 0.0000
vt 0.6875 0.4688
vt 0.0000 0.0000
vt 0.9688 0.2812
vt 0.6875 0.4688
vt 0.9688 0.0000
vt 0.6875 0.4688
vt 0.5312 0.9688
vt 0.0000 0.0000
vt 0.7188 0.9688
vt 0.5312 0.9688
vt 0.6875 0.4688
vt 0.7188 0.9688
vt 0.9688 0.9688
vt 0.6875 0.4688
vt 0.9688 0.9688
vt 0.9688 0.2812
vt 0.6875 0.4688
vt 0.9688 0.9688
vt 0.6875 0.4688
vt 0.9688 0.2812
vt 0.0000 0.0625
vt 0.0625 0.5000
vt 0.3125 0.5312
vt 0.3125 0.0312
vt 0.0000 0.0625
vt 0.3125 0.5312
vt 0.4375 0.3438
vt 0.3125 0.0312
vt 0.3125 0.5312
vt 1.0000 0.0000
vt 0.5000 1.0000
vt 1.0000 1.0000
vt 0.0000 0.0000
vt 0.5000 1.0000
vt 1.0000 0.0000
vt 0.0000 0.0000
vt 0.5000 1.0000
vt 0.0000 1.0000
vt 1.0000 1.0000
vt 0.5000 1.0000
vt 1.0000 0.0000
vt 0.9688 0.5938
vt 0.7500 0.0625
vt 0.7812 0.9688
vt 0.7500 0.0625
vt 0.2500 0.1875
vt 0.7812 0.9688
vt 0.2500 0.1875
vt 0.3750 0.8750
vt 0.7812 0.9688
vt 0.0312 0.0938
vt 0.1250 0.4688
vt 0.3750 0.3438
vt 0.3750 0.3438
vt 0.2812 0.0938
vt 0.0312 0.0938
vt 0.6875 0.6562
vt 0.9688 0.5625
vt 0.9375 0.2500
vt 0.6875 0.6875
vt 0.0000 0.0938
vt 0.4688 0.0625
vt 0.0000 0.0938
vt 0.4062 0.8438
vt 0.1250 0.9375
vt 0.0938 0.9688
vt 0.4688 0.0312
vt 0.0000 0.0938
vt 0.4688 0.0312
vt 0.0938 0.9688
vt 0.6875 0.6562
vt 0.6875 0.6562
vt 0.7500 0.0000
vt 0.4688 0.0312
vt 0.7500 0.0000
vt 0.6875 0.6562
vt 0.9375 0.2500
vt 0.8125 0.0312
vt 0.8125 0.6875
vt 0.6875 0.6875
vt 0.4688 0.0625
vt 0.8125 0.0312
vt 0.6875 0.6875
vt 0.9688 0.5625
vt 0.8125 0.6875
vt 0.8125 0.0312
vt 0.0000 0.0938
vt 0.6875 0.6875
vt 0.4062 0.8438
vt 0.5312 0.7188
vt 0.0000 0.0000
vt 0.0625 0.9688
vt 0.6250 0.6875
vt 0.4062 0.0312
vt 0.4688 0.7812
vt 0.2812 0.0938
vt 0.0312 0.0938
vt 0.3750 0.3438
vt 0.3750 0.0312
vt 0.5312 0.7500
vt 0.1250 0.9062
vt 0.4688 0.7812
vt 0.0000 0.0312
vt 0.0625 0.9688
vt 0.0625 0.9688
vt 0.0000 0.0000
vt 0.0000 0.5938
vt 0.6875 0.6875
vt 0.1562 0.9375
vt 0.2812 0.5312
vt 0.8125 0.0625
vt 0.9375 0.5625
vt 0.6875 0.6875
vt 0.2812 0.5312
vt 0.4688 0.0625
vt 0.6875 0.6875
vt 0.0000 0.0000
vt 0.5312 0.7188
vt 0.3438 0.0000
vt 0.8125 0.0625
vt 0.6875 0.6875
vt 0.4688 0.0625
vt 0.0000 0.0312
vt 0.4688 0.7812
vt 0.4062 0.0312
vt 0.1562 0.4688
vt 0.3750 0.3438
vt 0.0312 0.0938
vt 0.1250 0.9062
vt 0.0000 0.0938
vt 0.3750 0.0312
vt 0.0000 0.0000
vt 1.0000 0.0000
vt 0.5000 1.0000
vt 0.1250 0.4688
vt 0.3750 0.3438
vt 0.0312 0.0938
vt 0.2812 0.0938
vt 0.0312 0.0938
vt 0.3750 0.3438
vt 0.9688 0.5625
vt 0.6875 0.6562
vt 0.9375 0.2812
vt 0.4062 0.8438
vt 0.6875 0.6875
vt 0.0000 0.0938
vt 0.4688 0.0625
vt 0.0000 0.0938
vt 0.6875 0.6875
vt 0.6875 0.6562
vt 0.0938 0.9688
vt 0.4688 0.0312
vt 0.0000 0.0938
vt 0.4688 0.0312
vt 0.0938 0.9688
vt 0.9375 0.2812
vt 0.6875 0.6562
vt 0.7500 0.0000
vt 0.4688 0.0312
vt 0.7500 0.0000
vt 0.6875 0.6562
vt 0.8125 0.6875
vt 0.8125 0.0312
vt 0.6875 0.6875
vt 0.8125 0.0312
vt 0.4688 0.0625
vt 0.6875 0.6875
vt 0.8125 0.6875
vt 0.9688 0.5625
vt 0.8125 0.0312
vt 0.0000 0.0938
vt 0.1250 0.9375
vt 0.4062 0.8438
vt 0.3438 0.0000
vt 0.5312 0.7188
vt 0.0000 0.0000
vt 0.4062 0.0312
vt 0.6250 0.6875
vt 0.4688 0.7812
vt 0.0312 0.0938
vt 0.2812 0.0938
vt 0.3750 0.3438
vt 0.5312 0.7500
vt 0.3750 0.0312
vt 0.1250 0.9062
vt 0.0000 0.0312
vt 0.4688 0.7812
vt 0.0625 0.9688
vt 0.0000 0.0000
vt 0.0625 0.9688
vt 0.0000 0.5938
vt 0.6875 0.6875
vt 0.4688 0.0625
vt 0.2812 0.5312
vt 0.9375 0.5625
vt 0.8125 0.0625
vt 0.6875 0.6875
vt 0.2812 0.5312
vt 0.1562 0.9375
vt 0.6875 0.6875
vt 0.0625 0.9688
vt 0.0000 0.0000
vt 0.5312 0.7188
vt 0.6875 0.6875
vt 0.8125 0.0625
vt 0.4688 0.0625
vt 0.4688 0.7812
vt 0.0000 0.0312
vt 0.4062 0.0312
vt 0.3750 0.3438
vt 0.1562 0.4688
vt 0.0312 0.0938
vt 0.0000 0.0938
vt 0.1250 0.9062
vt 0.3750 0.0312
vt 0.5000 1.0000
vt 0.0000 0.0000
vt 0.0000 1.0000
vn -0.4178 0.8832 0.2132
vn 0.0505 0.0731 0.9960
vn -0.9686 -0.2069 0.1381
vn -0.2741 0.3619 -0.8910
vn 0.7487 0.6625 -0.0243
vn -0.4446 0.8680 0.2211
vn 0.0647 0.0625 0.9959
vn -0.2732 0.3790 -0.8842
vn 0.7459 0.6655 -0.0252
vn -0.4175 0.8834 0.2128
vn 0.4150 0.8838 0.2160
vn -0.0718 0.0625 0.9955
vn 0.2800 0.3624 -0.8890
vn -0.7494 0.6615 -0.0298
vn 0.4420 0.8685 0.2244
vn -0.0576 0.0730 0.9957
vn 0.2790 0.3795 -0.8821
vn -0.7470 0.6642 -0.0306
vn 0.4420 0.8688 0.2233
vn 0.4148 0.8840 0.2157
vn 0.4422 0.8684 0.2246
vn -0.9684 -0.2086 0.1367
vn -0.4456 0.8676 0.2209
vn -0.4446 0.8680 0.2210
vn -0.4449 0.8680 0.2207
vn -0.4447 0.8682 0.2203
vn 0.4430 0.8681 0.2240
vn 0.4418 0.8687 0.2241
vn 0.4421 0.8686 0.2236
vn -0.4449 0.8678 0.2213
vn -0.4448 0.8680 0.2210
vn 0.4422 0.8685 0.2241
vn -0.4450 0.8678 0.2211
vn -0.9516 0.3041 0.0450
vn -0.9517 0.3037 0.0450
vn -0.0012 0.9876 0.1569
vn 0.9511 0.3045 0.0516
vn 0.9509 0.3050 0.0517
vn 0.0031 0.3566 -0.9342
vn -0.8222 0.2560 -0.5084
vn -0.5177 0.7990 -0.3059
vn -0.9852 0.0257 -0.1697
vn -0.8198 0.2739 -0.5028
vn -0.9789 -0.0341 0.2016
vn -0.0135 0.9982 -0.0583
vn 0.0070 0.9249 0.3802
vn -0.9787 -0.0333 0.2024
vn -0.9476 -0.1641 -0.2741
vn -0.0005 0.9981 -0.0622
vn 0.0035 -0.4097 -0.9122
vn 0.8261 0.2562 -0.5019
vn 0.5189 0.7996 -0.3022
vn 0.9498 -0.1624 -0.2672
vn 0.8237 0.2742 -0.4964
vn -0.9519 0.3032 0.0449
vn 0.9775 -0.0328 0.2086
vn 0.0125 0.9982 -0.0582
vn -0.0109 0.9249 0.3802
vn 0.9773 -0.0320 0.2093
vn 0.9863 0.0270 -0.1627
vn -0.5878 -0.7987 -0.1290
vn -0.5891 -0.7978 -0.1286
vn -0.0012 0.9876 0.1567
vn 0.9506 0.3059 0.0518
vn 0.5899 -0.7978 -0.1246
vn 0.5879 -0.7993 -0.1246
vn 0.9506 0.3059 0.0519
vn -0.5860 -0.8000 -0.1288
vn 0.9509 0.3050 0.0518
vn 0.5897 -0.7979 -0.1246
vn 0.0007 -1.0000 -0.0053
vn -0.5453 -0.4180 -0.7266
vn -0.6707 0.1312 -0.7301
vn -0.3693 0.3054 -0.8777
vn -0.5951 0.4809 -0.6439
vn -0.5953 0.4805 -0.6440
vn -0.5453 -0.4185 -0.7263
vn 0.5510 -0.4174 -0.7226
vn 0.6757 0.1313 -0.7254
vn 0.5990 0.4817 -0.6397
vn 0.3751 0.3059 -0.8751
vn 0.5992 0.4813 -0.6397
vn 0.5510 -0.4178 -0.7224
vn -0.4572 0.8834 0.1029
vn -0.5936 0.8033 0.0487
vn -0.4968 0.8670 -0.0390
vn -0.5489 0.8116 -0.1998
vn -0.4632 0.8812 0.0945
vn -0.4967 0.8670 -0.0388
vn -0.4450 0.8679 0.2210
vn 0.4955 0.8679 -0.0346
vn 0.5492 0.8124 -0.1959
vn 0.4553 0.8840 0.1059
vn 0.4959 0.8677 -0.0353
vn 0.5923 0.8040 0.0526
vn 0.4614 0.8818 0.0977
vn -0.0031 -1.0000 -0.0028
vn 0.0092 -0.9999 -0.0106
vn 0.0007 -1.0000 -0.0093
vn -0.0026 -0.9999 -0.0132
vn 0.0045 -1.0000 -0.0028
vn -0.0078 -0.9999 -0.0107
vn 0.0041 -0.9999 -0.0132
vn -0.6250 0.7799 0.0323
vn -0.4442 0.8639 0.2376
vn 0.9676 -0.2079 0.1431
vn 0.9679 -0.2051 0.1453
vn -0.4455 0.8715 0.2049
vn 0.4428 0.8722 0.2080
vn -0.4300 0.8771 0.2138
vn 0.4413 0.8644 0.2409
vn 0.6453 0.7639 0.0080
vn 0.4272 0.8777 0.2169
vn 0.4428 0.8721 0.2080
vn -0.4453 0.8716 0.2049
vn -0.5364 0.7977 0.2756
vn 0.5425 0.7897 0.2866
vn -0.0034 -0.1567 0.9876
vn -0.5860 -0.8000 -0.1291
vn -0.5872 -0.7991 -0.1288
vn 0.5899 -0.7978 -0.1247
vn 0.5879 -0.7992 -0.1250
vn 0.0043 0.1564 -0.9877
vn 0.0034 0.1562 -0.9877
vn 0.0025 0.1564 -0.9877
vn -0.1029 0.5340 -0.8392
vn -0.1086 0.5751 -0.8108
vn -0.4787 0.5137 -0.7120
vn -0.1940 -0.7872 -0.5853
vn -0.3228 -0.8595 -0.3964
vn -0.4395 0.7814 0.4430
vn -0.3036 0.7934 0.5276
vn 0.1998 0.9018 0.3831
vn 0.3901 0.8098 0.4383
vn 0.2859 -0.5585 -0.7787
vn 0.4504 -0.6067 -0.6550
vn 0.1615 -0.5682 -0.8069
vn -0.2749 -0.8609 -0.4282
vn -0.0082 -0.9833 0.1817
vn -0.9445 -0.0045 0.3285
vn -0.4660 -0.0771 -0.8814
vn 0.7234 0.0056 -0.6904
vn -0.9465 0.0474 0.3192
vn 0.6804 -0.5577 -0.4755
vn 0.2393 0.3040 -0.9221
vn -0.3410 0.9391 -0.0427
vn 0.4939 0.6842 -0.5367
vn 0.0523 -0.9817 0.1834
vn -0.1345 0.9324 -0.3354
vn -0.9447 0.0282 0.3268
vn -0.4664 -0.0766 -0.8813
vn 0.7143 -0.0602 -0.6972
vn 0.5891 -0.7983 -0.1247
vn 0.1081 0.5341 -0.8385
vn 0.1136 0.5753 -0.8100
vn 0.4829 0.5144 -0.7087
vn 0.2790 -0.8605 -0.4263
vn 0.1992 -0.7870 -0.5840
vn 0.2989 0.7938 0.5296
vn 0.4353 0.7821 0.4460
vn -0.3942 0.8092 0.4356
vn -0.2038 0.9015 0.3818
vn -0.2796 -0.5589 -0.7807
vn -0.4449 -0.6073 -0.6582
vn -0.1551 -0.5684 -0.8080
vn 0.3268 -0.8590 -0.3941
vn -0.0522 -0.9817 0.1830
vn 0.9422 -0.0033 0.3350
vn 0.4723 -0.0765 -0.8781
vn -0.7185 0.0046 -0.6955
vn 0.9441 0.0475 0.3261
vn -0.6762 -0.5586 -0.4803
vn -0.4910 0.6835 -0.5402
vn 0.3400 0.9396 -0.0404
vn -0.2332 0.3037 -0.9238
vn 0.0082 -0.9833 0.1817
vn 0.1356 0.9326 -0.3344
vn 0.9424 0.0294 0.3332
vn 0.4727 -0.0759 -0.8779
vn -0.7093 -0.0611 -0.7023
vn -0.5891 -0.7977 -0.1288
usemtl Shape.002
s 1
f 199/1/1 200/2/1 201/3/1
f 202/4/2 203/5/2 204/6/2
f 205/7/3 206/8/3 207/9/3
f 208/10/4 209/11/4 210/12/4
f 211/13/5 212/14/5 213/15/5
f 214/16/6 215/17/6 216/18/6
f 217/19/7 218/20/7 219/21/7
f 220/22/8 221/23/8 222/24/8
f 223/25/9 224/26/9 225/27/9
f 226/28/10 227/29/10 228/30/10
f 229/31/11 230/32/11 231/33/11
f 232/34/12 233/35/12 234/36/12
f 235/37/13 236/38/13 237/39/13
f 238/40/14 239/41/14 240/42/14
f 241/43/15 242/44/15 243/45/15
f 244/46/16 245/47/16 246/48/16
f 247/49/17 248/50/17 249/51/17
f 250/52/18 251/53/18 252/54/18
f 253/55/19 254/56/19 255/57/19
f 256/58/20 257/59/20 258/60/20
f 259/61/21 260/62/21 261/63/21
f 262/64/22 263/65/22 264/66/22
f 265/67/23 266/68/23 267/69/23
f 268/70/24 269/71/24 270/72/24
f 271/73/25 272/74/25 273/75/25
f 274/76/26 275/77/26 276/78/26
f 277/79/27 278/80/27 279/81/27
f 280/82/28 281/83/28 282/84/28
f 283/85/29 284/86/29 285/87/29
f 286/88/30 287/89/30 288/90/30
usemtl Shape.006
f 55/91/31 56/92/31 57/93/31
f 58/94/32 59/95/32 60/96/32
f 61/97/33 62/98/33 63/99/33
f 64/100/32 65/101/32 66/102/32
usemtl Shape.001
f 289/103/34 290/104/34 291/105/34
f 292/106/35 293/107/35 294/108/35
f 295/109/36 296/110/36 297/111/36
f 298/112/36 299/113/36 300/114/36
f 301/115/37 302/116/37 303/117/37
f 304/118/38 305/119/38 306/120/38
f 307/121/39 308/122/39 309/123/39
f 310/124/40 311/125/40 312/126/40
f 313/127/41 314/128/41 315/129/41
f 316/130/42 317/131/42 318/132/42
f 319/133/43 320/134/43 321/135/43
f 322/136/44 323/137/44 324/138/44
f 325/139/45 326/140/45 327/141/45
f 328/142/46 329/143/46 330/144/46
f 331/145/47 332/146/47 333/147/47
f 334/148/48 335/149/48 336/150/48
f 337/151/49 338/152/49 339/153/49
f 340/154/50 341/155/50 342/156/50
f 343/157/39 344/158/39 345/159/39
f 346/160/50 347/161/50 348/162/50
f 349/163/39 350/164/39 351/165/39
f 352/166/51 353/167/51 354/168/51
f 355/169/52 356/170/52 357/171/52
f 358/172/53 359/173/53 360/174/53
f 361/175/54 362/176/54 363/177/54
f 364/178/49 365/179/49 366/180/49
f 367/181/50 368/182/50 369/183/50
f 370/184/39 371/185/39 372/186/39
f 373/187/50 374/188/50 375/189/50
f 376/190/55 377/191/55 378/192/55
f 379/193/36 380/194/36 381/195/36
f 382/196/56 383/197/56 384/198/56
f 385/199/57 386/200/57 387/201/57
f 388/202/58 389/203/58 390/204/58
f 391/205/59 392/206/59 393/207/59
f 394/208/60 395/209/60 396/210/60
f 397/211/61 398/212/61 399/213/61
f 400/214/62 401/215/62 402/216/62
f 403/217/34 404/218/34 405/219/34
f 406/220/55 407/221/55 408/222/55
f 409/223/63 410/224/63 411/225/63
f 412/226/63 413/227/63 414/228/63
f 415/229/37 416/230/37 417/231/37
f 418/232/64 419/233/64 420/234/64
f 421/235/65 422/236/65 423/237/65
f 424/238/66 425/239/66 426/240/66
f 427/241/67 428/242/67 429/243/67
f 430/244/68 431/245/68 432/246/68
f 433/247/35 434/248/35 435/249/35
f 436/250/63 437/251/63 438/252/63
f 439/253/69 440/254/69 441/255/69
f 442/256/70 443/257/70 444/258/70
usemtl Shape.008
f 43/259/71 44/260/71 45/261/71
f 46/262/71 47/263/71 48/264/71
f 49/265/71 50/266/71 51/267/71
f 52/268/71 53/269/71 54/270/71
usemtl Shape.003
f 139/271/71 140/272/71 141/273/71
f 142/274/72 143/275/72 144/276/72
f 145/277/73 146/278/73 147/279/73
f 148/280/74 149/281/74 150/282/74
f 151/283/75 152/284/75 153/285/75
f 154/286/75 155/287/75 156/288/75
f 157/289/76 158/290/76 159/291/76
f 160/292/77 161/293/77 162/294/77
f 163/295/78 164/296/78 165/297/78
f 166/298/79 167/299/79 168/300/79
f 169/301/80 170/302/80 171/303/80
f 172/304/81 173/305/81 174/306/81
f 175/307/80 176/308/80 177/309/80
f 178/310/82 179/311/82 180/312/82
f 181/313/83 182/314/83 183/315/83
f 184/316/71 185/317/71 186/318/71
f 187/319/71 188/320/71 189/321/71
f 190/322/71 191/323/71 192/324/71
f 193/325/71 194/326/71 195/327/71
f 196/328/71 197/329/71 198/330/71
usemtl Shape.004
f 97/331/84 98/332/84 99/333/84
f 100/334/85 101/335/85 102/336/85
f 103/337/86 104/338/86 105/339/86
f 106/340/87 107/341/87 108/342/87
f 109/343/88 110/344/88 111/345/88
f 112/346/89 113/347/89 114/348/89
f 115/349/90 116/350/90 117/351/90
f 118/352/91 119/353/91 120/354/91
f 121/355/92 122/356/92 123/357/92
f 124/358/93 125/359/93 126/360/93
f 127/361/94 128/362/94 129/363/94
f 130/364/95 131/365/95 132/366/95
f 133/367/96 134/368/96 135/369/96
f 136/370/32 137/371/32 138/372/32
usemtl Shape.005
f 67/373/97 68/374/97 69/375/97
f 70/376/98 71/377/98 72/378/98
f 73/379/99 74/380/99 75/381/99
f 76/382/100 77/383/100 78/384/100
f 79/385/99 80/386/99 81/387/99
f 82/388/101 83/389/101 84/390/101
f 85/391/102 86/392/102 87/393/102
f 88/394/99 89/395/99 90/396/99
f 91/397/103 92/398/103 93/399/103
f 94/400/99 95/401/99 96/402/99
usemtl Shape.007
f 1/403/104 2/404/104 3/405/104
f 4/406/105 5/407/105 6/408/105
f 7/409/106 8/410/106 9/411/106
f 10/412/107 11/413/107 12/414/107
f 13/415/108 14/416/108 15/417/108
f 16/418/109 17/419/109 18/420/109
f 19/421/110 20/422/110 21/423/110
f 22/424/111 23/425/111 24/426/111
f 25/427/112 26/428/112 27/429/112
f 28/430/113 29/431/113 30/432/113
f 31/433/114 32/434/114 33/435/114
f 34/436/115 35/437/115 36/438/115
f 37/439/116 38/440/116 39/441/116
f 40/442/117 41/443/117 42/444/117
usemtl Shape
f 445/445/118 446/446/118 447/447/118
f 448/448/118 449/449/118 450/450/118
f 451/451/118 452/452/118 453/453/118
f 454/454/119 455/455/119 456/456/119
f 457/457/120 458/458/120 459/459/120
f 460/460/121 461/461/121 462/462/121
f 463/463/122 464/464/122 465/465/122
f 466/466/123 467/467/123 468/468/123
f 469/469/124 470/470/124 471/471/124
f 472/472/125 473/473/125 474/474/125
f 475/475/126 476/476/126 477/477/126
f 478/478/127 479/479/127 480/480/127
f 481/481/128 482/482/128 483/483/128
f 484/484/129 485/485/129 486/486/129
f 487/487/130 488/488/130 489/489/130
f 490/490/131 491/491/131 492/492/131
f 493/493/132 494/494/132 495/495/132
f 496/496/133 497/497/133 498/498/133
f 499/499/134 500/500/134 501/501/134
f 502/502/135 503/503/135 504/504/135
f 505/505/136 506/506/136 507/507/136
f 508/508/137 509/509/137 510/510/137
f 511/511/138 512/512/138 513/513/138
f 514/514/139 515/515/139 516/516/139
f 517/517/140 518/518/140 519/519/140
f 520/520/141 521/521/141 522/522/141
f 523/523/142 524/524/142 525/525/142
f 526/526/143 527/527/143 528/528/143
f 529/529/144 530/530/144 531/531/144
f 532/532/145 533/533/145 534/534/145
f 535/535/146 536/536/146 537/537/146
f 538/538/147 539/539/147 540/540/147
f 541/541/148 542/542/148 543/543/148
f 544/544/149 545/545/149 546/546/149
f 547/547/150 548/548/150 549/549/150
f 550/550/151 551/551/151 552/552/151
f 553/553/152 554/554/152 555/555/152
f 556/556/153 557/557/153 558/558/153
f 559/559/154 560/560/154 561/561/154
f 562/562/155 563/563/155 564/564/155
f 565/565/156 566/566/156 567/567/156
f 568/568/157 569/569/157 570/570/157
f 571/571/158 572/572/158 573/573/158
f 574/574/159 575/575/159 576/576/159
f 577/577/160 578/578/160 579/579/160
f 580/580/161 581/581/161 582/582/161
f 583/583/162 584/584/162 585/585/162
f 586/586/163 587/587/163 588/588/163
f 589/589/164 590/590/164 591/591/164
f 592/592/165 593/593/165 594/594/165
f 595/595/166 596/596/166 597/597/166
f 598/598/167 599/599/167 600/600/167
f 601/601/168 602/602/168 603/603/168
f 604/604/169 605/605/169 606/606/169
f 607/607/170 608/608/170 609/609/170
f 610/610/171 611/611/171 612/612/171
f 613/613/172 614/614/172 615/615/172
f 616/616/173 617/617/173 618/618/173
f 619/619/174 620/620/174 621/621/174
f 622/622/175 623/623/175 624/624/175
f 625/625/176 626/626/176 627/627/176
f 628/628/177 629/629/177 630/630/177
f 631/631/178 632/632/178 633/633/178
f 634/634/179 635/635/179 636/636/179
f 637/637/180 638/638/180 639/639/180
f 640/640/181 641/641/181 642/642/181
