# Blender v2.77 (sub 0) OBJ File: ''
# www.blender.org
mtllib Excalibur.mtl
o ShapeIndexedFaceSet.010
v -2.183576 0.467454 2.817463
v -2.183949 0.279549 2.817301
v -1.655298 0.466398 2.838310
v 2.095615 0.270987 2.865882
v 2.095989 0.458891 2.866044
v 1.567374 0.459950 2.874893
v -2.183949 0.279549 2.817301
v -2.183576 0.467454 2.817463
v -2.659817 0.166500 0.755960
v 2.095989 0.458891 2.866044
v 2.095615 0.270987 2.865882
v 2.600397 0.155975 0.815673
v -1.655675 0.278493 2.838501
v -1.655298 0.466398 2.838310
v -2.183949 0.279549 2.817301
v 1.567374 0.459950 2.874893
v 1.566996 0.272046 2.875085
v 2.095615 0.270987 2.865882
v -2.658982 0.582081 0.755750
v -2.659817 0.166500 0.755960
v -2.183576 0.467454 2.817463
v 2.600397 0.155975 0.815673
v 2.601233 0.571557 0.815463
v 2.095989 0.458891 2.866044
v -1.494621 0.579776 1.079394
v -2.658982 0.582081 0.755750
v -1.655298 0.466398 2.838310
v -2.183576 0.467454 2.817463
v -1.655298 0.466398 2.838310
v -2.658982 0.582081 0.755750
v -2.659817 0.166500 0.755960
v -1.655675 0.278493 2.838501
v -2.183949 0.279549 2.817301
v -1.655675 0.278493 2.838501
v -2.659817 0.166500 0.755960
v -1.495453 0.164371 1.079426
v 2.600397 0.155975 0.815673
v 2.095615 0.270987 2.865882
v 1.566996 0.272046 2.875085
v 1.566996 0.272046 2.875085
v 1.429000 0.158520 1.112624
v 2.600397 0.155975 0.815673
v 2.601233 0.571557 0.815463
v 1.429832 0.573925 1.112591
v 1.567374 0.459950 2.874893
v 1.567374 0.459950 2.874893
v 2.095989 0.458891 2.866044
v 2.601233 0.571557 0.815463
v -1.494621 0.579776 1.079394
v -0.721103 0.049911 1.647737
v -0.719005 1.096378 1.647654
v 1.429000 0.158520 1.112624
v 1.429832 0.573925 1.112591
v 0.641259 0.047185 1.663202
v -1.541946 0.969041 0.140469
v -1.549054 0.969105 0.767250
v -1.037327 1.302478 0.146163
v -1.037327 1.302478 0.146163
v -1.048526 1.302402 1.133705
v -0.719005 1.096378 1.647654
v 1.500744 0.962949 0.108893
v 1.493639 0.962835 0.735497
v 1.440848 0.573826 0.141133
v -1.048526 1.302402 1.133705
v -1.549054 0.969105 0.767250
v -1.494621 0.579776 1.079394
v 1.493639 0.962835 0.735497
v 0.986266 1.298326 1.090688
v 1.429832 0.573925 1.112591
v -0.721103 0.049911 1.647737
v -1.494621 0.579776 1.079394
v -1.495453 0.164371 1.079426
v 0.643355 1.093652 1.663119
v 0.641259 0.047185 1.663202
v 1.429832 0.573925 1.112591
v 0.997465 1.298402 0.103146
v 0.986266 1.298326 1.090688
v 1.493639 0.962835 0.735497
v -0.705640 0.049585 0.151824
v -0.721103 0.049911 1.647737
v -1.495453 0.164371 1.079426
v 0.656721 0.046859 0.167289
v 1.438118 0.158428 0.176148
v 1.429000 0.158520 1.112624
v 0.660715 1.093850 0.132401
v 0.643355 1.093652 1.663119
v 0.997465 1.298402 0.103146
v -1.483605 0.579677 0.107936
v -1.549054 0.969105 0.767250
v -1.541946 0.969041 0.140469
v -1.494621 0.579776 1.079394
v -0.719005 1.096378 1.647654
v -1.048526 1.302402 1.133705
v 0.643355 1.093652 1.663119
v 1.429832 0.573925 1.112591
v 0.986266 1.298326 1.090688
v 0.986266 1.298326 1.090688
v 0.997465 1.298402 0.103146
v 0.643355 1.093652 1.663119
v 1.493639 0.962835 0.735497
v 1.500744 0.962949 0.108893
v 0.997465 1.298402 0.103146
v 1.429832 0.573925 1.112591
v 1.440848 0.573826 0.141133
v 1.493639 0.962835 0.735497
v -0.719005 1.096378 1.647654
v -0.701648 1.096575 0.116936
v -1.037327 1.302478 0.146163
v -1.048526 1.302402 1.133705
v -1.037327 1.302478 0.146163
v -1.549054 0.969105 0.767250
v -1.549054 0.969105 0.767250
v -1.483605 0.579677 0.107936
v -1.494621 0.579776 1.079394
v 0.641259 0.047185 1.663202
v 0.656721 0.046859 0.167289
v 1.429000 0.158520 1.112624
v -1.495453 0.164371 1.079426
v -1.486333 0.164279 0.142950
v -0.705640 0.049585 0.151824
v -2.079157 0.549186 -0.423681
v -2.079861 0.197064 -0.423653
v -2.369070 0.565545 0.166123
v 2.047467 0.188806 -0.376800
v 2.324703 0.556154 0.219405
v 2.322038 0.172397 0.254240
v -2.079861 0.197064 -0.423653
v -2.079157 0.549186 -0.423681
v -1.473425 0.164173 -0.863135
v 2.048173 0.540928 -0.376828
v 2.047467 0.188806 -0.376800
v 1.451028 0.158322 -0.829938
v -1.655298 0.466398 2.838310
v -1.655675 0.278493 2.838501
v -1.494621 0.579776 1.079394
v 1.566996 0.272046 2.875085
v 1.567374 0.459950 2.874893
v 1.429832 0.573925 1.112591
v -2.659817 0.166500 0.755960
v -2.369070 0.565545 0.166123
v -2.371734 0.181788 0.200958
v 2.601233 0.571557 0.815463
v 2.600397 0.155975 0.815673
v 2.324703 0.556154 0.219405
v -1.472592 0.579578 -0.863168
v -1.473425 0.164173 -0.863135
v -2.079157 0.549186 -0.423681
v 1.451028 0.158322 -0.829938
v 1.451860 0.573727 -0.829971
v 2.048173 0.540928 -0.376828
v -1.495453 0.164371 1.079426
v -1.494621 0.579776 1.079394
v -1.655675 0.278493 2.838501
v 1.429832 0.573925 1.112591
v 1.429000 0.158520 1.112624
v 1.566996 0.272046 2.875085
v 2.047467 0.188806 -0.376800
v 2.048173 0.540928 -0.376828
v 2.324703 0.556154 0.219405
v -2.659817 0.166500 0.755960
v -2.658982 0.582081 0.755750
v -2.369070 0.565545 0.166123
v 2.322038 0.172397 0.254240
v 2.324703 0.556154 0.219405
v 2.600397 0.155975 0.815673
v -2.371734 0.181788 0.200958
v -2.369070 0.565545 0.166123
v -2.079861 0.197064 -0.423653
v -1.483605 0.579677 0.107936
v -2.079157 0.549186 -0.423681
v -2.369070 0.565545 0.166123
v -2.369070 0.565545 0.166123
v -2.658982 0.582081 0.755750
v -1.483605 0.579677 0.107936
v -1.486333 0.164279 0.142950
v -2.371734 0.181788 0.200958
v -2.079861 0.197064 -0.423653
v -2.371734 0.181788 0.200958
v -1.486333 0.164279 0.142950
v -2.659817 0.166500 0.755960
v 1.438118 0.158428 0.176148
v 1.451028 0.158322 -0.829938
v 2.047467 0.188806 -0.376800
v 2.322038 0.172397 0.254240
v 2.600397 0.155975 0.815673
v 1.438118 0.158428 0.176148
v 1.440848 0.573826 0.141133
v 1.429832 0.573925 1.112591
v 2.601233 0.571557 0.815463
v 2.324703 0.556154 0.219405
v 2.048173 0.540928 -0.376828
v 1.440848 0.573826 0.141133
v 1.451860 0.573727 -0.829971
v 1.440848 0.573826 0.141133
v 2.048173 0.540928 -0.376828
v 2.601233 0.571557 0.815463
v 2.324703 0.556154 0.219405
v 1.440848 0.573826 0.141133
v -1.494621 0.579776 1.079394
v -1.483605 0.579677 0.107936
v -2.658982 0.582081 0.755750
v -2.079157 0.549186 -0.423681
v -1.483605 0.579677 0.107936
v -1.472592 0.579578 -0.863168
v 1.429000 0.158520 1.112624
v 1.438118 0.158428 0.176148
v 2.600397 0.155975 0.815673
v 2.047467 0.188806 -0.376800
v 2.322038 0.172397 0.254240
v 1.438118 0.158428 0.176148
v -1.473425 0.164173 -0.863135
v -1.486333 0.164279 0.142950
v -2.079861 0.197064 -0.423653
v -2.659817 0.166500 0.755960
v -1.486333 0.164279 0.142950
v -1.495453 0.164371 1.079426
v 1.500744 0.962949 0.108893
v 1.507851 0.962885 -0.517888
v 0.997465 1.298402 0.103146
v -1.473425 0.164173 -0.863135
v -1.472592 0.579578 -0.863168
v -0.686386 0.049422 -1.413875
v -1.486333 0.164279 0.142950
v -1.473425 0.164173 -0.863135
v -0.705640 0.049585 0.151824
v 1.438118 0.158428 0.176148
v 0.656721 0.046859 0.167289
v 1.451028 0.158322 -0.829938
v 1.451860 0.573727 -0.829971
v 1.451028 0.158322 -0.829938
v 0.675975 0.046697 -1.398409
v 0.997465 1.298402 0.103146
v 1.008665 1.298301 -0.884574
v 0.678073 1.093517 -1.398492
v -1.541946 0.969041 0.140469
v -1.534838 0.968978 -0.486312
v -1.483605 0.579677 0.107936
v 1.008665 1.298301 -0.884574
v 1.507851 0.962885 -0.517888
v 1.451860 0.573727 -0.829971
v -1.534838 0.968978 -0.486312
v -1.026126 1.302378 -0.841557
v -1.472592 0.579578 -0.863168
v -1.037327 1.302478 0.146163
v -1.026126 1.302378 -0.841557
v -1.534838 0.968978 -0.486312
v -0.684288 1.096243 -1.413958
v -0.686386 0.049422 -1.413875
v -1.472592 0.579578 -0.863168
v 0.675975 0.046697 -1.398409
v 0.678073 1.093517 -1.398492
v 1.451860 0.573727 -0.829971
v -0.701648 1.096575 0.116936
v -0.684288 1.096243 -1.413958
v -1.037327 1.302478 0.146163
v 1.440848 0.573826 0.141133
v 1.507851 0.962885 -0.517888
v 1.500744 0.962949 0.108893
v 1.451860 0.573727 -0.829971
v 0.678073 1.093517 -1.398492
v 1.008665 1.298301 -0.884574
v -0.684288 1.096243 -1.413958
v -1.472592 0.579578 -0.863168
v -1.026126 1.302378 -0.841557
v 0.678073 1.093517 -1.398492
v 0.660715 1.093850 0.132401
v 0.997465 1.298402 0.103146
v 1.008665 1.298301 -0.884574
v 0.997465 1.298402 0.103146
v 1.507851 0.962885 -0.517888
v 1.507851 0.962885 -0.517888
v 1.440848 0.573826 0.141133
v 1.451860 0.573727 -0.829971
v -1.026126 1.302378 -0.841557
v -1.037327 1.302478 0.146163
v -0.684288 1.096243 -1.413958
v -1.534838 0.968978 -0.486312
v -1.541946 0.969041 0.140469
v -1.037327 1.302478 0.146163
v -1.472592 0.579578 -0.863168
v -1.483605 0.579677 0.107936
v -1.534838 0.968978 -0.486312
v 1.451028 0.158322 -0.829938
v 0.656721 0.046859 0.167289
v 0.675975 0.046697 -1.398409
v -0.686386 0.049422 -1.413875
v -0.705640 0.049585 0.151824
v -1.473425 0.164173 -0.863135
v -0.735150 0.931242 3.042105
v -0.037309 1.226707 1.655202
v -0.719005 1.096378 1.647654
v 0.625446 0.047151 3.057640
v -0.039868 -0.050266 1.655303
v 0.641259 0.047185 1.663202
v -0.719005 1.096378 1.647654
v -0.721103 0.049911 1.647737
v -0.735150 0.931242 3.042105
v 0.641259 0.047185 1.663202
v 0.643355 1.093652 1.663119
v 0.627211 0.928515 3.057570
v 0.643355 1.093652 1.663119
v -0.037309 1.226707 1.655202
v 0.627211 0.928515 3.057570
v -0.721103 0.049911 1.647737
v -0.039868 -0.050266 1.655303
v -0.736915 0.049877 3.042175
v -0.735150 0.931242 3.042105
v -0.053528 1.024979 3.049833
v -0.037309 1.226707 1.655202
v 0.625446 0.047151 3.057640
v -0.055680 -0.050301 3.049741
v -0.039868 -0.050266 1.655303
v -0.736915 0.049877 3.042175
v -0.735150 0.931242 3.042105
v -0.721103 0.049911 1.647737
v 0.627211 0.928515 3.057570
v 0.625446 0.047151 3.057640
v 0.641259 0.047185 1.663202
v -0.053528 1.024979 3.049833
v 0.627211 0.928515 3.057570
v -0.037309 1.226707 1.655202
v -0.055680 -0.050301 3.049741
v -0.736915 0.049877 3.042175
v -0.039868 -0.050266 1.655303
v 0.627211 0.928515 3.057570
v -0.074567 0.723419 4.851896
v 0.271317 0.682070 4.855827
v -0.427099 0.049433 5.285848
v -0.055680 -0.050301 3.049741
v -0.081081 -0.049896 5.289785
v 0.271317 0.682070 4.855827
v -0.074567 0.723419 4.851896
v -0.081081 -0.049896 5.289785
v -0.420864 0.683455 4.847970
v -0.736915 0.049877 3.042175
v -0.427099 0.049433 5.285848
v -0.736915 0.049877 3.042175
v -0.420864 0.683455 4.847970
v -0.735150 0.931242 3.042105
v 0.627211 0.928515 3.057570
v 0.271317 0.682070 4.855827
v 0.625446 0.047151 3.057640
v 0.265081 0.048048 5.293705
v 0.625446 0.047151 3.057640
v 0.271317 0.682070 4.855827
v -0.420864 0.683455 4.847970
v -0.074567 0.723419 4.851896
v -0.735150 0.931242 3.042105
v 0.265081 0.048048 5.293705
v -0.081081 -0.049896 5.289785
v -0.055680 -0.050301 3.049741
v -0.427099 0.049433 5.285848
v -0.081081 -0.049896 5.289785
v -0.420864 0.683455 4.847970
v -0.053528 1.024979 3.049833
v -0.074567 0.723419 4.851896
v 0.627211 0.928515 3.057570
v -0.736915 0.049877 3.042175
v -0.055680 -0.050301 3.049741
v -0.427099 0.049433 5.285848
v 0.271317 0.682070 4.855827
v -0.081081 -0.049896 5.289785
v 0.265081 0.048048 5.293705
v -0.053528 1.024979 3.049833
v -0.735150 0.931242 3.042105
v -0.074567 0.723419 4.851896
v -0.055680 -0.050301 3.049741
v 0.625446 0.047151 3.057640
v 0.265081 0.048048 5.293705
v -0.074567 0.723419 4.851896
v -0.420864 0.683455 4.847970
v -0.081081 -0.049896 5.289785
v -0.448225 0.199697 -1.819725
v 0.001267 0.840645 -1.814865
v -0.000150 0.133220 -1.814809
v 0.447934 0.197904 -1.809552
v -0.000150 0.133220 -1.814809
v 0.449098 0.777880 -1.809775
v -0.447061 0.779673 -1.819948
v 0.001267 0.840645 -1.814865
v -0.448225 0.199697 -1.819725
v 0.001267 0.840645 -1.814865
v 0.449098 0.777880 -1.809775
v -0.000150 0.133220 -1.814809
v -0.019954 1.226728 0.124661
v -0.684288 1.096243 -1.413958
v -0.701648 1.096575 0.116936
v -0.024407 -0.050415 0.159567
v 0.675975 0.046697 -1.398409
v 0.656721 0.046859 0.167289
v -0.002594 1.226395 -1.406233
v 0.001267 0.840645 -1.814865
v -0.447061 0.779673 -1.819948
v -0.447061 0.779673 -1.819948
v -0.448225 0.199697 -1.819725
v -0.684288 1.096243 -1.413958
v -0.005153 -0.050578 -1.406131
v -0.000150 0.133220 -1.814809
v 0.447934 0.197904 -1.809552
v 0.447934 0.197904 -1.809552
v 0.449098 0.777880 -1.809775
v 0.678073 1.093517 -1.398492
v 0.678073 1.093517 -1.398492
v -0.019954 1.226728 0.124661
v 0.660715 1.093850 0.132401
v -0.686386 0.049422 -1.413875
v -0.024407 -0.050415 0.159567
v -0.705640 0.049585 0.151824
v 0.449098 0.777880 -1.809775
v 0.001267 0.840645 -1.814865
v -0.002594 1.226395 -1.406233
v -0.448225 0.199697 -1.819725
v -0.000150 0.133220 -1.814809
v -0.005153 -0.050578 -1.406131
v -0.684288 1.096243 -1.413958
v -0.002594 1.226395 -1.406233
v -0.447061 0.779673 -1.819948
v -0.686386 0.049422 -1.413875
v -0.684288 1.096243 -1.413958
v -0.448225 0.199697 -1.819725
v 0.675975 0.046697 -1.398409
v -0.005153 -0.050578 -1.406131
v 0.447934 0.197904 -1.809552
v 0.678073 1.093517 -1.398492
v 0.675975 0.046697 -1.398409
v 0.447934 0.197904 -1.809552
v -0.002594 1.226395 -1.406233
v 0.678073 1.093517 -1.398492
v 0.449098 0.777880 -1.809775
v -0.005153 -0.050578 -1.406131
v -0.686386 0.049422 -1.413875
v -0.448225 0.199697 -1.819725
v -0.019954 1.226728 0.124661
v 0.678073 1.093517 -1.398492
v -0.002594 1.226395 -1.406233
v -0.019954 1.226728 0.124661
v -0.002594 1.226395 -1.406233
v -0.684288 1.096243 -1.413958
v -0.024407 -0.050415 0.159567
v -0.686386 0.049422 -1.413875
v -0.005153 -0.050578 -1.406131
v -0.024407 -0.050415 0.159567
v -0.005153 -0.050578 -1.406131
v 0.675975 0.046697 -1.398409
v -0.719005 1.096378 1.647654
v -0.019954 1.226728 0.124661
v -0.701648 1.096575 0.116936
v 0.641259 0.047185 1.663202
v -0.024407 -0.050415 0.159567
v 0.656721 0.046859 0.167289
v -0.037309 1.226707 1.655202
v 0.643355 1.093652 1.663119
v -0.019954 1.226728 0.124661
v -0.039868 -0.050266 1.655303
v -0.721103 0.049911 1.647737
v -0.024407 -0.050415 0.159567
v -0.719005 1.096378 1.647654
v -0.037309 1.226707 1.655202
v -0.019954 1.226728 0.124661
v 0.660715 1.093850 0.132401
v -0.019954 1.226728 0.124661
v 0.643355 1.093652 1.663119
v 0.641259 0.047185 1.663202
v -0.039868 -0.050266 1.655303
v -0.024407 -0.050415 0.159567
v -0.705640 0.049585 0.151824
v -0.024407 -0.050415 0.159567
v -0.721103 0.049911 1.647737
vt 0.0000 0.0000
vt 0.9375 0.9688
vt 0.0000 0.9688
vt 0.0000 0.0000
vt 0.9375 0.9688
vt 0.0000 0.9688
vt 0.9375 0.0000
vt 0.0000 0.0000
vt 0.9375 0.9688
vt 0.9375 0.0000
vt 0.0000 0.0000
vt 0.9375 0.9688
vt 0.0000 0.0000
vt 0.9375 0.0000
vt 0.9375 0.9688
vt 0.0000 0.9688
vt 0.9375 0.9688
vt 0.0000 0.0000
vt 0.0000 0.0000
vt 0.9375 0.0000
vt 0.9375 0.9688
vt 0.0000 0.9688
vt 0.9375 0.9688
vt 0.0000 0.0000
vt 0.5312 0.0000
vt 0.9688 0.0000
vt 0.5312 0.9688
vt 0.9688 0.0000
vt 0.5312 0.0000
vt 0.5312 0.9688
vt 0.5000 0.9688
vt 0.0000 0.9688
vt 0.5000 0.0000
vt 0.0000 0.9688
vt 0.5000 0.9688
vt 0.5000 0.0000
vt 0.9688 0.9688
vt 0.5312 0.9688
vt 0.9688 0.0000
vt 0.5312 0.9688
vt 0.9688 0.9688
vt 0.9688 0.0000
vt 0.0000 0.0000
vt 0.5000 0.0000
vt 0.0000 0.9688
vt 0.5000 0.0000
vt 0.0000 0.0000
vt 0.0000 0.9688
vt 0.9375 0.8438
vt 0.0000 0.9688
vt 0.8750 0.0312
vt 0.4375 0.0312
vt 0.8750 0.0312
vt 0.0000 0.9688
vt 0.0000 0.9688
vt 0.8750 0.0312
vt 0.4375 0.0312
vt 0.8750 0.0312
vt 0.0000 0.9688
vt 0.9375 0.8438
vt 0.0000 0.9688
vt 0.4375 0.0312
vt 0.8750 0.0312
vt 0.8750 0.0312
vt 0.9375 0.8438
vt 0.0000 0.9688
vt 0.0000 0.9688
vt 0.9375 0.8438
vt 0.8750 0.0312
vt 0.8750 0.0312
vt 0.4375 0.0312
vt 0.0000 0.9688
vt 0.0000 0.6875
vt 0.9375 0.2500
vt 0.9375 0.6875
vt 0.0000 0.5312
vt 0.0000 0.6875
vt 0.9375 0.2500
vt 0.0000 0.9688
vt 0.0000 0.5625
vt 0.5938 0.9688
vt 0.5938 0.9688
vt 0.5938 0.3125
vt 0.9375 0.1875
vt 0.0000 0.9688
vt 0.0000 0.5625
vt 0.3125 0.9688
vt 0.5938 0.9688
vt 0.0000 0.9688
vt 0.0000 0.6875
vt 0.0000 0.9688
vt 0.5938 0.9688
vt 0.0000 0.6875
vt 0.9375 0.2500
vt 0.0000 0.6875
vt 0.0000 0.5312
vt 0.9375 0.6875
vt 0.9375 0.2500
vt 0.0000 0.6875
vt 0.5938 0.9688
vt 0.5938 0.3125
vt 0.0000 0.5625
vt 0.9375 0.9688
vt 0.9375 0.1875
vt 0.0000 0.5625
vt 0.9375 0.9688
vt 0.0000 0.9688
vt 0.0000 0.5625
vt 0.9375 0.9688
vt 0.9375 0.1875
vt 0.5938 0.9688
vt 0.3125 0.9688
vt 0.0000 0.5625
vt 0.0000 0.9688
vt 0.0000 0.6875
vt 0.9375 0.6875
vt 0.5938 0.9688
vt 0.9375 0.6875
vt 0.0000 0.6875
vt 0.5938 0.9688
vt 0.5938 0.3125
vt 0.5938 0.9688
vt 0.9375 0.1875
vt 0.0000 0.5625
vt 0.0000 0.9688
vt 0.5938 0.9688
vt 0.3125 0.4375
vt 0.3125 0.9688
vt 0.0000 0.5625
vt 0.9375 0.1875
vt 0.9375 0.9688
vt 0.5938 0.9688
vt 0.5938 0.3125
vt 0.5938 0.9688
vt 0.0000 0.5625
vt 0.0000 0.5625
vt 0.3125 0.9688
vt 0.3125 0.4375
vt 0.9375 0.1875
vt 0.9375 0.9688
vt 0.0000 0.5625
vt 0.0000 0.5625
vt 0.0000 0.9688
vt 0.9375 0.9688
vt 0.5312 0.9688
vt 0.9688 0.9688
vt 0.5312 0.5000
vt 0.9688 0.9688
vt 0.5312 0.5000
vt 0.9688 0.5000
vt 0.5000 0.9688
vt 0.0000 0.9688
vt 0.5000 0.0000
vt 0.0000 0.9688
vt 0.5000 0.9688
vt 0.5000 0.0000
vt 0.5000 0.0000
vt 0.9688 0.0000
vt 0.5000 0.9688
vt 0.9688 0.0000
vt 0.5000 0.0000
vt 0.5000 0.9688
vt 0.9688 0.0000
vt 0.5312 0.5000
vt 0.9688 0.5000
vt 0.5312 0.0000
vt 0.9688 0.0000
vt 0.5312 0.5000
vt 0.0000 0.0000
vt 0.5000 0.0000
vt 0.0000 0.9688
vt 0.5000 0.0000
vt 0.0000 0.0000
vt 0.0000 0.9688
vt 0.9688 0.9688
vt 0.5000 0.9688
vt 0.9688 0.0000
vt 0.5000 0.9688
vt 0.9688 0.9688
vt 0.9688 0.0000
vt 0.9688 0.9688
vt 0.5312 0.9688
vt 0.5312 0.5000
vt 0.9688 0.0000
vt 0.5312 0.0000
vt 0.5312 0.5000
vt 0.9688 0.5000
vt 0.5312 0.5000
vt 0.9688 0.0000
vt 0.9688 0.5000
vt 0.5312 0.5000
vt 0.9688 0.9688
vt 0.9375 0.5000
vt 0.4688 0.7500
vt 0.2188 0.4375
vt 0.2188 0.4375
vt 0.0312 0.1562
vt 0.9375 0.5000
vt 0.9375 0.5000
vt 0.2188 0.4375
vt 0.4688 0.7500
vt 0.2188 0.4375
vt 0.9375 0.5000
vt 0.0312 0.1562
vt 0.9375 0.5000
vt 0.9375 0.9688
vt 0.4688 0.7500
vt 0.2188 0.4375
vt 0.0312 0.1562
vt 0.9375 0.5000
vt 0.9375 0.5000
vt 0.9375 0.0000
vt 0.0312 0.1562
vt 0.2188 0.4375
vt 0.4688 0.7500
vt 0.9375 0.5000
vt 0.9375 0.9688
vt 0.9375 0.5000
vt 0.4688 0.7500
vt 0.0312 0.1562
vt 0.2188 0.4375
vt 0.9375 0.5000
vt 0.9375 0.0000
vt 0.9375 0.5000
vt 0.0312 0.1562
vt 0.4688 0.7500
vt 0.9375 0.5000
vt 0.9375 0.9688
vt 0.9375 0.0000
vt 0.9375 0.5000
vt 0.0312 0.1562
vt 0.4688 0.7500
vt 0.2188 0.4375
vt 0.9375 0.5000
vt 0.9375 0.9688
vt 0.9375 0.5000
vt 0.4688 0.7500
vt 0.0312 0.1562
vt 0.9375 0.5000
vt 0.9375 0.0000
vt 0.0000 0.0000
vt 0.0000 0.3750
vt 0.5938 0.0000
vt 0.0000 0.3438
vt 0.0000 0.6250
vt 0.9375 0.3438
vt 0.0000 0.0000
vt 0.0000 0.6250
vt 0.9375 0.0000
vt 0.0000 0.0000
vt 0.9375 0.0000
vt 0.0000 0.6250
vt 0.0000 0.6250
vt 0.0000 0.3438
vt 0.9375 0.3438
vt 0.5938 0.0000
vt 0.5938 0.6250
vt 0.9375 0.9688
vt 0.0000 0.0000
vt 0.0000 0.3750
vt 0.1875 0.0000
vt 0.5938 0.6250
vt 0.0000 0.3750
vt 0.0000 0.6250
vt 0.0000 0.3750
vt 0.5938 0.6250
vt 0.0000 0.6250
vt 0.5938 0.0000
vt 0.5938 0.6250
vt 0.0000 0.3750
vt 0.9375 0.9688
vt 0.9375 0.3438
vt 0.0000 0.6250
vt 0.9375 0.3438
vt 0.9375 0.9688
vt 0.0000 0.6250
vt 0.9375 0.0000
vt 0.9375 0.9688
vt 0.5938 0.0000
vt 0.1875 0.0000
vt 0.0000 0.3750
vt 0.0000 0.0000
vt 0.0000 0.6250
vt 0.9375 0.9688
vt 0.5938 0.6250
vt 0.9375 0.9688
vt 0.0000 0.6250
vt 0.5938 0.6250
vt 0.9375 0.9688
vt 0.9375 0.0000
vt 0.5938 0.0000
vt 0.5938 0.6250
vt 0.5938 0.0000
vt 0.0000 0.3750
vt 0.0000 0.3750
vt 0.1875 0.0000
vt 0.1875 0.6250
vt 0.5938 0.6250
vt 0.5938 0.0000
vt 0.9375 0.9688
vt 0.0000 0.3750
vt 0.0000 0.0000
vt 0.5938 0.0000
vt 0.1875 0.6250
vt 0.1875 0.0000
vt 0.0000 0.3750
vt 0.0000 0.6250
vt 0.9375 0.0000
vt 0.9375 0.9688
vt 0.9375 0.9688
vt 0.9375 0.0000
vt 0.0000 0.6250
vt 0.1562 0.0000
vt 0.9375 0.9688
vt 0.0625 0.9688
vt 0.1562 0.0000
vt 0.9375 0.9688
vt 0.0625 0.9688
vt 0.1562 0.9688
vt 0.7500 0.9688
vt 0.1562 0.0000
vt 0.7500 0.9688
vt 0.1562 0.9688
vt 0.1562 0.0000
vt 0.0625 0.9688
vt 0.9375 0.9688
vt 0.1562 0.0000
vt 0.0625 0.9688
vt 0.9375 0.9688
vt 0.1562 0.0000
vt 0.1562 0.0000
vt 0.9375 0.0000
vt 0.9375 0.9688
vt 0.1562 0.0000
vt 0.9375 0.0000
vt 0.9375 0.9688
vt 0.7500 0.0000
vt 0.1562 0.0000
vt 0.7500 0.9688
vt 0.1562 0.0000
vt 0.7500 0.0000
vt 0.7500 0.9688
vt 0.9375 0.0000
vt 0.1562 0.0000
vt 0.9375 0.9688
vt 0.9375 0.0000
vt 0.1562 0.0000
vt 0.9375 0.9688
vt 0.0938 0.9688
vt 0.9375 0.1875
vt 0.4062 0.1875
vt 0.4375 0.0312
vt 0.9375 0.9688
vt 0.9375 0.0312
vt 0.4062 0.1875
vt 0.9375 0.1875
vt 0.9375 0.0000
vt 0.4375 0.1875
vt 0.9375 0.9688
vt 0.9375 0.0312
vt 0.9375 0.9688
vt 0.4375 0.1875
vt 0.0938 0.9688
vt 0.0938 0.9688
vt 0.4375 0.1875
vt 0.9375 0.9688
vt 0.9375 0.0312
vt 0.9375 0.9688
vt 0.4375 0.1875
vt 0.4062 0.1875
vt 0.9375 0.1875
vt 0.0938 0.9688
vt 0.4375 0.0312
vt 0.9375 0.0312
vt 0.9375 0.9688
vt 0.4062 0.0000
vt 0.9375 0.0000
vt 0.4062 0.1875
vt 0.9375 0.9688
vt 0.9375 0.1875
vt 0.0938 0.9688
vt 0.0938 0.9688
vt 0.9375 0.9688
vt 0.4375 0.0312
vt 0.4062 0.1875
vt 0.9375 0.0000
vt 0.4062 0.0000
vt 0.9375 0.9688
vt 0.0938 0.9688
vt 0.9375 0.1875
vt 0.9375 0.9688
vt 0.0938 0.9688
vt 0.4375 0.0312
vt 0.9375 0.1875
vt 0.4062 0.1875
vt 0.9375 0.0000
vt 0.9688 0.9062
vt 0.5000 0.0000
vt 0.4688 0.9688
vt 0.0000 0.9062
vt 0.4688 0.9688
vt 0.0000 0.0625
vt 0.9688 0.0625
vt 0.5000 0.0000
vt 0.9688 0.9062
vt 0.5000 0.0000
vt 0.0000 0.0625
vt 0.4688 0.9688
vt 0.9375 0.0000
vt 0.0000 0.7812
vt 0.0000 0.0000
vt 0.9375 0.0000
vt 0.0000 0.7812
vt 0.0000 0.0000
vt 0.9688 0.7812
vt 0.9688 0.9375
vt 0.3125 0.9375
vt 0.3125 0.8125
vt 0.3125 0.6250
vt 0.0000 0.9375
vt 0.9688 0.7812
vt 0.9688 0.9375
vt 0.3125 0.9375
vt 0.3125 0.6250
vt 0.3125 0.8125
vt 0.0000 0.9375
vt 0.0000 0.7812
vt 0.9375 0.0000
vt 0.0000 0.0000
vt 0.0000 0.7812
vt 0.9375 0.0000
vt 0.0000 0.0000
vt 0.3125 0.9375
vt 0.9688 0.9375
vt 0.9688 0.7812
vt 0.3125 0.9375
vt 0.9688 0.9375
vt 0.9688 0.7812
vt 0.0000 0.7812
vt 0.9688 0.7812
vt 0.3125 0.9375
vt 0.0000 0.5625
vt 0.0000 0.9375
vt 0.3125 0.6250
vt 0.0000 0.7812
vt 0.9688 0.7812
vt 0.3125 0.9375
vt 0.0000 0.9375
vt 0.0000 0.5625
vt 0.3125 0.6250
vt 0.9688 0.7812
vt 0.0000 0.7812
vt 0.3125 0.9375
vt 0.9688 0.7812
vt 0.0000 0.7812
vt 0.3125 0.9375
vt 0.9375 0.0000
vt 0.0000 0.7812
vt 0.9375 0.7812
vt 0.9375 0.0000
vt 0.9375 0.7812
vt 0.0000 0.7812
vt 0.9375 0.0000
vt 0.0000 0.7812
vt 0.9375 0.7812
vt 0.9375 0.0000
vt 0.9375 0.7812
vt 0.0000 0.7812
vn -0.1875 0.9823 -0.0020
vn 0.1414 -0.9900 0.0017
vn 0.1918 0.9814 0.0022
vn -0.1455 -0.9894 -0.0014
vn -0.1878 0.9822 -0.0021
vn 0.1916 0.9815 0.0023
vn 0.1416 -0.9899 0.0016
vn -0.1452 -0.9894 -0.0013
vn -0.0394 -0.0008 0.9992
vn 0.0167 -0.0009 0.9999
vn -0.9744 0.0017 0.2248
vn 0.9710 -0.0021 0.2392
vn -0.0401 0.0011 0.9992
vn 0.0174 0.0010 0.9998
vn -0.9744 0.0021 0.2248
vn 0.9710 -0.0018 0.2391
vn -0.0155 0.9979 0.0629
vn -0.0002 0.9985 0.0556
vn -0.0042 -0.9984 0.0557
vn -0.0193 -0.9978 0.0630
vn -0.0010 -0.9984 0.0558
vn 0.0139 -0.9979 0.0632
vn 0.0180 0.9978 0.0631
vn 0.0029 0.9984 0.0556
vn -0.5915 0.0012 0.8063
vn 0.5730 -0.0011 0.8196
vn -0.5512 0.8343 -0.0063
vn 0.5234 0.8521 0.0060
vn 0.9884 -0.1512 0.0112
vn -0.6983 0.3858 0.6029
vn 0.6918 0.4409 0.5718
vn -0.5916 0.0012 0.8063
vn 0.5546 0.8321 0.0064
vn -0.1453 -0.9894 -0.0013
vn 0.1413 -0.9900 0.0015
vn -0.5195 0.8544 -0.0058
vn -0.9890 -0.1473 -0.0112
vn -0.6985 0.3859 0.6026
vn 0.6917 0.4408 0.5720
vn -0.5197 0.8543 -0.0058
vn 0.9884 -0.1513 0.0112
vn 0.5232 0.8522 0.0060
vn -0.5511 0.8344 -0.0062
vn 0.1411 -0.9900 0.0017
vn -0.8974 0.0018 -0.4412
vn 0.9157 -0.0426 -0.3995
vn -0.5868 0.0011 -0.8098
vn 0.6050 -0.0013 -0.7962
vn 0.9959 -0.0019 0.0908
vn -0.9970 0.0021 0.0779
vn -0.8866 -0.0357 -0.4612
vn 0.9071 -0.0020 -0.4208
vn 0.9959 -0.0020 0.0908
vn -0.9970 0.0020 0.0779
vn 0.9072 -0.0019 -0.4207
vn -0.8974 0.0016 -0.4413
vn 0.8944 -0.0466 -0.4448
vn -0.9052 -0.0322 -0.4238
vn -0.0184 0.9992 -0.0367
vn -0.0184 0.9991 -0.0371
vn -0.0220 -0.9992 -0.0347
vn -0.0223 -0.9990 -0.0391
vn 0.0505 -0.9987 0.0008
vn 0.0192 -0.9991 -0.0387
vn 0.0020 1.0000 -0.0001
vn 0.0232 0.9991 -0.0363
vn 0.0545 0.9985 0.0005
vn 0.0232 0.9991 -0.0366
vn -0.0505 0.9987 -0.0007
vn -0.0022 -1.0000 0.0001
vn 0.0188 -0.9992 -0.0342
vn -0.0546 -0.9985 -0.0006
vn -0.0019 -1.0000 0.0001
vn 0.5546 0.8321 0.0062
vn -0.5732 0.0011 -0.8194
vn -0.1453 -0.9894 -0.0018
vn 0.1413 -0.9900 0.0019
vn 0.5915 -0.0012 -0.8063
vn -0.5199 0.8542 -0.0060
vn 0.7000 0.3828 -0.6029
vn -0.6901 0.4433 -0.5721
vn 0.5232 0.8522 0.0057
vn 0.7000 0.3828 -0.6028
vn -0.6902 0.4434 -0.5719
vn -0.5195 0.8544 -0.0061
vn 0.5236 0.8520 0.0059
vn 0.1412 -0.9900 0.0018
vn -0.1454 -0.9894 -0.0017
vn -0.1878 0.9756 0.1134
vn -0.9999 0.0020 -0.0113
vn 0.9999 -0.0020 0.0113
vn 0.1892 0.9749 0.1176
vn -0.1455 -0.9894 -0.0017
vn -0.1365 0.9807 0.1403
vn 0.1373 0.9801 0.1434
vn 0.1155 0.9808 0.1573
vn -0.2759 -0.9612 -0.0030
vn 0.0489 0.4918 0.8693
vn -0.9853 0.1037 0.1361
vn -0.9851 0.0020 0.1717
vn 0.9810 -0.0019 0.1939
vn 0.9824 0.0996 0.1583
vn -0.1150 0.9813 0.1547
vn 0.2722 -0.9622 0.0033
vn 0.1517 0.5607 0.8140
vn 0.1365 0.9768 0.1651
vn -0.1457 -0.9891 0.0199
vn -0.1680 0.5613 0.8104
vn -0.1362 0.9773 0.1620
vn 0.1413 -0.9897 0.0232
vn -0.0666 0.4921 0.8680
vn 0.0110 -0.0001 -0.9999
vn 0.0118 -0.0004 -0.9999
vn 0.0114 -0.0004 -0.9999
vn 0.0114 -0.0001 -0.9999
vn -0.1875 0.9823 -0.0023
vn 0.1414 -0.9900 0.0018
vn -0.0907 0.7238 -0.6841
vn -0.8629 0.0015 -0.5054
vn 0.1353 -0.9042 -0.4050
vn 0.8744 -0.0019 -0.4853
vn 0.1916 0.9815 0.0020
vn -0.1452 -0.9894 -0.0017
vn 0.1091 0.7233 -0.6818
vn -0.1296 -0.9037 -0.4080
vn -0.1342 0.7419 -0.6569
vn -0.8627 0.0017 -0.5056
vn 0.1337 -0.9038 -0.4065
vn 0.8742 -0.0018 -0.4855
vn 0.1522 0.7413 -0.6537
vn -0.1279 -0.9033 -0.4095
usemtl Shape.010
s 1
f 445/1/1 446/2/1 447/3/1
f 448/4/2 449/5/2 450/6/2
f 451/7/3 452/8/3 453/9/3
f 454/10/4 455/11/4 456/12/4
f 457/13/5 458/14/5 459/15/5
f 460/16/6 461/17/6 462/18/6
f 463/19/7 464/20/7 465/21/7
f 466/22/8 467/23/8 468/24/8
usemtl Shape.007
f 1/25/9 2/26/9 3/27/9
f 4/28/10 5/29/10 6/30/10
f 7/31/11 8/32/11 9/33/11
f 10/34/12 11/35/12 12/36/12
f 13/37/13 14/38/13 15/39/13
f 16/40/14 17/41/14 18/42/14
f 19/43/15 20/44/15 21/45/15
f 22/46/16 23/47/16 24/48/16
usemtl Shape.009
f 25/49/17 26/50/17 27/51/17
f 28/52/18 29/53/18 30/54/18
f 31/55/19 32/56/19 33/57/19
f 34/58/20 35/59/20 36/60/20
f 37/61/21 38/62/21 39/63/21
f 40/64/22 41/65/22 42/66/22
f 43/67/23 44/68/23 45/69/23
f 46/70/24 47/71/24 48/72/24
usemtl Shape.005
f 49/73/25 50/74/25 51/75/25
f 52/76/26 53/77/26 54/78/26
f 55/79/27 56/80/27 57/81/27
f 58/82/28 59/83/28 60/84/28
f 61/85/29 62/86/29 63/87/29
f 64/88/30 65/89/30 66/90/30
f 67/91/31 68/92/31 69/93/31
f 70/94/32 71/95/32 72/96/32
f 73/97/26 74/98/26 75/99/26
f 76/100/33 77/101/33 78/102/33
f 79/103/34 80/104/34 81/105/34
f 82/106/35 83/107/35 84/108/35
f 85/109/36 86/110/36 87/111/36
f 88/112/37 89/113/37 90/114/37
f 91/115/38 92/116/38 93/117/38
f 94/118/39 95/119/39 96/120/39
f 97/121/40 98/122/40 99/123/40
f 100/124/33 101/125/33 102/126/33
f 103/127/41 104/128/41 105/129/41
f 106/130/42 107/131/42 108/132/42
f 109/133/43 110/134/43 111/135/43
f 112/136/37 113/137/37 114/138/37
f 115/139/44 116/140/44 117/141/44
f 118/142/34 119/143/34 120/144/34
usemtl Shape.004
f 121/145/45 122/146/45 123/147/45
f 124/148/46 125/149/46 126/150/46
f 127/151/47 128/152/47 129/153/47
f 130/154/48 131/155/48 132/156/48
f 133/157/49 134/158/49 135/159/49
f 136/160/50 137/161/50 138/162/50
f 139/163/51 140/164/51 141/165/51
f 142/166/52 143/167/52 144/168/52
f 145/169/47 146/170/47 147/171/47
f 148/172/48 149/173/48 150/174/48
f 151/175/53 152/176/53 153/177/53
f 154/178/54 155/179/54 156/180/54
f 157/181/55 158/182/55 159/183/55
f 160/184/56 161/185/56 162/186/56
f 163/187/57 164/188/57 165/189/57
f 166/190/58 167/191/58 168/192/58
usemtl Shape.008
f 169/193/59 170/194/59 171/195/59
f 172/196/60 173/197/60 174/198/60
f 175/199/61 176/200/61 177/201/61
f 178/202/62 179/203/62 180/204/62
f 181/205/63 182/206/63 183/207/63
f 184/208/64 185/209/64 186/210/64
f 187/211/65 188/212/65 189/213/65
f 190/214/66 191/215/66 192/216/66
f 193/217/67 194/218/67 195/219/67
f 196/220/68 197/221/68 198/222/68
f 199/223/65 200/224/65 201/225/65
f 202/226/69 203/227/69 204/228/69
f 205/229/70 206/230/70 207/231/70
f 208/232/71 209/233/71 210/234/71
f 211/235/72 212/236/72 213/237/72
f 214/238/73 215/239/73 216/240/73
usemtl Shape.006
f 217/241/74 218/242/74 219/243/74
f 220/244/75 221/245/75 222/246/75
f 223/247/76 224/248/76 225/249/76
f 226/250/77 227/251/77 228/252/77
f 229/253/78 230/254/78 231/255/78
f 232/256/79 233/257/79 234/258/79
f 235/259/37 236/260/37 237/261/37
f 238/262/80 239/263/80 240/264/80
f 241/265/81 242/266/81 243/267/81
f 244/268/27 245/269/27 246/270/27
f 247/271/75 248/272/75 249/273/75
f 250/274/78 251/275/78 252/276/78
f 253/277/82 254/278/82 255/279/82
f 256/280/29 257/281/29 258/282/29
f 259/283/83 260/284/83 261/285/83
f 262/286/84 263/287/84 264/288/84
f 265/289/85 266/290/85 267/291/85
f 268/292/74 269/293/74 270/294/74
f 271/295/29 272/296/29 273/297/29
f 274/298/86 275/299/86 276/300/86
f 277/301/27 278/302/27 279/303/27
f 280/304/37 281/305/37 282/306/37
f 283/307/87 284/308/87 285/309/87
f 286/310/88 287/311/88 288/312/88
usemtl Shape.002
f 289/313/89 290/314/89 291/315/89
f 292/316/7 293/317/7 294/318/7
f 295/319/90 296/320/90 297/321/90
f 298/322/91 299/323/91 300/324/91
f 301/325/92 302/326/92 303/327/92
f 304/328/93 305/329/93 306/330/93
f 307/331/94 308/332/94 309/333/94
f 310/334/7 311/335/7 312/336/7
f 313/337/90 314/338/90 315/339/90
f 316/340/91 317/341/91 318/342/91
f 319/343/95 320/344/95 321/345/95
f 322/346/93 323/347/93 324/348/93
usemtl Shape
f 325/349/96 326/350/96 327/351/96
f 328/352/97 329/353/97 330/354/97
f 331/355/98 332/356/98 333/357/98
f 334/358/99 335/359/99 336/360/99
f 337/361/100 338/362/100 339/363/100
f 340/364/101 341/365/101 342/366/101
f 343/367/102 344/368/102 345/369/102
f 346/370/103 347/371/103 348/372/103
f 349/373/104 350/374/104 351/375/104
f 352/376/105 353/377/105 354/378/105
f 355/379/106 356/380/106 357/381/106
f 358/382/107 359/383/107 360/384/107
f 361/385/108 362/386/108 363/387/108
f 364/388/109 365/389/109 366/390/109
f 367/391/110 368/392/110 369/393/110
f 370/394/111 371/395/111 372/396/111
usemtl Shape.001
f 373/397/112 374/398/112 375/399/112
f 376/400/113 377/401/113 378/402/113
f 379/403/114 380/404/114 381/405/114
f 382/406/115 383/407/115 384/408/115
usemtl Shape.003
f 385/409/116 386/410/116 387/411/116
f 388/412/117 389/413/117 390/414/117
f 391/415/118 392/416/118 393/417/118
f 394/418/119 395/419/119 396/420/119
f 397/421/120 398/422/120 399/423/120
f 400/424/121 401/425/121 402/426/121
f 403/427/122 404/428/122 405/429/122
f 406/430/123 407/431/123 408/432/123
f 409/433/124 410/434/124 411/435/124
f 412/436/125 413/437/125 414/438/125
f 415/439/126 416/440/126 417/441/126
f 418/442/127 419/443/127 420/444/127
f 421/445/128 422/446/128 423/447/128
f 424/448/129 425/449/129 426/450/129
f 427/451/130 428/452/130 429/453/130
f 430/454/131 431/455/131 432/456/131
f 433/457/122 434/458/122 435/459/122
f 436/460/116 437/461/116 438/462/116
f 439/463/123 440/464/123 441/465/123
f 442/466/117 443/467/117 444/468/117
