# Blender v2.79 (sub 0) OBJ File: ''
# www.blender.org
mtllib GreatFox.mtl
o Melon_Rip
v 10.104249 9.118907 4.012316
v 10.288394 9.150659 -3.321433
v 9.385416 8.444221 -3.346868
v 9.201271 8.412471 3.986881
v 23.046328 -5.086503 11.150634
v 23.127142 -5.072396 7.940512
v 25.838821 -4.279860 8.011250
v 25.758183 -4.293744 11.221172
v 25.758183 -4.293744 11.221172
v 25.838821 -4.279860 8.011250
v 27.795984 -2.228185 8.068594
v 27.715343 -2.242068 11.278516
v 27.715343 -2.242068 11.278516
v 27.795984 -2.228185 8.068594
v 28.470266 0.536005 8.097443
v 28.389626 0.522121 11.307365
v 28.389626 0.522121 11.307365
v 28.470266 0.536005 8.097443
v 27.686312 3.270885 8.089684
v 27.605671 3.257001 11.299608
v 27.605671 3.257001 11.299608
v 27.686312 3.270885 8.089684
v 25.648832 5.242427 8.047597
v 25.568192 5.228544 11.257519
v 25.568192 5.228544 11.257519
v 25.648832 5.242427 8.047597
v 22.907711 5.925632 7.982497
v 22.826847 5.911743 11.192519
v 23.356714 6.003109 -9.889339
v 23.275936 5.989331 -6.679119
v 26.017279 5.306131 -6.614118
v 26.097832 5.319905 -9.824241
v 26.097832 5.319905 -9.824241
v 26.017279 5.306131 -6.614118
v 28.054674 3.334478 -6.572229
v 28.135315 3.348363 -9.782152
v 28.135315 3.348363 -9.782152
v 28.054674 3.334478 -6.572229
v 28.838629 0.599598 -6.564472
v 28.919270 0.613483 -9.774395
v 28.919270 0.613483 -9.774395
v 28.838629 0.599598 -6.564472
v 28.164436 -2.164481 -6.593122
v 28.245075 -2.150596 -9.803045
v 28.245075 -2.150596 -9.803045
v 28.164436 -2.164481 -6.593122
v 26.207270 -4.216156 -6.650465
v 26.287825 -4.202383 -9.860587
v 26.287825 -4.202383 -9.860587
v 26.207270 -4.216156 -6.650465
v 23.495371 -5.008697 -6.721104
v 23.576147 -4.994918 -9.931325
v 15.850181 -1.344467 -14.734674
v 9.867373 -1.464591 -14.883643
v 9.796926 2.063802 -14.870279
v 15.779736 2.183927 -14.721310
v 9.105150 -1.596043 15.447474
v 15.088232 -1.476130 15.596441
v 15.017787 2.052263 15.609805
v 9.034754 1.932135 15.460937
v -32.361977 -2.638364 -21.624954
v -29.860023 -1.900743 -21.331161
v -29.400766 -1.432800 -21.774843
v -31.670153 -1.933539 -22.293346
v -31.670153 -1.933539 -22.293346
v -29.400766 -1.432800 -21.774843
v -29.437325 0.400223 -21.767813
v -31.724972 0.812939 -22.282911
v -31.724972 0.812939 -22.282911
v -29.437325 0.400223 -21.767813
v -29.914757 0.845843 -21.320528
v -32.444199 1.484302 -21.609140
v -30.896246 -2.079788 19.912872
v -33.409630 -2.819399 20.076033
v -32.752342 -2.120574 20.783974
v -30.459900 -1.615610 20.382996
v -30.459900 -1.615610 20.382996
v -32.752342 -2.120574 20.783974
v -32.807121 0.626232 20.794510
v -30.496542 0.217303 20.389826
v -30.496542 0.217303 20.389826
v -32.807121 0.626232 20.794510
v -33.491901 1.303483 20.091745
v -30.950977 0.666799 19.923508
v -47.047276 -2.350931 5.754147
v -43.861023 -1.831890 6.292808
v -47.074574 -0.977690 5.759614
v -47.074574 -0.977690 5.759614
v -43.861023 -1.831890 6.292808
v -43.897579 0.001133 6.299838
v -47.074574 -0.977690 5.759614
v -43.897579 0.001133 6.299838
v -47.102009 0.395657 5.764782
v -28.515781 1.339132 -22.658443
v -28.479139 -0.493781 -22.665272
v -31.724972 0.812939 -22.282911
v -31.724972 0.812939 -22.282911
v -28.479139 -0.493781 -22.665272
v -31.670153 -1.933539 -22.293346
v -46.701778 -2.291320 -7.993864
v -46.729076 -0.918080 -7.988396
v -43.492661 -1.768297 -8.369108
v -43.492661 -1.768297 -8.369108
v -46.729076 -0.918080 -7.988396
v -43.529221 0.064726 -8.362076
v -29.547857 -2.517828 21.319019
v -29.584499 -0.684914 21.325850
v -32.752342 -2.120574 20.783974
v -32.752342 -2.120574 20.783974
v -29.584499 -0.684914 21.325850
v -32.807121 0.626232 20.794510
v -30.533100 2.050326 20.396856
v -36.803753 2.865975 13.826496
v -39.539818 2.122639 13.755569
v -33.491901 1.303483 20.091745
v -29.621058 1.148109 21.332880
v -30.533100 2.050326 20.396856
v -33.491901 1.303483 20.091745
v -32.807121 0.626232 20.794510
v -29.547857 -2.517828 21.319019
v -32.752342 -2.120574 20.783974
v -33.409630 -2.819399 20.076033
v -30.423292 -3.448851 20.376064
v -36.657436 -4.466007 13.798573
v -30.423292 -3.448851 20.376064
v -33.409630 -2.819399 20.076033
v -39.421040 -3.833048 13.732725
v -42.912468 -4.566913 7.221700
v -36.657436 -4.466007 13.798573
v -39.421040 -3.833048 13.732725
v -45.450680 -3.930404 7.393035
v -44.733341 -2.762850 5.349659
v -42.912468 -4.566913 7.221700
v -45.450680 -3.930404 7.393035
v -47.047276 -2.350931 5.754147
v -45.143372 2.098996 -9.542153
v -42.145649 1.471754 -9.699173
v -43.529221 0.064726 -8.362076
v -46.756512 0.455268 -7.983227
v -32.444199 1.484302 -21.609140
v -29.914757 0.845843 -21.320528
v -36.039383 1.617000 -15.508192
v -38.802990 2.249959 -15.574039
v -38.684078 -3.705836 -15.596585
v -35.947956 -2.962719 -15.525559
v -29.860023 -1.900743 -21.331161
v -32.361977 -2.638364 -21.624954
v -45.024593 -3.856691 -9.564998
v -42.054226 -3.107964 -9.716540
v -35.947956 -2.962719 -15.525559
v -38.684078 -3.705836 -15.596585
v -46.701778 -2.291320 -7.993864
v -43.492661 -1.768297 -8.369108
v -42.054226 -3.107964 -9.716540
v -45.024593 -3.856691 -9.564998
v -42.644459 2.836653 -9.245579
v -45.143372 2.098996 -9.542153
v -46.756512 0.455268 -7.983227
v -44.484196 0.958903 -7.464606
v -36.066788 2.993187 -15.502813
v -38.802990 2.249959 -15.574039
v -45.143372 2.098996 -9.542153
v -42.644459 2.836653 -9.245579
v -29.473881 2.233246 -21.760782
v -32.444199 1.484302 -21.609140
v -38.802990 2.249959 -15.574039
v -36.066788 2.993187 -15.502813
v -28.515781 1.339132 -22.658443
v -31.724972 0.812939 -22.282911
v -32.444199 1.484302 -21.609140
v -29.473881 2.233246 -21.760782
v -28.442581 -2.326804 -22.672306
v -29.364208 -3.265823 -21.781872
v -32.361977 -2.638364 -21.624954
v -31.670153 -1.933539 -22.293346
v -35.920471 -4.338797 -15.530737
v -38.684078 -3.705836 -15.596585
v -32.361977 -2.638364 -21.624954
v -29.364208 -3.265823 -21.781872
v -42.498138 -4.495328 -9.273501
v -45.024593 -3.856691 -9.564998
v -38.684078 -3.705836 -15.596585
v -35.920471 -4.338797 -15.530737
v -39.421040 -3.833048 13.732725
v -33.409630 -2.819399 20.076033
v -30.896246 -2.079788 19.912872
v -36.684837 -3.089820 13.803951
v -45.569508 2.025502 7.415781
v -47.102009 0.395657 5.764782
v -43.897579 0.001133 6.299838
v -42.583172 1.396050 7.715813
v -39.539818 2.122639 13.755569
v -45.569508 2.025502 7.415781
v -42.583172 1.396050 7.715813
v -36.776215 1.489680 13.821418
v -33.491901 1.303483 20.091745
v -39.539818 2.122639 13.755569
v -36.776215 1.489680 13.821418
v -30.950977 0.666799 19.923508
v -38.802990 2.249959 -15.574039
v -36.039383 1.617000 -15.508192
v -42.145649 1.471754 -9.699173
v -45.143372 2.098996 -9.542153
v -45.450680 -3.930404 7.393035
v -39.421040 -3.833048 13.732725
v -36.684837 -3.089820 13.803951
v -42.491791 -3.183451 7.698348
v -44.411079 -2.707143 -7.478666
v -46.701778 -2.291320 -7.993864
v -45.024593 -3.856691 -9.564998
v -42.498138 -4.495328 -9.273501
v -47.047276 -2.350931 5.754147
v -45.450680 -3.930404 7.393035
v -42.491791 -3.183451 7.698348
v -43.861023 -1.831890 6.292808
v -43.058788 2.765070 7.249623
v -44.806507 0.903414 5.363623
v -47.102009 0.395657 5.764782
v -45.569508 2.025502 7.415781
v -36.803753 2.865975 13.826496
v -43.058788 2.765070 7.249623
v -45.569508 2.025502 7.415781
v -39.539818 2.122639 13.755569
v -46.756512 0.455268 -7.983227
v -43.529221 0.064726 -8.362076
v -46.729076 -0.918080 -7.988396
v 28.348579 -2.132730 -13.926870
v 26.391417 -4.184405 -13.984212
v 23.500916 0.510029 -11.283778
v -28.442581 -2.326804 -22.672306
v -31.670153 -1.933539 -22.293346
v -28.479139 -0.493781 -22.665272
v -29.584499 -0.684914 21.325850
v -29.621058 1.148109 21.332880
v -32.807121 0.626232 20.794510
v 27.501945 3.239127 15.423532
v 25.464460 5.210671 15.381444
v 22.902216 0.406689 12.545271
v 28.286121 0.504254 15.431190
v 27.501945 3.239127 15.423532
v 22.902216 0.406689 12.545271
v 27.611618 -2.259941 15.402440
v 28.286121 0.504254 15.431190
v 22.902216 0.406689 12.545271
v 25.654451 -4.311616 15.345098
v 27.611618 -2.259941 15.402440
v 22.902216 0.406689 12.545271
v 22.942823 -5.104369 15.274459
v 25.654451 -4.311616 15.345098
v 22.902216 0.406689 12.545271
v 20.201706 -4.421166 15.209357
v 22.942823 -5.104369 15.274459
v 22.902216 0.406689 12.545271
v 18.167208 -2.449453 15.167379
v 20.201706 -4.421166 15.209357
v 22.902216 0.406689 12.545271
v 17.380133 0.285363 15.159813
v 18.167208 -2.449453 15.167379
v 22.902216 0.406689 12.545271
v 18.057533 3.049616 15.188473
v 17.380133 0.285363 15.159813
v 22.902216 0.406689 12.545271
v 20.011717 5.101122 15.245705
v 18.057533 3.049616 15.188473
v 22.902216 0.406689 12.545271
v 22.723343 5.893876 15.316345
v 20.011717 5.101122 15.245705
v 22.902216 0.406689 12.545271
v 25.464460 5.210671 15.381444
v 22.723343 5.893876 15.316345
v 22.902216 0.406689 12.545271
v 26.201426 5.337883 -13.947865
v 28.238821 3.366229 -13.905978
v 23.500916 0.510029 -11.283778
v 28.238821 3.366229 -13.905978
v 29.022997 0.631354 -13.898319
v 23.500916 0.510029 -11.283778
v 29.022997 0.631354 -13.898319
v 28.348579 -2.132730 -13.926870
v 23.500916 0.510029 -11.283778
v 26.391417 -4.184405 -13.984212
v 23.679737 -4.976941 -14.054950
v 23.500916 0.510029 -11.283778
v 23.679737 -4.976941 -14.054950
v 20.938620 -4.293736 -14.120050
v 23.500916 0.510029 -11.283778
v 20.938620 -4.293736 -14.120050
v 18.904121 -2.322025 -14.162028
v 23.500916 0.510029 -11.283778
v 18.904121 -2.322025 -14.162028
v 18.116959 0.412681 -14.169797
v 23.500916 0.510029 -11.283778
v 18.116959 0.412681 -14.169797
v 18.794361 3.176934 -14.141137
v 23.500916 0.510029 -11.283778
v 18.794361 3.176934 -14.141137
v 20.748629 5.228551 -14.083704
v 23.500916 0.510029 -11.283778
v 20.748629 5.228551 -14.083704
v 23.460304 6.021087 -14.012965
v 23.500916 0.510029 -11.283778
v 23.460304 6.021087 -14.012965
v 26.201426 5.337883 -13.947865
v 23.500916 0.510029 -11.283778
v 22.942823 -5.104369 15.274459
v 23.046328 -5.086503 11.150634
v 25.758183 -4.293744 11.221172
v 25.654451 -4.311616 15.345098
v 25.654451 -4.311616 15.345098
v 25.758183 -4.293744 11.221172
v 27.715343 -2.242068 11.278516
v 27.611618 -2.259941 15.402440
v 27.611618 -2.259941 15.402440
v 27.715343 -2.242068 11.278516
v 28.389626 0.522121 11.307365
v 28.286121 0.504254 15.431190
v 28.286121 0.504254 15.431190
v 28.389626 0.522121 11.307365
v 27.605671 3.257001 11.299608
v 27.501945 3.239127 15.423532
v 27.501945 3.239127 15.423532
v 27.605671 3.257001 11.299608
v 25.568192 5.228544 11.257519
v 25.464460 5.210671 15.381444
v 25.464460 5.210671 15.381444
v 25.568192 5.228544 11.257519
v 22.826847 5.911743 11.192519
v 22.723343 5.893876 15.316345
v 22.999777 5.941497 4.318614
v 22.907711 5.925632 7.982497
v 25.648832 5.242427 8.047597
v 25.740894 5.258294 4.383713
v 25.740894 5.258294 4.383713
v 25.648832 5.242427 8.047597
v 27.686312 3.270885 8.089684
v 27.778376 3.286749 4.425801
v 27.778376 3.286749 4.425801
v 27.686312 3.270885 8.089684
v 28.470266 0.536005 8.097443
v 28.562244 0.551759 4.433359
v 28.562244 0.551759 4.433359
v 28.470266 0.536005 8.097443
v 27.795984 -2.228185 8.068594
v 27.888050 -2.212320 4.404708
v 27.888050 -2.212320 4.404708
v 27.795984 -2.228185 8.068594
v 25.838821 -4.279860 8.011250
v 25.930883 -4.263995 4.347366
v 25.930883 -4.263995 4.347366
v 25.838821 -4.279860 8.011250
v 23.127142 -5.072396 7.940512
v 23.219208 -5.056531 4.276628
v 23.460304 6.021087 -14.012965
v 23.356714 6.003109 -9.889339
v 26.097832 5.319905 -9.824241
v 26.201426 5.337883 -13.947865
v 26.201426 5.337883 -13.947865
v 26.097832 5.319905 -9.824241
v 28.135315 3.348363 -9.782152
v 28.238821 3.366229 -13.905978
v 28.238821 3.366229 -13.905978
v 28.135315 3.348363 -9.782152
v 28.919270 0.613483 -9.774395
v 29.022997 0.631354 -13.898319
v 29.022997 0.631354 -13.898319
v 28.919270 0.613483 -9.774395
v 28.245075 -2.150596 -9.803045
v 28.348579 -2.132730 -13.926870
v 28.348579 -2.132730 -13.926870
v 28.245075 -2.150596 -9.803045
v 26.287825 -4.202383 -9.860587
v 26.391417 -4.184405 -13.984212
v 26.391417 -4.184405 -13.984212
v 26.287825 -4.202383 -9.860587
v 23.576147 -4.994918 -9.931325
v 23.679737 -4.976941 -14.054950
v 23.403355 -5.024779 -3.057120
v 23.495371 -5.008697 -6.721104
v 26.207270 -4.216156 -6.650465
v 26.115253 -4.232238 -2.986481
v 26.115253 -4.232238 -2.986481
v 26.207270 -4.216156 -6.650465
v 28.164436 -2.164481 -6.593122
v 28.072147 -2.180351 -2.929138
v 28.072147 -2.180351 -2.929138
v 28.164436 -2.164481 -6.593122
v 28.838629 0.599598 -6.564472
v 28.746565 0.583733 -2.900588
v 28.746565 0.583733 -2.900588
v 28.838629 0.599598 -6.564472
v 28.054674 3.334478 -6.572229
v 27.962473 3.318718 -2.908046
v 27.962473 3.318718 -2.908046
v 28.054674 3.334478 -6.572229
v 26.017279 5.306131 -6.614118
v 25.925215 5.290267 -2.950234
v 25.925215 5.290267 -2.950234
v 26.017279 5.306131 -6.614118
v 23.275936 5.989331 -6.679119
v 23.183874 5.973465 -3.015235
v 8.111911 5.713240 -14.395065
v 6.315021 3.843421 -14.447788
v 6.153884 3.815556 -8.030634
v 7.835478 5.665619 -3.397334
v 7.835478 5.665619 -3.397334
v 6.153884 3.815556 -8.030634
v 5.739553 3.743973 8.464568
v 7.651157 5.633646 3.936612
v 7.651157 5.633646 3.936612
v 5.739553 3.743973 8.464568
v 5.578194 3.716103 14.881822
v 7.374948 5.586030 14.934245
v 4.061971 -1.783898 6.564397
v 4.384228 -1.728190 -6.263930
v 6.300115 -3.516536 -8.058758
v 5.885785 -3.588120 8.436444
v 5.885785 -3.588120 8.436444
v 6.300115 -3.516536 -8.058758
v 8.054958 -5.332626 -3.439220
v 7.870590 -5.364382 3.894627
v 23.460304 6.021087 -14.012965
v 20.748629 5.228551 -14.083704
v 8.111911 5.713240 -14.395065
v 8.111911 5.713240 -14.395065
v 20.748629 5.228551 -14.083704
v 18.794361 3.176934 -14.141137
v 8.111911 5.713240 -14.395065
v 18.794361 3.176934 -14.141137
v 6.315021 3.843421 -14.447788
v 6.315021 3.843421 -14.447788
v 18.794361 3.176934 -14.141137
v 18.116959 0.412681 -14.169797
v 6.315021 3.843421 -14.447788
v 18.116959 0.412681 -14.169797
v 6.461339 -3.488561 -14.475712
v 6.461339 -3.488561 -14.475712
v 18.116959 0.412681 -14.169797
v 18.904121 -2.322025 -14.162028
v 6.461339 -3.488561 -14.475712
v 18.904121 -2.322025 -14.162028
v 8.331257 -5.284898 -14.437250
v 8.331257 -5.284898 -14.437250
v 18.904121 -2.322025 -14.162028
v 20.938620 -4.293736 -14.120050
v 8.331257 -5.284898 -14.437250
v 20.938620 -4.293736 -14.120050
v 23.679737 -4.976941 -14.054950
v 22.942823 -5.104369 15.274459
v 20.201706 -4.421166 15.209357
v 7.594429 -5.412216 14.892360
v 7.594429 -5.412216 14.892360
v 20.201706 -4.421166 15.209357
v 18.167208 -2.449453 15.167379
v 7.594429 -5.412216 14.892360
v 18.167208 -2.449453 15.167379
v 5.724424 -3.615989 14.853698
v 5.724424 -3.615989 14.853698
v 18.167208 -2.449453 15.167379
v 17.380133 0.285363 15.159813
v 5.724424 -3.615989 14.853698
v 17.380133 0.285363 15.159813
v 5.578194 3.716103 14.881822
v 5.578194 3.716103 14.881822
v 17.380133 0.285363 15.159813
v 18.057533 3.049616 15.188473
v 5.578194 3.716103 14.881822
v 18.057533 3.049616 15.188473
v 7.374948 5.586030 14.934245
v 7.374948 5.586030 14.934245
v 18.057533 3.049616 15.188473
v 20.011717 5.101122 15.245705
v 7.374948 5.586030 14.934245
v 20.011717 5.101122 15.245705
v 22.723343 5.893876 15.316345
v 5.724424 -3.615989 14.853698
v 5.578194 3.716103 14.881822
v -0.868484 -2.856049 21.111666
v -0.868484 -2.856049 21.111666
v 5.578194 3.716103 14.881822
v -0.978205 2.643238 21.132660
v -0.868484 -2.856049 21.111666
v -0.978205 2.643238 21.132660
v -1.826408 -1.961713 22.009130
v -1.826408 -1.961713 22.009130
v -0.978205 2.643238 21.132660
v -1.899610 1.704222 22.022991
v 6.461339 -3.488561 -14.475712
v 0.190688 -2.672912 -21.046070
v 6.315021 3.843421 -14.447788
v 6.315021 3.843421 -14.447788
v 0.190688 -2.672912 -21.046070
v -0.721083 -1.770908 -21.982096
v 6.315021 3.843421 -14.447788
v -0.721083 -1.770908 -21.982096
v 0.080929 2.826047 -21.025181
v 0.080929 2.826047 -21.025181
v -0.721083 -1.770908 -21.982096
v -0.794199 1.895139 -21.968033
v 23.046328 -5.086503 11.150634
v 7.594429 -5.412216 14.892360
v 7.870590 -5.364382 3.894627
v 23.127142 -5.072396 7.940512
v 22.907711 5.925632 7.982497
v 7.651157 5.633646 3.936612
v 7.374948 5.586030 14.934245
v 22.826847 5.911743 11.192519
v 7.835478 5.665619 -3.397334
v 23.275936 5.989331 -6.679119
v 23.356714 6.003109 -9.889339
v 8.111911 5.713240 -14.395065
v 8.331257 -5.284898 -14.437250
v 23.576147 -4.994918 -9.931325
v 23.495371 -5.008697 -6.721104
v 8.054958 -5.332626 -3.439220
v 5.885785 -3.588120 8.436444
v 7.870590 -5.364382 3.894627
v 7.594429 -5.412216 14.892360
v 5.724424 -3.615989 14.853698
v 6.300115 -3.516536 -8.058758
v 6.461339 -3.488561 -14.475712
v 8.331257 -5.284898 -14.437250
v 8.054958 -5.332626 -3.439220
v 6.153884 3.815556 -8.030634
v 4.311113 1.937856 -6.249868
v 3.988856 1.882148 6.578459
v 5.739553 3.743973 8.464568
v 22.999777 5.941497 4.318614
v 7.651157 5.633646 3.936612
v 22.907711 5.925632 7.982497
v 23.127142 -5.072396 7.940512
v 7.870590 -5.364382 3.894627
v 23.219208 -5.056531 4.276628
v 8.331257 -5.284898 -14.437250
v 23.679737 -4.976941 -14.054950
v 23.576147 -4.994918 -9.931325
v 7.835478 5.665619 -3.397334
v 23.183874 5.973465 -3.015235
v 23.275936 5.989331 -6.679119
v 8.054958 -5.332626 -3.439220
v 23.495371 -5.008697 -6.721104
v 23.403355 -5.024779 -3.057120
v 22.826847 5.911743 11.192519
v 7.374948 5.586030 14.934245
v 22.723343 5.893876 15.316345
v 22.942823 -5.104369 15.274459
v 7.594429 -5.412216 14.892360
v 23.046328 -5.086503 11.150634
v 8.111911 5.713240 -14.395065
v 23.356714 6.003109 -9.889339
v 23.460304 6.021087 -14.012965
v -21.147526 1.915737 -15.137312
v -8.777457 2.163836 -14.829407
v -8.927154 2.137975 -8.872195
v -21.297220 1.889875 -9.180098
v -21.297220 1.889875 -9.180098
v -8.927154 2.137975 -8.872195
v -8.934392 0.758733 -7.500728
v -21.304548 0.510522 -7.808831
v -21.304548 0.510522 -7.808831
v -8.934392 0.758733 -7.500728
v -8.897835 -1.074290 -7.507758
v -21.267990 -1.322501 -7.815862
v -21.267990 -1.322501 -7.815862
v -8.897835 -1.074290 -7.507758
v -8.835777 -2.441527 -8.889661
v -21.205931 -2.689737 -9.197763
v -21.205931 -2.689737 -9.197763
v -8.835777 -2.441527 -8.889661
v -8.686080 -2.415664 -14.846872
v -21.056236 -2.663874 -15.154976
v -21.056236 -2.663874 -15.154976
v -8.686080 -2.415664 -14.846872
v -8.554749 -1.473400 -20.800770
v -20.924816 -1.721500 -21.108675
v -20.924816 -1.721500 -21.108675
v -8.554749 -1.473400 -20.800770
v -8.552337 -1.014680 -21.255770
v -20.922493 -1.262891 -21.563873
v -20.922493 -1.262891 -21.563873
v -8.552337 -1.014680 -21.255770
v -8.588943 0.818562 -21.248837
v -20.959099 0.570352 -21.556942
v -20.959099 0.570352 -21.556942
v -8.588943 0.818562 -21.248837
v -8.609482 1.273187 -20.790134
v -20.979637 1.024977 -21.098240
v -20.979637 1.024977 -21.098240
v -8.609482 1.273187 -20.790134
v -8.777457 2.163836 -14.829407
v -21.147526 1.915737 -15.137312
v -21.734793 1.814389 8.234788
v -9.364724 2.062489 8.542690
v -9.514421 2.036626 14.499903
v -21.884489 1.788526 14.191999
v -21.884489 1.788526 14.191999
v -9.514421 2.036626 14.499903
v -9.645752 1.094362 20.453800
v -22.015907 0.846152 20.145699
v -22.015907 0.846152 20.145699
v -9.645752 1.094362 20.453800
v -9.648115 0.635424 20.908901
v -22.018185 0.387324 20.600994
v -22.018185 0.387324 20.600994
v -9.648115 0.635424 20.908901
v -9.611557 -1.197599 20.901869
v -21.981627 -1.445699 20.593967
v -21.981627 -1.445699 20.593967
v -9.611557 -1.197599 20.901869
v -9.590970 -1.652444 20.443266
v -21.961039 -1.900544 20.135361
v -21.961039 -1.900544 20.135361
v -9.590970 -1.652444 20.443266
v -9.422994 -2.543093 14.482536
v -21.793064 -2.791193 14.174633
v -21.793064 -2.791193 14.174633
v -9.422994 -2.543093 14.482536
v -9.273298 -2.517231 8.525324
v -21.643454 -2.765440 8.217221
v -21.643454 -2.765440 8.217221
v -9.273298 -2.517231 8.525324
v -9.266059 -1.137989 7.153857
v -21.636353 -1.386094 6.846054
v -21.636353 -1.386094 6.846054
v -9.266059 -1.137989 7.153857
v -9.302617 0.695034 7.160888
v -21.672911 0.446930 6.853084
v -21.672911 0.446930 6.853084
v -9.302617 0.695034 7.160888
v -9.364724 2.062489 8.542690
v -21.734793 1.814389 8.234788
v -8.537533 -1.470466 -21.486050
v -8.794490 -3.354151 -9.809771
v -8.922473 3.058590 -9.785373
v -8.592315 1.276338 -21.475513
v -9.608187 -1.655378 21.128542
v -9.662919 1.091210 21.139177
v -9.405962 2.974895 9.462900
v -9.278028 -3.437629 9.438402
v -9.278028 -3.437629 9.438402
v -9.405962 2.974895 9.462900
v -9.192323 -0.205395 3.493389
v -8.922473 3.058590 -9.785373
v -8.794490 -3.354151 -9.809771
v -9.008177 -0.173643 -3.840359
v -43.861023 -1.831890 6.292808
v -21.636353 -1.386094 6.846054
v -21.672911 0.446930 6.853084
v -43.897579 0.001133 6.299838
v -43.897579 0.001133 6.299838
v -21.672911 0.446930 6.853084
v -21.734793 1.814389 8.234788
v -42.583172 1.396050 7.715813
v -42.583172 1.396050 7.715813
v -21.734793 1.814389 8.234788
v -21.884489 1.788526 14.191999
v -36.776215 1.489680 13.821418
v -36.776215 1.489680 13.821418
v -21.884489 1.788526 14.191999
v -22.015907 0.846152 20.145699
v -30.950977 0.666799 19.923508
v -30.950977 0.666799 19.923508
v -22.015907 0.846152 20.145699
v -22.018185 0.387324 20.600994
v -30.496542 0.217303 20.389826
v -30.496542 0.217303 20.389826
v -22.018185 0.387324 20.600994
v -21.981627 -1.445699 20.593967
v -30.459900 -1.615610 20.382996
v -30.459900 -1.615610 20.382996
v -21.981627 -1.445699 20.593967
v -21.961039 -1.900544 20.135361
v -30.896246 -2.079788 19.912872
v -30.896246 -2.079788 19.912872
v -21.961039 -1.900544 20.135361
v -21.793064 -2.791193 14.174633
v -36.684837 -3.089820 13.803951
v -36.684837 -3.089820 13.803951
v -21.793064 -2.791193 14.174633
v -21.643454 -2.765440 8.217221
v -42.491791 -3.183451 7.698348
v -42.491791 -3.183451 7.698348
v -21.643454 -2.765440 8.217221
v -21.636353 -1.386094 6.846054
v -43.861023 -1.831890 6.292808
v -43.529221 0.064726 -8.362076
v -21.304548 0.510522 -7.808831
v -21.267990 -1.322501 -7.815862
v -43.492661 -1.768297 -8.369108
v -43.492661 -1.768297 -8.369108
v -21.267990 -1.322501 -7.815862
v -21.205931 -2.689737 -9.197763
v -42.054226 -3.107964 -9.716540
v -42.054226 -3.107964 -9.716540
v -21.205931 -2.689737 -9.197763
v -21.056236 -2.663874 -15.154976
v -35.947956 -2.962719 -15.525559
v -35.947956 -2.962719 -15.525559
v -21.056236 -2.663874 -15.154976
v -20.924816 -1.721500 -21.108675
v -29.860023 -1.900743 -21.331161
v -29.860023 -1.900743 -21.331161
v -20.924816 -1.721500 -21.108675
v -20.922493 -1.262891 -21.563873
v -29.400766 -1.432800 -21.774843
v -29.400766 -1.432800 -21.774843
v -20.922493 -1.262891 -21.563873
v -20.959099 0.570352 -21.556942
v -29.437325 0.400223 -21.767813
v -29.437325 0.400223 -21.767813
v -20.959099 0.570352 -21.556942
v -20.979637 1.024977 -21.098240
v -29.914757 0.845843 -21.320528
v -29.914757 0.845843 -21.320528
v -20.979637 1.024977 -21.098240
v -21.147526 1.915737 -15.137312
v -36.039383 1.617000 -15.508192
v -36.039383 1.617000 -15.508192
v -21.147526 1.915737 -15.137312
v -21.297220 1.889875 -9.180098
v -42.145649 1.471754 -9.699173
v -42.145649 1.471754 -9.699173
v -21.297220 1.889875 -9.180098
v -21.304548 0.510522 -7.808831
v -43.529221 0.064726 -8.362076
v -44.484196 0.958903 -7.464606
v 4.311113 1.937856 -6.249868
v 6.153884 3.815556 -8.030634
v -42.644459 2.836653 -9.245579
v -42.644459 2.836653 -9.245579
v 6.153884 3.815556 -8.030634
v 6.315021 3.843421 -14.447788
v -36.066788 2.993187 -15.502813
v -36.066788 2.993187 -15.502813
v 6.315021 3.843421 -14.447788
v 0.080929 2.826047 -21.025181
v -29.473881 2.233246 -21.760782
v -29.473881 2.233246 -21.760782
v 0.080929 2.826047 -21.025181
v -0.794199 1.895139 -21.968033
v -28.515781 1.339132 -22.658443
v 3.988856 1.882148 6.578459
v -44.806507 0.903414 5.363623
v -43.058788 2.765070 7.249623
v 5.739553 3.743973 8.464568
v 5.739553 3.743973 8.464568
v -43.058788 2.765070 7.249623
v -36.803753 2.865975 13.826496
v 5.578194 3.716103 14.881822
v 5.578194 3.716103 14.881822
v -36.803753 2.865975 13.826496
v -30.533100 2.050326 20.396856
v -0.978205 2.643238 21.132660
v -0.978205 2.643238 21.132660
v -30.533100 2.050326 20.396856
v -29.621058 1.148109 21.332880
v -1.899610 1.704222 22.022991
v -29.364208 -3.265823 -21.781872
v 0.190688 -2.672912 -21.046070
v 6.461339 -3.488561 -14.475712
v -35.920471 -4.338797 -15.530737
v -35.920471 -4.338797 -15.530737
v 6.461339 -3.488561 -14.475712
v 6.300115 -3.516536 -8.058758
v -42.498138 -4.495328 -9.273501
v -42.498138 -4.495328 -9.273501
v 6.300115 -3.516536 -8.058758
v 4.384228 -1.728190 -6.263930
v -44.411079 -2.707143 -7.478666
v -44.733341 -2.762850 5.349659
v 4.061971 -1.783898 6.564397
v 5.885785 -3.588120 8.436444
v -42.912468 -4.566913 7.221700
v -42.912468 -4.566913 7.221700
v 5.885785 -3.588120 8.436444
v 5.724424 -3.615989 14.853698
v -36.657436 -4.466007 13.798573
v -36.657436 -4.466007 13.798573
v 5.724424 -3.615989 14.853698
v -0.868484 -2.856049 21.111666
v -30.423292 -3.448851 20.376064
v -47.047276 -2.350931 5.754147
v -46.701778 -2.291320 -7.993864
v -44.411079 -2.707143 -7.478666
v -44.733341 -2.762850 5.349659
v -44.733341 -2.762850 5.349659
v -44.411079 -2.707143 -7.478666
v 4.384228 -1.728190 -6.263930
v 4.061971 -1.783898 6.564397
v -46.756512 0.455268 -7.983227
v -47.102009 0.395657 5.764782
v -44.806507 0.903414 5.363623
v -44.484196 0.958903 -7.464606
v -44.484196 0.958903 -7.464606
v -44.806507 0.903414 5.363623
v 3.988856 1.882148 6.578459
v 4.311113 1.937856 -6.249868
v -47.102009 0.395657 5.764782
v -46.756512 0.455268 -7.983227
v -46.729076 -0.918080 -7.988396
v -47.074574 -0.977690 5.759614
v -47.074574 -0.977690 5.759614
v -46.729076 -0.918080 -7.988396
v -46.701778 -2.291320 -7.993864
v -47.047276 -2.350931 5.754147
v -0.721083 -1.770908 -21.982096
v -28.442581 -2.326804 -22.672306
v -0.794199 1.895139 -21.968033
v -0.794199 1.895139 -21.968033
v -28.442581 -2.326804 -22.672306
v -28.479139 -0.493781 -22.665272
v -0.794199 1.895139 -21.968033
v -28.479139 -0.493781 -22.665272
v -28.515781 1.339132 -22.658443
v -29.621058 1.148109 21.332880
v -29.547857 -2.517828 21.319019
v -1.899610 1.704222 22.022991
v 16.264849 -8.769957 4.088027
v 16.772934 -8.241101 4.102899
v 27.678211 -18.717329 4.328387
v 27.170303 -19.245964 4.313316
v 27.678211 -18.717329 4.328387
v 17.245705 -8.721491 5.029838
v 16.737658 -9.250018 5.015067
v 27.170303 -19.245964 4.313316
v 16.737658 -9.250018 5.015067
v 17.245705 -8.721491 5.029838
v 16.772934 -8.241101 4.102899
v 16.264849 -8.769957 4.088027
v 16.967905 -9.210382 -4.152268
v 16.448944 -8.737986 -3.245819
v 16.957079 -8.209349 -3.230850
v 17.476040 -8.681744 -4.137299
v 27.094631 19.802011 -2.858635
v 17.115334 9.396652 -4.068301
v 16.586514 9.904603 -4.079321
v 26.565901 20.310072 -2.869456
v 16.586514 9.904603 -4.079321
v 17.115334 9.396652 -4.068301
v 16.615765 8.896864 -3.165569
v 16.086946 9.404815 -3.176589
v 15.902851 9.372845 4.157259
v 26.381804 20.278103 4.464391
v 26.910263 19.770256 4.475214
v 16.431622 8.865111 4.168180
v 26.910263 19.770256 4.475214
v 26.381804 20.278103 4.464391
v 16.356312 9.864748 5.088112
v 16.884996 9.356905 5.098835
v 16.356312 9.864748 5.088112
v 15.902851 9.372845 4.157259
v 16.431622 8.865111 4.168180
v 16.884996 9.356905 5.098835
v 16.086946 9.404815 -3.176589
v 16.615765 8.896864 -3.165569
v 27.094631 19.802011 -2.858635
v 26.565901 20.310072 -2.869456
v -0.721083 -1.770908 -21.982096
v 0.190688 -2.672912 -21.046070
v -29.364208 -3.265823 -21.781872
v -28.442581 -2.326804 -22.672306
v -1.826408 -1.961713 22.009130
v -29.547857 -2.517828 21.319019
v -30.423292 -3.448851 20.376064
v -0.868484 -2.856049 21.111666
v 16.448944 -8.737986 -3.245819
v 27.354446 -19.214214 -3.020433
v 27.862579 -18.685575 -3.005462
v 16.957079 -8.209349 -3.230850
v 27.862579 -18.685575 -3.005462
v 27.354446 -19.214214 -3.020433
v 16.967905 -9.210382 -4.152268
v 17.476040 -8.681744 -4.137299
v -1.826408 -1.961713 22.009130
v -1.899610 1.704222 22.022991
v -29.547857 -2.517828 21.319019
v 17.476040 -8.681744 -4.137299
v 16.957079 -8.209349 -3.230850
v 27.862579 -18.685575 -3.005462
v 16.356312 9.864748 5.088112
v 26.381804 20.278103 4.464391
v 15.902851 9.372845 4.157259
v 16.967905 -9.210382 -4.152268
v 27.354446 -19.214214 -3.020433
v 16.448944 -8.737986 -3.245819
v 17.245705 -8.721491 5.029838
v 27.678211 -18.717329 4.328387
v 16.772934 -8.241101 4.102899
v 16.737658 -9.250018 5.015067
v 16.264849 -8.769957 4.088027
v 27.170303 -19.245964 4.313316
v 17.115334 9.396652 -4.068301
v 27.094631 19.802011 -2.858635
v 16.615765 8.896864 -3.165569
v 16.586514 9.904603 -4.079321
v 16.086946 9.404815 -3.176589
v 26.565901 20.310072 -2.869456
v 16.884996 9.356905 5.098835
v 16.431622 8.865111 4.168180
v 26.910263 19.770256 4.475214
v 10.288394 9.150659 -3.321433
v 10.104249 9.118907 4.012316
v 16.261936 10.616415 4.171636
v 16.446081 10.648168 -3.162112
v 16.446081 10.648168 -3.162112
v 16.261936 10.616415 4.171636
v 17.411350 10.410891 4.199214
v 17.595718 10.442649 -3.134633
v 17.595718 10.442649 -3.134633
v 17.411350 10.410891 4.199214
v 25.740894 5.258294 4.383713
v 25.925215 5.290267 -2.950234
v 25.925215 5.290267 -2.950234
v 25.740894 5.258294 4.383713
v 27.778376 3.286749 4.425801
v 27.962473 3.318718 -2.908046
v 27.962473 3.318718 -2.908046
v 27.778376 3.286749 4.425801
v 28.562244 0.551759 4.433359
v 28.746565 0.583733 -2.900588
v 28.746565 0.583733 -2.900588
v 28.562244 0.551759 4.433359
v 27.888050 -2.212320 4.404708
v 28.072147 -2.180351 -2.929138
v 28.072147 -2.180351 -2.929138
v 27.888050 -2.212320 4.404708
v 25.930883 -4.263995 4.347366
v 26.115253 -4.232238 -2.986481
v 26.115253 -4.232238 -2.986481
v 25.930883 -4.263995 4.347366
v 17.813587 -9.746356 4.122396
v 17.997953 -9.714599 -3.211452
v 17.997953 -9.714599 -3.211452
v 17.813587 -9.746356 4.122396
v 16.673241 -9.997780 4.092966
v 16.857386 -9.966027 -3.240784
v 16.857386 -9.966027 -3.240784
v 16.673241 -9.997780 4.092966
v 10.460773 -8.748482 3.944182
v 10.644917 -8.716729 -3.389567
v 10.644917 -8.716729 -3.389567
v 10.460773 -8.748482 3.944182
v 9.530304 -8.078841 3.923925
v 9.714450 -8.047090 -3.409823
v 9.714450 -8.047090 -3.409823
v 9.530304 -8.078841 3.923925
v 7.870590 -5.364382 3.894627
v 8.054958 -5.332626 -3.439220
v 16.261936 10.616415 4.171636
v 10.104249 9.118907 4.012316
v 9.201271 8.412471 3.986881
v 17.411350 10.410891 4.199214
v 17.411350 10.410891 4.199214
v 9.201271 8.412471 3.986881
v 7.651157 5.633646 3.936612
v 22.999777 5.941497 4.318614
v 10.288394 9.150659 -3.321433
v 16.446081 10.648168 -3.162112
v 17.595718 10.442649 -3.134633
v 9.385416 8.444221 -3.346868
v 9.385416 8.444221 -3.346868
v 17.595718 10.442649 -3.134633
v 23.183874 5.973465 -3.015235
v 7.835478 5.665619 -3.397334
v 14.313076 -9.240813 33.382969
v 14.317665 -9.472017 33.382034
v 14.702223 -9.634892 18.259748
v 14.676998 -8.948627 18.719189
v 14.676998 -8.948627 18.719189
v 14.702223 -9.634892 18.259748
v 14.724844 -5.264832 13.923937
v 14.696187 -5.269768 15.069158
v 10.460773 -8.748482 3.944182
v 16.673241 -9.997780 4.092966
v 17.813587 -9.746356 4.122396
v 9.530304 -8.078841 3.923925
v 9.530304 -8.078841 3.923925
v 17.813587 -9.746356 4.122396
v 23.219208 -5.056531 4.276628
v 7.870590 -5.364382 3.894627
v 16.857386 -9.966027 -3.240784
v 10.644917 -8.716729 -3.389567
v 9.714450 -8.047090 -3.409823
v 17.997953 -9.714599 -3.211452
v 17.997953 -9.714599 -3.211452
v 9.714450 -8.047090 -3.409823
v 8.054958 -5.332626 -3.439220
v 23.403355 -5.024779 -3.057120
v 10.651352 -9.545709 33.290749
v 10.646713 -9.314289 33.291588
v 11.010685 -9.022317 18.627905
v 11.035862 -9.708364 18.168365
v 11.035862 -9.708364 18.168365
v 11.010685 -9.022317 18.627905
v 11.029602 -5.343246 14.977874
v 11.058259 -5.338310 13.832656
v 15.975804 -9.185753 -32.604755
v 15.971168 -8.954332 -32.603916
v 15.598176 -8.789574 -17.938288
v 15.600402 -9.479714 -17.484123
v 15.600402 -9.479714 -17.484123
v 15.598176 -8.789574 -17.938288
v 15.433015 -5.142449 -14.260451
v 15.404133 -5.147390 -13.115134
v 12.304632 -9.028028 -32.695099
v 12.309222 -9.259231 -32.696037
v 11.933866 -9.553411 -17.575308
v 11.931591 -8.863052 -18.029570
v 11.931591 -8.863052 -18.029570
v 11.933866 -9.553411 -17.575308
v 11.737550 -5.220868 -13.206417
v 11.766429 -5.215928 -14.351735
v 11.010685 -9.022317 18.627905
v 10.646713 -9.314289 33.291588
v 14.313076 -9.240813 33.382969
v 14.676998 -8.948627 18.719189
v 14.724844 -5.264832 13.923937
v 14.702223 -9.634892 18.259748
v 11.035862 -9.708364 18.168365
v 11.058259 -5.338310 13.832656
v 11.029602 -5.343246 14.977874
v 11.010685 -9.022317 18.627905
v 14.676998 -8.948627 18.719189
v 14.696187 -5.269768 15.069158
v 10.651352 -9.545709 33.290749
v 14.317665 -9.472017 33.382034
v 14.313076 -9.240813 33.382969
v 10.646713 -9.314289 33.291588
v 14.309093 10.065738 18.334814
v 10.642782 9.992046 18.243532
v 10.267377 9.698084 33.364159
v 13.933740 9.771557 33.455540
v 14.311406 9.375709 18.789177
v 14.309093 10.065738 18.334814
v 13.933740 9.771557 33.455540
v 13.938329 9.540356 33.454605
v 10.645007 9.301907 18.697695
v 14.311406 9.375709 18.789177
v 13.938329 9.540356 33.454605
v 10.272016 9.466664 33.363323
v 10.642782 9.992046 18.243532
v 10.645007 9.301907 18.697695
v 10.272016 9.466664 33.363323
v 10.267377 9.698084 33.364159
v 14.505363 5.733413 13.965823
v 10.838827 5.659718 13.874641
v 10.642782 9.992046 18.243532
v 14.309093 10.065738 18.334814
v 10.810170 5.654782 15.019858
v 14.476706 5.728477 15.111042
v 14.311406 9.375709 18.789177
v 10.645007 9.301907 18.697695
v 14.309093 10.065738 18.334814
v 14.311406 9.375709 18.789177
v 14.476706 5.728477 15.111042
v 14.505363 5.733413 13.965823
v 10.267377 9.698084 33.364159
v 10.272016 9.466664 33.363323
v 13.938329 9.540356 33.454605
v 13.933740 9.771557 33.455540
v 10.838827 5.659718 13.874641
v 10.810170 5.654782 15.019858
v 10.645007 9.301907 18.697695
v 10.642782 9.992046 18.243532
v 15.600402 -9.479714 -17.484123
v 11.933866 -9.553411 -17.575308
v 12.309222 -9.259231 -32.696037
v 15.975804 -9.185753 -32.604755
v 9.201271 8.412471 3.986881
v 9.385416 8.444221 -3.346868
v 7.835478 5.665619 -3.397334
v 7.651157 5.633646 3.936612
v 11.931591 -8.863052 -18.029570
v 15.598176 -8.789574 -17.938288
v 15.971168 -8.954332 -32.603916
v 12.304632 -9.028028 -32.695099
v 14.702223 -9.634892 18.259748
v 14.317665 -9.472017 33.382034
v 10.651352 -9.545709 33.290749
v 11.035862 -9.708364 18.168365
v 15.404133 -5.147390 -13.115134
v 11.737550 -5.220868 -13.206417
v 11.933866 -9.553411 -17.575308
v 15.600402 -9.479714 -17.484123
v 11.766429 -5.215928 -14.351735
v 15.433015 -5.142449 -14.260451
v 15.598176 -8.789574 -17.938288
v 11.931591 -8.863052 -18.029570
v 12.309222 -9.259231 -32.696037
v 12.304632 -9.028028 -32.695099
v 15.971168 -8.954332 -32.603916
v 15.975804 -9.185753 -32.604755
v 15.207408 10.220808 -17.408758
v 15.591832 10.058042 -32.531345
v 11.925249 9.984562 -32.622627
v 11.540823 10.147330 -17.500042
v 15.232583 9.534760 -17.868299
v 15.596468 9.826621 -32.532181
v 15.591832 10.058042 -32.531345
v 15.207408 10.220808 -17.408758
v 11.565999 9.461283 -17.959581
v 11.929886 9.753143 -32.623463
v 15.596468 9.826621 -32.532181
v 15.232583 9.534760 -17.868299
v 11.540823 10.147330 -17.500042
v 11.925249 9.984562 -32.622627
v 11.929886 9.753143 -32.623463
v 11.565999 9.461283 -17.959581
v 15.184701 5.850638 -13.073150
v 15.207408 10.220808 -17.408758
v 11.540823 10.147330 -17.500042
v 11.518117 5.777160 -13.164432
v 11.546997 5.782101 -14.309750
v 11.565999 9.461283 -17.959581
v 15.232583 9.534760 -17.868299
v 15.213581 5.855579 -14.218468
v 15.207408 10.220808 -17.408758
v 15.184701 5.850638 -13.073150
v 15.213581 5.855579 -14.218468
v 15.232583 9.534760 -17.868299
v 11.925249 9.984562 -32.622627
v 15.591832 10.058042 -32.531345
v 15.596468 9.826621 -32.532181
v 11.929886 9.753143 -32.623463
v 11.518117 5.777160 -13.164432
v 11.540823 10.147330 -17.500042
v 11.565999 9.461283 -17.959581
v 11.546997 5.782101 -14.309750
v 25.740894 5.258294 4.383713
v 17.411350 10.410891 4.199214
v 22.999777 5.941497 4.318614
v 25.925215 5.290267 -2.950234
v 23.183874 5.973465 -3.015235
v 17.595718 10.442649 -3.134633
v 26.115253 -4.232238 -2.986481
v 17.997953 -9.714599 -3.211452
v 23.403355 -5.024779 -3.057120
v 25.930883 -4.263995 4.347366
v 23.219208 -5.056531 4.276628
v 17.813587 -9.746356 4.122396
vt 5.141602 0.982422
vt 4.679688 0.982422
vt 4.679688 1.194336
vt 5.141602 1.194336
vt 5.141602 1.194336
vt 4.679688 1.194336
vt 4.679688 1.389648
vt 5.141602 1.389648
vt 5.141602 1.389648
vt 4.679688 1.389648
vt 4.679688 1.621094
vt 5.141602 1.621094
vt 5.141602 1.621094
vt 4.679688 1.621094
vt 4.679688 1.389648
vt 5.141602 1.389648
vt 5.141602 1.389648
vt 4.679688 1.389648
vt 4.679688 1.194336
vt 5.141602 1.194336
vt 5.141602 1.194336
vt 4.679688 1.194336
vt 4.679688 0.982422
vt 5.141602 0.982422
vt 3.910156 0.982422
vt 4.320312 0.982422
vt 4.320312 1.194336
vt 3.910156 1.194336
vt 3.910156 1.194336
vt 4.320312 1.194336
vt 4.320312 1.389648
vt 3.910156 1.389648
vt 3.910156 1.389648
vt 4.320312 1.389648
vt 4.320312 1.621094
vt 3.910156 1.621094
vt 3.910156 1.621094
vt 4.320312 1.621094
vt 4.320312 1.389648
vt 3.910156 1.389648
vt 3.910156 1.389648
vt 4.320312 1.389648
vt 4.320312 1.194336
vt 3.910156 1.194336
vt 3.910156 1.194336
vt 4.320312 1.194336
vt 4.320312 0.982422
vt 3.910156 0.982422
vt 1.859375 0.982422
vt 2.321289 0.982422
vt 2.321289 1.194336
vt 1.859375 1.194336
vt 1.859375 1.194336
vt 2.321289 1.194336
vt 2.321289 1.389648
vt 1.859375 1.389648
vt 1.859375 1.389648
vt 2.321289 1.389648
vt 2.321289 1.621094
vt 1.859375 1.621094
vt 1.859375 1.621094
vt 2.321289 1.621094
vt 2.321289 1.389648
vt 1.859375 1.389648
vt 1.859375 1.389648
vt 2.321289 1.389648
vt 2.321289 1.194336
vt 1.859375 1.194336
vt 1.859375 1.194336
vt 2.321289 1.194336
vt 2.321289 0.982422
vt 1.859375 0.982422
vt 3.089844 0.982422
vt 2.679688 0.982422
vt 2.679688 1.194336
vt 3.089844 1.194336
vt 3.089844 1.194336
vt 2.679688 1.194336
vt 2.679688 1.389648
vt 3.089844 1.389648
vt 3.089844 1.389648
vt 2.679688 1.389648
vt 2.679688 1.621094
vt 3.089844 1.621094
vt 3.089844 1.621094
vt 2.679688 1.621094
vt 2.679688 1.389648
vt 3.089844 1.389648
vt 3.089844 1.389648
vt 2.679688 1.389648
vt 2.679688 1.194336
vt 3.089844 1.194336
vt 3.089844 1.194336
vt 2.679688 1.194336
vt 2.679688 0.982422
vt 3.089844 0.982422
vt 1.859375 -0.208984
vt 1.859375 -0.351562
vt 2.577148 -0.351562
vt 3.089844 -0.208984
vt 3.089844 -0.208984
vt 2.577148 -0.351562
vt 4.422852 -0.351562
vt 3.910156 -0.208984
vt 3.910156 -0.208984
vt 4.422852 -0.351562
vt 5.141602 -0.351562
vt 5.141602 -0.208984
vt 4.217773 -0.494141
vt 2.782227 -0.494141
vt 2.577148 -0.351562
vt 4.422852 -0.351562
vt 4.422852 -0.351562
vt 2.577148 -0.351562
vt 3.089844 -0.208984
vt 3.910156 -0.208984
vt 5.571289 0.983398
vt 5.627930 0.771484
vt 5.571289 -0.210938
vt 5.571289 -0.210938
vt 5.627930 0.771484
vt 5.785156 0.615234
vt 5.571289 -0.210938
vt 5.785156 0.615234
vt 5.713867 -0.353516
vt 5.713867 -0.353516
vt 5.785156 0.615234
vt 5.999023 0.558594
vt 5.713867 -0.353516
vt 5.999023 0.558594
vt 6.284180 -0.353516
vt 6.284180 -0.353516
vt 5.999023 0.558594
vt 6.212891 0.615234
vt 6.284180 -0.353516
vt 6.212891 0.615234
vt 6.426758 -0.210938
vt 6.426758 -0.210938
vt 6.212891 0.615234
vt 6.369141 0.771484
vt 6.426758 -0.210938
vt 6.369141 0.771484
vt 6.426758 0.983398
vt 6.426758 0.983398
vt 6.369141 0.771484
vt 6.426758 -0.210938
vt 6.426758 -0.210938
vt 6.369141 0.771484
vt 6.212891 0.615234
vt 6.426758 -0.210938
vt 6.212891 0.615234
vt 6.284180 -0.353516
vt 6.284180 -0.353516
vt 6.212891 0.615234
vt 5.999023 0.558594
vt 6.284180 -0.353516
vt 5.999023 0.558594
vt 5.713867 -0.353516
vt 5.713867 -0.353516
vt 5.999023 0.558594
vt 5.785156 0.615234
vt 5.713867 -0.353516
vt 5.785156 0.615234
vt 5.571289 -0.210938
vt 5.571289 -0.210938
vt 5.785156 0.615234
vt 5.627930 0.771484
vt 5.571289 -0.210938
vt 5.627930 0.771484
vt 5.571289 0.983398
vt 6.284180 -0.353516
vt 5.713867 -0.353516
vt 6.211914 -1.089844
vt 6.211914 -1.089844
vt 5.713867 -0.353516
vt 5.784180 -1.089844
vt 6.211914 -1.089844
vt 5.784180 -1.089844
vt 6.140625 -1.194336
vt 6.140625 -1.194336
vt 5.784180 -1.089844
vt 5.855469 -1.194336
vt 6.284180 -0.353516
vt 6.211914 -1.089844
vt 5.713867 -0.353516
vt 5.713867 -0.353516
vt 6.211914 -1.089844
vt 6.140625 -1.194336
vt 5.713867 -0.353516
vt 6.140625 -1.194336
vt 5.784180 -1.089844
vt 5.784180 -1.089844
vt 6.140625 -1.194336
vt 5.855469 -1.194336
vt 4.679688 0.982422
vt 5.141602 -0.208984
vt 3.910156 -0.208984
vt 4.320312 0.982422
vt 4.320312 0.982422
vt 3.910156 -0.208984
vt 5.141602 -0.208984
vt 4.679688 0.982422
vt 3.089844 -0.208984
vt 2.679688 0.982422
vt 2.321289 0.982422
vt 1.859375 -0.208984
vt 1.859375 -0.208984
vt 2.321289 0.982422
vt 2.679688 0.982422
vt 3.089844 -0.208984
vt 4.422852 -0.351562
vt 3.910156 -0.208984
vt 5.141602 -0.208984
vt 5.141602 -0.351562
vt 2.577148 -0.351562
vt 1.859375 -0.351562
vt 1.859375 -0.208984
vt 3.089844 -0.208984
vt 2.577148 -0.351562
vt 2.782227 -0.494141
vt 4.217773 -0.494141
vt 4.422852 -0.351562
vt 3.910156 0.982422
vt 3.910156 -0.208984
vt 4.320312 0.982422
vt 4.320312 0.982422
vt 3.910156 -0.208984
vt 3.910156 0.982422
vt 1.859375 -0.208984
vt 1.859375 0.982422
vt 2.321289 0.982422
vt 3.089844 -0.208984
vt 3.089844 0.982422
vt 2.679688 0.982422
vt 3.089844 -0.208984
vt 2.679688 0.982422
vt 3.089844 0.982422
vt 4.679688 0.982422
vt 5.141602 -0.208984
vt 5.141602 0.982422
vt 5.141602 0.982422
vt 5.141602 -0.208984
vt 4.679688 0.982422
vt 1.859375 -0.208984
vt 2.321289 0.982422
vt 1.859375 0.982422
vt -1.000000 0.000000
vt 0.000000 0.000000
vt 0.000000 1.000000
vt -1.000000 1.000000
vt 1.000000 0.000000
vt 2.000000 0.000000
vt 2.000000 1.000000
vt 1.000000 1.000000
vt 0.000000 -3.000000
vt 0.000000 -3.000000
vt 0.000000 -3.000000
vt 0.000000 -3.000000
vt -0.515625 2.000000
vt -0.515625 3.000000
vt -0.102539 3.000000
vt -0.102539 2.000000
vt -0.102539 2.000000
vt -0.102539 3.000000
vt -0.006836 3.000000
vt -0.006836 2.000000
vt -0.006836 2.000000
vt -0.006836 3.000000
vt -0.006836 3.000000
vt -0.006836 2.000000
vt -0.006836 2.000000
vt -0.006836 3.000000
vt -0.102539 3.000000
vt -0.102539 2.000000
vt -0.102539 2.000000
vt -0.102539 3.000000
vt -0.515625 3.000000
vt -0.515625 2.000000
vt -0.515625 2.000000
vt -0.515625 3.000000
vt -0.961914 3.000000
vt -0.961914 2.000000
vt -0.961914 2.000000
vt -0.961914 3.000000
vt -0.997070 3.000000
vt -0.997070 2.000000
vt -0.997070 2.000000
vt -0.997070 3.000000
vt -0.997070 3.000000
vt -0.997070 2.000000
vt -0.997070 2.000000
vt -0.997070 3.000000
vt -0.961914 3.000000
vt -0.961914 2.000000
vt -0.961914 2.000000
vt -0.961914 3.000000
vt -0.515625 3.000000
vt -0.515625 2.000000
vt -0.102539 2.000000
vt -0.102539 3.000000
vt -0.515625 3.000000
vt -0.515625 2.000000
vt -0.515625 2.000000
vt -0.515625 3.000000
vt -0.961914 3.000000
vt -0.961914 2.000000
vt -0.961914 2.000000
vt -0.961914 3.000000
vt -0.997070 3.000000
vt -0.997070 2.000000
vt -0.997070 2.000000
vt -0.997070 3.000000
vt -0.997070 3.000000
vt -0.997070 2.000000
vt -0.997070 2.000000
vt -0.997070 3.000000
vt -0.961914 3.000000
vt -0.961914 2.000000
vt -0.961914 2.000000
vt -0.961914 3.000000
vt -0.515625 3.000000
vt -0.515625 2.000000
vt -0.515625 2.000000
vt -0.515625 3.000000
vt -0.102539 3.000000
vt -0.102539 2.000000
vt -0.102539 2.000000
vt -0.102539 3.000000
vt -0.006836 3.000000
vt -0.006836 2.000000
vt -0.006836 2.000000
vt -0.006836 3.000000
vt -0.006836 3.000000
vt -0.006836 2.000000
vt -0.006836 2.000000
vt -0.006836 3.000000
vt -0.102539 3.000000
vt -0.102539 2.000000
vt 0.007812 0.984375
vt 0.007812 0.984375
vt 0.007812 0.984375
vt 0.007812 0.984375
vt 0.007812 0.984375
vt 0.007812 0.984375
vt 0.007812 0.984375
vt 0.007812 0.984375
vt 0.007812 0.984375
vt 0.007812 0.984375
vt 0.007812 0.984375
vt 0.007812 0.984375
vt 0.007812 0.984375
vt 0.007812 0.984375
vt 3.089844 -0.013672
vt 3.910156 -0.013672
vt 3.910156 0.466797
vt 3.089844 0.466797
vt 3.089844 0.466797
vt 3.910156 0.466797
vt 3.910156 0.555664
vt 3.089844 0.555664
vt 3.089844 0.555664
vt 3.910156 0.555664
vt 3.910156 1.194336
vt 3.089844 1.194336
vt 3.089844 1.194336
vt 3.910156 1.194336
vt 3.910156 1.389648
vt 3.089844 1.389648
vt 3.089844 1.389648
vt 3.910156 1.389648
vt 3.910156 1.621094
vt 3.089844 1.621094
vt 3.089844 1.621094
vt 3.910156 1.621094
vt 3.910156 1.389648
vt 3.089844 1.389648
vt 3.089844 1.389648
vt 3.910156 1.389648
vt 3.910156 1.194336
vt 3.089844 1.194336
vt 3.089844 1.194336
vt 3.910156 1.194336
vt 3.910156 0.555664
vt 3.089844 0.555664
vt 3.089844 0.555664
vt 3.910156 0.555664
vt 3.910156 0.466797
vt 3.089844 0.466797
vt 3.089844 0.466797
vt 3.910156 0.466797
vt 3.910156 -0.013672
vt 3.089844 -0.013672
vt 3.089844 -0.013672
vt 3.910156 -0.013672
vt 3.910156 -0.084961
vt 3.089844 -0.084961
vt 3.089844 -0.084961
vt 3.910156 -0.084961
vt 3.910156 -0.208984
vt 3.089844 -0.208984
vt 5.277344 0.465820
vt 5.384766 -0.015625
vt 5.438477 -0.086914
vt 5.295898 0.555664
vt 5.295898 0.555664
vt 5.438477 -0.086914
vt 5.652344 -0.210938
vt 5.652344 0.983398
vt 5.384766 -0.015625
vt 5.277344 0.465820
vt 5.295898 0.555664
vt 5.438477 -0.086914
vt 5.438477 -0.086914
vt 5.295898 0.555664
vt 5.652344 0.983398
vt 5.652344 -0.210938
vt 1.379883 0.786133
vt 1.379883 0.786133
vt 0.198242 0.786133
vt 0.234375 0.786133
vt 0.234375 0.786133
vt 0.198242 0.786133
vt -0.214844 0.786133
vt -0.125000 0.786133
vt 6.694336 -0.015625
vt 6.801758 0.465820
vt 6.783203 0.555664
vt 6.640625 -0.086914
vt 6.640625 -0.086914
vt 6.783203 0.555664
vt 6.426758 0.983398
vt 6.426758 -0.210938
vt 6.801758 0.465820
vt 6.694336 -0.015625
vt 6.640625 -0.086914
vt 6.783203 0.555664
vt 6.783203 0.555664
vt 6.640625 -0.086914
vt 6.426758 -0.210938
vt 6.426758 0.983398
vt 1.379883 0.213867
vt 1.379883 0.213867
vt 0.234375 0.213867
vt 0.198242 0.213867
vt 0.198242 0.213867
vt 0.234375 0.213867
vt -0.125000 0.213867
vt -0.214844 0.213867
vt 1.379883 0.786133
vt 1.379883 0.786133
vt 0.234375 0.786133
vt 0.198242 0.786133
vt 0.198242 0.786133
vt 0.234375 0.786133
vt -0.125000 0.786133
vt -0.214844 0.786133
vt 1.379883 0.213867
vt 1.379883 0.213867
vt 0.198242 0.213867
vt 0.234375 0.213867
vt 0.234375 0.213867
vt 0.198242 0.213867
vt -0.214844 0.213867
vt -0.125000 0.213867
vt 0.234375 0.213867
vt 1.379883 0.213867
vt 1.379883 0.786133
vt 0.234375 0.786133
vt -0.214844 0.786133
vt 0.198242 0.786133
vt 0.198242 0.213867
vt -0.214844 0.213867
vt -0.125000 0.213867
vt 0.234375 0.213867
vt 0.234375 0.786133
vt -0.125000 0.786133
vt 1.379883 0.213867
vt 1.379883 0.786133
vt 1.379883 0.786133
vt 1.379883 0.213867
vt 0.198242 0.643555
vt 0.198242 0.356445
vt 1.379883 0.356445
vt 1.379883 0.643555
vt 0.234375 0.643555
vt 0.198242 0.643555
vt 1.379883 0.643555
vt 1.379883 0.643555
vt 0.234375 0.356445
vt 0.234375 0.643555
vt 1.379883 0.643555
vt 1.379883 0.356445
vt 0.198242 0.356445
vt 0.234375 0.356445
vt 1.379883 0.356445
vt 1.379883 0.356445
vt -0.214844 0.786133
vt -0.214844 0.213867
vt 0.198242 0.213867
vt 0.198242 0.786133
vt -0.125000 0.213867
vt -0.125000 0.786133
vt 0.234375 0.786133
vt 0.234375 0.213867
vt 0.198242 0.786133
vt 0.234375 0.786133
vt -0.125000 0.786133
vt -0.214844 0.786133
vt 1.379883 0.356445
vt 1.379883 0.356445
vt 1.379883 0.643555
vt 1.379883 0.643555
vt -0.214844 0.213867
vt -0.125000 0.213867
vt 0.234375 0.213867
vt 0.198242 0.213867
vt 0.198242 0.786133
vt 0.198242 0.213867
vt 1.379883 0.213867
vt 1.379883 0.786133
vt 3.910156 -0.084961
vt 3.089844 -0.084961
vt 3.089844 -0.208984
vt 3.910156 -0.208984
vt 0.234375 0.213867
vt 0.234375 0.786133
vt 1.379883 0.786133
vt 1.379883 0.213867
vt 0.198242 0.786133
vt 1.379883 0.786133
vt 1.379883 0.213867
vt 0.198242 0.213867
vt -0.214844 0.786133
vt -0.214844 0.213867
vt 0.198242 0.213867
vt 0.198242 0.786133
vt -0.125000 0.213867
vt -0.125000 0.786133
vt 0.234375 0.786133
vt 0.234375 0.213867
vt 1.379883 0.213867
vt 1.379883 0.213867
vt 1.379883 0.786133
vt 1.379883 0.786133
vt 0.198242 0.643555
vt 1.379883 0.643555
vt 1.379883 0.356445
vt 0.198242 0.356445
vt 0.234375 0.643555
vt 1.379883 0.643555
vt 1.379883 0.643555
vt 0.198242 0.643555
vt 0.234375 0.356445
vt 1.379883 0.356445
vt 1.379883 0.643555
vt 0.234375 0.643555
vt 0.198242 0.356445
vt 1.379883 0.356445
vt 1.379883 0.356445
vt 0.234375 0.356445
vt -0.214844 0.786133
vt 0.198242 0.786133
vt 0.198242 0.213867
vt -0.214844 0.213867
vt -0.125000 0.213867
vt 0.234375 0.213867
vt 0.234375 0.786133
vt -0.125000 0.786133
vt 0.198242 0.786133
vt -0.214844 0.786133
vt -0.125000 0.786133
vt 0.234375 0.786133
vt 1.379883 0.356445
vt 1.379883 0.643555
vt 1.379883 0.643555
vt 1.379883 0.356445
vt -0.214844 0.213867
vt 0.198242 0.213867
vt 0.234375 0.213867
vt -0.125000 0.213867
vt 5.708984 1.195312
vt 5.295898 0.555664
vt 5.652344 0.983398
vt 5.708984 1.195312
vt 5.652344 0.983398
vt 5.295898 0.555664
vt 6.369141 1.195312
vt 6.783203 0.555664
vt 6.426758 0.983398
vt 6.369141 1.195312
vt 6.426758 0.983398
vt 6.783203 0.555664
vt 2.752930 -2.000000
vt 2.997070 -1.828125
vt 2.997070 -1.718750
vt 2.752930 -1.828125
vt 2.752930 -1.828125
vt 2.997070 -1.718750
vt 2.997070 -1.281250
vt 2.752930 -1.156250
vt 2.752930 -1.156250
vt 2.997070 -1.281250
vt 2.997070 -1.171875
vt 2.752930 -1.000000
vt 2.997070 -1.828125
vt 2.752930 -2.000000
vt 2.752930 -1.828125
vt 2.997070 -1.718750
vt 2.997070 -1.718750
vt 2.752930 -1.828125
vt 2.752930 -1.156250
vt 2.997070 -1.281250
vt 2.997070 -1.281250
vt 2.752930 -1.156250
vt 2.752930 -1.000000
vt 2.997070 -1.171875
vt 2.752930 -1.734375
vt 2.997070 -1.656250
vt 2.752930 -1.500000
vt 2.752930 -1.500000
vt 2.997070 -1.656250
vt 2.997070 -1.343750
vt 2.752930 -1.500000
vt 2.997070 -1.343750
vt 2.752930 -1.265625
vt 2.997070 -1.171875
vt 2.997070 -1.500000
vt 2.752930 -1.250000
vt 2.752930 -1.250000
vt 2.997070 -1.500000
vt 2.752930 -1.750000
vt 2.752930 -1.734375
vt 2.752930 -1.500000
vt 2.997070 -1.656250
vt 2.997070 -1.656250
vt 2.752930 -1.500000
vt 2.997070 -1.343750
vt 2.997070 -1.828125
vt 2.997070 -1.500000
vt 2.752930 -1.750000
vt 2.752930 -1.750000
vt 2.997070 -1.500000
vt 2.752930 -1.250000
vt 2.997070 -1.000000
vt 2.997070 -2.000000
vt 2.752930 -2.000000
vt 2.752930 -1.000000
vt 2.997070 -1.171875
vt 2.997070 -1.000000
vt 2.752930 -1.125000
vt 2.752930 -1.250000
vt 2.997070 -1.828125
vt 2.752930 -1.750000
vt 2.752930 -1.875000
vt 2.997070 -2.000000
vt 2.997070 -1.000000
vt 2.997070 -2.000000
vt 2.752930 -2.000000
vt 2.752930 -1.000000
vt 2.997070 -1.000000
vt 2.997070 -2.000000
vt 2.752930 -2.000000
vt 2.752930 -1.000000
vt 2.997070 -1.500000
vt 2.997070 -2.000000
vt 2.752930 -2.000000
vt 2.752930 -1.500000
vt 2.752930 -1.000000
vt 2.997070 -1.109375
vt 2.997070 -1.343750
vt 2.752930 -1.265625
vt 2.752930 -1.000000
vt 2.997070 -1.000000
vt 2.997070 -2.000000
vt 2.752930 -2.000000
vt 2.752930 -1.000000
vt 2.997070 -1.000000
vt 2.997070 -2.000000
vt 2.752930 -2.000000
vt 2.752930 -1.000000
vt 2.997070 -1.000000
vt 2.997070 -2.000000
vt 2.752930 -2.000000
vt 2.752930 -1.734375
vt 2.997070 -1.656250
vt 2.997070 -1.890625
vt 2.752930 -2.000000
vt 2.997070 -1.000000
vt 2.752930 -1.000000
vt 2.752930 -1.500000
vt 2.997070 -1.500000
vt 2.997070 -1.000000
vt 2.752930 -1.000000
vt 2.752930 -2.000000
vt 2.997070 -2.000000
vt 2.997070 -1.000000
vt 2.752930 -1.000000
vt 2.752930 -2.000000
vt 2.997070 -2.000000
vt 2.997070 -1.171875
vt 2.752930 -1.250000
vt 2.752930 -1.125000
vt 2.997070 -1.000000
vt 2.997070 -1.828125
vt 2.997070 -2.000000
vt 2.752930 -1.875000
vt 2.752930 -1.750000
vt 2.997070 -1.000000
vt 2.752930 -1.000000
vt 2.752930 -2.000000
vt 2.997070 -2.000000
vt 2.997070 -1.000000
vt 2.752930 -1.000000
vt 2.752930 -2.000000
vt 2.997070 -2.000000
vt 2.752930 -1.000000
vt 2.752930 -2.000000
vt 2.997070 -2.000000
vt 2.997070 -1.000000
vt 2.752930 -1.000000
vt 2.752930 -1.265625
vt 2.997070 -1.343750
vt 2.997070 -1.109375
vt 2.752930 -1.000000
vt 2.752930 -2.000000
vt 2.997070 -2.000000
vt 2.997070 -1.000000
vt 2.752930 -1.000000
vt 2.752930 -2.000000
vt 2.997070 -2.000000
vt 2.997070 -1.000000
vt 2.752930 -1.000000
vt 2.997070 -1.000000
vt 2.997070 -2.000000
vt 2.752930 -2.000000
vt 2.752930 -1.000000
vt 2.752930 -2.000000
vt 2.997070 -2.000000
vt 2.997070 -1.000000
vt 2.997070 -1.500000
vt 2.752930 -1.500000
vt 2.752930 -2.000000
vt 2.997070 -2.000000
vt 2.752930 -1.734375
vt 2.752930 -2.000000
vt 2.997070 -1.890625
vt 2.997070 -1.656250
vt 2.997070 -1.000000
vt 2.997070 -1.500000
vt 2.752930 -1.500000
vt 2.752930 -1.000000
vt 2.997070 -1.000000
vt 2.997070 -2.000000
vt 2.752930 -2.000000
vt 2.752930 -1.000000
vt 2.752930 -1.265625
vt 2.997070 -1.343750
vt 2.752930 -1.500000
vt 0.689453 -1.000000
vt 0.689453 -1.000000
vt 0.689453 -2.000000
vt 2.997070 -1.828125
vt 2.752930 -1.750000
vt 2.997070 -1.500000
vt 2.997070 -1.500000
vt 2.997070 -1.171875
vt 2.752930 -1.250000
vt 0.593750 -1.000000
vt 0.593750 -1.000000
vt 0.593750 -2.000000
vt 0.625000 -1.000000
vt 0.625000 -1.000000
vt 0.625000 -2.000000
vt 0.657227 -1.000000
vt 0.657227 -1.000000
vt 0.657227 -2.000000
vt 0.689453 -1.000000
vt 0.689453 -1.000000
vt 0.689453 -2.000000
vt 0.720703 -1.000000
vt 0.720703 -1.000000
vt 0.720703 -2.000000
vt 0.689453 -1.000000
vt 0.689453 -1.000000
vt 0.689453 -2.000000
vt 0.657227 -1.000000
vt 0.657227 -1.000000
vt 0.657227 -2.000000
vt 0.625000 -1.000000
vt 0.625000 -1.000000
vt 0.625000 -2.000000
vt 0.593750 -1.000000
vt 0.593750 -1.000000
vt 0.593750 -2.000000
vt 0.564453 -1.000000
vt 0.564453 -1.000000
vt 0.564453 -2.000000
vt 0.524414 -1.000000
vt 0.524414 -1.000000
vt 0.524414 -2.000000
vt 0.564453 -1.000000
vt 0.564453 -1.000000
vt 0.564453 -2.000000
vt 0.593750 -1.000000
vt 0.593750 -1.000000
vt 0.593750 -2.000000
vt 0.625000 -1.000000
vt 0.625000 -1.000000
vt 0.625000 -2.000000
vt 0.657227 -1.000000
vt 0.657227 -1.000000
vt 0.657227 -2.000000
vt 0.720703 -1.000000
vt 0.720703 -1.000000
vt 0.720703 -2.000000
vt 0.689453 -1.000000
vt 0.689453 -1.000000
vt 0.689453 -2.000000
vt 0.657227 -1.000000
vt 0.657227 -1.000000
vt 0.657227 -2.000000
vt 0.625000 -1.000000
vt 0.625000 -1.000000
vt 0.625000 -2.000000
vt 0.593750 -1.000000
vt 0.593750 -1.000000
vt 0.593750 -2.000000
vt 0.564453 -1.000000
vt 0.564453 -1.000000
vt 0.564453 -2.000000
vt 0.524414 -1.000000
vt 0.524414 -1.000000
vt 0.524414 -2.000000
vt 0.564453 -1.000000
vt 0.564453 -1.000000
vt 0.564453 -2.000000
vt -0.752441 0.159180
vt -0.752441 2.000000
vt -0.752441 2.000000
vt -0.752441 0.159180
vt -0.752441 0.159180
vt -0.752441 2.000000
vt -0.776123 2.000000
vt -0.776123 0.275391
vt -0.776123 0.275391
vt -0.776123 2.000000
vt -0.878906 2.000000
vt -0.879150 0.765625
vt -0.879150 0.765625
vt -0.878906 2.000000
vt -0.989746 2.000000
vt -0.989746 1.265625
vt -0.989746 1.265625
vt -0.989746 2.000000
vt -0.998535 2.000000
vt -0.998535 1.304688
vt -0.998535 1.304688
vt -0.998535 2.000000
vt -0.998535 2.000000
vt -0.998535 1.304688
vt -0.998535 1.304688
vt -0.998535 2.000000
vt -0.989746 2.000000
vt -0.989746 1.265625
vt -0.989746 1.265625
vt -0.989746 2.000000
vt -0.878906 2.000000
vt -0.879150 0.765625
vt -0.879150 0.765625
vt -0.878906 2.000000
vt -0.776123 2.000000
vt -0.776123 0.275391
vt -0.776123 0.275391
vt -0.776123 2.000000
vt -0.752441 2.000000
vt -0.752441 0.159180
vt -0.752441 0.159180
vt -0.752441 2.000000
vt -0.752441 2.000000
vt -0.752441 0.159180
vt -0.752441 0.159180
vt -0.752441 2.000000
vt -0.776123 2.000000
vt -0.776123 0.275391
vt -0.776123 0.275391
vt -0.776123 2.000000
vt -0.878906 2.000000
vt -0.879150 0.765625
vt -0.879150 0.765625
vt -0.878906 2.000000
vt -0.989746 2.000000
vt -0.989746 1.265625
vt -0.989746 1.265625
vt -0.989746 2.000000
vt -0.998535 2.000000
vt -0.998535 1.304688
vt -0.998535 1.304688
vt -0.998535 2.000000
vt -0.998535 2.000000
vt -0.998535 1.304688
vt -0.998535 1.304688
vt -0.998535 2.000000
vt -0.989746 2.000000
vt -0.989746 1.265625
vt -0.989746 1.265625
vt -0.989746 2.000000
vt -0.878906 2.000000
vt -0.879150 0.765625
vt -0.879150 0.765625
vt -0.878906 2.000000
vt -0.776123 2.000000
vt -0.776123 0.275391
vt -0.776123 0.275391
vt -0.776123 2.000000
vt -0.752441 2.000000
vt -0.752441 0.159180
vt 0.750244 0.096680
vt 0.750244 4.096680
vt 0.718994 4.252930
vt 0.718994 0.238281
vt 0.718994 0.238281
vt 0.718994 4.252930
vt 0.609619 4.252930
vt 0.609375 0.765625
vt 0.609375 0.765625
vt 0.609619 4.252930
vt 0.500000 3.718750
vt 0.500000 1.265625
vt 0.500000 1.265625
vt 0.500000 3.718750
vt 0.472656 3.640625
vt 0.472656 1.343750
vt 0.750244 4.096680
vt 0.750244 0.096680
vt 0.718994 0.238281
vt 0.718994 4.252930
vt 0.718994 4.252930
vt 0.718994 0.238281
vt 0.609375 0.765625
vt 0.609619 4.252930
vt 0.609619 4.252930
vt 0.609375 0.765625
vt 0.500000 1.265625
vt 0.500000 3.718750
vt 0.500000 3.718750
vt 0.500000 1.265625
vt 0.472656 1.343750
vt 0.472656 3.640625
vt 0.500000 1.265625
vt 0.500000 3.718750
vt 0.609619 4.252930
vt 0.609375 0.765625
vt 0.609375 0.765625
vt 0.609619 4.252930
vt 0.718994 4.252930
vt 0.718994 0.238281
vt 0.718994 0.238281
vt 0.718994 4.252930
vt 0.750244 4.096680
vt 0.750244 0.096680
vt 0.750244 0.096680
vt 0.750244 4.096680
vt 0.718994 4.252930
vt 0.718994 0.238281
vt 0.718994 0.238281
vt 0.718994 4.252930
vt 0.609619 4.252930
vt 0.609375 0.765625
vt 0.609375 0.765625
vt 0.609619 4.252930
vt 0.500000 3.718750
vt 0.500000 1.265625
vt 1.007812 -0.090820
vt 0.742432 -0.090820
vt 0.750244 0.096680
vt 1.000000 0.096680
vt 1.000000 0.096680
vt 0.750244 0.096680
vt 0.750244 4.096680
vt 1.000000 4.096680
vt 0.742432 -0.090820
vt 1.007812 -0.090820
vt 1.000000 0.096680
vt 0.750244 0.096680
vt 0.750244 0.096680
vt 1.000000 0.096680
vt 1.000000 4.096680
vt 0.750244 4.096680
vt 0.343750 1.968750
vt 0.343750 3.031250
vt 0.312500 3.031250
vt 0.312500 1.968750
vt 0.312500 1.968750
vt 0.312500 3.031250
vt 0.281250 3.031250
vt 0.281250 1.968750
vt 0.371094 3.640625
vt 0.371094 1.343750
vt 0.472656 3.640625
vt 0.472656 3.640625
vt 0.371094 1.343750
vt 0.421875 1.343750
vt 0.472656 3.640625
vt 0.421875 1.343750
vt 0.472656 1.343750
vt 0.472656 1.343750
vt 0.371094 1.343750
vt 0.472656 3.640625
vt 0.252197 0.011719
vt 0.278320 0.011719
vt 0.278320 0.988281
vt 0.252197 0.988281
vt 0.278320 0.988281
vt 0.278320 0.055664
vt 0.252197 0.055664
vt 0.252197 0.988281
vt 0.252197 0.055664
vt 0.278320 0.055664
vt 0.278320 0.011719
vt 0.252197 0.011719
vt 0.252197 0.055664
vt 0.252197 0.011719
vt 0.278320 0.011719
vt 0.278320 0.055664
vt 0.278320 0.988281
vt 0.278320 0.055664
vt 0.252197 0.055664
vt 0.252197 0.988281
vt 0.252197 0.055664
vt 0.278320 0.055664
vt 0.278320 0.011719
vt 0.252197 0.011719
vt 0.252197 0.011719
vt 0.252197 0.988281
vt 0.278320 0.988281
vt 0.278320 0.011719
vt 0.278320 0.988281
vt 0.252197 0.988281
vt 0.252197 0.055664
vt 0.278320 0.055664
vt 0.252197 0.055664
vt 0.252197 0.011719
vt 0.278320 0.011719
vt 0.278320 0.055664
vt 0.252197 0.011719
vt 0.278320 0.011719
vt 0.278320 0.988281
vt 0.252197 0.988281
vt 0.371094 3.640625
vt 0.343750 3.718750
vt 0.343750 1.284180
vt 0.371094 1.343750
vt 0.371094 3.640625
vt 0.371094 1.343750
vt 0.343750 1.284180
vt 0.343750 3.718750
vt 0.252197 0.011719
vt 0.252197 0.988281
vt 0.278320 0.988281
vt 0.278320 0.011719
vt 0.278320 0.988281
vt 0.252197 0.988281
vt 0.252197 0.055664
vt 0.278320 0.055664
vt 0.371094 3.640625
vt 0.472656 3.640625
vt 0.371094 1.343750
vt 0.278320 0.055664
vt 0.278320 0.011719
vt 0.278320 0.988281
vt 0.252197 0.055664
vt 0.252197 0.988281
vt 0.252197 0.011719
vt 0.252197 0.055664
vt 0.252197 0.988281
vt 0.252197 0.011719
vt 0.278320 0.055664
vt 0.278320 0.988281
vt 0.278320 0.011719
vt 0.252197 0.055664
vt 0.252197 0.011719
vt 0.252197 0.988281
vt 0.278320 0.055664
vt 0.278320 0.988281
vt 0.278320 0.011719
vt 0.252197 0.055664
vt 0.252197 0.011719
vt 0.252197 0.988281
vt 0.278320 0.055664
vt 0.278320 0.011719
vt 0.278320 0.988281
vt 2.492188 3.984375
vt 2.007812 3.984375
vt 2.007812 3.609375
vt 2.492188 3.609375
vt 2.492188 3.609375
vt 2.007812 3.609375
vt 2.007812 3.234375
vt 2.492188 3.234375
vt 2.492188 3.234375
vt 2.007812 3.234375
vt 2.007812 3.781250
vt 2.492188 3.781250
vt 2.492188 3.781250
vt 2.007812 3.781250
vt 2.007812 3.234375
vt 2.492188 3.234375
vt 2.492188 3.234375
vt 2.007812 3.234375
vt 2.007812 3.609375
vt 2.492188 3.609375
vt 2.492188 3.609375
vt 2.007812 3.609375
vt 2.007812 3.984375
vt 2.492188 3.984375
vt 2.007812 3.984375
vt 2.492188 3.984375
vt 2.492188 3.609375
vt 2.007812 3.609375
vt 2.007812 3.609375
vt 2.492188 3.609375
vt 2.492188 3.234375
vt 2.007812 3.234375
vt 2.007812 3.234375
vt 2.492188 3.234375
vt 2.492188 3.781250
vt 2.007812 3.781250
vt 2.007812 3.781250
vt 2.492188 3.781250
vt 2.492188 3.234375
vt 2.007812 3.234375
vt 2.007812 3.234375
vt 2.492188 3.234375
vt 2.492188 3.609375
vt 2.007812 3.609375
vt 2.007812 3.609375
vt 2.492188 3.609375
vt 2.492188 3.984375
vt 2.007812 3.984375
vn 0.2805 -0.9598 0.0029
vn 0.7233 -0.6904 0.0152
vn 0.9712 -0.2372 0.0234
vn 0.9609 0.2756 0.0253
vn 0.6950 0.7187 0.0206
vn 0.2416 0.9703 0.0103
vn 0.9610 0.2755 0.0253
vn 0.9712 -0.2371 0.0234
vn 0.2805 -0.9599 0.0029
vn 0.2804 -0.9599 0.0028
vn 0.7233 -0.6903 0.0152
vn 0.9610 0.2755 0.0254
vn 0.6951 0.7187 0.0206
vn -0.7208 0.6930 -0.0151
vn -0.6924 -0.7212 -0.0205
vn 0.0248 0.0044 -0.9997
vn 0.0248 0.0043 -0.9997
vn -0.0248 -0.0043 0.9997
vn -0.0248 -0.0044 0.9997
vn -0.0248 -0.0042 0.9997
vn 0.6891 0.0110 0.7246
vn 0.6890 0.0110 0.7247
vn 0.7244 0.0171 -0.6892
vn 0.7244 0.0170 -0.6892
vn 0.0201 -0.9998 -0.0039
vn -0.0201 0.9998 0.0038
vn 0.0202 -0.9998 -0.0038
vn 0.0201 -0.9998 -0.0038
vn 0.0202 -0.9998 -0.0039
vn -0.0201 0.9998 0.0039
vn -0.6159 0.7877 -0.0121
vn 0.0318 -0.7048 -0.7087
vn 0.0033 0.7109 -0.7032
vn -0.0202 0.9998 0.0038
vn -0.0237 0.9875 0.1558
vn -0.0318 0.7041 0.7094
vn -0.0033 -0.7103 0.7039
vn 0.0161 -0.9888 0.1482
vn 0.0237 -0.9875 -0.1558
vn 0.0318 -0.7040 -0.7095
vn 0.0033 0.7101 -0.7041
vn -0.0161 0.9888 -0.1482
vn -0.0318 0.7048 0.7087
vn -0.0032 -0.7108 0.7033
vn -0.9995 -0.0198 -0.0252
vn -0.9995 -0.0199 -0.0252
vn -0.2363 0.9717 -0.0017
vn 0.1758 0.9844 0.0087
vn 0.5257 0.8505 0.0169
vn 0.5595 -0.8288 0.0105
vn 0.2153 -0.9766 0.0012
vn -0.1969 -0.9804 -0.0092
vn -0.5838 -0.8117 -0.0182
vn -0.8528 -0.5217 -0.0237
vn 0.0248 0.0045 -0.9997
vn 0.9995 0.0198 0.0252
vn 0.0248 0.0042 -0.9997
vn -0.9995 -0.0198 -0.0251
vn 0.9995 0.0198 0.0253
vn -0.0205 0.9996 0.0194
vn 0.0318 -0.7040 -0.7094
vn -0.0318 0.7040 0.7095
vn -0.0205 0.9996 0.0189
vn 0.9995 0.0199 0.0252
vn 0.0198 -0.9997 0.0117
vn 0.0032 0.7101 -0.7040
vn -0.0033 -0.7101 0.7040
vn 0.9995 0.0199 0.0251
vn 0.0205 -0.9996 -0.0189
vn -0.8730 0.4873 -0.0198
vn -0.0198 0.9997 -0.0117
vn 0.0198 -0.9997 0.0113
vn -0.0033 -0.7101 0.7041
vn -0.0198 0.9997 -0.0113
vn 0.0205 -0.9996 -0.0194
vn 0.0248 0.0041 -0.9997
vn -0.2964 0.7941 0.5306
vn -0.2210 -0.0081 0.9752
vn -0.2641 -0.8094 0.5245
vn -0.2700 0.7987 -0.5378
vn -0.1724 0.0003 -0.9850
vn -0.2377 -0.8047 -0.5440
vn -0.1655 -0.0072 0.9862
vn -0.1655 -0.0071 0.9862
vn -0.1655 -0.0070 0.9862
vn -0.1164 0.0014 -0.9932
vn -0.1164 0.0015 -0.9932
vn -0.1164 0.0016 -0.9932
vn -0.2583 0.8964 0.3601
vn -0.2272 0.5811 0.7815
vn -0.2036 -0.5956 0.7770
vn -0.2220 -0.9088 0.3532
vn -0.2226 -0.9483 0.2262
vn -0.2384 -0.8048 -0.5435
vn -0.1644 -0.5893 -0.7910
vn -0.2250 -0.9679 -0.1116
vn -0.2638 0.9589 -0.1041
vn -0.2488 0.9388 -0.2381
vn -0.1881 0.5883 -0.7864
vn -0.2972 0.7942 0.5301
vn -0.2403 0.8995 -0.3649
vn -0.1884 0.5878 -0.7867
vn -0.1647 -0.5888 -0.7913
vn -0.2040 -0.9056 -0.3718
vn -0.2109 -0.9462 -0.2453
vn -0.2689 0.9581 0.0991
vn -0.2034 -0.5961 0.7767
vn -0.2301 -0.9688 0.0918
vn -0.2606 0.9368 0.2334
vn -0.2649 -0.8095 0.5239
vn -0.2271 0.5816 0.7811
vn -0.2707 0.7987 -0.5374
vn -0.2605 0.9368 0.2334
vn -0.3117 0.3223 -0.8939
vn -0.3426 -0.3354 0.8776
vn -0.4665 -0.1313 0.8747
vn -0.4713 0.1059 0.8756
vn -0.3557 0.3147 0.8800
vn -0.1511 0.4378 0.8863
vn 0.0891 0.4425 0.8923
vn 0.2989 0.3275 0.8964
vn 0.4224 0.1240 0.8979
vn 0.4272 -0.1140 0.8970
vn 0.3120 -0.3221 0.8938
vn 0.1071 -0.4454 0.8889
vn -0.1332 -0.4502 0.8829
vn -0.2986 -0.3276 -0.8964
vn -0.4224 -0.1236 -0.8979
vn -0.4272 0.1135 -0.8970
vn -0.1070 0.4454 -0.8889
vn 0.1332 0.4503 -0.8829
vn 0.3429 0.3352 -0.8775
vn 0.4665 0.1318 -0.8747
vn 0.4713 -0.1064 -0.8756
vn 0.3560 -0.3145 -0.8800
vn 0.1511 -0.4378 -0.8863
vn -0.0891 -0.4425 -0.8923
vn -0.0032 -0.7109 0.7033
vn 0.0032 0.7109 -0.7033
vn -0.0033 -0.7102 0.7039
vn -0.0164 0.9904 -0.1376
vn 0.0033 0.7102 -0.7040
vn -0.0235 0.9891 0.1452
vn 0.0235 -0.9891 -0.1452
vn 0.0164 -0.9904 0.1376
vn -0.1767 -0.9842 -0.0087
vn -0.2162 0.9764 -0.0012
vn 0.0249 0.0044 -0.9997
vn 0.0209 -0.0483 0.9986
vn -0.5916 0.5520 0.5877
vn -0.5615 0.5571 -0.6118
vn 0.0686 0.0500 -0.9964
vn -0.5389 -0.5744 -0.6162
vn 0.0193 0.0413 0.9990
vn -0.5687 -0.5798 0.5834
vn -0.0249 -0.0044 0.9997
vn 0.0705 -0.0396 -0.9967
vn 0.6924 0.7212 0.0206
vn -0.6924 -0.7212 -0.0206
vn -0.6924 -0.7212 -0.0203
vn 0.7208 -0.6930 0.0152
vn -0.7208 0.6930 -0.0152
vn 0.7208 -0.6930 0.0151
vn 0.2416 0.9703 0.0102
vn 0.6950 0.7187 0.0205
usemtl NDS_Material.004
s 1
f 305/1/1 306/2/1 307/3/1 308/4/1
f 309/5/2 310/6/2 311/7/2 312/8/2
f 313/9/3 314/10/3 315/11/3 316/12/3
f 317/13/4 318/14/4 319/15/4 320/16/4
f 321/17/5 322/18/5 323/19/5 324/20/5
f 325/21/6 326/22/6 327/23/6 328/24/6
f 329/25/6 330/26/6 331/27/6 332/28/6
f 333/29/5 334/30/5 335/31/5 336/32/5
f 337/33/7 338/34/7 339/35/7 340/36/7
f 341/37/8 342/38/8 343/39/8 344/40/8
f 345/41/2 346/42/2 347/43/2 348/44/2
f 349/45/9 350/46/9 351/47/9 352/48/9
f 353/49/6 354/50/6 355/51/6 356/52/6
f 357/53/5 358/54/5 359/55/5 360/56/5
f 361/57/4 362/58/4 363/59/4 364/60/4
f 365/61/3 366/62/3 367/63/3 368/64/3
f 369/65/2 370/66/2 371/67/2 372/68/2
f 373/69/9 374/70/9 375/71/9 376/72/9
f 377/73/10 378/74/10 379/75/10 380/76/10
f 381/77/11 382/78/11 383/79/11 384/80/11
f 385/81/3 386/82/3 387/83/3 388/84/3
f 389/85/12 390/86/12 391/87/12 392/88/12
f 393/89/13 394/90/13 395/91/13 396/92/13
f 397/93/6 398/94/6 399/95/6 400/96/6
f 401/97/14 402/98/14 403/99/14 404/100/14
f 405/101/14 406/102/14 407/103/14 408/104/14
f 409/105/14 410/106/14 411/107/14 412/108/14
f 413/109/15 414/110/15 415/111/15 416/112/15
f 417/113/15 418/114/15 419/115/15 420/116/15
f 421/117/16 422/118/16 423/119/16
f 424/120/16 425/121/16 426/122/16
f 427/123/16 428/124/16 429/125/16
f 430/126/17 431/127/17 432/128/17
f 433/129/17 434/130/17 435/131/17
f 436/132/17 437/133/17 438/134/17
f 439/135/16 440/136/16 441/137/16
f 442/138/17 443/139/17 444/140/17
f 445/141/17 446/142/17 447/143/17
f 448/144/18 449/145/18 450/146/18
f 451/147/18 452/148/18 453/149/18
f 454/150/18 455/151/18 456/152/18
f 457/153/19 458/154/19 459/155/19
f 460/156/18 461/157/18 462/158/18
f 463/159/18 464/160/18 465/161/18
f 466/162/20 467/163/20 468/164/20
f 469/165/18 470/166/18 471/167/18
f 472/168/20 473/169/20 474/170/20
f 475/171/21 476/172/21 477/173/21
f 478/174/21 479/175/21 480/176/21
f 481/177/21 482/178/21 483/179/21
f 484/180/22 485/181/22 486/182/22
f 487/183/23 488/184/23 489/185/23
f 490/186/24 491/187/24 492/188/24
f 493/189/23 494/190/23 495/191/23
f 496/192/23 497/193/23 498/194/23
f 499/195/25 500/196/25 501/197/25 502/198/25
f 503/199/26 504/200/26 505/201/26 506/202/26
f 507/203/26 508/204/26 509/205/26 510/206/26
f 511/207/27 512/208/27 513/209/27 514/210/27
f 515/211/15 516/212/15 517/213/15 518/214/15
f 519/215/15 520/216/15 521/217/15 522/218/15
f 523/219/14 524/220/14 525/221/14 526/222/14
f 527/223/26 528/224/26 529/225/26
f 530/226/28 531/227/28 532/228/28
f 533/229/29 534/230/29 535/231/29
f 536/232/26 537/233/26 538/234/26
f 539/235/25 540/236/25 541/237/25
f 542/238/26 543/239/26 544/240/26
f 545/241/28 546/242/28 547/243/28
f 548/244/30 549/245/30 550/246/30
usemtl NDS_Material.002
f 53/247/17 54/248/17 55/249/17 56/250/17
f 57/251/18 58/252/18 59/253/18 60/254/18
usemtl NDS_Material
f 1/255/31 2/256/31 3/257/31 4/258/31
usemtl NDS_Material.005
f 551/259/28 552/260/28 553/261/28 554/262/28
f 555/263/32 556/264/32 557/265/32 558/266/32
f 559/267/17 560/268/17 561/269/17 562/270/17
f 563/271/33 564/272/33 565/273/33 566/274/33
f 567/275/34 568/276/34 569/277/34 570/278/34
f 571/279/35 572/280/35 573/281/35 574/282/35
f 575/283/36 576/284/36 577/285/36 578/286/36
f 579/287/18 580/288/18 581/289/18 582/290/18
f 583/291/37 584/292/37 585/293/37 586/294/37
f 587/295/38 588/296/38 589/297/38 590/298/38
f 591/299/28 592/300/28 593/301/28 594/302/28
f 595/303/39 596/304/39 597/305/39 598/306/39
f 599/307/40 600/308/40 601/309/40 602/310/40
f 603/311/17 604/312/17 605/313/17 606/314/17
f 607/315/41 608/316/41 609/317/41 610/318/41
f 611/319/42 612/320/42 613/321/42 614/322/42
f 615/323/34 616/324/34 617/325/34 618/326/34
f 619/327/43 620/328/43 621/329/43 622/330/43
f 623/331/18 624/332/18 625/333/18 626/334/18
f 627/335/44 628/336/44 629/337/44 630/338/44
f 631/339/45 632/340/45 633/341/45 634/342/45
f 635/343/45 636/344/45 637/345/45 638/346/45
f 639/347/45 640/348/45 641/349/45
f 642/350/46 643/351/46 644/352/46
usemtl NDS_Material.007
f 900/353/47 901/354/47 902/355/47 903/356/47
f 904/357/48 905/358/48 906/359/48 907/360/48
f 908/361/49 909/362/49 910/363/49 911/364/49
f 912/365/5 913/366/5 914/367/5 915/368/5
f 916/369/7 917/370/7 918/371/7 919/372/7
f 920/373/3 921/374/3 922/375/3 923/376/3
f 924/377/11 925/378/11 926/379/11 927/380/11
f 928/381/50 929/382/50 930/383/50 931/384/50
f 932/385/51 933/386/51 934/387/51 935/388/51
f 936/389/52 937/390/52 938/391/52 939/392/52
f 940/393/53 941/394/53 942/395/53 943/396/53
f 944/397/54 945/398/54 946/399/54 947/400/54
f 948/401/19 949/402/19 950/403/19 951/404/19
f 952/405/18 953/406/18 954/407/18 955/408/18
f 956/409/55 957/410/55 958/411/55 959/412/55
f 960/413/17 961/414/17 962/415/17 963/416/17
f 964/417/56 965/418/56 966/419/56 967/420/56
f 968/421/56 969/422/56 970/423/56 971/424/56
f 972/425/18 973/426/18 974/427/18 975/428/18
f 976/429/18 977/430/18 978/431/18 979/432/18
f 980/433/57 981/434/57 982/435/57 983/436/57
f 984/437/17 985/438/17 986/439/17 987/440/17
f 988/441/45 989/442/45 990/443/45 991/444/45
f 992/445/58 993/446/58 994/447/58 995/448/58
f 996/449/56 997/450/56 998/451/56 999/452/56
f 1000/453/59 1001/454/59 1002/455/59 1003/456/59
f 1004/457/45 1005/458/45 1006/459/45 1007/460/45
f 1008/461/45 1009/462/45 1010/463/45 1011/464/45
f 1012/465/60 1013/466/60 1014/467/60 1015/468/60
f 1016/469/61 1017/470/61 1018/471/61 1019/472/61
f 1020/473/62 1021/474/62 1022/475/62 1023/476/62
f 1024/477/18 1025/478/18 1026/479/18 1027/480/18
f 1028/481/63 1029/482/63 1030/483/63 1031/484/63
f 1032/485/64 1033/486/64 1034/487/64 1035/488/64
f 1036/489/65 1037/490/65 1038/491/65 1039/492/65
f 1040/493/45 1041/494/45 1042/495/45 1043/496/45
f 1044/497/66 1045/498/66 1046/499/66 1047/500/66
f 1048/501/67 1049/502/67 1050/503/67 1051/504/67
f 1052/505/68 1053/506/68 1054/507/68 1055/508/68
f 1056/509/18 1057/510/18 1058/511/18 1059/512/18
f 1060/513/46 1061/514/46 1062/515/46 1063/516/46
f 1064/517/69 1065/518/69 1066/519/69 1067/520/69
f 1068/521/70 1069/522/70 1070/523/70 1071/524/70
f 1072/525/71 1073/526/71 1074/527/71 1075/528/71
f 1076/529/72 1077/530/72 1078/531/72 1079/532/72
f 1080/533/73 1081/534/73 1082/535/73 1083/536/73
f 1084/537/41 1085/538/41 1086/539/41 1087/540/41
f 1088/541/17 1089/542/17 1090/543/17 1091/544/17
f 1092/545/74 1093/546/74 1094/547/74 1095/548/74
f 1096/549/56 1097/550/56 1098/551/56 1099/552/56
f 1100/553/75 1101/554/75 1102/555/75 1103/556/75
f 1104/557/45 1105/558/45 1106/559/45 1107/560/45
f 1108/561/62 1109/562/62 1110/563/62 1111/564/62
f 1112/565/40 1113/566/40 1114/567/40 1115/568/40
f 1116/569/64 1117/570/64 1118/571/64 1119/572/64
f 1120/573/76 1121/574/76 1122/575/76 1123/576/76
f 1124/577/46 1125/578/46 1126/579/46 1127/580/46
f 1128/581/18 1129/582/18 1130/583/18
f 1131/584/17 1132/585/17 1133/586/17
f 1134/587/16 1135/588/16 1136/589/16
f 1137/590/20 1138/591/20 1139/592/20
usemtl NDS_Material.003
f 61/593/77 62/594/77 63/595/77 64/596/77
f 65/597/78 66/598/78 67/599/78 68/600/78
f 69/601/79 70/602/79 71/603/79 72/604/79
f 73/605/80 74/606/80 75/607/80 76/608/80
f 77/609/81 78/610/81 79/611/81 80/612/81
f 81/613/82 82/614/82 83/615/82 84/616/82
f 85/617/83 86/618/83 87/619/83
f 88/620/84 89/621/84 90/622/84
f 91/623/85 92/624/85 93/625/85
f 94/626/86 95/627/86 96/628/86
f 97/629/87 98/630/87 99/631/87
f 100/632/88 101/633/88 102/634/88
f 103/635/87 104/636/87 105/637/87
f 106/638/85 107/639/85 108/640/85
f 109/641/84 110/642/84 111/643/84
f 112/644/89 113/645/89 114/646/89 115/647/89
f 116/648/90 117/649/90 118/650/90 119/651/90
f 120/652/91 121/653/91 122/654/91 123/655/91
f 124/656/92 125/657/92 126/658/92 127/659/92
f 128/660/93 129/661/93 130/662/93 131/663/93
f 132/664/94 133/665/94 134/666/94 135/667/94
f 136/668/95 137/669/95 138/670/95 139/671/95
f 140/672/96 141/673/96 142/674/96 143/675/96
f 144/676/97 145/677/97 146/678/97 147/679/97
f 148/680/98 149/681/98 150/682/98 151/683/98
f 152/684/99 153/685/99 154/686/99 155/687/99
f 156/688/100 157/689/100 158/690/100 159/691/100
f 160/692/98 161/693/98 162/694/98 163/695/98
f 164/696/101 165/697/101 166/698/101 167/699/101
f 168/700/102 169/701/102 170/702/102 171/703/102
f 172/704/103 173/705/103 174/706/103 175/707/103
f 176/708/104 177/709/104 178/710/104 179/711/104
f 180/712/105 181/713/105 182/714/105 183/715/105
f 184/716/106 185/717/106 186/718/106 187/719/106
f 188/720/107 189/721/107 190/722/107 191/723/107
f 192/724/93 193/725/93 194/726/93 195/727/93
f 196/728/108 197/729/108 198/730/108 199/731/108
f 200/732/105 201/733/105 202/734/105 203/735/105
f 204/736/109 205/737/109 206/738/109 207/739/109
f 208/740/110 209/741/110 210/742/110 211/743/110
f 212/744/111 213/745/111 214/746/111 215/747/111
f 216/748/112 217/749/112 218/750/112 219/751/112
f 220/752/113 221/753/113 222/754/113 223/755/113
f 224/756/86 225/757/86 226/758/86
f 227/759/114 228/760/114 229/761/114
f 230/762/87 231/763/87 232/764/87
f 233/765/84 234/766/84 235/767/84
f 236/768/115 237/769/115 238/770/115
f 239/771/116 240/772/116 241/773/116
f 242/774/117 243/775/117 244/776/117
f 245/777/118 246/778/118 247/779/118
f 248/780/119 249/781/119 250/782/119
f 251/783/120 252/784/120 253/785/120
f 254/786/121 255/787/121 256/788/121
f 257/789/122 258/790/122 259/791/122
f 260/792/123 261/793/123 262/794/123
f 263/795/124 264/796/124 265/797/124
f 266/798/125 267/799/125 268/800/125
f 269/801/126 270/802/126 271/803/126
f 272/804/127 273/805/127 274/806/127
f 275/807/128 276/808/128 277/809/128
f 278/810/129 279/811/129 280/812/129
f 281/813/130 282/814/130 283/815/130
f 284/816/131 285/817/131 286/818/131
f 287/819/132 288/820/132 289/821/132
f 290/822/133 291/823/133 292/824/133
f 293/825/134 294/826/134 295/827/134
f 296/828/135 297/829/135 298/830/135
f 299/831/136 300/832/136 301/833/136
f 302/834/137 303/835/137 304/836/137
usemtl NDS_Material.006
f 645/837/18 646/838/18 647/839/18 648/840/18
f 649/841/138 650/842/138 651/843/138 652/844/138
f 653/845/27 654/846/27 655/847/27 656/848/27
f 657/849/39 658/850/39 659/851/39 660/852/39
f 661/853/40 662/854/40 663/855/40 664/856/40
f 665/857/17 666/858/17 667/859/17 668/860/17
f 669/861/41 670/862/41 671/863/41 672/864/41
f 673/865/42 674/866/42 675/867/42 676/868/42
f 677/869/26 678/870/26 679/871/26 680/872/26
f 681/873/43 682/874/43 683/875/43 684/876/43
f 685/877/17 686/878/17 687/879/17 688/880/17
f 689/881/139 690/882/139 691/883/139 692/884/139
f 693/885/34 694/886/34 695/887/34 696/888/34
f 697/889/35 698/890/35 699/891/35 700/892/35
f 701/893/36 702/894/36 703/895/36 704/896/36
f 705/897/18 706/898/18 707/899/18 708/900/18
f 709/901/140 710/902/140 711/903/140 712/904/140
f 713/905/38 714/906/38 715/907/38 716/908/38
f 717/909/28 718/910/28 719/911/28 720/912/28
f 721/913/32 722/914/32 723/915/32 724/916/32
f 725/917/62 726/918/62 727/919/62 728/920/62
f 729/921/34 730/922/34 731/923/34 732/924/34
f 733/925/141 734/926/141 735/927/141 736/928/141
f 737/929/142 738/930/142 739/931/142 740/932/142
f 741/933/142 742/934/142 743/935/142 744/936/142
f 745/937/34 746/938/34 747/939/34 748/940/34
f 749/941/143 750/942/143 751/943/143 752/944/143
f 753/945/62 754/946/62 755/947/62 756/948/62
f 757/949/144 758/950/144 759/951/144 760/952/144
f 761/953/27 762/954/27 763/955/27 764/956/27
f 765/957/67 766/958/67 767/959/67 768/960/67
f 769/961/61 770/962/61 771/963/61 772/964/61
f 773/965/28 774/966/28 775/967/28 776/968/28
f 777/969/145 778/970/145 779/971/145 780/972/145
f 781/973/146 782/974/146 783/975/146 784/976/146
f 785/977/27 786/978/27 787/979/27 788/980/27
f 789/981/147 790/982/147 791/983/147 792/984/147
f 793/985/34 794/986/34 795/987/34 796/988/34
f 797/989/46 798/990/46 799/991/46 800/992/46
f 801/993/45 802/994/45 803/995/45 804/996/45
f 805/997/17 806/998/17 807/999/17
f 808/1000/17 809/1001/17 810/1002/17
f 811/1003/57 812/1004/57 813/1005/57
f 814/1006/18 815/1007/18 816/1008/18
f 817/1009/148 818/1010/148 819/1011/148 820/1012/148
f 821/1013/149 822/1014/149 823/1015/149 824/1016/149
f 825/1017/150 826/1018/150 827/1019/150 828/1020/150
f 829/1021/151 830/1022/151 831/1023/151 832/1024/151
f 833/1025/152 834/1026/152 835/1027/152 836/1028/152
f 837/1029/153 838/1030/153 839/1031/153 840/1032/153
f 841/1033/16 842/1034/16 843/1035/16 844/1036/16
f 845/1037/154 846/1038/154 847/1039/154 848/1040/154
f 849/1041/155 850/1042/155 851/1043/155 852/1044/155
f 853/1045/18 854/1046/18 855/1047/18 856/1048/18
f 857/1049/40 858/1050/40 859/1051/40 860/1052/40
f 861/1053/73 862/1054/73 863/1055/73 864/1056/73
f 865/1057/156 866/1058/156 867/1059/156 868/1060/156
f 869/1061/157 870/1062/157 871/1063/157 872/1064/157
f 873/1065/18 874/1066/18 875/1067/18
f 876/1068/158 877/1069/158 878/1070/158
f 879/1071/14 880/1072/14 881/1073/14
f 882/1074/159 883/1075/159 884/1076/159
f 885/1077/158 886/1078/158 887/1079/158
f 888/1080/160 889/1081/160 890/1082/160
f 891/1083/161 892/1084/161 893/1085/161
f 894/1086/162 895/1087/162 896/1088/162
f 897/1089/163 898/1090/163 899/1091/163
usemtl NDS_Material.001
f 5/1092/9 6/1093/9 7/1094/9 8/1095/9
f 9/1096/2 10/1097/2 11/1098/2 12/1099/2
f 13/1100/3 14/1101/3 15/1102/3 16/1103/3
f 17/1104/7 18/1105/7 19/1106/7 20/1107/7
f 21/1108/5 22/1109/5 23/1110/5 24/1111/5
f 25/1112/6 26/1113/6 27/1114/6 28/1115/6
f 29/1116/164 30/1117/164 31/1118/164 32/1119/164
f 33/1120/165 34/1121/165 35/1122/165 36/1123/165
f 37/1124/7 38/1125/7 39/1126/7 40/1127/7
f 41/1128/8 42/1129/8 43/1130/8 44/1131/8
f 45/1132/2 46/1133/2 47/1134/2 48/1135/2
f 49/1136/9 50/1137/9 51/1138/9 52/1139/9
