# Blender v2.77 (sub 0) OBJ File: ''
# www.blender.org
mtllib Katana.mtl
o ShapeIndexedFaceSet.006_ShapeIndexedFaceSet.020
v -0.076902 0.838057 3.496378
v -0.127436 0.682291 3.486802
v 0.005439 0.586440 3.480431
v 0.086840 0.838312 3.495915
v -0.076902 0.838057 3.496378
v 0.005439 0.586440 3.480431
v 0.137801 0.682703 3.486053
v 0.086840 0.838312 3.495915
v 0.005439 0.586440 3.480431
v 0.001687 1.732331 1.445710
v -0.571516 1.662264 1.415960
v -0.796495 1.256975 1.375287
v -0.761496 1.438472 -1.010552
v -0.005523 1.471215 -1.257686
v -0.005240 1.069699 -1.377933
v 0.574677 1.664044 1.412722
v 0.001687 1.732331 1.445710
v 0.800675 1.259455 1.370775
v 0.800675 1.259455 1.370775
v 0.001687 1.732331 1.445710
v 0.629706 0.966843 1.396090
v -0.624481 0.964895 1.399634
v 0.001687 1.732331 1.445710
v -0.796495 1.256975 1.375287
v -0.005523 1.471215 -1.257686
v -0.006683 1.891789 -1.438825
v 0.759428 1.440834 -1.014848
v -0.761496 1.438472 -1.010552
v -0.006683 1.891789 -1.438825
v -0.005523 1.471215 -1.257686
v -0.005240 1.069699 -1.377933
v -0.005523 1.471215 -1.257686
v 0.759428 1.440834 -1.014848
v 0.011426 1.010271 4.507527
v 0.006284 1.408859 2.900565
v -0.473675 1.171851 2.866884
v 0.011426 1.010271 4.507527
v 0.579211 1.006943 2.839486
v 0.486527 1.173342 2.864170
v -0.565982 1.005165 2.842721
v 0.011426 1.010271 4.507527
v -0.473675 1.171851 2.866884
v 0.006284 1.408859 2.900565
v 0.011426 1.010271 4.507527
v 0.486527 1.173342 2.864170
v -0.002294 1.936775 0.144231
v 0.000976 2.785130 -1.601748
v -0.207007 1.852851 -0.779160
v 0.000976 2.785130 -1.601748
v -0.002447 2.915380 -2.745801
v -0.207007 1.852851 -0.779160
v -0.006683 1.891789 -1.438825
v -0.207007 1.852851 -0.779160
v -0.002447 2.915380 -2.745801
v -0.761496 1.438472 -1.010552
v -0.207007 1.852851 -0.779160
v -0.006683 1.891789 -1.438825
v -0.002447 2.915380 -2.745801
v 0.000976 2.785130 -1.601748
v 0.197223 1.853479 -0.780302
v 0.197223 1.853479 -0.780302
v -0.006683 1.891789 -1.438825
v -0.002447 2.915380 -2.745801
v 0.197223 1.853479 -0.780302
v 0.759428 1.440834 -1.014848
v -0.006683 1.891789 -1.438825
v -0.002294 1.936775 0.144231
v 0.197223 1.853479 -0.780302
v 0.000976 2.785130 -1.601748
v 0.833540 1.316984 0.200784
v 0.629706 0.966843 1.396090
v 2.037175 0.726092 0.207722
v 0.759428 1.440834 -1.014848
v 0.833540 1.316984 0.200784
v 1.407468 1.234479 -0.483333
v -2.037870 0.719764 0.219235
v -1.853468 0.410161 1.082552
v -0.624481 0.964895 1.399634
v -1.413641 1.230098 -0.475362
v -2.037870 0.719764 0.219235
v -0.835876 1.314392 0.205501
v 2.037175 0.726092 0.207722
v 1.407468 1.234479 -0.483333
v 0.833540 1.316984 0.200784
v 1.858596 0.415925 1.072064
v 2.210612 -0.105564 1.328785
v 2.037175 0.726092 0.207722
v -1.413641 1.230098 -0.475362
v -0.835876 1.314392 0.205501
v -0.761496 1.438472 -1.010552
v 0.629706 0.966843 1.396090
v 1.858596 0.415925 1.072064
v 2.037175 0.726092 0.207722
v -2.037870 0.719764 0.219235
v -2.202417 -0.112417 1.341253
v -1.853468 0.410161 1.082552
v -2.037870 0.719764 0.219235
v -0.624481 0.964895 1.399634
v -0.835876 1.314392 0.205501
v 1.901446 0.571997 0.305954
v 1.858596 0.415925 1.072064
v 0.629706 0.966843 1.396090
v 1.247343 1.113260 -0.418795
v 1.901446 0.571997 0.305954
v 0.629706 0.966843 1.396090
v -1.853468 0.410161 1.082552
v -2.202417 -0.112417 1.341253
v -1.901114 0.566092 0.316697
v -0.624481 0.964895 1.399634
v -1.901114 0.566092 0.316697
v -1.252781 1.109378 -0.411732
v 1.901446 0.571997 0.305954
v 2.210612 -0.105564 1.328785
v 1.858596 0.415925 1.072064
v -0.624481 0.964895 1.399634
v -1.853468 0.410161 1.082552
v -1.901114 0.566092 0.316697
v -0.796495 1.256975 1.375287
v -0.835876 1.314392 0.205501
v -0.624481 0.964895 1.399634
v 0.833540 1.316984 0.200784
v 0.589643 1.684285 0.169572
v 0.800675 1.259455 1.370775
v 0.800675 1.259455 1.370775
v 0.589643 1.684285 0.169572
v 0.574677 1.664044 1.412722
v 0.001294 0.618343 2.025909
v -0.185788 0.720337 2.582870
v -0.187384 0.754526 2.034963
v -0.185788 0.720337 2.582870
v -0.115691 0.975944 2.048575
v -0.187384 0.754526 2.034963
v -0.114095 0.941754 2.596484
v 0.118643 0.942115 2.595826
v 0.117047 0.976305 2.047917
v 0.118643 0.942115 2.595826
v 0.191194 0.720922 2.581805
v 0.117047 0.976305 2.047917
v 0.191194 0.720922 2.581805
v 0.001294 0.618343 2.025909
v 0.189597 0.755112 2.033897
v 0.002889 0.584153 2.573819
v -0.185788 0.720337 2.582870
v 0.001294 0.618343 2.025909
v -0.114095 0.941754 2.596484
v -0.115691 0.975944 2.048575
v -0.185788 0.720337 2.582870
v -0.114095 0.941754 2.596484
v 0.117047 0.976305 2.047917
v -0.115691 0.975944 2.048575
v 0.191194 0.720922 2.581805
v 0.189597 0.755112 2.033897
v 0.117047 0.976305 2.047917
v 0.002889 0.584153 2.573819
v 0.001294 0.618343 2.025909
v 0.191194 0.720922 2.581805
v -0.571516 1.662264 1.415960
v 0.001687 1.732331 1.445710
v -0.002294 1.936775 0.144231
v -0.002294 1.936775 0.144231
v 0.574677 1.664044 1.412722
v 0.589643 1.684285 0.169572
v -0.593297 1.682448 0.172913
v -0.571516 1.662264 1.415960
v -0.002294 1.936775 0.144231
v -0.002294 1.936775 0.144231
v 0.001687 1.732331 1.445710
v 0.574677 1.664044 1.412722
v -0.796495 1.256975 1.375287
v -0.571516 1.662264 1.415960
v -0.593297 1.682448 0.172913
v 0.629706 0.966843 1.396090
v 0.833540 1.316984 0.200784
v 0.800675 1.259455 1.370775
v -0.796495 1.256975 1.375287
v -0.593297 1.682448 0.172913
v -0.835876 1.314392 0.205501
v -0.129917 0.735461 2.634748
v -0.185788 0.720337 2.582870
v 0.002958 0.639610 2.628376
v -0.129917 0.735461 2.634748
v 0.002958 0.639610 2.628376
v 0.005439 0.586440 3.480431
v -0.079383 0.891227 2.644324
v -0.114095 0.941754 2.596484
v -0.185788 0.720337 2.582870
v -0.076902 0.838057 3.496378
v -0.129917 0.735461 2.634748
v -0.127436 0.682291 3.486802
v 0.084358 0.891481 2.643863
v 0.118643 0.942115 2.595826
v -0.079383 0.891227 2.644324
v 0.084358 0.891481 2.643863
v -0.079383 0.891227 2.644324
v -0.076902 0.838057 3.496378
v 0.135319 0.735872 2.634000
v 0.191194 0.720922 2.581805
v 0.084358 0.891481 2.643863
v 0.135319 0.735872 2.634000
v 0.084358 0.891481 2.643863
v 0.086840 0.838312 3.495915
v 0.002958 0.639610 2.628376
v 0.002889 0.584153 2.573819
v 0.191194 0.720922 2.581805
v 0.011426 1.010271 4.507527
v 0.006740 1.006055 2.841103
v 0.579211 1.006943 2.839486
v -1.901114 0.566092 0.316697
v -2.037870 0.719764 0.219235
v -1.252781 1.109378 -0.411732
v -0.000070 0.871268 0.348978
v -1.266979 0.806452 -0.382258
v -0.783949 0.769127 -0.829094
v -0.002916 0.190955 -1.035288
v -0.145352 0.975078 -1.205341
v -0.005674 0.031826 -2.101725
v -0.624481 0.964895 1.399634
v -1.252781 1.109378 -0.411732
v -1.266979 0.806452 -0.382258
v -0.145352 0.975078 -1.205341
v -0.761496 1.438472 -1.010552
v -0.005240 1.069699 -1.377933
v 0.159632 0.975318 -1.206468
v -0.000070 0.871268 0.348978
v -0.002916 0.190955 -1.035288
v -0.002916 0.190955 -1.035288
v -0.005674 0.031826 -2.101725
v 0.159632 0.975318 -1.206468
v -1.266979 0.806452 -0.382258
v -0.000070 0.871268 0.348978
v -0.624481 0.964895 1.399634
v -0.002916 0.190955 -1.035288
v -0.000070 0.871268 0.348978
v -0.145352 0.975078 -1.205341
v -0.005674 0.031826 -2.101725
v -0.145352 0.975078 -1.205341
v -0.005240 1.069699 -1.377933
v 0.159632 0.975318 -1.206468
v -0.005674 0.031826 -2.101725
v -0.005240 1.069699 -1.377933
v 0.086840 0.838312 3.495915
v 0.084358 0.891481 2.643863
v -0.076902 0.838057 3.496378
v 0.084358 0.891481 2.643863
v 0.191194 0.720922 2.581805
v 0.118643 0.942115 2.595826
v 0.135319 0.735872 2.634000
v 0.002958 0.639610 2.628376
v 0.191194 0.720922 2.581805
v 0.002958 0.639610 2.628376
v -0.185788 0.720337 2.582870
v 0.002889 0.584153 2.573819
v 0.005439 0.586440 3.480431
v 0.002958 0.639610 2.628376
v 0.135319 0.735872 2.634000
v -0.127436 0.682291 3.486802
v -0.129917 0.735461 2.634748
v 0.005439 0.586440 3.480431
v -0.079383 0.891227 2.644324
v -0.185788 0.720337 2.582870
v -0.129917 0.735461 2.634748
v -0.076902 0.838057 3.496378
v -0.079383 0.891227 2.644324
v -0.129917 0.735461 2.634748
v -0.079383 0.891227 2.644324
v 0.118643 0.942115 2.595826
v -0.114095 0.941754 2.596484
v 0.159632 0.975318 -1.206468
v -0.005240 1.069699 -1.377933
v 0.759428 1.440834 -1.014848
v -0.783949 0.769127 -0.829094
v -0.722360 1.067344 -0.810157
v -0.000070 0.871268 0.348978
v -1.266979 0.806452 -0.382258
v -1.243253 0.800963 -1.281132
v -0.783949 0.769127 -0.829094
v -1.243830 1.080441 -1.332565
v -1.531934 1.107905 -1.180974
v -1.252781 1.109378 -0.411732
v -1.531934 1.107905 -1.180974
v -1.243830 1.080441 -1.332565
v -1.531357 0.828177 -1.129557
v -1.243830 1.080441 -1.332565
v -0.722360 1.067344 -0.810157
v -0.783949 0.769127 -0.829094
v -1.252781 1.109378 -0.411732
v -1.531357 0.828177 -1.129557
v -1.266979 0.806452 -0.382258
v -0.761496 1.438472 -1.010552
v -0.145352 0.975078 -1.205341
v -0.722360 1.067344 -0.810157
v -0.722360 1.067344 -0.810157
v -1.252781 1.109378 -0.411732
v -0.761496 1.438472 -1.010552
v -1.413641 1.230098 -0.475362
v -0.761496 1.438472 -1.010552
v -1.252781 1.109378 -0.411732
v -0.000070 0.871268 0.348978
v 0.002738 0.965869 1.397861
v -0.624481 0.964895 1.399634
v -1.243253 0.800963 -1.281132
v -1.266979 0.806452 -0.382258
v -1.531357 0.828177 -1.129557
v -1.252781 1.109378 -0.411732
v -0.722360 1.067344 -0.810157
v -1.243830 1.080441 -1.332565
v -1.531357 0.828177 -1.129557
v -1.252781 1.109378 -0.411732
v -1.531934 1.107905 -1.180974
v -1.243253 0.800963 -1.281132
v -1.531357 0.828177 -1.129557
v -1.243830 1.080441 -1.332565
v -0.783949 0.769127 -0.829094
v -1.243253 0.800963 -1.281132
v -1.243830 1.080441 -1.332565
v 1.901446 0.571997 0.305954
v 1.247343 1.113260 -0.418795
v 2.037175 0.726092 0.207722
v 1.262644 0.810381 -0.389405
v -0.000070 0.871268 0.348978
v 0.777473 0.771552 -0.833505
v 0.159632 0.975318 -1.206468
v 0.759428 1.440834 -1.014848
v 0.714818 1.069576 -0.814217
v 0.159632 0.975318 -1.206468
v 0.714818 1.069576 -0.814217
v -0.000070 0.871268 0.348978
v 0.629706 0.966843 1.396090
v -0.000070 0.871268 0.348978
v 1.262644 0.810381 -0.389405
v 1.262644 0.810381 -0.389405
v 0.777473 0.771552 -0.833505
v 1.234123 0.804810 -1.288131
v 0.714818 1.069576 -0.814217
v 0.759428 1.440834 -1.014848
v 1.247343 1.113260 -0.418795
v 1.233545 1.084289 -1.339564
v 1.522163 1.112649 -1.189604
v 1.522740 0.832920 -1.138186
v 0.714818 1.069576 -0.814217
v 1.233545 1.084289 -1.339564
v 0.777473 0.771552 -0.833505
v 1.522740 0.832920 -1.138186
v 1.247343 1.113260 -0.418795
v 1.262644 0.810381 -0.389405
v 1.247343 1.113260 -0.418795
v 1.233545 1.084289 -1.339564
v 0.714818 1.069576 -0.814217
v 0.759428 1.440834 -1.014848
v 1.407468 1.234479 -0.483333
v 1.247343 1.113260 -0.418795
v 0.002738 0.965869 1.397861
v -0.000070 0.871268 0.348978
v 0.629706 0.966843 1.396090
v 1.234123 0.804810 -1.288131
v 1.522740 0.832920 -1.138186
v 1.262644 0.810381 -0.389405
v 1.247343 1.113260 -0.418795
v 1.522163 1.112649 -1.189604
v 1.233545 1.084289 -1.339564
v 1.247343 1.113260 -0.418795
v 1.522740 0.832920 -1.138186
v 1.522163 1.112649 -1.189604
v 1.522740 0.832920 -1.138186
v 1.234123 0.804810 -1.288131
v 1.233545 1.084289 -1.339564
v 1.234123 0.804810 -1.288131
v 0.777473 0.771552 -0.833505
v 1.233545 1.084289 -1.339564
v 0.629706 0.966843 1.396090
v 1.262644 0.810381 -0.389405
v 1.247343 1.113260 -0.418795
v 2.037175 0.726092 0.207722
v 1.247343 1.113260 -0.418795
v 1.407468 1.234479 -0.483333
v -0.000070 0.871268 0.348978
v 0.714818 1.069576 -0.814217
v 0.777473 0.771552 -0.833505
v -0.145352 0.975078 -1.205341
v -0.000070 0.871268 0.348978
v -0.722360 1.067344 -0.810157
v 0.006740 1.006055 2.841103
v -0.565982 1.005165 2.842721
v 0.002738 0.965869 1.397861
v 0.137801 0.682703 3.486053
v 0.005439 0.586440 3.480431
v 0.135319 0.735872 2.634000
v 0.002738 0.965869 1.397861
v -0.565982 1.005165 2.842721
v -0.624481 0.964895 1.399634
v 0.002738 0.965869 1.397861
v 0.629706 0.966843 1.396090
v 0.579211 1.006943 2.839486
v 0.011426 1.010271 4.507527
v -0.565982 1.005165 2.842721
v 0.006740 1.006055 2.841103
v 0.579211 1.006943 2.839486
v 0.006740 1.006055 2.841103
v 0.002738 0.965869 1.397861
v 2.210612 -0.105564 1.328785
v 1.901446 0.571997 0.305954
v 2.037175 0.726092 0.207722
v -1.252781 1.109378 -0.411732
v -2.037870 0.719764 0.219235
v -1.413641 1.230098 -0.475362
v -1.901114 0.566092 0.316697
v -2.202417 -0.112417 1.341253
v -2.037870 0.719764 0.219235
v 0.137801 0.682703 3.486053
v 0.135319 0.735872 2.634000
v 0.086840 0.838312 3.495915
v -0.187384 0.754526 2.034963
v -0.115691 0.975944 2.048575
v 0.001294 0.618343 2.025909
v -0.115691 0.975944 2.048575
v 0.117047 0.976305 2.047917
v 0.001294 0.618343 2.025909
v 0.117047 0.976305 2.047917
v 0.189597 0.755112 2.033897
v 0.001294 0.618343 2.025909
v -0.761496 1.438472 -1.010552
v -0.835876 1.314392 0.205501
v -0.593297 1.682448 0.172913
v -0.593297 1.682448 0.172913
v -0.207007 1.852851 -0.779160
v -0.761496 1.438472 -1.010552
v -0.002294 1.936775 0.144231
v -0.207007 1.852851 -0.779160
v -0.593297 1.682448 0.172913
v 0.759428 1.440834 -1.014848
v 0.197223 1.853479 -0.780302
v 0.589643 1.684285 0.169572
v 0.197223 1.853479 -0.780302
v -0.002294 1.936775 0.144231
v 0.589643 1.684285 0.169572
v 0.759428 1.440834 -1.014848
v 0.589643 1.684285 0.169572
v 0.833540 1.316984 0.200784
v 0.001687 1.732331 1.445710
v -0.523985 1.344093 2.140628
v 0.012333 1.761313 1.868540
v 0.001687 1.732331 1.445710
v -0.624481 0.964895 1.399634
v -0.523985 1.344093 2.140628
v -0.565982 1.005165 2.842721
v -0.473675 1.171851 2.866884
v -0.523985 1.344093 2.140628
v 0.006284 1.408859 2.900565
v 0.486527 1.173342 2.864170
v 0.532213 1.345733 2.137644
v -0.565982 1.005165 2.842721
v -0.523985 1.344093 2.140628
v -0.624481 0.964895 1.399634
v 0.001687 1.732331 1.445710
v 0.532213 1.345733 2.137644
v 0.629706 0.966843 1.396090
v 0.012333 1.761313 1.868540
v 0.532213 1.345733 2.137644
v 0.001687 1.732331 1.445710
v 0.532213 1.345733 2.137644
v 0.579211 1.006943 2.839486
v 0.629706 0.966843 1.396090
v 0.486527 1.173342 2.864170
v 0.579211 1.006943 2.839486
v 0.532213 1.345733 2.137644
v -0.473675 1.171851 2.866884
v 0.006284 1.408859 2.900565
v -0.523985 1.344093 2.140628
v 0.006284 1.408859 2.900565
v 0.012333 1.761313 1.868540
v -0.523985 1.344093 2.140628
v 0.006284 1.408859 2.900565
v 0.532213 1.345733 2.137644
v 0.012333 1.761313 1.868540
vt 0.9688 0.0000
vt 0.6875 0.4688
vt 0.9688 0.2812
vt 0.9688 0.0000
vt 0.0000 0.0000
vt 0.6875 0.4688
vt 0.5000 0.9688
vt 0.7188 0.9688
vt 0.6875 0.4688
vt 0.9688 0.9688
vt 0.7188 0.9688
vt 0.6875 0.4688
vt 0.5000 0.9688
vt 0.6875 0.4688
vt 0.0000 0.0000
vt 0.9688 0.0000
vt 0.6875 0.4688
vt 0.0000 0.0000
vt 0.9688 0.2812
vt 0.6875 0.4688
vt 0.9688 0.0000
vt 0.6875 0.4688
vt 0.5000 0.9688
vt 0.0000 0.0000
vt 0.7188 0.9688
vt 0.5000 0.9688
vt 0.6875 0.4688
vt 0.7188 0.9688
vt 0.9688 0.9688
vt 0.6875 0.4688
vt 0.9688 0.9688
vt 0.9688 0.2812
vt 0.6875 0.4688
vt 0.9688 0.9688
vt 0.6875 0.4688
vt 0.9688 0.2812
vt 0.0000 0.0000
vt 0.0000 0.9688
vt 0.5000 0.9688
vt 0.9688 0.0000
vt 0.0000 0.0000
vt 0.5000 0.9688
vt 0.9688 0.9688
vt 0.9688 0.0000
vt 0.5000 0.9688
vt 0.9688 0.9688
vt 0.9688 0.0000
vt 0.0000 0.0000
vt 0.9688 0.0000
vt 0.5000 0.5000
vt 0.0000 0.0000
vt 0.9688 0.0000
vt 0.9688 0.9688
vt 0.0000 0.0000
vt 0.0000 0.0000
vt 0.9688 0.9688
vt 0.0000 0.9688
vt 0.0000 0.9688
vt 0.9688 0.9688
vt 0.0000 0.0000
vt 0.5000 0.5000
vt 0.9688 0.9688
vt 0.0000 0.9688
vt 0.9688 0.0000
vt 0.9688 0.9688
vt 0.5000 0.5000
vt 0.0000 0.0000
vt 0.5000 0.5000
vt 0.0000 0.9688
vt 0.9375 0.9688
vt 0.9375 0.0000
vt 0.4688 0.0000
vt 0.9375 0.9688
vt 0.0000 0.0000
vt 0.4688 0.0000
vt 0.0000 0.0000
vt 0.9375 0.9688
vt 0.4688 0.0000
vt 0.9375 0.0000
vt 0.9375 0.9688
vt 0.4688 0.0000
vt 0.9688 0.0000
vt 0.1562 0.0000
vt 0.9688 0.9688
vt 0.1562 0.0000
vt 0.1250 0.0000
vt 0.9688 0.9688
vt 0.0000 0.3438
vt 0.9688 0.9688
vt 0.1250 0.0000
vt 0.0000 0.9688
vt 0.9688 0.9688
vt 0.0000 0.3438
vt 0.1250 0.0000
vt 0.1562 0.0000
vt 0.9688 0.9688
vt 0.9688 0.9688
vt 0.0000 0.3438
vt 0.1250 0.0000
vt 0.9688 0.9688
vt 0.0000 0.9688
vt 0.0000 0.3438
vt 0.9688 0.0000
vt 0.9688 0.9688
vt 0.1562 0.0000
vt 0.9688 0.0000
vt 0.9688 0.9688
vt 0.0000 0.0000
vt 0.9688 0.8125
vt 0.9688 0.0000
vt 0.5000 0.5000
vt 0.0000 0.0000
vt 0.2500 0.9688
vt 0.9688 0.9688
vt 0.5000 0.5000
vt 0.0000 0.0000
vt 0.9688 0.0000
vt 0.0000 0.0000
vt 0.5000 0.5000
vt 0.9688 0.0000
vt 0.2500 0.9688
vt 0.0000 0.9688
vt 0.0000 0.0000
vt 0.5000 0.5000
vt 0.9688 0.0000
vt 0.9688 0.8125
vt 0.9688 0.9688
vt 0.2500 0.9688
vt 0.0000 0.0000
vt 0.0000 0.0000
vt 0.0000 0.9688
vt 0.2500 0.9688
vt 0.0000 0.0000
vt 0.9688 0.9688
vt 0.9688 0.0000
vt 0.9688 0.0000
vt 0.7812 0.9688
vt 0.0000 0.9688
vt 0.0000 0.0000
vt 0.9688 0.0000
vt 0.0000 0.9688
vt 0.7812 0.9688
vt 0.9688 0.9688
vt 0.9688 0.0000
vt 0.0000 0.9688
vt 0.9688 0.0000
vt 0.0000 0.0000
vt 0.9688 0.0000
vt 0.9688 0.9688
vt 0.7812 0.9688
vt 0.0000 0.9688
vt 0.7812 0.9688
vt 0.9688 0.0000
vt 0.0000 0.9688
vt 0.0000 0.0000
vt 0.4062 0.7812
vt 0.0000 0.0000
vt 0.5000 0.0000
vt 0.0000 0.9688
vt 0.0000 0.9688
vt 0.5000 0.0000
vt 0.5000 0.9688
vt 0.2812 0.0000
vt 0.9688 0.9688
vt 0.9688 0.0000
vt 0.9688 0.9688
vt 0.2812 0.0000
vt 0.9688 0.0000
vt 0.2812 0.9688
vt 0.3438 0.9688
vt 0.3438 0.0000
vt 0.2812 0.9688
vt 0.9688 0.9688
vt 0.2812 0.0000
vt 0.9688 0.9688
vt 0.2812 0.0000
vt 0.9688 0.0000
vt 0.2812 0.9688
vt 0.9688 0.9688
vt 0.2812 0.0000
vt 0.2812 0.9688
vt 0.2812 0.0000
vt 0.9688 0.9688
vt 0.2812 0.9688
vt 0.3438 0.0000
vt 0.2812 0.0000
vt 0.9688 0.9688
vt 0.9688 0.0000
vt 0.2812 0.0000
vt 0.2812 0.9688
vt 0.2812 0.0000
vt 0.9688 0.9688
vt 0.5000 0.9688
vt 0.9688 0.9688
vt 0.9688 0.0000
vt 0.9688 0.0000
vt 0.5000 0.9688
vt 0.5000 0.0000
vt 0.5000 0.0000
vt 0.5000 0.9688
vt 0.9688 0.0000
vt 0.9688 0.0000
vt 0.9688 0.9688
vt 0.5000 0.9688
vt 0.0000 0.9688
vt 0.5000 0.9688
vt 0.5000 0.0000
vt 0.4062 0.7812
vt 0.0000 0.0000
vt 0.0000 0.9688
vt 0.0000 0.9688
vt 0.5000 0.0000
vt 0.0000 0.0000
vt 0.5000 0.0000
vt 0.5000 0.5938
vt 0.9688 0.0000
vt 0.4688 0.9688
vt 0.0000 0.9688
vt 0.0000 0.0000
vt 0.5000 0.0000
vt 0.5000 0.5938
vt 0.9688 0.5938
vt 0.0000 0.0000
vt 0.4688 0.9688
vt 0.4688 0.0000
vt 0.5000 0.0000
vt 0.5000 0.5938
vt 0.9688 0.0000
vt 0.4688 0.9688
vt 0.0000 0.9688
vt 0.0000 0.0000
vt 0.5000 0.0000
vt 0.5000 0.5938
vt 0.9688 0.0000
vt 0.4688 0.9688
vt 0.0000 0.9688
vt 0.0000 0.0000
vt 0.5000 0.0000
vt 0.5000 0.5938
vt 0.9688 0.5938
vt 0.2500 0.5625
vt 0.2500 0.9688
vt 0.4688 0.9688
vt 0.5000 0.3125
vt 0.9688 0.3125
vt 0.5000 0.0000
vt 0.5000 0.5000
vt 0.9688 0.9688
vt 0.5000 0.9688
vt 0.4688 0.2500
vt 0.0000 0.5312
vt 0.0000 0.2500
vt 0.7500 0.9688
vt 0.9688 0.1875
vt 0.5000 0.1875
vt 0.4688 0.5625
vt 0.0000 0.2500
vt 0.4688 0.2500
vt 0.0000 0.5312
vt 0.2500 0.5312
vt 0.4688 0.2500
vt 0.4688 0.2500
vt 0.0000 0.2500
vt 0.0000 0.5312
vt 0.9688 0.9688
vt 0.5000 0.5000
vt 0.9688 0.0000
vt 0.4688 0.2500
vt 0.2500 0.5312
vt 0.0000 0.5312
vt 0.0000 0.2500
vt 0.0000 0.5312
vt 0.0000 0.2500
vt 0.0000 0.5312
vt 0.0000 0.2500
vt 0.0000 0.2500
vt 0.4688 0.0000
vt 0.4688 0.9688
vt 0.0000 0.0000
vt 0.9688 0.0000
vt 0.5000 0.5938
vt 0.9688 0.5938
vt 0.9688 0.0000
vt 0.5000 0.0000
vt 0.9688 0.5938
vt 0.9688 0.0000
vt 0.5000 0.5938
vt 0.9688 0.5938
vt 0.0000 0.0000
vt 0.0000 0.9688
vt 0.4688 0.9688
vt 0.4688 0.0000
vt 0.4688 0.9688
vt 0.0000 0.0000
vt 0.5000 0.0000
vt 0.9688 0.5938
vt 0.9688 0.0000
vt 0.0000 0.0000
vt 0.0000 0.9688
vt 0.4688 0.9688
vt 0.9688 0.0000
vt 0.5000 0.5938
vt 0.9688 0.5938
vt 0.4688 0.5625
vt 0.4688 0.2500
vt 0.0000 0.2500
vt 0.5000 0.1875
vt 0.9688 0.1875
vt 0.7500 0.9688
vt 0.5000 0.9688
vt 0.9688 0.0000
vt 0.9688 0.9688
vt 0.0000 0.2500
vt 0.4688 0.2500
vt 0.4688 0.9688
vt 0.0000 0.0000
vt 0.4688 0.0000
vt 0.0000 0.2500
vt 0.0000 0.2500
vt 0.0000 0.9688
vt 0.4688 0.9688
vt 0.4688 0.9688
vt 0.0000 0.2500
vt 0.0000 0.9688
vt 0.0000 0.2500
vt 0.4688 0.5625
vt 0.0000 0.9688
vt 0.4688 0.9688
vt 0.3125 0.5625
vt 0.0000 0.9688
vt 0.1250 0.5625
vt 0.0000 0.9688
vt 0.3125 0.5625
vt 0.5000 0.5000
vt 0.5000 0.0000
vt 0.9688 0.0000
vt 0.9688 0.0000
vt 0.5000 0.9688
vt 0.5000 0.0000
vt 0.4688 0.9688
vt 0.0000 0.9688
vt 0.0000 0.2500
vt 0.0000 0.2500
vt 0.4688 0.9688
vt 0.4688 0.2500
vt 0.4688 0.2500
vt 0.0000 0.2500
vt 0.4688 0.0000
vt 0.4688 0.9688
vt 0.4688 0.2500
vt 0.0000 0.2500
vt 0.5000 0.3125
vt 0.5000 0.0000
vt 0.9688 0.3125
vt 0.9688 0.9688
vt 0.5000 0.5000
vt 0.5000 0.9688
vt 0.4688 0.5625
vt 0.0000 0.2500
vt 0.0000 0.9688
vt 0.4688 0.5625
vt 0.0000 0.9688
vt 0.4688 0.9688
vt 0.9688 0.0000
vt 0.5000 0.5000
vt 0.9688 0.9688
vt 0.5000 0.9688
vt 0.9688 0.9688
vt 0.9688 0.0000
vt 0.4688 0.9688
vt 0.0000 0.9688
vt 0.3125 0.5625
vt 0.4688 0.0000
vt 0.0000 0.0000
vt 0.0000 0.2500
vt 0.4688 0.9688
vt 0.4688 0.2500
vt 0.0000 0.9688
vt 0.4688 0.2500
vt 0.0000 0.9688
vt 0.4688 0.9688
vt 0.0000 0.9688
vt 0.4688 0.2500
vt 0.4688 0.9688
vt 0.0000 0.9688
vt 0.1250 0.5625
vt 0.3125 0.5625
vt 0.5000 0.0000
vt 0.5000 0.5000
vt 0.9688 0.0000
vt 0.9688 0.0000
vt 0.5000 0.0000
vt 0.5000 0.9688
vt 0.0000 0.9688
vt 0.0000 0.2500
vt 0.4688 0.2500
vt 0.0000 0.9688
vt 0.4688 0.2500
vt 0.0000 0.2500
vt 0.0000 0.2500
vt 0.4688 0.2500
vt 0.4688 0.0000
vt 0.0000 0.2500
vt 0.0000 0.9688
vt 0.4688 0.2500
vt 0.7500 0.9688
vt 0.5000 0.1875
vt 0.9688 0.1875
vt 0.9688 0.3125
vt 0.5000 0.0000
vt 0.9688 0.0000
vt 0.7500 0.9688
vt 0.9688 0.1875
vt 0.5000 0.1875
vt 0.4688 0.5625
vt 0.4688 0.9688
vt 0.0000 0.9688
vt 0.5000 0.9688
vt 0.9688 0.9688
vt 0.5000 0.0000
vt 0.4688 0.0000
vt 0.0000 0.0000
vt 0.4688 0.9688
vt 0.5000 0.0000
vt 0.9688 0.9688
vt 0.9688 0.0000
vt 0.5000 0.0000
vt 0.9688 0.0000
vt 0.9688 0.9688
vt 0.2500 0.5625
vt 0.0000 0.9688
vt 0.2500 0.9688
vt 0.9688 0.9688
vt 0.5000 0.9688
vt 0.5000 0.0000
vt 0.6562 0.0000
vt 0.5000 0.3125
vt 0.9688 0.3125
vt 0.5000 0.0000
vt 0.9688 0.3125
vt 0.9688 0.0000
vt 0.5000 0.3125
vt 0.6562 0.0000
vt 0.9688 0.3125
vt 0.4688 0.0000
vt 0.4688 0.9688
vt 0.0000 0.0000
vt 0.6562 0.8125
vt 0.6250 0.5312
vt 0.3125 0.7188
vt 0.6250 0.5312
vt 0.4375 0.3438
vt 0.3125 0.7188
vt 0.4375 0.3438
vt 0.1562 0.4062
vt 0.3125 0.7188
vt 0.0000 0.0000
vt 0.0000 0.9688
vt 0.5000 0.9688
vt 0.5000 0.9688
vt 0.8125 0.1562
vt 0.0000 0.0000
vt 0.9688 0.9688
vt 0.8125 0.1562
vt 0.5000 0.9688
vt 0.0000 0.0000
vt 0.8125 0.1562
vt 0.5000 0.9688
vt 0.8125 0.1562
vt 0.9688 0.9688
vt 0.5000 0.9688
vt 0.0000 0.0000
vt 0.5000 0.9688
vt 0.0000 0.9688
vn -0.6254 0.7794 -0.0377
vn -0.7497 0.6248 -0.2181
vn -0.8724 0.4586 0.1692
vn 0.4424 0.8660 0.2333
vn -0.9807 0.1927 0.0344
vn 0.7467 0.6270 -0.2222
vn 0.6443 0.7617 -0.0684
vn 0.9802 0.1958 0.0289
vn 0.8719 0.4613 0.1643
vn -0.4435 0.8647 0.2358
vn -0.4982 0.8214 0.2776
vn 0.5061 0.8153 0.2814
vn 0.0029 -0.0623 0.9981
vn -0.0424 -0.0765 0.9962
vn -0.3096 0.2726 -0.9110
vn 0.0482 -0.0763 0.9959
vn 0.1071 0.0234 0.9940
vn -0.1015 0.0231 0.9946
vn 0.2660 -0.3807 -0.8856
vn -0.2723 -0.3813 -0.8835
vn 0.3009 0.2738 -0.9135
vn -0.4444 0.8691 0.2170
vn 0.8538 0.4326 0.2898
vn -0.8534 0.4299 0.2947
vn 0.4431 0.8704 0.2145
vn -0.9186 0.3561 0.1713
vn -0.9695 0.2433 0.0306
vn -0.8839 -0.3667 -0.2901
vn -0.5610 0.8188 -0.1220
vn 0.9740 0.2252 0.0227
vn 0.8776 -0.3788 -0.2938
vn 0.5532 0.8239 -0.1234
vn 0.9240 0.3432 0.1685
vn 0.4160 0.8511 0.3203
vn 0.2392 0.9673 0.0840
vn -0.4604 0.7998 0.3852
vn -0.4265 0.8680 0.2544
vn 0.4253 0.8693 0.2520
vn 0.6762 0.6379 0.3686
vn -0.2401 0.9671 0.0840
vn 0.4601 0.8012 0.3826
vn -0.6761 0.6358 0.3724
vn -0.4168 0.8499 0.3225
vn -0.4446 -0.8725 -0.2026
vn -0.4602 -0.8586 -0.2259
vn 0.7780 -0.6044 -0.1715
vn 0.4616 -0.8572 -0.2285
vn -0.7771 -0.6068 -0.1671
vn 0.4461 -0.8711 -0.2051
vn -0.8618 -0.5072 0.0041
vn 0.8300 0.5554 0.0506
vn 0.8737 0.4861 0.0184
vn -0.5861 -0.8088 -0.0488
vn -0.9515 0.3068 0.0219
vn -0.0014 0.9981 0.0623
vn 0.9504 0.3107 0.0166
vn 0.5883 -0.8070 -0.0521
vn -0.1278 0.9797 0.1543
vn 0.3916 0.9199 0.0197
vn -0.3943 0.9187 0.0218
vn 0.1256 0.9801 0.1536
vn -0.8751 0.4834 0.0232
vn 0.8634 -0.5045 -0.0006
vn -0.8314 0.5529 0.0551
vn -0.4267 -0.6344 0.6445
vn -0.5859 -0.8089 -0.0488
vn -0.6944 0.1820 0.6961
vn -0.9514 0.3073 0.0219
vn 0.0010 0.6879 0.7258
vn 0.6968 0.1843 0.6932
vn 0.9505 0.3102 0.0166
vn 0.4323 -0.6327 0.6426
vn 0.0016 -1.0000 0.0025
vn -0.2404 -0.6633 -0.7087
vn 0.0018 -0.9964 0.0852
vn -0.9846 -0.1727 0.0283
vn -0.9401 0.0764 0.3322
vn -0.5579 -0.4481 -0.6986
vn 0.9790 -0.1836 0.0882
vn 0.9800 -0.1972 0.0269
vn -0.0002 -0.9961 0.0886
vn -0.9836 -0.1611 0.0812
vn -0.8131 0.3332 -0.4774
vn 0.7630 0.3695 -0.5303
vn 0.6973 0.1848 0.6925
vn 0.4321 -0.6318 0.6435
vn -0.4267 -0.6340 0.6450
vn 0.5888 -0.8066 -0.0520
vn -0.6951 0.1828 0.6953
vn 0.5435 -0.3956 -0.7404
vn 0.8301 -0.1371 -0.5405
vn -0.0732 -0.9973 0.0042
vn 0.0789 0.9964 -0.0305
vn -0.4715 -0.1604 -0.8671
vn 0.7029 -0.1005 -0.7042
vn -0.9393 0.0766 0.3345
vn -0.5543 -0.4400 -0.7066
vn -0.5618 -0.4381 -0.7017
vn -0.2893 -0.7187 -0.6323
vn 0.0018 -0.9960 0.0898
vn -0.0921 -0.9957 0.0036
vn 0.0559 0.9980 -0.0308
vn -0.9383 0.0606 0.3404
vn -0.4714 -0.1606 -0.8672
vn 0.6910 -0.1295 -0.7112
vn 0.2384 -0.6626 -0.7100
vn 0.5662 -0.4435 -0.6948
vn 0.1981 -0.9791 -0.0452
vn 0.0038 -0.9961 0.0886
vn 0.0764 -0.9971 0.0038
vn 0.5570 -0.4457 -0.7008
vn 0.4675 -0.1589 -0.8696
vn -0.7063 -0.1032 -0.7003
vn 0.9409 0.0795 0.3292
vn -0.0592 0.9978 -0.0305
vn 0.2895 -0.7189 -0.6320
vn 0.0953 -0.9954 0.0031
vn -0.0822 0.9962 -0.0301
vn 0.9400 0.0635 0.3351
vn 0.4673 -0.1591 -0.8697
vn -0.6946 -0.1316 -0.7073
vn 0.9417 0.0793 0.3269
vn 0.2271 -0.6741 -0.7028
vn -0.8327 -0.1404 -0.5357
vn -0.1895 -0.9807 -0.0478
vn 0.0016 -0.9996 0.0278
vn 0.3834 -0.7124 -0.5878
vn -0.2289 -0.6748 -0.7016
vn -0.3845 -0.7136 -0.5856
vn -0.0029 0.0623 -0.9981
vn -0.8347 0.5506 0.0051
vn -0.5729 0.8150 -0.0866
vn -0.3951 0.9186 0.0041
vn 0.5654 0.8201 -0.0875
vn 0.3923 0.9198 0.0018
vn 0.8328 0.5535 0.0056
usemtl Shape.020
s 1
f 439/1/1 440/2/1 441/3/1
f 442/4/2 443/5/2 444/6/2
f 445/7/3 446/8/3 447/9/3
f 448/10/4 449/11/4 450/12/4
f 451/13/5 452/14/5 453/15/5
f 454/16/6 455/17/6 456/18/6
f 457/19/7 458/20/7 459/21/7
f 460/22/8 461/23/8 462/24/8
f 463/25/9 464/26/9 465/27/9
f 466/28/10 467/29/10 468/30/10
f 469/31/11 470/32/11 471/33/11
f 472/34/12 473/35/12 474/36/12
usemtl Shape.014
f 1/37/13 2/38/13 3/39/13
f 4/40/13 5/41/13 6/42/13
f 7/43/13 8/44/13 9/45/13
f 10/46/14 11/47/14 12/48/14
f 13/49/15 14/50/15 15/51/15
f 16/52/16 17/53/16 18/54/16
f 19/55/17 20/56/17 21/57/17
f 22/58/18 23/59/18 24/60/18
f 25/61/19 26/62/19 27/63/19
f 28/64/20 29/65/20 30/66/20
f 31/67/21 32/68/21 33/69/21
usemtl Shape.018
f 34/70/22 35/71/22 36/72/22
f 37/73/23 38/74/23 39/75/23
f 40/76/24 41/77/24 42/78/24
f 43/79/25 44/80/25 45/81/25
usemtl Shape.017
f 46/82/26 47/83/26 48/84/26
f 49/85/27 50/86/27 51/87/27
f 52/88/28 53/89/28 54/90/28
f 55/91/29 56/92/29 57/93/29
f 58/94/30 59/95/30 60/96/30
f 61/97/31 62/98/31 63/99/31
f 64/100/32 65/101/32 66/102/32
f 67/103/33 68/104/33 69/105/33
usemtl Shape.021
f 70/106/34 71/107/34 72/108/34
f 73/109/35 74/110/35 75/111/35
f 76/112/36 77/113/36 78/114/36
f 79/115/37 80/116/37 81/117/37
f 82/118/38 83/119/38 84/120/38
f 85/121/39 86/122/39 87/123/39
f 88/124/40 89/125/40 90/126/40
f 91/127/41 92/128/41 93/129/41
f 94/130/42 95/131/42 96/132/42
f 97/133/43 98/134/43 99/135/43
usemtl Shape.022
f 100/136/44 101/137/44 102/138/44
f 103/139/45 104/140/45 105/141/45
f 106/142/46 107/143/46 108/144/46
f 109/145/47 110/146/47 111/147/47
f 112/148/48 113/149/48 114/150/48
f 115/151/49 116/152/49 117/153/49
usemtl Shape.019
f 118/154/50 119/155/50 120/156/50
f 121/157/51 122/158/51 123/159/51
f 124/160/52 125/161/52 126/162/52
f 127/163/53 128/164/53 129/165/53
f 130/166/54 131/167/54 132/168/54
f 133/169/55 134/170/55 135/171/55
f 136/172/56 137/173/56 138/174/56
f 139/175/57 140/176/57 141/177/57
f 142/178/53 143/179/53 144/180/53
f 145/181/54 146/182/54 147/183/54
f 148/184/55 149/185/55 150/186/55
f 151/187/56 152/188/56 153/189/56
f 154/190/57 155/191/57 156/192/57
f 157/193/58 158/194/58 159/195/58
f 160/196/59 161/197/59 162/198/59
f 163/199/60 164/200/60 165/201/60
f 166/202/61 167/203/61 168/204/61
f 169/205/62 170/206/62 171/207/62
f 172/208/63 173/209/63 174/210/63
f 175/211/64 176/212/64 177/213/64
usemtl Shape.015
f 178/214/65 179/215/65 180/216/65
f 181/217/66 182/218/66 183/219/66
f 184/220/67 185/221/67 186/222/67
f 187/223/68 188/224/68 189/225/68
f 190/226/69 191/227/69 192/228/69
f 193/229/55 194/230/55 195/231/55
f 196/232/70 197/233/70 198/234/70
f 199/235/71 200/236/71 201/237/71
f 202/238/72 203/239/72 204/240/72
f 205/241/73 206/242/73 207/243/73
f 208/244/74 209/245/74 210/246/74
f 211/247/75 212/248/75 213/249/75
f 214/250/76 215/251/76 216/252/76
f 217/253/77 218/254/77 219/255/77
f 220/256/78 221/257/78 222/258/78
f 223/259/79 224/260/79 225/261/79
f 226/262/80 227/263/80 228/264/80
f 229/265/81 230/266/81 231/267/81
f 232/268/82 233/269/82 234/270/82
f 235/271/83 236/272/83 237/273/83
f 238/274/84 239/275/84 240/276/84
f 241/277/55 242/278/55 243/279/55
f 244/280/85 245/281/85 246/282/85
f 247/283/86 248/284/86 249/285/86
f 250/286/87 251/287/87 252/288/87
f 253/289/88 254/290/88 255/291/88
f 256/292/66 257/293/66 258/294/66
f 259/295/89 260/296/89 261/297/89
f 262/298/68 263/299/68 264/300/68
f 265/301/69 266/302/69 267/303/69
f 268/304/90 269/305/90 270/306/90
f 271/307/91 272/308/91 273/309/91
f 274/310/92 275/311/92 276/312/92
f 277/313/93 278/314/93 279/315/93
f 280/316/94 281/317/94 282/318/94
f 283/319/95 284/320/95 285/321/95
f 286/322/96 287/323/96 288/324/96
f 289/325/97 290/326/97 291/327/97
f 292/328/98 293/329/98 294/330/98
f 295/331/99 296/332/99 297/333/99
f 298/334/100 299/335/100 300/336/100
f 301/337/101 302/338/101 303/339/101
f 304/340/102 305/341/102 306/342/102
f 307/343/103 308/344/103 309/345/103
f 310/346/104 311/347/104 312/348/104
f 313/349/105 314/350/105 315/351/105
f 316/352/106 317/353/106 318/354/106
f 319/355/75 320/356/75 321/357/75
f 322/358/107 323/359/107 324/360/107
f 325/361/108 326/362/108 327/363/108
f 328/364/109 329/365/109 330/366/109
f 331/367/110 332/368/110 333/369/110
f 334/370/111 335/371/111 336/372/111
f 337/373/112 338/374/112 339/375/112
f 340/376/113 341/377/113 342/378/113
f 343/379/114 344/380/114 345/381/114
f 346/382/115 347/383/115 348/384/115
f 349/385/116 350/386/116 351/387/116
f 352/388/100 353/389/100 354/390/100
f 355/391/117 356/392/117 357/393/117
f 358/394/118 359/395/118 360/396/118
f 361/397/119 362/398/119 363/399/119
f 364/400/120 365/401/120 366/402/120
f 367/403/121 368/404/121 369/405/121
f 370/406/122 371/407/122 372/408/122
f 373/409/123 374/410/123 375/411/123
f 376/412/124 377/413/124 378/414/124
f 379/415/125 380/416/125 381/417/125
f 382/418/126 383/419/126 384/420/126
f 385/421/88 386/422/88 387/423/88
f 388/424/126 389/425/126 390/426/126
f 391/427/126 392/428/126 393/429/126
f 394/430/73 395/431/73 396/432/73
f 397/433/126 398/434/126 399/435/126
f 400/436/127 401/437/127 402/438/127
f 403/439/128 404/440/128 405/441/128
f 406/442/129 407/443/129 408/444/129
f 409/445/71 410/446/71 411/447/71
usemtl Shape.016
f 412/448/130 413/449/130 414/450/130
f 415/451/130 416/452/130 417/453/130
f 418/454/130 419/455/130 420/456/130
f 421/457/131 422/458/131 423/459/131
f 424/460/132 425/461/132 426/462/132
f 427/463/133 428/464/133 429/465/133
f 430/466/134 431/467/134 432/468/134
f 433/469/135 434/470/135 435/471/135
f 436/472/136 437/473/136 438/474/136
