# Blender v2.79 (sub 0) OBJ File: ''
# www.blender.org
mtllib MonkeyArrow.mtl
o Melon_Rip
v -44.551952 -1.213596 -0.322236
v -22.066095 3.057141 0.054941
v -5.857416 0.468927 -14.165937
v -5.857416 0.468927 -14.165937
v -22.066095 3.057141 0.054941
v 3.307478 3.716036 -4.422884
v -5.857416 0.468927 -14.165937
v 3.307478 3.716036 -4.422884
v 6.924094 1.408066 -15.855304
v 6.924094 1.408066 -15.855304
v 3.307478 3.716036 -4.422884
v 9.201773 2.195361 -11.365479
v 9.245418 0.146472 -11.485400
v 3.442372 -2.618385 -4.793694
v -5.857416 0.468927 -14.165937
v -5.857416 0.468927 -14.165937
v 3.442372 -2.618385 -4.793694
v -16.359699 -2.547492 -0.241710
v 9.108818 -1.202287 11.526825
v -6.024968 -1.184833 14.056952
v 3.387297 -3.162564 4.493004
v 3.387297 -3.162564 4.493004
v -6.024968 -1.184833 14.056952
v -16.359699 -2.547492 -0.241710
v -44.551952 -1.213596 -0.322236
v -6.024968 -1.184833 14.056952
v -22.066095 3.057141 0.054941
v -22.066095 3.057141 0.054941
v -6.024968 -1.184833 14.056952
v 3.252404 3.171858 4.863813
v 9.065234 0.846925 11.646851
v 3.252404 3.171858 4.863813
v 6.734906 -0.458001 15.987879
v 6.734906 -0.458001 15.987879
v 3.252404 3.171858 4.863813
v -6.024968 -1.184833 14.056952
v 9.245418 0.146472 -11.485400
v 6.948020 0.285546 -15.920988
v 6.924094 1.408066 -15.855304
v 9.201773 2.195361 -11.365479
v 9.108818 -1.202287 11.526825
v 9.065234 0.846925 11.646851
v 6.734906 -0.458001 15.987879
v 6.758831 -1.580521 15.922194
v -44.551952 -1.213596 -0.322236
v -5.857416 0.468927 -14.165937
v -16.359699 -2.547492 -0.241710
v -5.857416 0.468927 -14.165937
v 6.948020 0.285546 -15.920988
v 9.245418 0.146472 -11.485400
v -44.551952 -1.213596 -0.322236
v -16.359699 -2.547492 -0.241710
v -6.024968 -1.184833 14.056952
v -6.024968 -1.184833 14.056952
v 9.108818 -1.202287 11.526825
v 6.758831 -1.580521 15.922194
v 1.182329 2.636840 -32.622459
v -1.202074 1.790615 -32.685547
v -1.191501 1.051001 -32.027485
v 1.205193 1.055439 -31.215759
v 1.205193 1.055439 -31.215759
v -1.191501 1.051001 -32.027485
v -1.172397 0.393382 -32.767437
v 1.245890 -0.350728 -32.797421
v 1.245890 -0.350728 -32.797421
v -1.172397 0.393382 -32.767437
v -1.183021 1.133158 -33.428272
v 1.222840 1.230731 -34.207066
v 1.222840 1.230731 -34.207066
v -1.183021 1.133158 -33.428272
v -1.202074 1.790615 -32.685547
v 1.182329 2.636840 -32.622459
v 0.834698 -2.598562 31.136717
v -1.571161 -2.696137 31.915508
v -1.590285 -2.038386 32.655060
v 0.794192 -1.192383 32.718224
v 0.794192 -1.192383 32.718224
v -1.590285 -2.038386 32.655060
v -1.579526 -2.778060 33.316071
v 0.816979 -2.773634 34.127945
v 0.816979 -2.773634 34.127945
v -1.579526 -2.778060 33.316071
v -1.560400 -3.435738 32.573421
v 0.857814 -4.179628 32.543365
v 0.857814 -4.179628 32.543365
v -1.560400 -3.435738 32.573421
v -1.571161 -2.696137 31.915508
v 0.834698 -2.598562 31.136717
v 3.682664 11.772276 0.711188
v 10.034475 13.831623 0.867889
v 3.307478 3.716036 -4.422884
v 0.317532 6.715977 -1.934147
v 0.317532 6.715977 -1.934147
v 3.307478 3.716036 -4.422884
v -22.066095 3.057141 0.054941
v -12.366251 6.386591 0.304790
v 10.034475 13.831623 0.867889
v 3.682664 11.772276 0.711188
v 0.289967 6.443932 2.709366
v 3.252404 3.171858 4.863813
v 3.252404 3.171858 4.863813
v 0.289967 6.443932 2.709366
v -12.366251 6.386591 0.304790
v -22.066095 3.057141 0.054941
v -5.857416 0.468927 -14.165937
v 5.852122 0.918994 -27.159943
v 6.948020 0.285546 -15.920988
v 6.948020 0.285546 -15.920988
v 5.852122 0.918994 -27.159943
v 14.781388 1.344069 -31.122232
v 20.487753 -2.527577 -0.032831
v -2.151186 -14.615805 -0.869452
v 3.442372 -2.618385 -4.793694
v 3.442372 -2.618385 -4.793694
v -2.151186 -14.615805 -0.869452
v -16.359699 -2.547492 -0.241710
v -5.857416 0.468927 -14.165937
v 6.924094 1.408066 -15.855304
v 5.852122 0.918994 -27.159943
v 5.852122 0.918994 -27.159943
v 6.924094 1.408066 -15.855304
v 14.781388 1.344069 -31.122232
v 20.487753 -2.527577 -0.032831
v 3.387297 -3.162564 4.493004
v -2.151186 -14.615805 -0.869452
v -2.151186 -14.615805 -0.869452
v 3.387297 -3.162564 4.493004
v -16.359699 -2.547492 -0.241710
v -6.024968 -1.184833 14.056952
v 6.758831 -1.580521 15.922194
v 5.529633 -2.263322 27.145262
v 5.529633 -2.263322 27.145262
v 6.758831 -1.580521 15.922194
v 14.411083 -2.309921 31.230091
v -6.024968 -1.184833 14.056952
v 5.529633 -2.263322 27.145262
v 6.734906 -0.458001 15.987879
v 6.734906 -0.458001 15.987879
v 5.529633 -2.263322 27.145262
v 14.411083 -2.309921 31.230091
v 1.245890 -0.350728 -32.797421
v 1.222840 1.230731 -34.207066
v 14.799225 1.519375 -34.113693
v 14.822085 -0.062098 -32.703896
v 14.781388 1.344069 -31.122232
v 1.205193 1.055439 -31.215759
v 1.245890 -0.350728 -32.797421
v 14.822085 -0.062098 -32.703896
v 14.758389 2.925368 -32.529110
v 14.781388 1.344069 -31.122232
v 14.822085 -0.062098 -32.703896
v 14.799225 1.519375 -34.113693
v 1.182329 2.636840 -32.622459
v 14.758389 2.925368 -32.529110
v 14.799225 1.519375 -34.113693
v 1.222840 1.230731 -34.207066
v -1.590285 -2.038386 32.655060
v -1.571161 -2.696137 31.915508
v -16.239872 -3.007744 31.814409
v -16.258976 -2.350125 32.554367
v -1.571161 -2.696137 31.915508
v -1.560400 -3.435738 32.573421
v -16.229298 -3.747358 32.472477
v -16.239872 -3.007744 31.814409
v -16.229298 -3.747358 32.472477
v -1.560400 -3.435738 32.573421
v -1.579526 -2.778060 33.316071
v -16.248161 -3.089887 33.215050
v 14.411083 -2.309921 31.230091
v 0.834698 -2.598562 31.136717
v 0.794192 -1.192383 32.718224
v 14.370386 -0.903754 32.811752
v 0.857814 -4.179628 32.543365
v 14.434082 -3.891219 32.636967
v 14.393436 -2.485214 34.221394
v 0.816979 -2.773634 34.127945
v 14.411083 -2.309921 31.230091
v 14.434082 -3.891219 32.636967
v 0.857814 -4.179628 32.543365
v 0.834698 -2.598562 31.136717
v 14.370386 -0.903754 32.811752
v 14.393436 -2.485214 34.221394
v 14.434082 -3.891219 32.636967
v 14.411083 -2.309921 31.230091
v -16.258976 -2.350125 32.554367
v -16.248161 -3.089887 33.215050
v -1.579526 -2.778060 33.316071
v -1.590285 -2.038386 32.655060
v -1.202074 1.790615 -32.685547
v -15.870711 1.478787 -32.786575
v -15.860138 0.739172 -32.128506
v -1.191501 1.051001 -32.027485
v -1.191501 1.051001 -32.027485
v -15.860138 0.739172 -32.128506
v -15.840899 0.081657 -32.868286
v -1.172397 0.393382 -32.767437
v -15.840899 0.081657 -32.868286
v -15.851849 0.821316 -33.529144
v -1.183021 1.133158 -33.428272
v -1.172397 0.393382 -32.767437
v 0.794192 -1.192383 32.718224
v 0.816979 -2.773634 34.127945
v 14.393436 -2.485214 34.221394
v 14.370386 -0.903754 32.811752
v -15.870711 1.478787 -32.786575
v -1.202074 1.790615 -32.685547
v -1.183021 1.133158 -33.428272
v -15.851849 0.821316 -33.529144
v 14.781388 1.344069 -31.122232
v 14.758389 2.925368 -32.529110
v 1.182329 2.636840 -32.622459
v 1.205193 1.055439 -31.215759
v 6.948020 0.285546 -15.920988
v 14.781388 1.344069 -31.122232
v 6.924094 1.408066 -15.855304
v 10.034475 13.831623 0.867889
v 3.252404 3.171858 4.863813
v 3.307478 3.716036 -4.422884
v 6.758831 -1.580521 15.922194
v 6.734906 -0.458001 15.987879
v 14.411083 -2.309921 31.230091
v 20.487753 -2.527577 -0.032831
v 3.442372 -2.618385 -4.793694
v 3.387297 -3.162564 4.493004
v 3.252404 3.171858 4.863813
v 3.387297 -3.162564 4.493004
v 3.442372 -2.618385 -4.793694
v 3.307478 3.716036 -4.422884
v 0.317532 6.715977 -1.934147
v -12.366251 6.386591 0.304790
v 3.682664 11.772276 0.711188
v 3.682664 11.772276 0.711188
v -12.366251 6.386591 0.304790
v 0.289967 6.443932 2.709366
v -15.870711 1.478787 -32.786575
v -15.851849 0.821316 -33.529144
v -15.840899 0.081657 -32.868286
v -15.860138 0.739172 -32.128506
v -16.258976 -2.350125 32.554367
v -16.239872 -3.007744 31.814409
v -16.229298 -3.747358 32.472477
v -16.248161 -3.089887 33.215050
v 3.442372 -2.618385 -4.793694
v 9.245418 0.146472 -11.485400
v 9.201773 2.195361 -11.365479
v 3.307478 3.716036 -4.422884
v 3.387297 -3.162564 4.493004
v 3.252404 3.171858 4.863813
v 9.065234 0.846925 11.646851
v 9.108818 -1.202287 11.526825
vt -2.608887 0.793945
vt -2.582520 0.872070
vt -2.560059 0.872070
vt -2.560059 0.793945
vt -2.560059 0.793945
vt -2.560059 0.872070
vt -2.582520 0.872070
vt -2.608398 0.793945
vt -2.608398 0.793945
vt -2.582520 0.872070
vt -2.560059 0.872070
vt -2.560059 0.793945
vt -2.560059 0.793945
vt -2.560059 0.872070
vt -2.582520 0.872070
vt -2.608887 0.793945
vt -2.560059 0.793945
vt -2.560059 0.872070
vt -2.582520 0.872070
vt -2.608887 0.793945
vt -2.608887 0.793945
vt -2.582520 0.872070
vt -2.560059 0.872070
vt -2.560059 0.793945
vt -2.560059 0.793945
vt -2.560059 0.872070
vt -2.582520 0.872070
vt -2.608398 0.793945
vt -2.608398 0.793945
vt -2.582520 0.872070
vt -2.560059 0.872070
vt -2.560059 0.793945
vt -0.666992 1.315430
vt -0.345215 1.422852
vt -0.695801 0.854492
vt -0.841797 1.034180
vt -0.841797 1.034180
vt -0.695801 0.854492
vt -1.688965 0.857422
vt -1.338379 1.033203
vt -0.345215 1.422852
vt -0.666992 1.315430
vt -0.841797 1.034180
vt -0.695801 0.854492
vt -0.695801 0.854492
vt -0.841797 1.034180
vt -1.338379 1.033203
vt -1.688965 0.857422
vt 0.657227 0.779297
vt 1.283203 0.938477
vt 0.917480 1.139648
vt 0.917480 1.139648
vt 1.283203 0.938477
vt 1.573730 1.141602
vt 0.250000 0.937500
vt -0.687500 0.187500
vt -0.437500 0.937500
vt -0.437500 0.937500
vt -0.687500 0.187500
vt -1.250000 0.937500
vt 0.657227 0.779297
vt 0.917480 1.139648
vt 1.283203 0.938477
vt 1.283203 0.938477
vt 0.917480 1.139648
vt 1.573730 1.141602
vt 0.250000 0.937500
vt -0.437500 0.937500
vt -0.687500 0.187500
vt -0.687500 0.187500
vt -0.437500 0.937500
vt -1.250000 0.937500
vt 0.657227 0.779297
vt 0.917480 1.139648
vt 1.283203 0.938477
vt 1.283203 0.938477
vt 0.917480 1.139648
vt 1.573730 1.141602
vt 0.657227 0.779297
vt 1.283203 0.938477
vt 0.917480 1.139648
vt 0.917480 1.139648
vt 1.283203 0.938477
vt 1.573730 1.141602
vt -2.530273 0.704102
vt -2.579102 0.704102
vt -2.579102 0.262695
vt -2.530273 0.262695
vt -2.579590 0.262695
vt -2.579590 0.704102
vt -2.530762 0.704102
vt -2.530762 0.262695
vt -0.054199 2.780273
vt 0.075195 2.651367
vt -0.054199 2.522461
vt -0.184082 2.651367
vt -2.530762 0.704102
vt -2.530762 0.262695
vt -2.579590 0.262695
vt -2.579590 0.704102
vt -2.620605 0.277344
vt -2.643555 0.277344
vt -2.643555 0.753906
vt -2.620605 0.753906
vt -2.644043 0.277344
vt -2.621582 0.277344
vt -2.621582 0.753906
vt -2.644043 0.753906
vt -2.620605 0.753906
vt -2.620605 0.277344
vt -2.643555 0.277344
vt -2.643555 0.753906
vt -2.579102 0.262695
vt -2.579102 0.704102
vt -2.530273 0.704102
vt -2.530273 0.262695
vt -2.530273 0.704102
vt -2.530273 0.262695
vt -2.579102 0.262695
vt -2.579102 0.704102
vt -2.579590 0.262695
vt -2.530762 0.262695
vt -2.530762 0.704102
vt -2.579590 0.704102
vt -0.054688 2.780273
vt -0.184082 2.651367
vt -0.054688 2.522461
vt 0.075195 2.651367
vt -2.621094 0.753906
vt -2.644043 0.753906
vt -2.644043 0.277344
vt -2.621094 0.277344
vt -2.620605 0.277344
vt -2.620605 0.753906
vt -2.643555 0.753906
vt -2.643555 0.277344
vt -2.644043 0.277344
vt -2.644043 0.753906
vt -2.621582 0.753906
vt -2.621582 0.277344
vt -2.620605 0.753906
vt -2.643555 0.753906
vt -2.643555 0.277344
vt -2.620605 0.277344
vt -2.530762 0.704102
vt -2.579590 0.704102
vt -2.579590 0.262695
vt -2.530762 0.262695
vt -2.621094 0.753906
vt -2.621094 0.277344
vt -2.644043 0.277344
vt -2.644043 0.753906
vt -2.579102 0.262695
vt -2.530273 0.262695
vt -2.530273 0.704102
vt -2.579102 0.704102
vt 0.917480 1.139648
vt 1.573730 1.141602
vt 0.917480 1.139648
vt 0.277832 0.975586
vt 0.486328 0.445312
vt 0.486328 0.445312
vt 0.917480 1.139648
vt 0.917480 1.139648
vt 1.573730 1.141602
vt 1.437500 0.058594
vt 1.177734 -0.460938
vt 1.697266 -0.460938
vt -12.000000 13.000000
vt -12.000000 13.000000
vt -12.000000 13.000000
vt -12.000000 13.000000
vt -12.000000 13.000000
vt -12.000000 13.000000
vt -12.000000 13.000000
vt -12.000000 13.000000
vt -12.000000 13.000000
vt -12.000000 13.000000
vt -12.000000 13.000000
vt -12.000000 13.000000
vt -12.000000 13.000000
vt -12.000000 13.000000
vt 0.126465 -0.734375
vt 0.189941 -0.371582
vt 0.770508 -0.304199
vt 0.770508 -0.304199
vt 0.189941 -0.371582
vt 0.437012 -0.026855
vt 0.770508 -0.304199
vt 0.437012 -0.026855
vt 0.875000 -0.123047
vt 0.875000 -0.123047
vt 0.437012 -0.026855
vt 0.713867 -0.026367
vt 0.713867 -0.026367
vt 0.437012 -0.026855
vt 0.770508 -0.304199
vt 0.770508 -0.304199
vt 0.437012 -0.026855
vt 0.205566 -0.281738
vt 0.713867 -0.026367
vt 0.770508 -0.304199
vt 0.437012 -0.026855
vt 0.437012 -0.026855
vt 0.770508 -0.304199
vt 0.205566 -0.281738
vt 0.126465 -0.734375
vt 0.770508 -0.304199
vt 0.189941 -0.371582
vt 0.189941 -0.371582
vt 0.770508 -0.304199
vt 0.437012 -0.026855
vt 0.713867 -0.026367
vt 0.437012 -0.026855
vt 0.875000 -0.123047
vt 0.875000 -0.123047
vt 0.437012 -0.026855
vt 0.770508 -0.304199
vt 1.853516 1.998535
vt 2.036621 1.938477
vt 2.036621 1.938477
vt 1.853516 1.998535
vt 1.853516 1.998535
vt 1.853516 1.998535
vt 2.036621 1.938477
vt 2.036621 1.938477
vt 0.126465 -0.734375
vt 0.770508 -0.304199
vt 0.205566 -0.281738
vt 1.900391 1.720703
vt 2.036621 1.938477
vt 1.853516 1.998535
vt 0.126465 -0.734375
vt 0.205566 -0.281738
vt 0.770508 -0.304199
vt 1.900391 1.720703
vt 1.853516 1.998535
vt 2.036621 1.938477
vt 0.876953 1.500977
vt 0.133789 1.675781
vt 0.133789 1.836914
vt 0.876953 1.997070
vt 0.876953 1.500977
vt 0.876953 1.997070
vt 0.133789 1.836914
vt 0.133789 1.675781
vt -1.500000 2.000000
vt -2.000000 2.000000
vt -2.000000 2.500000
vt -1.500000 2.500000
vn -0.2470 0.6421 0.7258
vn -0.2173 -0.7323 0.6454
vn -0.2095 -0.6526 -0.7282
vn -0.2393 0.7234 -0.6476
vn -0.2392 0.7225 -0.6486
vn -0.2471 0.6431 0.7248
vn -0.2172 -0.7331 0.6445
vn -0.2095 -0.6516 -0.7290
vn -0.1532 0.5361 -0.8301
vn -0.1607 0.5305 -0.8323
vn -0.1629 0.4356 0.8853
vn -0.1704 0.4297 0.8867
vn -0.0217 -0.9983 -0.0541
vn 0.0216 -0.9981 -0.0584
vn 0.2481 -0.4037 -0.8806
vn -0.2198 -0.2092 -0.9529
vn -0.0779 0.9963 -0.0357
vn -0.0639 0.9973 -0.0371
vn 0.2384 -0.5040 0.8302
vn -0.2304 -0.3190 0.9193
vn -0.0217 -0.9978 -0.0631
vn -0.0790 0.9854 0.1509
vn -0.0650 0.9862 0.1525
vn 0.0193 -0.6651 -0.7465
vn 0.0113 -0.7472 0.6645
vn 0.9998 0.0209 0.0072
vn -0.0113 0.7478 -0.6638
vn -0.0113 0.7472 -0.6646
vn 0.0193 -0.6644 -0.7471
vn 0.0113 -0.7485 0.6631
vn -0.0113 0.7471 -0.6646
vn 0.0113 -0.7478 0.6638
vn 0.9998 0.0209 0.0071
vn -0.0193 0.6660 0.7457
vn -0.0193 0.6644 0.7471
vn 0.0113 -0.7473 0.6644
vn 0.0193 -0.6660 -0.7457
vn -0.0193 0.6651 0.7465
vn -0.0114 0.7486 -0.6630
vn 0.8891 -0.0078 0.4576
vn 0.8388 -0.5438 -0.0269
vn 0.8944 0.0451 -0.4450
vn -0.0216 0.9981 0.0584
vn -0.1600 0.5391 -0.8269
vn -0.1696 0.4389 0.8824
vn -0.9998 -0.0209 -0.0071
vn -0.9998 -0.0208 -0.0071
vn -0.1683 0.9180 -0.3590
vn -0.0701 0.9643 -0.2554
vn -0.1012 0.9685 -0.2275
vn 0.0316 0.9816 -0.1882
vn 0.0422 -0.9358 -0.3501
vn -0.0623 -0.9647 -0.2560
vn 0.0388 -0.9703 0.2388
vn -0.0645 -0.9879 0.1408
vn -0.1730 0.8700 0.4617
vn -0.0736 0.9279 0.3655
vn 0.0288 0.9529 0.3019
vn -0.1044 0.9354 0.3379
vn 0.8876 0.0457 -0.4583
vn 0.8821 -0.0088 0.4709
vn -0.0451 -0.9687 -0.2439
vn -0.0174 -0.9996 -0.0223
vn -0.0472 -0.9906 0.1285
vn -0.0170 -0.9954 -0.0947
vn 0.7598 -0.0219 0.6498
vn 0.7673 0.0538 -0.6391
usemtl NDS_Material.001
s 1
f 57/1/1 58/2/1 59/3/1 60/4/1
f 61/5/2 62/6/2 63/7/2 64/8/2
f 65/9/3 66/10/3 67/11/3 68/12/3
f 69/13/4 70/14/4 71/15/4 72/16/4
f 73/17/5 74/18/5 75/19/5 76/20/5
f 77/21/6 78/22/6 79/23/6 80/24/6
f 81/25/7 82/26/7 83/27/7 84/28/7
f 85/29/8 86/30/8 87/31/8 88/32/8
f 89/33/9 90/34/9 91/35/9 92/36/9
f 93/37/10 94/38/10 95/39/10 96/40/10
f 97/41/11 98/42/11 99/43/11 100/44/11
f 101/45/12 102/46/12 103/47/12 104/48/12
f 105/49/13 106/50/13 107/51/13
f 108/52/14 109/53/14 110/54/14
f 111/55/15 112/56/15 113/57/15
f 114/58/16 115/59/16 116/60/16
f 117/61/17 118/62/17 119/63/17
f 120/64/18 121/65/18 122/66/18
f 123/67/19 124/68/19 125/69/19
f 126/70/20 127/71/20 128/72/20
f 129/73/21 130/74/21 131/75/21
f 132/76/14 133/77/14 134/78/14
f 135/79/22 136/80/22 137/81/22
f 138/82/23 139/83/23 140/84/23
f 141/85/24 142/86/24 143/87/24 144/88/24
f 145/89/25 146/90/25 147/91/25 148/92/25
f 149/93/26 150/94/26 151/95/26 152/96/26
f 153/97/27 154/98/27 155/99/27 156/100/27
f 157/101/28 158/102/28 159/103/28 160/104/28
f 161/105/29 162/106/29 163/107/29 164/108/29
f 165/109/30 166/110/30 167/111/30 168/112/30
f 169/113/31 170/114/31 171/115/31 172/116/31
f 173/117/32 174/118/32 175/119/32 176/120/32
f 177/121/29 178/122/29 179/123/29 180/124/29
f 181/125/33 182/126/33 183/127/33 184/128/33
f 185/129/34 186/130/34 187/131/34 188/132/34
f 189/133/35 190/134/35 191/135/35 192/136/35
f 193/137/36 194/138/36 195/139/36 196/140/36
f 197/141/37 198/142/37 199/143/37 200/144/37
f 201/145/38 202/146/38 203/147/38 204/148/38
f 205/149/39 206/150/39 207/151/39 208/152/39
f 209/153/35 210/154/35 211/155/35 212/156/35
f 213/157/40 214/158/40 215/159/40
f 216/160/41 217/161/41 218/162/41
f 219/163/42 220/164/42 221/165/42
f 222/166/43 223/167/43 224/168/43
usemtl NDS_Material.003
f 229/169/44 230/170/44 231/171/44
f 232/172/45 233/173/45 234/174/45
f 235/175/46 236/176/46 237/177/46 238/178/46
f 239/179/47 240/180/47 241/181/47 242/182/47
usemtl NDS_Material
f 1/183/48 2/184/48 3/185/48
f 4/186/49 5/187/49 6/188/49
f 7/189/50 8/190/50 9/191/50
f 10/192/51 11/193/51 12/194/51
f 13/195/52 14/196/52 15/197/52
f 16/198/53 17/199/53 18/200/53
f 19/201/54 20/202/54 21/203/54
f 22/204/55 23/205/55 24/206/55
f 25/207/56 26/208/56 27/209/56
f 28/210/57 29/211/57 30/212/57
f 31/213/58 32/214/58 33/215/58
f 34/216/59 35/217/59 36/218/59
f 37/219/60 38/220/60 39/221/60 40/222/60
f 41/223/61 42/224/61 43/225/61 44/226/61
f 45/227/62 46/228/62 47/229/62
f 48/230/63 49/231/63 50/232/63
f 51/233/64 52/234/64 53/235/64
f 54/236/65 55/237/65 56/238/65
usemtl NDS_Material.004
f 243/239/66 244/240/66 245/241/66 246/242/66
f 247/243/67 248/244/67 249/245/67 250/246/67
usemtl NDS_Material.002
f 225/247/26 226/248/26 227/249/26 228/250/26
