# Blender v2.77 (sub 0) OBJ File: ''
# www.blender.org
mtllib Rapier.mtl
o ShapeIndexedFaceSet.016
v -0.004609 0.706716 -1.345405
v -0.004309 0.487437 -1.348743
v -0.714150 0.020364 -1.358502
v -0.714150 0.020364 -1.358502
v -0.715089 0.705804 -1.348068
v -0.004609 0.706716 -1.345405
v -0.415170 0.667539 1.175679
v -0.414760 0.367972 1.171313
v -0.013714 0.448967 1.174042
v -0.013714 0.448967 1.174042
v -0.014012 0.668054 1.177182
v -0.415170 0.667539 1.175679
v -0.005012 1.001031 -1.340925
v -0.004609 0.706716 -1.345405
v -0.715089 0.705804 -1.348068
v -0.715089 0.705804 -1.348068
v -0.378124 1.000552 -1.342324
v -0.005012 1.001031 -1.340925
v -0.386699 0.965282 0.957883
v -0.723664 0.670725 0.952335
v -0.013185 0.671637 0.954998
v -0.013185 0.671637 0.954998
v -0.013587 0.965761 0.959281
v -0.386699 0.965282 0.957883
v -0.414760 0.367972 1.171313
v -0.722725 -0.014518 0.941710
v -0.012884 0.452358 0.951660
v -0.012884 0.452358 0.951660
v -0.013714 0.448967 1.174042
v -0.414760 0.367972 1.171313
v -0.415170 0.667539 1.175679
v -0.723664 0.670725 0.952335
v -0.722725 -0.014518 0.941710
v -0.722725 -0.014518 0.941710
v -0.414760 0.367972 1.171313
v -0.415170 0.667539 1.175679
v -0.014012 0.668054 1.177182
v -0.013185 0.671637 0.954998
v -0.723664 0.670725 0.952335
v -0.723664 0.670725 0.952335
v -0.415170 0.667539 1.175679
v -0.014012 0.668054 1.177182
v -0.004609 0.706716 -1.345405
v 0.706809 0.022188 -1.353177
v -0.004309 0.487437 -1.348743
v 0.706809 0.022188 -1.353177
v -0.004609 0.706716 -1.345405
v 0.705871 0.707628 -1.342743
v 0.387145 0.668569 1.178686
v -0.013714 0.448967 1.174042
v 0.387554 0.369002 1.174320
v -0.013714 0.448967 1.174042
v 0.387145 0.668569 1.178686
v -0.014012 0.668054 1.177182
v -0.005012 1.001031 -1.340925
v 0.705871 0.707628 -1.342743
v -0.004609 0.706716 -1.345405
v 0.705871 0.707628 -1.342743
v -0.005012 1.001031 -1.340925
v 0.368099 1.001510 -1.339527
v 0.359525 0.966239 0.960679
v -0.013185 0.671637 0.954998
v 0.697295 0.672549 0.957661
v -0.013185 0.671637 0.954998
v 0.359525 0.966239 0.960679
v -0.013587 0.965761 0.959281
v 0.387554 0.369002 1.174320
v -0.012884 0.452358 0.951660
v 0.698234 -0.012694 0.947035
v -0.012884 0.452358 0.951660
v 0.387554 0.369002 1.174320
v -0.013714 0.448967 1.174042
v 0.387145 0.668569 1.178686
v 0.698234 -0.012694 0.947035
v 0.697295 0.672549 0.957661
v 0.698234 -0.012694 0.947035
v 0.387145 0.668569 1.178686
v 0.387554 0.369002 1.174320
v -0.014012 0.668054 1.177182
v 0.697295 0.672549 0.957661
v -0.013185 0.671637 0.954998
v 0.697295 0.672549 0.957661
v -0.014012 0.668054 1.177182
v 0.387145 0.668569 1.178686
v -0.724602 0.050954 3.253780
v -0.722725 -0.014518 0.941710
v -0.723664 0.670725 0.952335
v -0.723664 0.670725 0.952335
v -0.724768 0.172257 3.255627
v -0.724602 0.050954 3.253780
v -2.089848 0.123850 3.249800
v -2.639321 0.106652 0.936799
v -2.709283 -0.003071 0.934478
v -2.709283 -0.003071 0.934478
v -2.131826 0.057504 3.248828
v -2.089848 0.123850 3.249800
v -2.131826 0.057504 3.248828
v -2.709283 -0.003071 0.934478
v -0.722725 -0.014518 0.941710
v -0.722725 -0.014518 0.941710
v -0.724602 0.050954 3.253780
v -2.131826 0.057504 3.248828
v -0.724768 0.172257 3.255627
v -0.723664 0.670725 0.952335
v -2.639321 0.106652 0.936799
v -2.639321 0.106652 0.936799
v -2.089848 0.123850 3.249800
v -0.724768 0.172257 3.255627
v 0.682610 0.052761 3.259055
v 0.682444 0.174064 3.260900
v 0.697295 0.672549 0.957661
v 0.697295 0.672549 0.957661
v 0.698234 -0.012694 0.947035
v 0.682610 0.052761 3.259055
v 2.047652 0.129161 3.265307
v 2.684753 0.003853 0.954693
v 2.614489 0.113396 0.956489
v 2.684753 0.003853 0.954693
v 2.047652 0.129161 3.265307
v 2.089809 0.062923 3.264649
v 2.089809 0.062923 3.264649
v 0.698234 -0.012694 0.947035
v 2.684753 0.003853 0.954693
v 0.698234 -0.012694 0.947035
v 2.089809 0.062923 3.264649
v 0.682610 0.052761 3.259055
v 0.682444 0.174064 3.260900
v 2.614489 0.113396 0.956489
v 0.697295 0.672549 0.957661
v 2.614489 0.113396 0.956489
v 0.682444 0.174064 3.260900
v 2.047652 0.129161 3.265307
v -0.816465 0.067621 4.575865
v -0.724602 0.050954 3.253780
v -0.724768 0.172257 3.255627
v -0.816465 0.067621 4.575865
v -2.131826 0.057504 3.248828
v -0.724602 0.050954 3.253780
v -0.816465 0.067621 4.575865
v -2.089848 0.123850 3.249800
v -2.131826 0.057504 3.248828
v -0.816465 0.067621 4.575865
v -0.724768 0.172257 3.255627
v -2.089848 0.123850 3.249800
v -0.013714 0.448967 1.174042
v -0.012884 0.452358 0.951660
v -0.013185 0.671637 0.954998
v -0.013185 0.671637 0.954998
v -0.014012 0.668054 1.177182
v -0.013714 0.448967 1.174042
v 0.764517 0.069651 4.581790
v 0.682444 0.174064 3.260900
v 0.682610 0.052761 3.259055
v 0.764517 0.069651 4.581790
v 0.682610 0.052761 3.259055
v 2.089809 0.062923 3.264649
v 0.764517 0.069651 4.581790
v 2.089809 0.062923 3.264649
v 2.047652 0.129161 3.265307
v 0.764517 0.069651 4.581790
v 2.047652 0.129161 3.265307
v 0.682444 0.174064 3.260900
v -0.013714 0.448967 1.174042
v -0.013185 0.671637 0.954998
v -0.012884 0.452358 0.951660
v -0.013185 0.671637 0.954998
v -0.013714 0.448967 1.174042
v -0.014012 0.668054 1.177182
v -2.714474 0.124175 -0.219338
v -2.784162 0.014058 -0.221275
v -2.709283 -0.003071 0.934478
v -2.709283 -0.003071 0.934478
v -2.639321 0.106652 0.936799
v -2.714474 0.124175 -0.219338
v -0.722725 -0.014518 0.941710
v -2.709283 -0.003071 0.934478
v -2.784162 0.014058 -0.221275
v -2.714474 0.124175 -0.219338
v -0.723664 0.670725 0.952335
v -0.719377 0.688459 -0.197863
v -0.723664 0.670725 0.952335
v -2.714474 0.124175 -0.219338
v -2.639321 0.106652 0.936799
v 2.698259 0.131124 -0.199053
v 2.684753 0.003853 0.954693
v 2.768248 0.021185 -0.200466
v 2.684753 0.003853 0.954693
v 2.698259 0.131124 -0.199053
v 2.614489 0.113396 0.956489
v 2.768248 0.021185 -0.200466
v 0.698234 -0.012694 0.947035
v 0.702521 0.004646 -0.202780
v 0.698234 -0.012694 0.947035
v 2.768248 0.021185 -0.200466
v 2.684753 0.003853 0.954693
v 2.614489 0.113396 0.956489
v 2.698259 0.131124 -0.199053
v 0.697295 0.672549 0.957661
v -2.784162 0.014058 -0.221275
v -0.718438 0.002822 -0.208106
v -0.722725 -0.014518 0.941710
v 0.701582 0.690282 -0.192538
v 0.697295 0.672549 0.957661
v 2.698259 0.131124 -0.199053
v -0.012884 0.452358 0.951660
v -0.722725 -0.014518 0.941710
v -0.718438 0.002822 -0.208106
v -0.718438 0.002822 -0.208106
v -0.004309 0.487437 -1.348743
v -0.012884 0.452358 0.951660
v -0.013587 0.965761 0.959281
v -0.005012 1.001031 -1.340925
v -0.378124 1.000552 -1.342324
v -0.378124 1.000552 -1.342324
v -0.386699 0.965282 0.957883
v -0.013587 0.965761 0.959281
v -0.378124 1.000552 -1.342324
v -0.715089 0.705804 -1.348068
v -0.719377 0.688459 -0.197863
v -0.719377 0.688459 -0.197863
v -0.386699 0.965282 0.957883
v -0.378124 1.000552 -1.342324
v -0.012884 0.452358 0.951660
v -0.004309 0.487437 -1.348743
v 0.702521 0.004646 -0.202780
v 0.706809 0.022188 -1.353177
v 0.702521 0.004646 -0.202780
v -0.004309 0.487437 -1.348743
v -0.013587 0.965761 0.959281
v 0.368099 1.001510 -1.339527
v -0.005012 1.001031 -1.340925
v 0.368099 1.001510 -1.339527
v -0.013587 0.965761 0.959281
v 0.359525 0.966239 0.960679
v 0.368099 1.001510 -1.339527
v 0.359525 0.966239 0.960679
v 0.701582 0.690282 -0.192538
v 0.697295 0.672549 0.957661
v 0.701582 0.690282 -0.192538
v 0.359525 0.966239 0.960679
v -0.386699 0.965282 0.957883
v -0.719377 0.688459 -0.197863
v -0.723664 0.670725 0.952335
v -0.004309 0.487437 -1.348743
v -0.718438 0.002822 -0.208106
v -0.714150 0.020364 -1.358502
v 0.368099 1.001510 -1.339527
v 0.701582 0.690282 -0.192538
v 0.705871 0.707628 -1.342743
v -0.012884 0.452358 0.951660
v 0.702521 0.004646 -0.202780
v 0.698234 -0.012694 0.947035
v -2.784162 0.014058 -0.221275
v -0.714150 0.020364 -1.358502
v -0.718438 0.002822 -0.208106
v -2.240129 0.180175 -1.644469
v -0.670464 0.178588 -2.065625
v -0.670308 0.064672 -2.067359
v -0.670308 0.064672 -2.067359
v -2.309816 0.070057 -1.646406
v -2.240129 0.180175 -1.644469
v -0.670464 0.178588 -2.065625
v -0.715089 0.705804 -1.348068
v -0.714150 0.020364 -1.358502
v -0.714150 0.020364 -1.358502
v -0.670308 0.064672 -2.067359
v -0.670464 0.178588 -2.065625
v -2.309816 0.070057 -1.646406
v -2.784162 0.014058 -0.221275
v -2.714474 0.124175 -0.219338
v -2.714474 0.124175 -0.219338
v -2.240129 0.180175 -1.644469
v -2.309816 0.070057 -1.646406
v -2.309816 0.070057 -1.646406
v -0.714150 0.020364 -1.358502
v -2.784162 0.014058 -0.221275
v -0.714150 0.020364 -1.358502
v -2.309816 0.070057 -1.646406
v -0.670308 0.064672 -2.067359
v -2.240129 0.180175 -1.644469
v -2.714474 0.124175 -0.219338
v -0.715089 0.705804 -1.348068
v -0.715089 0.705804 -1.348068
v -0.670464 0.178588 -2.065625
v -2.240129 0.180175 -1.644469
v 0.705871 0.707628 -1.342743
v 0.701582 0.690282 -0.192538
v 2.698259 0.131124 -0.199053
v 2.234464 0.185919 -1.627700
v 0.668165 0.066391 -2.062344
v 0.668009 0.180307 -2.060609
v 0.668165 0.066391 -2.062344
v 2.234464 0.185919 -1.627700
v 2.304453 0.075980 -1.629113
v 0.668009 0.180307 -2.060609
v 0.706809 0.022188 -1.353177
v 0.705871 0.707628 -1.342743
v 0.706809 0.022188 -1.353177
v 0.668009 0.180307 -2.060609
v 0.668165 0.066391 -2.062344
v 2.304453 0.075980 -1.629113
v 2.698259 0.131124 -0.199053
v 2.768248 0.021185 -0.200466
v 2.698259 0.131124 -0.199053
v 2.304453 0.075980 -1.629113
v 2.234464 0.185919 -1.627700
v 0.668165 0.066391 -2.062344
v 2.304453 0.075980 -1.629113
v 0.706809 0.022188 -1.353177
v 2.768248 0.021185 -0.200466
v 0.706809 0.022188 -1.353177
v 2.304453 0.075980 -1.629113
v 2.234464 0.185919 -1.627700
v 0.705871 0.707628 -1.342743
v 2.698259 0.131124 -0.199053
v 0.705871 0.707628 -1.342743
v 2.234464 0.185919 -1.627700
v 0.668009 0.180307 -2.060609
v -2.714474 0.124175 -0.219338
v -0.719377 0.688459 -0.197863
v -0.715089 0.705804 -1.348068
v 2.768248 0.021185 -0.200466
v 0.702521 0.004646 -0.202780
v 0.706809 0.022188 -1.353177
vt 0.5000 0.0000
vt 0.0000 0.0000
vt 0.0000 0.5000
vt 0.0000 0.5000
vt 0.5000 1.0000
vt 0.5000 0.0000
vt 0.5000 0.0000
vt 0.5000 1.0000
vt 0.2500 1.0000
vt 0.2500 1.0000
vt 0.2500 0.0000
vt 0.5000 0.0000
vt 0.2500 1.0000
vt 0.0000 1.0000
vt 0.0000 0.5000
vt 0.0000 0.5000
vt 0.2500 0.0000
vt 0.2500 1.0000
vt 0.5000 0.0000
vt 0.5000 1.0000
vt 1.0000 0.5000
vt 1.0000 1.0000
vt 1.0000 0.5000
vt 0.5000 1.0000
vt 0.5000 0.0000
vt 0.7500 1.0000
vt 0.5000 1.0000
vt 0.7500 1.0000
vt 0.5000 0.0000
vt 0.7500 0.0000
vt 0.7500 1.0000
vt 0.7500 0.0000
vt 1.0000 0.5000
vt 1.0000 0.0000
vt 1.0000 0.5000
vt 0.7500 0.0000
vt 0.2500 0.0000
vt 0.0000 0.5000
vt 0.0000 0.0000
vt 0.5000 1.0000
vt 0.0000 0.5000
vt 0.0000 1.0000
vt 0.7500 1.0000
vt 1.0000 0.5000
vt 1.0000 1.0000
vt 0.5000 0.0000
vt 1.0000 0.5000
vt 1.0000 0.0000
vt 0.5000 0.7812
vt 0.5000 1.0000
vt 0.0000 1.0000
vt 0.0000 1.0000
vt 0.0000 0.6250
vt 0.5000 0.7812
vt 0.2500 0.0625
vt 0.2500 0.0000
vt 0.5000 0.0000
vt 0.5000 0.0000
vt 0.5000 0.0625
vt 0.2500 0.0625
vt 0.5000 0.2812
vt 0.5000 0.7812
vt 0.0000 0.6250
vt 0.0000 0.6250
vt 0.2500 0.2812
vt 0.5000 0.2812
vt 0.2500 0.2500
vt 0.0000 0.1562
vt 0.5000 0.1562
vt 0.5000 0.1562
vt 0.5000 0.2500
vt 0.2500 0.2500
vt 0.2500 0.0000
vt 0.0000 0.2500
vt 0.5000 0.2500
vt 0.5000 0.2500
vt 0.5000 0.0000
vt 0.2500 0.0000
vt 0.2500 0.0625
vt 0.0000 0.1562
vt 0.0000 0.0000
vt 0.0000 0.0000
vt 0.2500 0.0000
vt 0.2500 0.0625
vt 0.5000 0.0625
vt 0.5000 0.1562
vt 0.0000 0.1562
vt 0.0000 0.1562
vt 0.2500 0.0625
vt 0.5000 0.0625
vt 0.5000 0.7812
vt 1.0000 1.0000
vt 0.5000 1.0000
vt 1.0000 1.0000
vt 0.5000 0.7812
vt 1.0000 0.6250
vt 0.7500 0.0625
vt 0.5000 0.0000
vt 0.7500 0.0000
vt 0.5000 0.0000
vt 0.7500 0.0625
vt 0.5000 0.0625
vt 0.5000 0.2812
vt 1.0000 0.6250
vt 0.5000 0.7812
vt 1.0000 0.6250
vt 0.5000 0.2812
vt 0.7500 0.2812
vt 0.7500 0.2500
vt 0.5000 0.1562
vt 1.0000 0.1562
vt 0.5000 0.1562
vt 0.7500 0.2500
vt 0.5000 0.2500
vt 0.7500 0.0000
vt 0.5000 0.2500
vt 1.0000 0.2500
vt 0.5000 0.2500
vt 0.7500 0.0000
vt 0.5000 0.0000
vt 0.7500 0.0625
vt 1.0000 0.0000
vt 1.0000 0.1562
vt 1.0000 0.0000
vt 0.7500 0.0625
vt 0.7500 0.0000
vt 0.5000 0.0625
vt 1.0000 0.1562
vt 0.5000 0.1562
vt 1.0000 0.1562
vt 0.5000 0.0625
vt 0.7500 0.0625
vt 0.5938 0.0000
vt 0.5938 1.0000
vt 0.9375 1.0000
vt 0.9375 1.0000
vt 0.6875 0.0000
vt 0.5938 0.0000
vt 0.5938 0.0000
vt 0.8750 1.0000
vt 1.0000 1.0000
vt 1.0000 1.0000
vt 0.7188 0.0000
vt 0.5938 0.0000
vt 0.7188 0.0000
vt 1.0000 1.0000
vt 0.0000 1.0000
vt 0.0000 1.0000
vt 0.0000 0.0000
vt 0.7188 0.0000
vt 0.0000 0.0000
vt 0.0000 1.0000
vt 1.0000 1.0000
vt 1.0000 1.0000
vt 0.7188 0.0000
vt 0.0000 0.0000
vt 0.5938 0.0000
vt 0.6875 0.0000
vt 0.9375 1.0000
vt 0.9375 1.0000
vt 0.5938 1.0000
vt 0.5938 0.0000
vt 0.5938 0.0000
vt 1.0000 1.0000
vt 0.8750 1.0000
vt 1.0000 1.0000
vt 0.5938 0.0000
vt 0.7188 0.0000
vt 0.7188 0.0000
vt 0.0000 1.0000
vt 1.0000 1.0000
vt 0.0000 1.0000
vt 0.7188 0.0000
vt 0.0000 0.0000
vt 0.0000 0.0000
vt 1.0000 1.0000
vt 0.0000 1.0000
vt 1.0000 1.0000
vt 0.0000 0.0000
vt 0.7188 0.0000
vt 0.0000 0.0000
vt 0.0000 0.9688
vt 0.1875 0.9688
vt 0.0000 0.0000
vt 0.9688 0.9688
vt 0.0000 0.9688
vt 0.0000 0.0000
vt 0.9375 0.8125
vt 0.9688 0.9688
vt 0.0000 0.0000
vt 0.0000 0.9688
vt 0.9688 0.9688
vt 0.3750 0.5000
vt 0.3750 0.5312
vt 0.3750 0.5312
vt 0.3750 0.5312
vt 0.3750 0.5000
vt 0.3750 0.5000
vt 0.0000 0.0000
vt 0.1875 0.9688
vt 0.0000 0.9688
vt 0.0000 0.0000
vt 0.0000 0.9688
vt 0.9688 0.9688
vt 0.0000 0.0000
vt 0.9688 0.9688
vt 0.9375 0.8125
vt 0.0000 0.0000
vt 0.9688 0.9688
vt 0.0000 0.9688
vt 0.3750 0.5000
vt 0.3750 0.5312
vt 0.3750 0.5312
vt 0.3750 0.5312
vt 0.3750 0.5000
vt 0.3750 0.5000
vt 1.0000 0.9688
vt 0.9375 0.9688
vt 0.9375 0.0312
vt 0.9375 0.0312
vt 0.9375 0.0312
vt 1.0000 0.9688
vt 0.0000 0.0312
vt 0.9375 0.0312
vt 1.0000 0.9688
vt 1.0000 0.9688
vt 0.0000 0.0312
vt 0.0000 0.9688
vt 0.0000 0.0312
vt 1.0000 0.9688
vt 0.9375 0.0312
vt 0.9375 0.9688
vt 0.9375 0.0312
vt 1.0000 0.9688
vt 0.9375 0.0312
vt 0.9375 0.9688
vt 0.9375 0.0312
vt 1.0000 0.9688
vt 0.0000 0.0312
vt 0.0000 0.9688
vt 0.0000 0.0312
vt 1.0000 0.9688
vt 0.9375 0.0312
vt 0.9375 0.0312
vt 1.0000 0.9688
vt 0.0000 0.0312
vt 1.0000 0.9688
vt 0.0000 0.9688
vt 0.0000 0.0312
vt 0.0000 0.9688
vt 0.0000 0.0312
vt 1.0000 0.9688
vt 1.0000 0.0000
vt 0.0000 0.6875
vt 0.0000 0.0000
vt 0.9375 0.9062
vt 0.0000 0.7812
vt 0.0000 1.0000
vt 0.0000 1.0000
vt 0.7812 0.6875
vt 0.9375 0.9062
vt 0.0000 0.9688
vt 0.0000 0.2812
vt 0.2188 0.5625
vt 0.2188 0.5625
vt 0.2188 0.9688
vt 0.0000 0.9688
vt 0.7812 0.6875
vt 1.0000 0.0000
vt 0.7812 0.0000
vt 0.7812 0.0000
vt 0.9375 0.9062
vt 0.7812 0.6875
vt 0.7812 0.6875
vt 0.0000 0.6875
vt 1.0000 0.0000
vt 0.0000 0.6875
vt 0.7812 0.6875
vt 0.0000 1.0000
vt 0.7812 0.6875
vt 1.0000 0.0000
vt 0.0000 0.6875
vt 0.0000 0.6875
vt 0.0000 1.0000
vt 0.7812 0.6875
vt 0.0000 0.6875
vt 0.0000 0.0000
vt 1.0000 0.0000
vt 0.6875 0.8750
vt 0.4688 0.9688
vt 0.4688 0.9688
vt 0.0000 1.0000
vt 0.9375 0.9062
vt 0.7812 0.6875
vt 0.2188 0.5625
vt 0.0000 0.9688
vt 0.0000 0.2812
vt 0.0000 0.9688
vt 0.2188 0.5625
vt 0.2188 0.9688
vt 0.7812 0.6875
vt 0.7812 0.0000
vt 1.0000 0.0000
vt 0.7812 0.0000
vt 0.7812 0.6875
vt 0.9375 0.9062
vt 0.0000 1.0000
vt 0.7812 0.6875
vt 0.0000 0.6875
vt 1.0000 0.0000
vt 0.0000 0.6875
vt 0.7812 0.6875
vt 0.7812 0.6875
vt 0.0000 0.6875
vt 1.0000 0.0000
vt 0.0000 0.6875
vt 0.7812 0.6875
vt 0.0000 0.9688
vt 1.0000 0.0000
vt 0.0000 0.0000
vt 0.0000 0.6875
vt 1.0000 0.0000
vt 0.0000 0.0000
vt 0.0000 0.6875
vn 0.5496 -0.8354 -0.0105
vn 0.5497 -0.8353 -0.0107
vn -0.0013 0.9999 0.0153
vn -0.6584 0.7526 0.0089
vn -0.6581 0.7529 0.0091
vn -0.5475 -0.8367 -0.0148
vn 0.6560 0.7546 0.0140
vn 0.6562 0.7545 0.0141
vn -0.6582 0.7528 0.0092
vn 0.6564 0.7543 0.0138
vn -0.5473 -0.8368 -0.0147
vn 0.0037 0.0152 -0.9999
vn -0.0039 -0.0146 0.9999
vn -0.0037 -0.0143 0.9999
vn -0.0037 -0.0146 0.9999
vn 0.4509 -0.6974 0.5570
vn 0.1980 -0.9801 -0.0142
vn -0.5865 -0.0134 0.8099
vn -0.5876 -0.0126 0.8091
vn -0.0013 0.9999 0.0161
vn -0.0036 -0.0146 0.9999
vn -0.4533 -0.6986 0.5536
vn -0.1954 -0.9806 -0.0157
vn 0.5804 -0.0118 0.8142
vn 0.5815 -0.0111 0.8135
vn 1.0000 0.0014 0.0008
vn -0.8292 0.5246 0.1931
vn -0.8304 0.5225 0.1935
vn -0.0059 -0.9996 0.0276
vn -0.0048 -0.9996 0.0283
vn -0.2781 0.9388 0.2030
vn -0.0354 0.9994 0.0010
vn -1.0000 -0.0013 -0.0067
vn 0.8263 0.5268 0.1993
vn 0.8275 0.5247 0.1997
vn 0.0082 -0.9996 0.0277
vn 0.0071 -0.9996 0.0283
vn 0.2741 0.9396 0.2051
vn 0.0329 0.9995 0.0012
vn 0.9976 0.0003 0.0693
vn -0.0047 -0.9999 0.0123
vn -0.6516 0.4028 0.6428
vn -0.0357 0.9964 0.0765
vn 1.0000 0.0013 0.0038
vn 1.0000 0.0013 0.0037
vn -0.9981 -0.0023 0.0618
vn 0.0072 -0.9999 0.0123
vn 0.6457 0.4045 0.6476
vn 0.0325 0.9965 0.0768
vn -1.0000 -0.0013 -0.0038
vn -1.0000 -0.0013 -0.0037
vn -0.8438 0.5329 0.0626
vn -0.8421 0.5356 0.0629
vn -0.0057 -0.9999 -0.0144
vn -0.2723 0.9621 0.0138
vn -0.2826 0.9587 0.0329
vn 0.8420 0.5351 0.0689
vn 0.8402 0.5378 0.0692
vn 0.0080 -0.9999 -0.0150
vn 0.0084 -0.9999 -0.0144
vn 0.2798 0.9594 0.0350
vn -0.0053 -0.9999 -0.0151
vn 0.2697 0.9628 0.0158
vn -0.0053 -0.9999 -0.0153
vn -0.2591 0.0143 -0.9657
vn -0.2445 0.1715 -0.9544
vn 0.9981 0.0004 0.0618
vn -0.8159 0.5208 -0.2511
vn -0.0227 -0.9986 -0.0468
vn -0.0196 -0.9978 -0.0636
vn -0.3134 0.9472 -0.0671
vn -0.1578 0.7911 -0.5910
vn 0.2697 0.9628 0.0155
vn 0.2663 0.0150 -0.9638
vn 0.2512 0.1721 -0.9525
vn -0.9985 -0.0022 0.0543
vn 0.8164 0.5229 -0.2450
vn 0.0226 -0.9977 -0.0634
vn 0.0256 -0.9986 -0.0466
vn 0.3115 0.9480 -0.0648
vn 0.1602 0.7915 -0.5898
vn -0.2723 0.9621 0.0135
vn 0.0080 -0.9999 -0.0152
usemtl Shape.020
s 1
f 205/1/1 206/2/1 207/3/1
f 208/4/2 209/5/2 210/6/2
f 211/7/3 212/8/3 213/9/3
f 214/10/3 215/11/3 216/12/3
f 217/13/4 218/14/4 219/15/4
f 220/16/5 221/17/5 222/18/5
f 223/19/6 224/20/6 225/21/6
f 226/22/6 227/23/6 228/24/6
f 229/25/3 230/26/3 231/27/3
f 232/28/3 233/29/3 234/30/3
f 235/31/7 236/32/7 237/33/7
f 238/34/8 239/35/8 240/36/8
f 241/37/9 242/38/9 243/39/9
f 244/40/2 245/41/2 246/42/2
f 247/43/10 248/44/10 249/45/10
f 250/46/11 251/47/11 252/48/11
usemtl Shape.019
f 1/49/12 2/50/12 3/51/12
f 4/52/12 5/53/12 6/54/12
f 7/55/13 8/56/13 9/57/13
f 10/58/14 11/59/14 12/60/14
f 13/61/12 14/62/12 15/63/12
f 16/64/12 17/65/12 18/66/12
f 19/67/15 20/68/15 21/69/15
f 22/70/15 23/71/15 24/72/15
f 25/73/16 26/74/16 27/75/16
f 28/76/17 29/77/17 30/78/17
f 31/79/18 32/80/18 33/81/18
f 34/82/19 35/83/19 36/84/19
f 37/85/20 38/86/20 39/87/20
f 40/88/20 41/89/20 42/90/20
f 43/91/12 44/92/12 45/93/12
f 46/94/12 47/95/12 48/96/12
f 49/97/21 50/98/21 51/99/21
f 52/100/14 53/101/14 54/102/14
f 55/103/12 56/104/12 57/105/12
f 58/106/12 59/107/12 60/108/12
f 61/109/15 62/110/15 63/111/15
f 64/112/15 65/113/15 66/114/15
f 67/115/22 68/116/22 69/117/22
f 70/118/23 71/119/23 72/120/23
f 73/121/24 74/122/24 75/123/24
f 76/124/25 77/125/25 78/126/25
f 79/127/20 80/128/20 81/129/20
f 82/130/20 83/131/20 84/132/20
usemtl Shape.017
f 85/133/26 86/134/26 87/135/26
f 88/136/26 89/137/26 90/138/26
f 91/139/27 92/140/27 93/141/27
f 94/142/28 95/143/28 96/144/28
f 97/145/29 98/146/29 99/147/29
f 100/148/30 101/149/30 102/150/30
f 103/151/31 104/152/31 105/153/31
f 106/154/32 107/155/32 108/156/32
f 109/157/33 110/158/33 111/159/33
f 112/160/33 113/161/33 114/162/33
f 115/163/34 116/164/34 117/165/34
f 118/166/35 119/167/35 120/168/35
f 121/169/36 122/170/36 123/171/36
f 124/172/37 125/173/37 126/174/37
f 127/175/38 128/176/38 129/177/38
f 130/178/39 131/179/39 132/180/39
usemtl Shape.016
f 133/181/40 134/182/40 135/183/40
f 136/184/41 137/185/41 138/186/41
f 139/187/42 140/188/42 141/189/42
f 142/190/43 143/191/43 144/192/43
f 145/193/44 146/194/44 147/195/44
f 148/196/45 149/197/45 150/198/45
f 151/199/46 152/200/46 153/201/46
f 154/202/47 155/203/47 156/204/47
f 157/205/48 158/206/48 159/207/48
f 160/208/49 161/209/49 162/210/49
f 163/211/50 164/212/50 165/213/50
f 166/214/51 167/215/51 168/216/51
usemtl Shape.015
f 169/217/52 170/218/52 171/219/52
f 172/220/53 173/221/53 174/222/53
f 175/223/54 176/224/54 177/225/54
f 178/226/55 179/227/55 180/228/55
f 181/229/56 182/230/56 183/231/56
f 184/232/57 185/233/57 186/234/57
f 187/235/58 188/236/58 189/237/58
f 190/238/59 191/239/59 192/240/59
f 193/241/60 194/242/60 195/243/60
f 196/244/61 197/245/61 198/246/61
f 199/247/62 200/248/62 201/249/62
f 202/250/63 203/251/63 204/252/63
usemtl Shape.018
f 253/253/64 254/254/64 255/255/64
f 256/256/65 257/257/65 258/258/65
f 259/259/66 260/260/66 261/261/66
f 262/262/67 263/263/67 264/264/67
f 265/265/67 266/266/67 267/267/67
f 268/268/68 269/269/68 270/270/68
f 271/271/68 272/272/68 273/273/68
f 274/274/69 275/275/69 276/276/69
f 277/277/70 278/278/70 279/279/70
f 280/280/71 281/281/71 282/282/71
f 283/283/72 284/284/72 285/285/72
f 286/286/73 287/287/73 288/288/73
f 289/289/74 290/290/74 291/291/74
f 292/292/75 293/293/75 294/294/75
f 295/295/76 296/296/76 297/297/76
f 298/298/76 299/299/76 300/300/76
f 301/301/77 302/302/77 303/303/77
f 304/304/77 305/305/77 306/306/77
f 307/307/78 308/308/78 309/309/78
f 310/310/79 311/311/79 312/312/79
f 313/313/80 314/314/80 315/315/80
f 316/316/81 317/317/81 318/318/81
f 319/319/82 320/320/82 321/321/82
f 322/322/83 323/323/83 324/324/83
