# Blender v2.77 (sub 0) OBJ File: ''
# www.blender.org
mtllib Scimitar.mtl
o ShapeIndexedFaceSet.011
v 0.004893 0.284767 -1.581323
v -0.611366 0.983804 -1.923170
v 0.004878 0.983806 -1.923173
v -0.611366 0.983804 -1.923170
v 0.004893 0.284767 -1.581323
v -0.631350 0.284765 -1.581320
v -1.623081 0.838312 -0.639194
v -0.816098 0.984831 -1.025037
v -0.842088 0.139504 -1.103476
v -0.842088 0.139504 -1.103476
v -1.649073 0.193115 -0.699064
v -1.623081 0.838312 -0.639194
v 0.004893 0.284767 -1.581323
v 0.004878 0.983806 -1.923173
v 0.621121 0.983808 -1.923176
v 0.621121 0.983808 -1.923176
v 0.641136 0.284769 -1.581326
v 0.004893 0.284767 -1.581323
v 1.632885 0.838322 -0.639211
v 0.851894 0.139509 -1.103485
v 0.825885 0.984836 -1.025045
v 0.851894 0.139509 -1.103485
v 1.632885 0.838322 -0.639211
v 1.658893 0.193125 -0.699080
v -1.414312 0.606828 0.408080
v -1.879026 0.278878 1.932207
v -1.205293 0.375615 1.455130
v -2.664778 0.444641 1.503972
v -1.414312 0.606828 0.408080
v -3.055284 0.571191 1.046488
v -1.731024 0.154507 2.092892
v -2.665024 0.144206 1.470571
v -1.427305 0.179727 0.454562
v -3.055278 0.126374 1.005213
v -1.427305 0.179727 0.454562
v -2.665024 0.144206 1.470571
v -2.339307 0.704865 0.203783
v -1.414312 0.606828 0.408080
v -1.623081 0.838312 -0.639194
v 1.888934 0.278890 1.932187
v 2.674917 0.444657 1.503945
v 1.424159 0.606836 0.408066
v 1.424159 0.606836 0.408066
v 1.215182 0.375622 1.455118
v 1.888934 0.278890 1.932187
v 2.362150 0.159747 0.153175
v 3.065158 0.126392 1.005182
v 1.437165 0.179736 0.454547
v 2.676170 0.143963 1.476043
v 1.437165 0.179736 0.454547
v 3.065158 0.126392 1.005182
v 3.065153 0.571209 1.046457
v 2.349144 0.704878 0.203759
v 1.424159 0.606836 0.408066
v 2.349144 0.704878 0.203759
v 1.632885 0.838322 -0.639211
v 1.424159 0.606836 0.408066
v 1.437165 0.179736 0.454547
v 2.676170 0.143963 1.476043
v 1.740941 0.154517 2.092875
v -3.055284 0.571191 1.046488
v -1.414312 0.606828 0.408080
v -2.339307 0.704865 0.203783
v -2.352301 0.159733 0.153200
v -1.649073 0.193115 -0.699064
v -1.427305 0.179727 0.454562
v -1.879026 0.278878 1.932207
v -1.414312 0.606828 0.408080
v -2.664778 0.444641 1.503972
v 2.674917 0.444657 1.503945
v 3.065153 0.571209 1.046457
v 1.424159 0.606836 0.408066
v -2.352301 0.159733 0.153200
v -1.427305 0.179727 0.454562
v -3.055278 0.126374 1.005213
v 1.215187 0.166144 1.607655
v 1.437165 0.179736 0.454547
v 1.740941 0.154517 2.092875
v 2.362150 0.159747 0.153175
v 1.437165 0.179736 0.454547
v 1.658893 0.193125 -0.699080
v -1.731024 0.154507 2.092892
v -1.427305 0.179727 0.454562
v -1.205288 0.166137 1.607668
v -1.308735 0.015197 4.463010
v -1.994261 0.192344 2.680868
v -2.772007 0.391020 2.604157
v -1.308735 0.015197 4.463010
v -2.772007 0.391020 2.604157
v -2.772002 0.010921 2.568887
v -1.308735 0.015197 4.463010
v -2.772002 0.010921 2.568887
v -1.846509 0.095603 2.844118
v -1.308735 0.015197 4.463010
v -1.846509 0.095603 2.844118
v -1.994261 0.192344 2.680868
v -0.361836 1.041777 -0.036861
v 0.004913 1.193209 0.271177
v 0.004906 1.035852 -0.221941
v -0.361832 0.997768 0.188523
v -0.362077 0.949699 0.454954
v 0.004913 1.193209 0.271177
v -0.361832 0.997768 0.188523
v 0.004913 1.193209 0.271177
v -0.361836 1.041777 -0.036861
v -0.362077 0.949699 0.454954
v 0.004928 0.843314 0.852047
v 0.004913 1.193209 0.271177
v 0.004893 0.284767 -1.581323
v 0.004904 0.074187 -1.103014
v -0.842088 0.139504 -1.103476
v -0.842088 0.139504 -1.103476
v -0.631350 0.284765 -1.581320
v 0.004893 0.284767 -1.581323
v -0.611366 0.983804 -1.923170
v -0.816098 0.984831 -1.025037
v 0.004893 0.984833 -1.025042
v 0.004893 0.984833 -1.025042
v 0.004878 0.983806 -1.923173
v -0.611366 0.983804 -1.923170
v -0.631350 0.284765 -1.581320
v -0.842088 0.139504 -1.103476
v -0.816098 0.984831 -1.025037
v -0.816098 0.984831 -1.025037
v -0.611366 0.983804 -1.923170
v -0.631350 0.284765 -1.581320
v -1.463585 1.161166 -0.490236
v -1.623081 0.838312 -0.639194
v -1.414312 0.606828 0.408080
v -1.414312 0.606828 0.408080
v -1.322322 1.004638 0.217283
v -1.463585 1.161166 -0.490236
v -0.918096 1.259923 -0.750963
v -0.816098 0.984831 -1.025037
v -1.623081 0.838312 -0.639194
v -1.623081 0.838312 -0.639194
v -1.463585 1.161166 -0.490236
v -0.918096 1.259923 -0.750963
v -0.817331 1.077461 0.027711
v -0.666576 0.714472 0.127340
v -0.816098 0.984831 -1.025037
v -0.816098 0.984831 -1.025037
v -0.918096 1.259923 -0.750963
v -0.817331 1.077461 0.027711
v -1.322322 1.004638 0.217283
v -1.414312 0.606828 0.408080
v -0.666576 0.714472 0.127340
v -0.666576 0.714472 0.127340
v -0.817331 1.077461 0.027711
v -1.322322 1.004638 0.217283
v -0.842086 0.008888 -1.102793
v -0.842088 0.139504 -1.103476
v 0.004904 0.074187 -1.103014
v 0.004949 0.019434 1.424584
v 0.004947 0.150027 1.424149
v -0.543297 0.150025 1.424151
v -0.543297 0.150025 1.424151
v -0.543296 0.019433 1.424587
v 0.004949 0.019434 1.424584
v -0.692566 0.014149 0.161022
v -0.543297 0.150025 1.424151
v -0.692568 0.144764 0.160337
v -0.842088 0.139504 -1.103476
v -0.842086 0.008888 -1.102793
v -0.692566 0.014149 0.161022
v 1.318738 0.015205 4.462996
v 2.781936 0.391036 2.604129
v 2.004197 0.192356 2.680847
v 1.318738 0.015205 4.462996
v 2.781940 0.010938 2.568858
v 2.781936 0.391036 2.604129
v 1.318738 0.015205 4.462996
v 1.856453 0.095615 2.844097
v 2.781940 0.010938 2.568858
v 1.318738 0.015205 4.462996
v 2.004197 0.192356 2.680847
v 1.856453 0.095615 2.844097
v 0.371656 1.041779 -0.036864
v 0.004906 1.035852 -0.221941
v 0.004913 1.193209 0.271177
v 0.371916 0.949701 0.454951
v 0.004913 1.193209 0.271177
v 0.004928 0.843314 0.852047
v 0.371660 0.997770 0.188519
v 0.371656 1.041779 -0.036864
v 0.004913 1.193209 0.271177
v 0.371916 0.949701 0.454951
v 0.371660 0.997770 0.188519
v 0.004913 1.193209 0.271177
v 0.004893 0.284767 -1.581323
v 0.851894 0.139509 -1.103485
v 0.004904 0.074187 -1.103014
v 0.851894 0.139509 -1.103485
v 0.004893 0.284767 -1.581323
v 0.641136 0.284769 -1.581326
v 0.621121 0.983808 -1.923176
v 0.004893 0.984833 -1.025042
v 0.825885 0.984836 -1.025045
v 0.004893 0.984833 -1.025042
v 0.621121 0.983808 -1.923176
v 0.004878 0.983806 -1.923173
v 0.641136 0.284769 -1.581326
v 0.825885 0.984836 -1.025045
v 0.851894 0.139509 -1.103485
v 0.825885 0.984836 -1.025045
v 0.641136 0.284769 -1.581326
v 0.621121 0.983808 -1.923176
v 1.473385 1.161174 -0.490251
v 1.424159 0.606836 0.408066
v 1.632885 0.838322 -0.639211
v 1.424159 0.606836 0.408066
v 1.473385 1.161174 -0.490251
v 1.332151 1.004645 0.217270
v -0.692566 0.014149 0.161022
v -0.692568 0.144764 0.160337
v -0.842088 0.139504 -1.103476
v -0.543297 0.150025 1.424151
v -0.692566 0.014149 0.161022
v -0.543296 0.019433 1.424587
v 0.927885 1.259928 -0.750972
v 1.632885 0.838322 -0.639211
v 0.825885 0.984836 -1.025045
v 1.632885 0.838322 -0.639211
v 0.927885 1.259928 -0.750972
v 1.473385 1.161174 -0.490251
v 0.827152 1.077465 0.027703
v 0.825885 0.984836 -1.025045
v 0.676410 0.714476 0.127332
v 0.825885 0.984836 -1.025045
v 0.827152 1.077465 0.027703
v 0.927885 1.259928 -0.750972
v 1.332151 1.004645 0.217270
v 0.676410 0.714476 0.127332
v 1.424159 0.606836 0.408066
v 0.676410 0.714476 0.127332
v 1.332151 1.004645 0.217270
v 0.827152 1.077465 0.027703
v 0.851896 0.008893 -1.102802
v 0.004904 0.074187 -1.103014
v 0.851894 0.139509 -1.103485
v 0.004949 0.019434 1.424584
v 0.553191 0.150028 1.424146
v 0.004947 0.150027 1.424149
v 0.553191 0.150028 1.424146
v 0.004949 0.019434 1.424584
v 0.553193 0.019436 1.424581
v 0.553193 0.019436 1.424581
v 0.702420 0.014153 0.161014
v 0.553191 0.150028 1.424146
v 0.851894 0.139509 -1.103485
v 0.702418 0.144768 0.160330
v 0.702420 0.014153 0.161014
v 0.851894 0.139509 -1.103485
v 0.702420 0.014153 0.161014
v 0.851896 0.008893 -1.102802
v 0.702418 0.144768 0.160330
v 0.553191 0.150028 1.424146
v 0.702420 0.014153 0.161014
v -0.543297 0.150025 1.424151
v 0.004940 0.444409 1.279239
v -0.517304 0.444408 1.279241
v 0.004940 0.444409 1.279239
v -0.543297 0.150025 1.424151
v 0.004947 0.150027 1.424149
v -1.205288 0.166137 1.607668
v -0.543297 0.150025 1.424151
v -0.517304 0.444408 1.279241
v -0.517304 0.444408 1.279241
v -1.205293 0.375615 1.455130
v -1.205288 0.166137 1.607668
v -1.731024 0.154507 2.092892
v -1.205288 0.166137 1.607668
v -1.205293 0.375615 1.455130
v -1.205293 0.375615 1.455130
v -1.879026 0.278878 1.932207
v -1.731024 0.154507 2.092892
v -1.846509 0.095603 2.844118
v -1.731024 0.154507 2.092892
v -1.879026 0.278878 1.932207
v -1.879026 0.278878 1.932207
v -1.994261 0.192344 2.680868
v -1.846509 0.095603 2.844118
v 0.553191 0.150028 1.424146
v 0.498935 0.444411 1.279236
v 0.004940 0.444409 1.279239
v 0.004940 0.444409 1.279239
v 0.004947 0.150027 1.424149
v 0.553191 0.150028 1.424146
v 1.215187 0.166144 1.607655
v 0.498935 0.444411 1.279236
v 0.553191 0.150028 1.424146
v 0.498935 0.444411 1.279236
v 1.215187 0.166144 1.607655
v 1.215182 0.375622 1.455118
v 1.740941 0.154517 2.092875
v 1.215182 0.375622 1.455118
v 1.215187 0.166144 1.607655
v 1.215182 0.375622 1.455118
v 1.740941 0.154517 2.092875
v 1.888934 0.278890 1.932187
v 1.856453 0.095615 2.844097
v 1.888934 0.278890 1.932187
v 1.740941 0.154517 2.092875
v 1.888934 0.278890 1.932187
v 1.856453 0.095615 2.844097
v 2.004197 0.192356 2.680847
v 0.004940 0.444409 1.279239
v -0.470822 0.752435 0.489372
v -0.517304 0.444408 1.279241
v -0.470822 0.752435 0.489372
v 0.004940 0.444409 1.279239
v 0.004934 0.611910 1.013596
v 0.702420 0.014153 0.161014
v 0.004927 0.014151 0.161018
v 0.004904 0.074187 -1.103014
v -0.692566 0.014149 0.161022
v 0.004949 0.019434 1.424584
v -0.543296 0.019433 1.424587
v -0.692566 0.014149 0.161022
v 0.004927 0.014151 0.161018
v 0.004949 0.019434 1.424584
v 0.004927 0.014151 0.161018
v -0.692566 0.014149 0.161022
v 0.004904 0.074187 -1.103014
v 0.004927 0.014151 0.161018
v 0.702420 0.014153 0.161014
v 0.004949 0.019434 1.424584
v -0.816098 0.984831 -1.025037
v -0.470585 0.873933 -0.159888
v 0.004893 0.984833 -1.025042
v -0.816098 0.984831 -1.025037
v -0.470829 0.813658 0.159639
v -0.470585 0.873933 -0.159888
v -0.470585 0.873933 -0.159888
v 0.004906 0.865991 -0.404406
v 0.004893 0.984833 -1.025042
v -0.816098 0.984831 -1.025037
v -0.666576 0.714472 0.127340
v -0.470829 0.813658 0.159639
v -0.470829 0.813658 0.159639
v -0.666576 0.714472 0.127340
v -0.470822 0.752435 0.489372
v 0.004906 1.035852 -0.221941
v 0.004906 0.865991 -0.404406
v -0.470585 0.873933 -0.159888
v -0.470585 0.873933 -0.159888
v -0.361836 1.041777 -0.036861
v 0.004906 1.035852 -0.221941
v -0.361836 1.041777 -0.036861
v -0.470585 0.873933 -0.159888
v -0.470829 0.813658 0.159639
v -0.470829 0.813658 0.159639
v -0.361832 0.997768 0.188523
v -0.361836 1.041777 -0.036861
v -0.666576 0.714472 0.127340
v -0.517304 0.444408 1.279241
v -0.470822 0.752435 0.489372
v 0.004940 0.444409 1.279239
v 0.498935 0.444411 1.279236
v 0.479168 0.752438 0.489367
v 0.479168 0.752438 0.489367
v 0.004934 0.611910 1.013596
v 0.004940 0.444409 1.279239
v 0.702420 0.014153 0.161014
v 0.004904 0.074187 -1.103014
v 0.851896 0.008893 -1.102802
v 0.004949 0.019434 1.424584
v 0.702420 0.014153 0.161014
v 0.553193 0.019436 1.424581
v 0.825885 0.984836 -1.025045
v 0.004893 0.984833 -1.025042
v 0.480405 0.873936 -0.159893
v 0.825885 0.984836 -1.025045
v 0.480405 0.873936 -0.159893
v 0.480661 0.813661 0.159634
v 0.480405 0.873936 -0.159893
v 0.004893 0.984833 -1.025042
v 0.004906 0.865991 -0.404406
v 0.676410 0.714476 0.127332
v 0.480661 0.813661 0.159634
v 0.479168 0.752438 0.489367
v 0.825885 0.984836 -1.025045
v 0.480661 0.813661 0.159634
v 0.676410 0.714476 0.127332
v 0.004906 1.035852 -0.221941
v 0.480405 0.873936 -0.159893
v 0.004906 0.865991 -0.404406
v 0.480405 0.873936 -0.159893
v 0.004906 1.035852 -0.221941
v 0.371656 1.041779 -0.036864
v 0.371656 1.041779 -0.036864
v 0.480661 0.813661 0.159634
v 0.480405 0.873936 -0.159893
v 0.480661 0.813661 0.159634
v 0.371656 1.041779 -0.036864
v 0.371660 0.997770 0.188519
v 0.676410 0.714476 0.127332
v 0.479168 0.752438 0.489367
v 0.498935 0.444411 1.279236
v -0.842086 0.008888 -1.102793
v 0.004904 0.074187 -1.103014
v -0.692566 0.014149 0.161022
v -1.205293 0.375615 1.455130
v -0.517304 0.444408 1.279241
v -0.666576 0.714472 0.127340
v -0.918096 1.259923 -0.750963
v -1.463585 1.161166 -0.490236
v -1.322322 1.004638 0.217283
v -1.427305 0.179727 0.454562
v -0.842088 0.139504 -1.103476
v -0.692568 0.144764 0.160337
v -0.543297 0.150025 1.424151
v -1.205288 0.166137 1.607668
v -1.427305 0.179727 0.454562
v -0.362077 0.949699 0.454954
v -0.470822 0.752435 0.489372
v 0.004934 0.611910 1.013596
v 0.004934 0.611910 1.013596
v 0.004928 0.843314 0.852047
v -0.362077 0.949699 0.454954
v -0.361832 0.997768 0.188523
v -0.470829 0.813658 0.159639
v -0.470822 0.752435 0.489372
v -0.470822 0.752435 0.489372
v -0.362077 0.949699 0.454954
v -0.361832 0.997768 0.188523
v -1.322322 1.004638 0.217283
v -0.817331 1.077461 0.027711
v -0.918096 1.259923 -0.750963
v -0.666576 0.714472 0.127340
v -1.414312 0.606828 0.408080
v -1.205293 0.375615 1.455130
v 1.215182 0.375622 1.455118
v 0.676410 0.714476 0.127332
v 0.498935 0.444411 1.279236
v 0.927885 1.259928 -0.750972
v 1.332151 1.004645 0.217270
v 1.473385 1.161174 -0.490251
v 1.658893 0.193125 -0.699080
v 1.437165 0.179736 0.454547
v 0.851894 0.139509 -1.103485
v 0.553191 0.150028 1.424146
v 0.702418 0.144768 0.160330
v 1.437165 0.179736 0.454547
v -1.427305 0.179727 0.454562
v -0.692568 0.144764 0.160337
v -0.543297 0.150025 1.424151
v 0.702418 0.144768 0.160330
v 0.851894 0.139509 -1.103485
v 1.437165 0.179736 0.454547
v 0.371916 0.949701 0.454951
v 0.004934 0.611910 1.013596
v 0.479168 0.752438 0.489367
v 0.004934 0.611910 1.013596
v 0.371916 0.949701 0.454951
v 0.004928 0.843314 0.852047
v 0.371660 0.997770 0.188519
v 0.479168 0.752438 0.489367
v 0.480661 0.813661 0.159634
v 0.479168 0.752438 0.489367
v 0.371660 0.997770 0.188519
v 0.371916 0.949701 0.454951
v 1.332151 1.004645 0.217270
v 0.927885 1.259928 -0.750972
v 0.827152 1.077465 0.027703
v 0.676410 0.714476 0.127332
v 1.215182 0.375622 1.455118
v 1.424159 0.606836 0.408066
v 0.553191 0.150028 1.424146
v 1.437165 0.179736 0.454547
v 1.215187 0.166144 1.607655
v -0.842088 0.139504 -1.103476
v -1.427305 0.179727 0.454562
v -1.649073 0.193115 -0.699064
v -2.352301 0.159733 0.153200
v -2.339307 0.704865 0.203783
v -1.649073 0.193115 -0.699064
v -2.339307 0.704865 0.203783
v -2.352301 0.159733 0.153200
v -3.055284 0.571191 1.046488
v -2.772007 0.391020 2.604157
v -1.994261 0.192344 2.680868
v -1.879026 0.278878 1.932207
v -1.879026 0.278878 1.932207
v -2.664778 0.444641 1.503972
v -2.772007 0.391020 2.604157
v -2.772007 0.391020 2.604157
v -3.055284 0.571191 1.046488
v -3.055278 0.126374 1.005213
v -3.055278 0.126374 1.005213
v -2.772002 0.010921 2.568887
v -2.772007 0.391020 2.604157
v -2.772002 0.010921 2.568887
v -3.055278 0.126374 1.005213
v -2.665024 0.144206 1.470571
v -1.731024 0.154507 2.092892
v -1.846509 0.095603 2.844118
v -2.772002 0.010921 2.568887
v 2.349144 0.704878 0.203759
v 1.658893 0.193125 -0.699080
v 1.632885 0.838322 -0.639211
v 2.362150 0.159747 0.153175
v 3.065153 0.571209 1.046457
v 3.065158 0.126392 1.005182
v 2.004197 0.192356 2.680847
v 2.781936 0.391036 2.604129
v 1.888934 0.278890 1.932187
v 3.065153 0.571209 1.046457
v 2.674917 0.444657 1.503945
v 2.781936 0.391036 2.604129
v 2.781936 0.391036 2.604129
v 3.065158 0.126392 1.005182
v 3.065153 0.571209 1.046457
v 3.065158 0.126392 1.005182
v 2.781936 0.391036 2.604129
v 2.781940 0.010938 2.568858
v 2.781940 0.010938 2.568858
v 1.740941 0.154517 2.092875
v 2.676170 0.143963 1.476043
v 1.740941 0.154517 2.092875
v 2.781940 0.010938 2.568858
v 1.856453 0.095615 2.844097
v 3.065153 0.571209 1.046457
v 2.362150 0.159747 0.153175
v 2.349144 0.704878 0.203759
v 1.658893 0.193125 -0.699080
v 2.349144 0.704878 0.203759
v 2.362150 0.159747 0.153175
v -2.339307 0.704865 0.203783
v -1.623081 0.838312 -0.639194
v -1.649073 0.193115 -0.699064
v -2.352301 0.159733 0.153200
v -3.055278 0.126374 1.005213
v -3.055284 0.571191 1.046488
v -2.664778 0.444641 1.503972
v -3.055284 0.571191 1.046488
v -2.772007 0.391020 2.604157
v 2.674917 0.444657 1.503945
v 1.888934 0.278890 1.932187
v 2.781936 0.391036 2.604129
v -2.772002 0.010921 2.568887
v -2.665024 0.144206 1.470571
v -1.731024 0.154507 2.092892
v 2.781940 0.010938 2.568858
v 2.676170 0.143963 1.476043
v 3.065158 0.126392 1.005182
vt 0.4375 0.0000
vt 0.9688 0.9688
vt 0.0000 0.9688
vt 0.4375 0.0000
vt 0.0000 0.9688
vt 0.9688 0.9688
vt 0.4375 0.0000
vt 0.0000 0.9688
vt 0.9688 0.9688
vt 0.4375 0.0000
vt 0.0000 0.9688
vt 0.9688 0.9688
vt 0.9688 0.9062
vt 0.0000 0.5000
vt 0.0000 0.9688
vt 0.9688 0.7500
vt 0.9688 0.1250
vt 0.0000 0.5000
vt 0.9688 0.7500
vt 0.0000 0.5000
vt 0.9688 0.9062
vt 0.9688 0.1250
vt 0.5000 0.0000
vt 0.0000 0.5000
vt 0.9688 0.9688
vt 0.9688 0.0000
vt 0.0000 0.0000
vt 0.0000 0.0000
vt 0.2500 0.9688
vt 0.9688 0.9688
vt 0.2500 0.9688
vt 0.0000 0.0000
vt 0.9688 0.0000
vt 0.9688 0.0000
vt 0.9688 0.9688
vt 0.2500 0.9688
vt 0.1562 0.9688
vt 0.0000 0.0000
vt 0.9688 0.0000
vt 0.9688 0.0000
vt 0.9375 0.9688
vt 0.1562 0.9688
vt 0.8750 0.0000
vt 0.9688 0.9688
vt 0.0000 0.9688
vt 0.0000 0.9688
vt 0.1875 0.0000
vt 0.8750 0.0000
vt 0.1875 0.0000
vt 0.0000 0.9688
vt 0.9688 0.9688
vt 0.9688 0.9688
vt 0.8750 0.0000
vt 0.1875 0.0000
vt 0.9062 0.0000
vt 0.9688 0.9688
vt 0.0000 0.9688
vt 0.0000 0.9688
vt 0.2500 0.0000
vt 0.9062 0.0000
vt 0.2500 0.0000
vt 0.0000 0.9688
vt 0.9688 0.9688
vt 0.9688 0.9688
vt 0.9062 0.0000
vt 0.2500 0.0000
vt 0.0000 0.0000
vt 0.0000 0.9688
vt 0.9688 0.9688
vt 0.9688 0.0000
vt 0.9688 0.9688
vt 0.0000 0.9688
vt 0.0000 0.9688
vt 0.0000 0.0000
vt 0.9688 0.0000
vt 0.0000 0.0000
vt 0.9688 0.9688
vt 0.0000 0.9688
vt 0.9688 0.9688
vt 0.9688 0.0000
vt 0.0000 0.0000
vt 0.4375 0.0000
vt 0.0000 0.9688
vt 0.9688 0.9688
vt 0.4375 0.0000
vt 0.9688 0.9688
vt 0.0000 0.9688
vt 0.4375 0.0000
vt 0.9688 0.9688
vt 0.0000 0.9688
vt 0.4375 0.0000
vt 0.9688 0.9688
vt 0.0000 0.9688
vt 0.9688 0.9062
vt 0.0000 0.9688
vt 0.0000 0.5000
vt 0.9688 0.1250
vt 0.0000 0.5000
vt 0.5000 0.0000
vt 0.9688 0.7500
vt 0.9688 0.9062
vt 0.0000 0.5000
vt 0.9688 0.1250
vt 0.9688 0.7500
vt 0.0000 0.5000
vt 0.9688 0.9688
vt 0.0000 0.0000
vt 0.9688 0.0000
vt 0.0000 0.0000
vt 0.9688 0.9688
vt 0.2500 0.9688
vt 0.2500 0.9688
vt 0.9688 0.0000
vt 0.0000 0.0000
vt 0.9688 0.0000
vt 0.2500 0.9688
vt 0.9688 0.9688
vt 0.1562 0.9688
vt 0.9688 0.0000
vt 0.0000 0.0000
vt 0.9688 0.0000
vt 0.1562 0.9688
vt 0.9375 0.9688
vt 0.8438 0.0000
vt 0.0000 0.9688
vt 0.9688 0.9688
vt 0.0000 0.9688
vt 0.8438 0.0000
vt 0.1875 0.0000
vt 0.0000 0.0000
vt 0.0000 0.9688
vt 0.9688 0.9688
vt 0.9688 0.9688
vt 0.0000 0.0000
vt 0.9688 0.0000
vt 0.1875 0.0000
vt 0.9688 0.9688
vt 0.0000 0.9688
vt 0.9688 0.9688
vt 0.1875 0.0000
vt 0.8438 0.0000
vt 0.9062 0.0000
vt 0.0000 0.9688
vt 0.9688 0.9688
vt 0.0000 0.9688
vt 0.9062 0.0000
vt 0.2500 0.0000
vt 0.2500 0.0000
vt 0.9688 0.9688
vt 0.0000 0.9688
vt 0.9688 0.9688
vt 0.2500 0.0000
vt 0.9062 0.0000
vt 0.0000 0.0000
vt 0.9688 0.9688
vt 0.0000 0.9688
vt 0.9688 0.0000
vt 0.0000 0.9688
vt 0.9688 0.9688
vt 0.0000 0.9688
vt 0.9688 0.0000
vt 0.0000 0.0000
vt 0.0000 0.0000
vt 0.9688 0.0000
vt 0.0000 0.9688
vt 0.0000 0.9688
vt 0.9688 0.9688
vt 0.9688 0.0000
vt 0.0000 0.9688
vt 0.9688 0.0000
vt 0.0000 0.0000
vt 0.9688 0.9688
vt 0.0000 0.9688
vt 0.9688 0.0000
vt 0.9688 0.9688
vt 0.0000 0.0000
vt 0.9688 0.0000
vt 0.0000 0.0000
vt 0.9688 0.9688
vt 0.0000 0.9688
vt 0.8438 0.9688
vt 0.9688 0.0000
vt 0.0000 0.0000
vt 0.0000 0.0000
vt 0.1250 0.9688
vt 0.8438 0.9688
vt 0.9688 0.9688
vt 0.9688 0.0000
vt 0.0000 0.0000
vt 0.0000 0.0000
vt 0.0000 0.9688
vt 0.9688 0.9688
vt 0.8438 0.9688
vt 0.0000 0.0000
vt 0.9688 0.0000
vt 0.0000 0.0000
vt 0.8438 0.9688
vt 0.1250 0.9688
vt 0.5625 0.9688
vt 0.0000 0.0000
vt 0.0938 0.9688
vt 0.3125 0.0000
vt 0.5625 0.9688
vt 0.5625 0.0000
vt 0.0000 0.9688
vt 0.3125 0.9375
vt 0.5625 0.0000
vt 0.5625 0.9375
vt 0.5625 0.0000
vt 0.3125 0.9375
vt 0.7812 0.0000
vt 0.5625 0.9688
vt 0.9688 0.9688
vt 0.0000 0.0000
vt 0.3125 0.0000
vt 0.5625 0.9688
vt 0.5625 0.9688
vt 0.0938 0.9688
vt 0.0000 0.0000
vt 0.7500 0.9688
vt 0.5625 0.9375
vt 0.5625 0.0000
vt 0.3125 0.9375
vt 0.5625 0.0000
vt 0.5625 0.9375
vt 0.5625 0.0000
vt 0.7812 0.0000
vt 0.5625 0.9688
vt 0.7812 0.0000
vt 0.9688 0.9688
vt 0.5625 0.9688
vt 0.5625 0.0000
vt 0.3125 0.9375
vt 0.0000 0.9688
vt 0.5625 0.0000
vt 0.5625 0.9688
vt 0.7812 0.0000
vt 0.7500 0.9688
vt 0.9688 0.0000
vt 0.5625 0.0000
vt 0.0000 0.0000
vt 0.5625 0.9688
vt 0.3125 0.0000
vt 0.3125 0.0000
vt 0.5625 0.0000
vt 0.5625 0.9688
vt 0.7500 0.9688
vt 0.5625 0.0000
vt 0.5625 0.9375
vt 0.1250 0.0000
vt 0.5625 0.0000
vt 0.0000 0.9688
vt 0.7500 0.9688
vt 0.5625 0.0000
vt 0.9688 0.0000
vt 0.0000 0.9688
vt 0.5625 0.0000
vt 0.1250 0.0000
vt 0.0000 1.0000
vt 1.0000 0.0000
vt 0.0000 0.0000
vt 1.0000 0.0000
vt 0.0000 1.0000
vt 1.0000 1.0000
vt 1.0000 1.0000
vt 0.0000 1.0000
vt 0.0000 0.0000
vt 0.0000 0.0000
vt 1.0000 0.0000
vt 1.0000 1.0000
vt 0.0000 1.0000
vt 1.0000 1.0000
vt 1.0000 0.0000
vt 1.0000 0.0000
vt 0.0000 0.0000
vt 0.0000 1.0000
vt 1.0000 1.0000
vt 0.0000 1.0000
vt 0.0000 0.0000
vt 0.0000 0.0000
vt 1.0000 0.0000
vt 1.0000 1.0000
vt 0.0000 1.0000
vt 0.0000 0.0000
vt 1.0000 0.0000
vt 1.0000 0.0000
vt 1.0000 1.0000
vt 0.0000 1.0000
vt 1.0000 1.0000
vt 0.0000 0.0000
vt 0.0000 1.0000
vt 0.0000 0.0000
vt 1.0000 1.0000
vt 1.0000 0.0000
vt 0.0000 1.0000
vt 1.0000 0.0000
vt 1.0000 1.0000
vt 1.0000 0.0000
vt 0.0000 1.0000
vt 0.0000 0.0000
vt 1.0000 1.0000
vt 0.0000 0.0000
vt 0.0000 1.0000
vt 0.0000 0.0000
vt 1.0000 1.0000
vt 1.0000 0.0000
vt 0.0000 0.9688
vt 0.8125 0.2500
vt 0.9062 0.9688
vt 0.8125 0.2500
vt 0.0000 0.9688
vt 0.0000 0.4062
vt 0.9688 0.9688
vt 0.9688 0.0000
vt 0.0000 0.0000
vt 0.9688 0.9688
vt 0.0000 0.0000
vt 0.0000 0.9688
vt 0.9688 0.9688
vt 0.9688 0.0000
vt 0.0000 0.0000
vt 0.9688 0.0000
vt 0.9688 0.9688
vt 0.0000 0.0000
vt 0.9688 0.0000
vt 0.9688 0.9688
vt 0.0000 0.0000
vt 0.0000 1.0000
vt 0.3750 0.2812
vt 0.9688 1.0000
vt 0.0000 1.0000
vt 0.3750 0.0000
vt 0.3750 0.2812
vt 0.3750 0.2812
vt 0.9688 0.4062
vt 0.9688 1.0000
vt 0.0000 1.0000
vt 0.1562 0.0312
vt 0.3750 0.0000
vt 0.7500 0.0000
vt 0.9688 0.0000
vt 0.8125 0.2500
vt 0.8438 0.0000
vt 0.9688 0.9688
vt 0.0000 0.9688
vt 0.0000 0.9688
vt 0.0938 0.0000
vt 0.8438 0.0000
vt 0.5000 0.0000
vt 0.3750 0.9688
vt 0.9688 0.9688
vt 0.9688 0.9688
vt 0.9688 0.0000
vt 0.5000 0.0000
vt 0.9688 0.0000
vt 0.9062 0.9688
vt 0.8125 0.2500
vt 0.0000 0.9688
vt 0.9062 0.9688
vt 0.8125 0.2500
vt 0.8125 0.2500
vt 0.0000 0.4062
vt 0.0000 0.9688
vt 0.9688 0.9688
vt 0.0000 0.0000
vt 0.0000 0.9688
vt 0.0000 0.0000
vt 0.9688 0.9688
vt 0.0000 0.9688
vt 0.0000 1.0000
vt 0.9688 1.0000
vt 0.3750 0.2812
vt 0.0000 1.0000
vt 0.3750 0.2812
vt 0.3750 0.0000
vt 0.3750 0.2812
vt 0.9688 1.0000
vt 0.9688 0.4062
vt 0.9688 0.0000
vt 0.7500 0.0000
vt 0.8125 0.2500
vt 0.0000 1.0000
vt 0.3750 0.0000
vt 0.1562 0.0312
vt 0.8438 0.0000
vt 0.0000 0.9688
vt 0.9688 0.9688
vt 0.0000 0.9688
vt 0.8438 0.0000
vt 0.0938 0.0000
vt 0.5000 0.0000
vt 0.9688 0.9688
vt 0.3750 0.9688
vt 0.9688 0.9688
vt 0.5000 0.0000
vt 0.9688 0.0000
vt 0.9688 0.0000
vt 0.8125 0.2500
vt 0.9062 0.9688
vt 0.0000 0.9688
vt 0.0000 0.0000
vt 0.9688 0.9688
vt 0.0000 0.0000
vt 0.0000 0.9688
vt 0.9688 0.9688
vt 0.0000 0.9688
vt 0.0000 0.0000
vt 0.9688 0.0000
vt 0.0000 0.9688
vt 0.9688 0.0000
vt 0.0000 0.0000
vt 0.9688 0.0000
vt 0.9688 0.9688
vt 0.0000 0.9688
vt 0.0000 0.0000
vt 0.0000 0.9688
vt 0.9688 0.9688
vt 0.9688 0.9688
vt 0.7500 0.0000
vt 0.0000 0.0000
vt 0.7500 0.0000
vt 0.9688 0.9688
vt 0.0000 0.9688
vt 0.0000 0.9688
vt 0.0000 0.0000
vt 0.7500 0.0000
vt 0.9688 0.0000
vt 0.9688 0.9688
vt 0.0000 0.9688
vt 0.9688 0.9688
vt 0.9688 0.0000
vt 0.0000 0.0000
vt 0.0000 0.0000
vt 0.9688 0.9688
vt 0.0000 0.9688
vt 0.0000 0.9688
vt 0.9688 0.0000
vt 0.0000 0.0000
vt 0.9688 0.9688
vt 0.0000 0.9688
vt 0.9688 0.0000
vt 0.9688 0.0000
vt 0.0000 0.0000
vt 0.0000 0.9688
vt 0.0000 0.9688
vt 0.0000 0.0000
vt 0.9688 0.0000
vt 0.0000 0.0000
vt 0.9688 0.0000
vt 0.0000 0.9688
vt 0.0000 0.0000
vt 0.9688 0.9688
vt 0.0000 0.9688
vt 0.9688 0.9688
vt 0.0000 0.0000
vt 0.7500 0.0000
vt 0.7500 0.0000
vt 0.0000 0.9688
vt 0.9688 0.9688
vt 0.0000 0.9688
vt 0.7500 0.0000
vt 0.0000 0.0000
vt 0.9688 0.0000
vt 0.0000 0.9688
vt 0.9688 0.9688
vt 0.9688 0.9688
vt 0.0000 0.0000
vt 0.9688 0.0000
vt 0.9688 0.0000
vt 0.0000 0.9688
vt 0.9688 0.9688
vt 0.9688 0.0000
vt 0.0000 0.9688
vt 0.9688 0.9688
vt 0.0000 0.0000
vt 0.9688 0.0000
vt 0.0000 0.9688
vt 0.9688 0.0000
vt 0.0000 0.0000
vt 0.9688 0.9688
vt 0.2812 0.9688
vt 0.9688 0.9688
vt 0.9688 0.2812
vt 0.9688 0.2812
vt 0.2500 0.1562
vt 0.2812 0.9688
vt 0.9688 0.0000
vt 0.9688 0.9688
vt 0.0000 0.9688
vt 0.0000 0.9688
vt 0.0000 0.0000
vt 0.9688 0.0000
vt 0.7500 0.9688
vt 0.9688 0.0000
vt 0.7500 0.2188
vt 0.0000 0.5625
vt 0.0000 0.9688
vt 0.7500 0.9688
vt 0.9688 0.0000
vt 0.0000 0.9688
vt 0.9688 0.9688
vt 0.0000 0.0000
vt 0.9688 0.9688
vt 0.0000 0.9688
vt 0.9688 0.9688
vt 0.2812 0.9688
vt 0.9688 0.2812
vt 0.0000 0.0000
vt 0.2500 0.1562
vt 0.2812 0.9688
vt 0.9688 0.0000
vt 0.0000 0.9688
vt 0.9688 0.9688
vt 0.0000 0.9688
vt 0.9688 0.0000
vt 0.0000 0.0000
vt 0.7500 0.9688
vt 0.0000 0.5625
vt 0.7500 0.2188
vt 0.0000 0.5625
vt 0.7500 0.9688
vt 0.0000 0.9688
vt 0.9688 0.9688
vt 0.0000 0.0000
vt 0.9688 0.0000
vt 0.0000 0.9688
vt 0.9688 0.0000
vt 0.0000 0.0000
vt 0.9688 0.0000
vt 0.9688 0.9688
vt 0.0000 0.9688
vt 0.0000 0.0000
vt 0.0000 0.9688
vt 0.9688 0.9688
vt 0.2500 0.1562
vt 0.0000 0.0000
vt 0.2812 0.9688
vt 0.2500 0.1562
vt 0.9688 0.2812
vt 0.2812 0.9688
vt 0.7500 0.9688
vt 0.7500 0.2188
vt 0.0000 0.5625
vt 0.7500 0.9688
vt 0.7500 0.2188
vt 0.9688 0.0000
vn 0.2474 0.9689 0.0011
vn -0.7900 -0.0567 0.6104
vn 0.1167 -0.9893 -0.0879
vn 0.6755 0.7127 -0.1890
vn -0.1367 0.9437 -0.3011
vn -0.4915 0.8571 0.1542
vn -0.4927 0.8541 0.1668
vn -0.2961 0.8182 0.4929
vn -0.0702 -0.9130 -0.4019
vn 0.0000 -0.9568 -0.2908
vn -0.0000 1.0000 -0.0011
vn -0.9201 0.0641 -0.3863
vn -0.9718 -0.0805 -0.2214
vn -0.9085 0.3315 0.2544
vn -0.9081 0.3322 0.2548
vn -0.4399 0.5467 -0.7125
vn -0.4397 0.5462 -0.7130
vn 0.9261 0.3759 -0.0320
vn 0.9264 0.3753 -0.0319
vn 0.2817 0.3612 0.8889
vn 0.2817 0.3610 0.8890
vn 0.0001 -0.0052 -1.0000
vn 0.0000 0.0033 1.0000
vn -0.9931 0.0006 0.1173
vn -0.9931 0.0006 0.1175
vn -0.2474 0.9689 0.0012
vn 0.7900 -0.0566 0.6104
vn -0.1166 -0.9893 -0.0879
vn -0.6755 0.7127 -0.1890
vn 0.1367 0.9437 -0.3012
vn 0.2961 0.8182 0.4928
vn 0.4927 0.8541 0.1668
vn 0.4915 0.8571 0.1542
vn 0.0702 -0.9130 -0.4019
vn 0.0000 -0.9568 -0.2909
vn 0.9201 0.0642 -0.3863
vn 0.9718 -0.0805 -0.2215
vn 0.9085 0.3315 0.2543
vn 0.9081 0.3322 0.2548
vn -0.9931 0.0004 0.1173
vn 0.4399 0.5467 -0.7125
vn 0.4397 0.5462 -0.7130
vn -0.9261 0.3758 -0.0320
vn -0.9264 0.3753 -0.0319
vn -0.2817 0.3612 0.8889
vn -0.2817 0.3610 0.8890
vn -0.0002 -0.0052 -1.0000
vn 0.9931 0.0004 0.1173
vn 0.9931 0.0006 0.1175
vn 0.9931 0.0006 0.1173
vn -0.0000 -0.4393 -0.8983
vn -0.4435 0.0963 -0.8911
vn -0.4404 0.1005 -0.8921
vn 0.4435 0.0963 -0.8911
vn 0.4404 0.1005 -0.8922
vn 0.0109 0.9769 0.2135
vn 0.0628 0.9744 0.2159
vn 0.0189 -0.9998 -0.0119
vn 0.0356 -0.9993 0.0084
vn 0.0584 0.9772 0.2043
vn -0.0779 0.9695 0.2324
vn -0.0109 0.9769 0.2135
vn -0.0271 -0.9995 -0.0168
vn -0.0355 -0.9993 0.0080
vn -0.0584 0.9771 0.2046
vn -0.0584 0.9772 0.2043
vn -0.0191 -0.9997 -0.0118
vn 0.0584 0.9771 0.2046
vn 0.0271 -0.9995 -0.0168
vn 0.0779 0.9695 0.2324
vn -0.0628 0.9744 0.2159
vn -0.0095 -0.9999 -0.0136
vn 0.0095 -0.9999 -0.0136
vn 0.0000 0.4416 0.8972
vn 0.2530 0.4092 0.8767
vn 0.1462 0.5823 0.7997
vn 0.5912 0.4748 0.6520
vn 0.2099 0.8572 0.4702
vn 0.5374 0.8303 0.1477
vn 0.4050 0.8991 0.1663
vn -0.2549 0.3888 0.8853
vn -0.1406 0.5828 0.8004
vn -0.5912 0.4747 0.6520
vn -0.2099 0.8572 0.4702
vn -0.5374 0.8303 0.1477
vn -0.4050 0.8991 0.1663
vn -0.0000 0.9317 0.3633
vn -0.3201 0.8014 0.5053
vn 0.0000 -0.9989 -0.0474
vn 0.0000 -1.0000 0.0042
vn -0.0000 0.9919 0.1271
vn -0.1469 0.9720 0.1833
vn 0.1124 0.9759 0.1869
vn -0.4702 0.8437 0.2590
vn -0.4671 0.8693 0.1614
vn -0.3203 0.6934 -0.6455
vn -0.3189 0.6860 -0.6540
vn -0.8652 0.4929 0.0923
vn -0.8630 0.4958 0.0968
vn -0.6156 0.7458 0.2546
vn 0.3210 0.8011 0.5051
vn -0.0769 -0.9970 -0.0049
vn 0.1469 0.9720 0.1832
vn -0.1124 0.9759 0.1869
vn 0.4672 0.8689 0.1634
vn 0.4702 0.8437 0.2589
vn 0.3203 0.6934 -0.6455
vn 0.3189 0.6860 -0.6540
vn 0.8652 0.4929 0.0923
vn 0.8630 0.4958 0.0968
vn 0.6317 0.7275 0.2679
vn 0.0769 -0.9970 -0.0049
vn -0.0377 0.9718 0.2327
vn -0.0668 0.9713 0.2282
vn -0.0438 -0.9990 0.0093
vn -0.0262 -0.9996 -0.0067
vn -0.5998 0.4465 0.6640
vn -0.5850 0.4643 0.6650
vn -0.8631 0.4965 0.0922
vn -0.8658 0.4926 0.0881
vn -0.0521 0.9708 0.2342
vn -0.0552 0.9726 0.2258
vn 0.0360 0.9717 0.2334
vn 0.0668 0.9713 0.2282
vn 0.0658 -0.9978 0.0011
vn 0.0438 -0.9990 0.0093
vn 0.6024 0.4433 0.6638
vn 0.5850 0.4643 0.6650
vn 0.8631 0.4959 0.0960
vn 0.8687 0.4875 0.0871
vn 0.0521 0.9708 0.2342
vn 0.0552 0.9726 0.2258
vn 0.0262 -0.9996 -0.0067
vn -0.0658 -0.9978 0.0011
vn -0.7705 0.0771 -0.6328
vn -0.7658 0.0775 -0.6384
vn 0.2312 0.9618 0.1468
vn 0.1721 0.9830 0.0647
vn -0.9841 -0.0164 0.1771
vn 0.1673 -0.9805 -0.1027
vn 0.1089 -0.9922 -0.0610
vn 0.7659 0.0899 -0.6366
vn 0.7711 0.0588 -0.6340
vn -0.2312 0.9618 0.1468
vn -0.2326 0.9700 0.0699
vn 0.9841 -0.0164 0.1770
vn -0.0852 -0.9900 -0.1123
vn -0.1089 -0.9922 -0.0610
vn 0.7658 0.0775 -0.6384
vn 0.7705 0.0771 -0.6328
vn -0.7660 0.0899 -0.6366
vn -0.7711 0.0588 -0.6339
vn 0.2324 0.9701 0.0699
vn -0.1721 0.9830 0.0646
vn 0.0854 -0.9900 -0.1118
vn -0.1689 -0.9802 -0.1030
usemtl Shape.027
s 1
f 85/1/1 86/2/1 87/3/1
f 88/4/2 89/5/2 90/6/2
f 91/7/3 92/8/3 93/9/3
f 94/10/4 95/11/4 96/12/4
f 97/13/5 98/14/5 99/15/5
f 100/16/6 101/17/6 102/18/6
f 103/19/7 104/20/7 105/21/7
f 106/22/8 107/23/8 108/24/8
f 109/25/9 110/26/9 111/27/9
f 112/28/10 113/29/10 114/30/10
f 115/31/11 116/32/11 117/33/11
f 118/34/11 119/35/11 120/36/11
f 121/37/12 122/38/12 123/39/12
f 124/40/13 125/41/13 126/42/13
f 127/43/14 128/44/14 129/45/14
f 130/46/15 131/47/15 132/48/15
f 133/49/16 134/50/16 135/51/16
f 136/52/17 137/53/17 138/54/17
f 139/55/18 140/56/18 141/57/18
f 142/58/19 143/59/19 144/60/19
f 145/61/20 146/62/20 147/63/20
f 148/64/21 149/65/21 150/66/21
f 151/67/22 152/68/22 153/69/22
f 154/70/23 155/71/23 156/72/23
f 157/73/23 158/74/23 159/75/23
f 160/76/24 161/77/24 162/78/24
f 163/79/25 164/80/25 165/81/25
f 166/82/26 167/83/26 168/84/26
f 169/85/27 170/86/27 171/87/27
f 172/88/28 173/89/28 174/90/28
f 175/91/29 176/92/29 177/93/29
f 178/94/30 179/95/30 180/96/30
f 181/97/31 182/98/31 183/99/31
f 184/100/32 185/101/32 186/102/32
f 187/103/33 188/104/33 189/105/33
f 190/106/34 191/107/34 192/108/34
f 193/109/35 194/110/35 195/111/35
f 196/112/11 197/113/11 198/114/11
f 199/115/11 200/116/11 201/117/11
f 202/118/36 203/119/36 204/120/36
f 205/121/37 206/122/37 207/123/37
f 208/124/38 209/125/38 210/126/38
f 211/127/39 212/128/39 213/129/39
f 214/130/25 215/131/25 216/132/25
f 217/133/40 218/134/40 219/135/40
f 220/136/41 221/137/41 222/138/41
f 223/139/42 224/140/42 225/141/42
f 226/142/43 227/143/43 228/144/43
f 229/145/44 230/146/44 231/147/44
f 232/148/45 233/149/45 234/150/45
f 235/151/46 236/152/46 237/153/46
f 238/154/47 239/155/47 240/156/47
f 241/157/23 242/158/23 243/159/23
f 244/160/23 245/161/23 246/162/23
f 247/163/48 248/164/48 249/165/48
f 250/166/49 251/167/49 252/168/49
f 253/169/49 254/170/49 255/171/49
f 256/172/50 257/173/50 258/174/50
usemtl Shape.028
f 1/175/51 2/176/51 3/177/51
f 4/178/51 5/179/51 6/180/51
f 7/181/52 8/182/52 9/183/52
f 10/184/53 11/185/53 12/186/53
f 13/187/51 14/188/51 15/189/51
f 16/190/51 17/191/51 18/192/51
f 19/193/54 20/194/54 21/195/54
f 22/196/55 23/197/55 24/198/55
usemtl Shape.025
f 25/199/56 26/200/56 27/201/56
f 28/202/57 29/203/57 30/204/57
f 31/205/58 32/206/58 33/207/58
f 34/208/59 35/209/59 36/210/59
f 37/211/60 38/212/60 39/213/60
f 40/214/61 41/215/61 42/216/61
f 43/217/62 44/218/62 45/219/62
f 46/220/63 47/221/63 48/222/63
f 49/223/64 50/224/64 51/225/64
f 52/226/65 53/227/65 54/228/65
f 55/229/66 56/230/66 57/231/66
f 58/232/67 59/233/67 60/234/67
f 61/235/68 62/236/68 63/237/68
f 64/238/69 65/239/69 66/240/69
f 67/241/70 68/242/70 69/243/70
f 70/244/71 71/245/71 72/246/71
f 73/247/69 74/248/69 75/249/69
f 76/250/72 77/251/72 78/252/72
f 79/253/63 80/254/63 81/255/63
f 82/256/73 83/257/73 84/258/73
usemtl Shape.023
f 259/259/74 260/260/74 261/261/74
f 262/262/74 263/263/74 264/264/74
f 265/265/75 266/266/75 267/267/75
f 268/268/76 269/269/76 270/270/76
f 271/271/77 272/272/77 273/273/77
f 274/274/78 275/275/78 276/276/78
f 277/277/79 278/278/79 279/279/79
f 280/280/80 281/281/80 282/282/80
f 283/283/74 284/284/74 285/285/74
f 286/286/74 287/287/74 288/288/74
f 289/289/81 290/290/81 291/291/81
f 292/292/82 293/293/82 294/294/82
f 295/295/83 296/296/83 297/297/83
f 298/298/84 299/299/84 300/300/84
f 301/301/85 302/302/85 303/303/85
f 304/304/86 305/305/86 306/306/86
usemtl Shape.029
f 307/307/87 308/308/87 309/309/87
f 310/310/88 311/311/88 312/312/88
f 313/313/89 314/314/89 315/315/89
f 316/316/90 317/317/90 318/318/90
f 319/319/90 320/320/90 321/321/90
f 322/322/89 323/323/89 324/324/89
f 325/325/90 326/326/90 327/327/90
f 328/328/91 329/329/91 330/330/91
f 331/331/92 332/332/92 333/333/92
f 334/334/93 335/335/93 336/336/93
f 337/337/94 338/338/94 339/339/94
f 340/340/95 341/341/95 342/342/95
f 343/343/96 344/344/96 345/345/96
f 346/346/97 347/347/97 348/348/97
f 349/349/98 350/350/98 351/351/98
f 352/352/99 353/353/99 354/354/99
f 355/355/100 356/356/100 357/357/100
f 358/358/87 359/359/87 360/360/87
f 361/361/101 362/362/101 363/363/101
f 364/364/102 365/365/102 366/366/102
f 367/367/90 368/368/90 369/369/90
f 370/370/91 371/371/91 372/372/91
f 373/373/103 374/374/103 375/375/103
f 376/376/104 377/377/104 378/378/104
f 379/379/105 380/380/105 381/381/105
f 382/382/106 383/383/106 384/384/106
f 385/385/107 386/386/107 387/387/107
f 388/388/108 389/389/108 390/390/108
f 391/391/109 392/392/109 393/393/109
f 394/394/110 395/395/110 396/396/110
f 397/397/111 398/398/111 399/399/111
f 400/400/112 401/401/112 402/402/112
usemtl Shape.026
f 403/403/113 404/404/113 405/405/113
f 406/406/114 407/407/114 408/408/114
f 409/409/115 410/410/115 411/411/115
f 412/412/116 413/413/116 414/414/116
f 415/415/117 416/416/117 417/417/117
f 418/418/118 419/419/118 420/420/118
f 421/421/119 422/422/119 423/423/119
f 424/424/120 425/425/120 426/426/120
f 427/427/121 428/428/121 429/429/121
f 430/430/122 431/431/122 432/432/122
f 433/433/123 434/434/123 435/435/123
f 436/436/124 437/437/124 438/438/124
f 439/439/125 440/440/125 441/441/125
f 442/442/126 443/443/126 444/444/126
f 445/445/115 446/446/115 447/447/115
f 448/448/126 449/449/126 450/450/126
f 451/451/127 452/452/127 453/453/127
f 454/454/128 455/455/128 456/456/128
f 457/457/129 458/458/129 459/459/129
f 460/460/130 461/461/130 462/462/130
f 463/463/131 464/464/131 465/465/131
f 466/466/132 467/467/132 468/468/132
f 469/469/133 470/470/133 471/471/133
f 472/472/134 473/473/134 474/474/134
usemtl Shape.024
f 475/475/135 476/476/135 477/477/135
f 478/478/136 479/479/136 480/480/136
f 481/481/137 482/482/137 483/483/137
f 484/484/138 485/485/138 486/486/138
f 487/487/139 488/488/139 489/489/139
f 490/490/139 491/491/139 492/492/139
f 493/493/140 494/494/140 495/495/140
f 496/496/141 497/497/141 498/498/141
f 499/499/142 500/500/142 501/501/142
f 502/502/143 503/503/143 504/504/143
f 505/505/144 506/506/144 507/507/144
f 508/508/145 509/509/145 510/510/145
f 511/511/146 512/512/146 513/513/146
f 514/514/146 515/515/146 516/516/146
f 517/517/147 518/518/147 519/519/147
f 520/520/148 521/521/148 522/522/148
f 523/523/149 524/524/149 525/525/149
f 526/526/150 527/527/150 528/528/150
f 529/529/151 530/530/151 531/531/151
f 532/532/152 533/533/152 534/534/152
f 535/535/153 536/536/153 537/537/153
f 538/538/154 539/539/154 540/540/154
f 541/541/155 542/542/155 543/543/155
f 544/544/156 545/545/156 546/546/156
