# Blender v2.79 (sub 0) OBJ File: ''
# www.blender.org
mtllib SkyClaw.mtl
o Melon_Rip
v 0.609349 -1.401003 24.609793
v -0.885986 -1.404044 24.601439
v -1.370074 0.489897 4.508653
v 1.316160 0.495259 4.523385
v 1.316160 0.495259 4.523385
v -1.370074 0.489897 4.508653
v -1.683590 0.284756 -5.660842
v 1.747258 0.291674 -5.641836
v -10.303565 1.822959 -8.102450
v -9.423496 0.934619 -2.704691
v -28.848625 -4.287567 -3.447847
v -28.848625 -4.287567 -3.447847
v -9.423496 0.934619 -2.704691
v -35.047314 -6.891795 0.407047
v -28.848625 -4.287567 -3.447847
v -35.047314 -6.891795 0.407047
v -33.045010 -5.851201 -1.386619
v -10.303565 1.822959 -8.102450
v -28.848625 -4.287567 -3.447847
v -9.711246 2.144368 -2.566710
v -9.711246 2.144368 -2.566710
v -28.848625 -4.287567 -3.447847
v -35.165508 -6.525339 0.448793
v -9.711246 2.144368 -2.566710
v -35.165508 -6.525339 0.448793
v -36.457039 -7.218821 2.956302
v 10.388220 1.864437 -7.988491
v 28.904049 -4.171747 -3.129634
v 9.449959 0.972465 -2.600711
v 9.449959 0.972465 -2.600711
v 28.904049 -4.171747 -3.129634
v 35.068920 -6.751146 0.793477
v 9.449959 0.972465 -2.600711
v 35.068920 -6.751146 0.793477
v 36.337395 -7.439445 3.315222
v 10.388220 1.864437 -7.988491
v 9.731049 2.183320 -2.459693
v 28.904049 -4.171747 -3.129634
v 28.904049 -4.171747 -3.129634
v 9.731049 2.183320 -2.459693
v 35.185093 -6.384200 0.836569
v 28.904049 -4.171747 -3.129634
v 35.185093 -6.384200 0.836569
v 33.083004 -5.718551 -1.022165
v -35.047314 -6.891795 0.407047
v -9.423496 0.934619 -2.704691
v -36.341774 -7.585282 2.914539
v -36.341774 -7.585282 2.914539
v -9.423496 0.934619 -2.704691
v -36.509552 -7.807477 6.193666
v -36.457039 -7.218821 2.956302
v -36.509552 -7.807477 6.193666
v -9.711246 2.144368 -2.566710
v -9.711246 2.144368 -2.566710
v -36.509552 -7.807477 6.193666
v -9.211774 1.399627 0.094770
v 36.337395 -7.439445 3.315222
v 36.468449 -7.661099 6.595838
v 9.449959 0.972465 -2.600711
v 9.449959 0.972465 -2.600711
v 36.468449 -7.661099 6.595838
v 9.204169 1.436600 0.196354
v 35.185093 -6.384200 0.836569
v 9.731049 2.183320 -2.459693
v 36.450645 -7.072589 3.358068
v 36.450645 -7.072589 3.358068
v 9.731049 2.183320 -2.459693
v 36.468449 -7.661099 6.595838
v 4.204124 1.763571 -7.076396
v 4.146991 1.525681 2.963027
v 1.747258 0.291674 -5.641836
v 1.747258 0.291674 -5.641836
v 4.146991 1.525681 2.963027
v 1.316160 0.495259 4.523385
v -4.129961 1.746826 -7.122401
v -1.683590 0.284756 -5.660842
v -4.187094 1.508937 2.917022
v -4.187094 1.508937 2.917022
v -1.683590 0.284756 -5.660842
v -1.370074 0.489897 4.508653
v -1.370074 0.489897 4.508653
v -0.885986 -1.404044 24.601439
v -0.752653 0.905556 26.562733
v -1.383840 5.494115 5.085520
v 4.138955 4.446940 3.299861
v 4.151665 4.741040 0.978507
v 2.266151 6.144489 -4.128980
v 1.302393 5.499477 5.100252
v -4.195130 4.430196 3.253856
v -1.383840 5.494115 5.085520
v -2.244271 6.135483 -4.153724
v -4.182421 4.724379 0.932731
v 1.316160 0.495259 4.523385
v 1.302393 5.499477 5.100252
v 0.443861 0.907889 26.569141
v 0.609349 -1.401003 24.609793
v -1.383840 5.494115 5.085520
v -0.752653 0.905556 26.562733
v 0.443861 0.907889 26.569141
v 1.302393 5.499477 5.100252
v -9.211774 1.399627 0.094770
v -36.509552 -7.807477 6.193666
v -9.423496 0.934619 -2.704691
v -28.848625 -4.287567 -3.447847
v -33.045010 -5.851201 -1.386619
v -35.165508 -6.525339 0.448793
v 28.904049 -4.171747 -3.129634
v 33.083004 -5.718551 -1.022165
v 35.068920 -6.751146 0.793477
v 9.204169 1.436600 0.196354
v 36.468449 -7.661099 6.595838
v 9.731049 2.183320 -2.459693
v -0.814743 6.466538 -9.600722
v -4.129961 1.746826 -7.122401
v -4.143292 3.889231 -5.579782
v 0.897873 6.470034 -9.591121
v 4.190793 3.905976 -5.533778
v 4.204124 1.763571 -7.076396
v 4.151665 4.741040 0.978507
v 4.190793 3.905976 -5.533778
v 2.266151 6.144489 -4.128980
v 0.897873 6.470034 -9.591121
v 2.266151 6.144489 -4.128980
v 4.190793 3.905976 -5.533778
v -4.182421 4.724379 0.932731
v -2.244271 6.135483 -4.153724
v -4.143292 3.889231 -5.579782
v -0.814743 6.466538 -9.600722
v -4.143292 3.889231 -5.579782
v -2.244271 6.135483 -4.153724
v 5.424089 1.914288 -6.615904
v 4.204124 1.763571 -7.076396
v 4.200184 2.869004 -6.282063
v 5.705994 2.717726 -5.958179
v 5.705994 2.717726 -5.958179
v 4.200184 2.869004 -6.282063
v 4.132627 2.109193 -1.382047
v 6.183170 2.135424 -2.534176
v -5.355756 1.892684 -6.675261
v -4.129961 1.746826 -7.122401
v -4.123381 1.603227 -1.581524
v -6.017125 1.535146 -2.720811
v -6.017125 1.535146 -2.720811
v -4.123381 1.603227 -1.581524
v -4.125287 2.092607 -1.427614
v -6.162566 2.110717 -2.602062
v -4.129961 1.746826 -7.122401
v -5.355756 1.892684 -6.675261
v -5.648549 2.695005 -6.020605
v -4.139760 2.852247 -6.328102
v -4.139760 2.852247 -6.328102
v -5.648549 2.695005 -6.020605
v -6.162566 2.110717 -2.602062
v -4.125287 2.092607 -1.427614
v 4.204124 1.763571 -7.076396
v 5.424089 1.914288 -6.615904
v 6.041506 1.559340 -2.654343
v 4.134533 1.619813 -1.535957
v 4.134533 1.619813 -1.535957
v 6.041506 1.559340 -2.654343
v 6.183170 2.135424 -2.534176
v 4.132627 2.109193 -1.382047
v 2.266151 6.144489 -4.128980
v 0.897873 6.470034 -9.591121
v 1.358258 7.809988 -3.941626
v 1.358258 7.809988 -3.941626
v 0.897873 6.470034 -9.591121
v 0.081926 9.429311 -17.683550
v -0.141651 -3.681295 26.036858
v -0.186425 -2.413787 33.375362
v -0.885986 -1.404044 24.601439
v -0.885986 -1.404044 24.601439
v -0.186425 -2.413787 33.375362
v -0.752653 0.905556 26.562733
v 0.443861 0.907889 26.569141
v -0.186425 -2.413787 33.375362
v 0.609349 -1.401003 24.609793
v 0.609349 -1.401003 24.609793
v -0.186425 -2.413787 33.375362
v -0.141651 -3.681295 26.036858
v -2.244271 6.135483 -4.153724
v -1.345551 7.804504 -3.956688
v -0.814743 6.466538 -9.600722
v -0.814743 6.466538 -9.600722
v -1.345551 7.804504 -3.956688
v 0.081926 9.429311 -17.683550
v -46.013165 -2.460316 -1.533342
v -46.013165 -2.460316 -1.533342
v -36.341774 -7.585282 2.914539
v -36.457039 -7.218821 2.956302
v -36.457039 -7.218821 2.956302
v -36.341774 -7.585282 2.914539
v -49.910049 -7.466340 4.258524
v -49.910049 -7.466340 4.258524
v -35.165508 -6.525339 0.448793
v -35.047314 -6.891795 0.407047
v -46.013165 -2.460316 -1.533342
v -46.013165 -2.460316 -1.533342
v 41.197609 0.391433 -4.300591
v 35.185093 -6.384200 0.836569
v 35.068920 -6.751146 0.793477
v 41.197609 0.391433 -4.300591
v 35.185093 -6.384200 0.836569
v 46.037746 -2.275675 -1.026047
v 46.037746 -2.275675 -1.026047
v 35.068920 -6.751146 0.793477
v 46.037746 -2.275675 -1.026047
v 36.450645 -7.072589 3.358068
v 36.337395 -7.439445 3.315222
v 46.037746 -2.275675 -1.026047
v 36.450645 -7.072589 3.358068
v 49.888775 -7.266180 4.808461
v 49.888775 -7.266180 4.808461
v 36.337395 -7.439445 3.315222
v 4.146991 1.525681 2.963027
v 4.204124 1.763571 -7.076396
v 4.151665 4.741040 0.978507
v 4.138955 4.446940 3.299861
v 4.138955 4.446940 3.299861
v 1.302393 5.499477 5.100252
v 1.316160 0.495259 4.523385
v 4.146991 1.525681 2.963027
v -4.195130 4.430196 3.253856
v -4.187094 1.508937 2.917022
v -1.370074 0.489897 4.508653
v -1.383840 5.494115 5.085520
v -4.187094 1.508937 2.917022
v -4.195130 4.430196 3.253856
v -4.182421 4.724379 0.932731
v -4.129961 1.746826 -7.122401
v -41.146931 0.226320 -4.754233
v -41.146931 0.226320 -4.754233
v -35.047314 -6.891795 0.407047
v -35.165508 -6.525339 0.448793
v -35.047314 -6.891795 0.407047
v -41.146931 0.226320 -4.754233
v -33.045010 -5.851201 -1.386619
v -36.341774 -7.585282 2.914539
v -46.013165 -2.460316 -1.533342
v -35.047314 -6.891795 0.407047
v 7.830252 0.533785 8.965687
v 10.643367 2.933372 -7.869774
v 6.160967 14.584899 -17.998522
v -35.165508 -6.525339 0.448793
v -33.045010 -5.851201 -1.386619
v -41.146931 0.226320 -4.754233
v -36.457039 -7.218821 2.956302
v -35.165508 -6.525339 0.448793
v -46.013165 -2.460316 -1.533342
v -36.509552 -7.807477 6.193666
v -36.457039 -7.218821 2.956302
v -49.910049 -7.466340 4.258524
v -36.509552 -7.807477 6.193666
v -49.910049 -7.466340 4.258524
v -36.341774 -7.585282 2.914539
v 7.830252 0.533785 8.965687
v 9.809509 -7.017695 -20.434772
v 10.643367 2.933372 -7.869774
v 0.443861 0.907889 26.569141
v -0.752653 0.905556 26.562733
v -0.186425 -2.413787 33.375362
v -7.934859 0.502183 8.878861
v -6.014851 14.560544 -18.065432
v -10.564522 2.890816 -7.986697
v -5.119279 2.011946 -8.062188
v -6.014851 14.560544 -18.065432
v -7.934859 0.502183 8.878861
v -5.119279 2.011946 -8.062188
v -7.934859 0.502183 8.878861
v -9.544894 -7.056547 -20.541512
v -7.934859 0.502183 8.878861
v -10.564522 2.890816 -7.986697
v -9.544894 -7.056547 -20.541512
v -0.885986 -1.404044 24.601439
v 0.609349 -1.401003 24.609793
v -0.141651 -3.681295 26.036858
v 35.068920 -6.751146 0.793477
v 33.083004 -5.718551 -1.022165
v 41.197609 0.391433 -4.300591
v 0.081926 9.429311 -17.683550
v -1.345551 7.804504 -3.956688
v 1.358258 7.809988 -3.941626
v 0.081926 9.429311 -17.683550
v 0.897873 6.470034 -9.591121
v -0.814743 6.466538 -9.600722
v -4.182421 4.724379 0.932731
v -4.143292 3.889231 -5.579782
v -4.129961 1.746826 -7.122401
v 4.151665 4.741040 0.978507
v 4.204124 1.763571 -7.076396
v 4.190793 3.905976 -5.533778
v 36.337395 -7.439445 3.315222
v 35.068920 -6.751146 0.793477
v 46.037746 -2.275675 -1.026047
v 36.468449 -7.661099 6.595838
v 36.337395 -7.439445 3.315222
v 49.888775 -7.266180 4.808461
v 35.185093 -6.384200 0.836569
v 41.197609 0.391433 -4.300591
v 33.083004 -5.718551 -1.022165
v 36.450645 -7.072589 3.358068
v 46.037746 -2.275675 -1.026047
v 35.185093 -6.384200 0.836569
v 36.468449 -7.661099 6.595838
v 49.888775 -7.266180 4.808461
v 36.450645 -7.072589 3.358068
v 5.203054 2.032594 -8.005458
v 7.830252 0.533785 8.965687
v 6.160967 14.584899 -17.998522
v 5.203054 2.032594 -8.005458
v 9.809509 -7.017695 -20.434772
v 7.830252 0.533785 8.965687
v -1.683590 0.284756 -5.660842
v -0.814743 6.466538 -9.600722
v 0.897873 6.470034 -9.591121
v 1.747258 0.291674 -5.641836
v 4.204124 1.763571 -7.076396
v 1.747258 0.291674 -5.641836
v 0.897873 6.470034 -9.591121
v -4.129961 1.746826 -7.122401
v -0.814743 6.466538 -9.600722
v -1.683590 0.284756 -5.660842
v 1.302393 5.499477 5.100252
v 1.358258 7.809988 -3.941626
v -1.345551 7.804504 -3.956688
v -1.383840 5.494115 5.085520
v 1.358258 7.809988 -3.941626
v 1.302393 5.499477 5.100252
v 2.266151 6.144489 -4.128980
v -1.345551 7.804504 -3.956688
v -2.244271 6.135483 -4.153724
v -1.383840 5.494115 5.085520
v -6.014851 14.560544 -18.065432
v -5.119279 2.011946 -8.062188
v -10.564522 2.890816 -7.986697
v -5.119279 2.011946 -8.062188
v -9.544894 -7.056547 -20.541512
v -10.564522 2.890816 -7.986697
v 6.160967 14.584899 -17.998522
v 10.643367 2.933372 -7.869774
v 5.203054 2.032594 -8.005458
v 5.203054 2.032594 -8.005458
v 10.643367 2.933372 -7.869774
v 9.809509 -7.017695 -20.434772
vt 0.501953 0.424316
vt 0.501953 0.538086
vt -0.387695 0.583496
vt -0.387695 0.378906
vt -0.387695 0.378906
vt -0.387695 0.583496
vt -0.972168 0.611816
vt -0.972168 0.350586
vt 4.018555 -0.127930
vt 4.034180 -0.318359
vt 4.462402 -0.130371
vt 4.462402 -0.130371
vt 4.034180 -0.318359
vt 4.639648 -0.221191
vt 4.462402 -0.130371
vt 4.639648 -0.221191
vt 4.575684 -0.165527
vt 4.018555 -0.127930
vt 4.462402 -0.130371
vt 4.034180 -0.318359
vt 4.034180 -0.318359
vt 4.462402 -0.130371
vt 4.639648 -0.221191
vt 4.034180 -0.318359
vt 4.639648 -0.221191
vt 4.690918 -0.303711
vt 4.018555 -0.127930
vt 4.462402 -0.130371
vt 4.034180 -0.318359
vt 4.034180 -0.318359
vt 4.462402 -0.130371
vt 4.639648 -0.221191
vt 4.034180 -0.318359
vt 4.639648 -0.221191
vt 4.690918 -0.303711
vt 4.018555 -0.127930
vt 4.034180 -0.318359
vt 4.462402 -0.130371
vt 4.462402 -0.130371
vt 4.034180 -0.318359
vt 4.639648 -0.221191
vt 4.462402 -0.130371
vt 4.639648 -0.221191
vt 4.575684 -0.165527
vt 4.639648 -0.221191
vt 4.034180 -0.318359
vt 4.690918 -0.303711
vt 4.690918 -0.303711
vt 4.034180 -0.318359
vt 4.716309 -0.417480
vt 4.690918 -0.303711
vt 4.716309 -0.417480
vt 4.034180 -0.318359
vt 4.034180 -0.318359
vt 4.716309 -0.417480
vt 4.041992 -0.413574
vt 4.690918 -0.303711
vt 4.716309 -0.417480
vt 4.034180 -0.318359
vt 4.034180 -0.318359
vt 4.716309 -0.417480
vt 4.041992 -0.413574
vt 4.639648 -0.221191
vt 4.034180 -0.318359
vt 4.690918 -0.303711
vt 4.690918 -0.303711
vt 4.034180 -0.318359
vt 4.716309 -0.417480
vt -1.927734 -0.338867
vt -1.069824 -0.338867
vt -1.790039 -0.215820
vt -1.790039 -0.215820
vt -1.069824 -0.338867
vt -0.927734 -0.197266
vt -1.927734 -0.338379
vt -1.790039 -0.215820
vt -1.069824 -0.338379
vt -1.069824 -0.338379
vt -1.790039 -0.215820
vt -0.927734 -0.197266
vt -0.567383 -0.626953
vt 0.164551 -0.598633
vt 0.252441 -0.484863
vt -0.567383 -0.384766
vt -3.465332 -0.501465
vt -3.551758 -0.501465
vt -3.739258 -0.668457
vt -3.404297 -0.747559
vt -3.465332 -0.501953
vt -3.404297 -0.748047
vt -3.739258 -0.668945
vt -3.551758 -0.501953
vt -0.567383 -0.626953
vt -0.567383 -0.384766
vt 0.252441 -0.484863
vt 0.164551 -0.598633
vt -2.037109 0.095215
vt -1.436035 0.142090
vt -1.436035 0.217285
vt -2.037109 0.264160
vt 4.041992 -0.413574
vt 4.716309 -0.417480
vt 4.034180 -0.318359
vt 4.462402 -0.130371
vt 4.575684 -0.165527
vt 4.639648 -0.221191
vt 4.462402 -0.130371
vt 4.575684 -0.165527
vt 4.639648 -0.221191
vt 4.041992 -0.413574
vt 4.716309 -0.417480
vt 4.034180 -0.318359
vt 0.527832 -1.303223
vt 0.268555 -1.655762
vt 0.147461 -1.479004
vt 0.527832 -1.303223
vt 0.147461 -1.479004
vt 0.268555 -1.655762
vt -3.551758 -0.501465
vt -3.786621 -0.501465
vt -3.739258 -0.668457
vt 0.527832 -1.303223
vt 0.026367 -1.302734
vt 0.147461 -1.479004
vt -3.551758 -0.501953
vt -3.739258 -0.668945
vt -3.786621 -0.501953
vt 0.527832 -1.303223
vt 0.147461 -1.479004
vt 0.026367 -1.302734
vt 5.000000 -14.968750
vt 5.000000 -14.968750
vt 5.000000 -14.968750
vt 5.000000 -14.968750
vt 5.000000 -14.968750
vt 5.000000 -14.968750
vt 5.000000 -14.968750
vt 5.000000 -14.968750
vt 5.000000 -14.968750
vt 5.000000 -14.968750
vt 0.625000 -0.996094
vt 0.686523 -0.503906
vt 0.814453 -0.503906
vt 0.887695 -0.996094
vt 1.039062 -0.888672
vt 0.887695 -0.996094
vt 0.814453 -0.503906
vt 0.483398 -0.888672
vt 0.686523 -0.503906
vt 0.625000 -0.996094
vt 0.750000 0.750000
vt 1.812500 0.500000
vt 1.812500 1.000000
vt 1.187500 0.500000
vt 2.250000 0.750000
vt 1.187500 1.000000
vt 0.750000 0.750000
vt 1.812500 1.000000
vt 1.812500 0.500000
vt 1.187500 0.500000
vt 1.187500 1.000000
vt 2.250000 0.750000
vt 0.416992 0.715820
vt 0.285156 0.762695
vt 0.285156 0.690430
vt 0.448242 0.655273
vt 0.448242 0.655273
vt 0.285156 0.690430
vt 0.280762 0.156250
vt 0.501465 0.281250
vt 0.416992 0.715820
vt 0.285156 0.762695
vt 0.280762 0.166016
vt 0.485840 0.287109
vt 0.485840 0.287109
vt 0.280762 0.166016
vt 0.280762 0.156250
vt 0.501465 0.281250
vt 0.285156 0.762695
vt 0.416992 0.715820
vt 0.448242 0.655273
vt 0.285156 0.690430
vt 0.285156 0.690430
vt 0.448242 0.655273
vt 0.501465 0.281250
vt 0.280762 0.156250
vt 0.285156 0.762695
vt 0.416992 0.715820
vt 0.485840 0.287109
vt 0.280762 0.166016
vt 0.280762 0.166016
vt 0.485840 0.287109
vt 0.501465 0.281250
vt 0.280762 0.156250
vt -0.406250 0.817383
vt 0.041504 0.817383
vt -0.406250 0.980469
vt -0.406250 0.980469
vt 0.041504 0.817383
vt 0.719727 0.980469
vt -0.692383 -1.107422
vt -1.185547 -0.943359
vt -0.554199 -0.942383
vt -0.554199 -0.942383
vt -1.185547 -0.943359
vt -0.679199 -0.779297
vt -0.679199 -0.779297
vt -1.185547 -0.943359
vt -0.554199 -0.942383
vt -0.554199 -0.942383
vt -1.185547 -0.943359
vt -0.692383 -1.108398
vt -0.406250 0.817383
vt -0.406250 0.980469
vt 0.041504 0.817383
vt 0.041504 0.817383
vt -0.406250 0.980469
vt 0.719727 0.980469
vt 0.429199 1.002930
vt 0.429199 1.002930
vt 0.491699 0.655273
vt 0.491699 0.655273
vt 0.491699 0.655273
vt 0.491699 0.655273
vt 0.429199 1.002930
vt 0.429199 1.002930
vt 0.491699 0.655273
vt 0.491699 0.655273
vt 0.429199 1.002930
vt 0.429199 1.002930
vt 0.429199 1.002930
vt 0.491699 0.655273
vt 0.491699 0.655273
vt 0.429199 1.002930
vt 0.491699 0.655273
vt 0.429199 1.002930
vt 0.429199 1.002930
vt 0.491699 0.655273
vt 0.429199 1.002930
vt 0.491699 0.655273
vt 0.491699 0.655273
vt 0.429199 1.002930
vt 0.491699 0.655273
vt 0.429199 1.002930
vt 0.429199 1.002930
vt 0.491699 0.655273
vt 0.875000 -0.114258
vt 1.820312 -0.192383
vt 1.084473 0.170898
vt 0.863770 0.162109
vt 0.206055 1.177734
vt 0.130371 0.999023
vt 0.470703 0.999023
vt 0.403809 1.177734
vt 0.206055 1.177734
vt 0.403809 1.177734
vt 0.470703 0.999023
vt 0.130371 0.999023
vt 0.875000 -0.114258
vt 0.863770 0.162109
vt 1.084473 0.170898
vt 1.820312 -0.192383
vt 0.429199 1.002930
vt 0.429199 1.002930
vt 0.491699 0.655273
vt 0.491699 0.655273
vt 0.491699 0.655273
vt 0.429199 1.002930
vt 0.376465 0.656250
vt 0.491699 0.655273
vt 0.429199 1.002930
vt 0.376465 0.656250
vt -1.356445 0.876953
vt -0.324707 0.865234
vt 0.333984 1.965820
vt 0.491699 0.655273
vt 0.376465 0.656250
vt 0.429199 1.002930
vt 0.491699 0.655273
vt 0.376465 0.656250
vt 0.429199 1.002930
vt 0.491699 0.655273
vt 0.376465 0.656250
vt 0.429199 1.002930
vt 0.491699 0.655273
vt 0.429199 1.002930
vt 0.376465 0.656250
vt -1.791992 0.750977
vt -0.360352 1.461914
vt -0.933105 0.785156
vt -0.495117 -1.041992
vt -0.584473 -1.041992
vt -0.539551 -0.516602
vt -1.356445 0.876953
vt 0.333984 1.965820
vt -0.324707 0.865234
vt -0.327637 0.966797
vt 0.333984 1.965820
vt -1.356445 0.876953
vt -0.933105 0.714844
vt -1.791992 0.750977
vt -0.360352 1.461914
vt -1.791992 0.750977
vt -0.933105 0.785156
vt -0.360352 1.461914
vt -2.642578 -0.222656
vt -2.589355 -0.222656
vt -2.616211 -0.157227
vt 0.491699 0.655273
vt 0.376465 0.656250
vt 0.429199 1.002930
vt 1.442383 1.293945
vt 1.347656 0.317383
vt 1.537598 0.317383
vt 1.439453 0.905273
vt 1.499512 0.317383
vt 1.378906 0.317383
vt 1.084473 0.170898
vt 1.689941 0.036133
vt 1.820312 -0.192383
vt 1.084473 0.170898
vt 1.820312 -0.192383
vt 1.689941 0.036133
vt 0.491699 0.655273
vt 0.376465 0.656250
vt 0.429199 1.002930
vt 0.491699 0.655273
vt 0.376465 0.656250
vt 0.429199 1.002930
vt 0.491699 0.655273
vt 0.429199 1.002930
vt 0.376465 0.656250
vt 0.491699 0.655273
vt 0.429199 1.002930
vt 0.376465 0.656250
vt 0.491699 0.655273
vt 0.429199 1.002930
vt 0.376465 0.656250
vt -0.327637 0.966797
vt -1.356445 0.876953
vt 0.333984 1.965820
vt -0.933105 0.714844
vt -0.360352 1.461914
vt -1.791992 0.750977
vn 0.0025 -0.9956 -0.0939
vn 0.0019 -0.9998 0.0201
vn 0.2615 -0.9446 -0.1981
vn 0.2612 -0.9409 -0.2156
vn 0.1794 -0.9246 -0.3361
vn -0.3176 0.9480 -0.0211
vn -0.3195 0.9472 0.0259
vn -0.3099 0.9453 0.1018
vn -0.2555 -0.9457 -0.2011
vn -0.2550 -0.9419 -0.2186
vn -0.2713 -0.9545 -0.1240
vn 0.3140 0.9493 -0.0174
vn 0.3154 0.9485 0.0296
vn 0.4003 0.9074 -0.1277
vn 0.2765 -0.9534 -0.1209
vn 0.2919 -0.9551 -0.0498
vn -0.2950 0.9409 0.1663
vn -0.2430 0.9214 0.3034
vn -0.2875 -0.9563 -0.0531
vn -0.3403 -0.9320 0.1248
vn 0.3049 0.9465 0.1054
vn 0.2894 0.9421 0.1696
vn 0.5063 -0.8622 -0.0175
vn 0.3583 -0.9330 0.0339
vn -0.5026 -0.8642 -0.0233
vn -0.3549 -0.9344 0.0298
vn -0.9996 0.0067 0.0279
vn 0.3983 0.9109 0.1077
vn -0.4032 0.9093 0.1032
vn 0.9992 0.0109 0.0393
vn -0.0031 0.9779 0.2090
vn 0.3426 -0.9306 0.1287
vn -0.4025 0.9058 -0.1323
vn -0.1720 -0.9253 -0.3381
vn 0.2359 0.9223 0.3061
vn -0.8201 0.3310 -0.4668
vn 0.8240 0.3345 -0.4574
vn 0.7294 0.6790 -0.0827
vn 0.7075 0.6936 -0.1359
vn -0.7312 0.6760 -0.0911
vn -0.7087 0.6906 -0.1440
vn -0.0033 0.9689 0.2476
vn 0.8770 0.4641 0.1240
vn -0.8803 0.4606 0.1139
vn 0.0058 -0.5380 -0.8429
vn -0.1528 -0.5471 -0.8230
vn 0.1641 -0.5465 -0.8213
vn -0.1115 -0.6243 -0.7732
vn 0.1179 0.7830 -0.6108
vn 0.1225 -0.6239 -0.7719
vn -0.1143 0.7825 -0.6121
vn 0.2276 0.5683 -0.7907
vn 0.0708 0.9853 0.1554
vn -0.0130 -0.9985 -0.0536
vn -0.4844 -0.2793 0.8291
vn -0.2213 0.5673 -0.7932
vn -0.0764 0.9850 0.1545
vn 0.0176 -0.9984 -0.0534
vn 0.4763 -0.2771 0.8344
vn 0.8540 0.4863 -0.1849
vn 0.9955 0.0319 -0.0887
vn -0.9574 -0.2855 0.0435
vn -0.9969 -0.0091 0.0784
vn 0.9959 -0.0049 0.0899
vn 0.9580 -0.2814 0.0545
vn -0.8538 0.4828 -0.1947
vn -0.9946 0.0278 -0.1001
vn -0.5122 -0.2546 0.8203
vn -0.0975 0.0824 -0.9918
vn 0.2440 0.1871 -0.9516
vn 0.7957 -0.3128 0.5187
vn -0.2343 0.1862 -0.9542
vn 0.5039 -0.2521 0.8262
vn 0.1081 0.0823 -0.9907
vn 1.0000 0.0021 0.0057
vn 0.5074 -0.0973 0.8562
vn -0.5165 -0.0995 0.8505
vn -1.0000 -0.0021 -0.0057
vn -0.8002 -0.3162 0.5097
vn -0.2423 -0.6970 -0.6749
vn -0.2850 -0.8759 -0.3894
vn 0.8362 0.5058 0.2118
vn 0.2961 0.7337 0.6116
vn 0.2627 0.8867 0.3805
vn -0.0008 0.9839 0.1789
vn -0.0155 -0.9975 -0.0684
vn 0.9624 -0.2404 0.1265
vn -0.0041 0.8988 0.4383
vn -0.8407 0.5024 0.2022
vn 0.9611 0.2109 0.1785
vn 0.8393 -0.5358 0.0917
vn -0.9628 -0.2445 0.1155
vn 0.0058 -0.5319 -0.8468
vn 0.2526 -0.6961 -0.6721
vn -0.0027 0.9931 0.1173
vn 0.0038 -0.9390 -0.3438
vn 0.2929 -0.8747 -0.3861
vn 0.0203 -0.9975 -0.0682
vn -0.3058 0.7325 0.6082
vn -0.2705 0.8856 0.3775
vn -0.0051 0.9839 0.1789
vn -0.9639 0.2069 0.1675
vn -0.8381 -0.5393 0.0821
usemtl NDS_Material
s 1
f 1/1/1 2/2/1 3/3/1 4/4/1
f 5/5/2 6/6/2 7/7/2 8/8/2
f 9/9/3 10/10/3 11/11/3
f 12/12/4 13/13/4 14/14/4
f 15/15/5 16/16/5 17/17/5
f 18/18/6 19/19/6 20/20/6
f 21/21/7 22/22/7 23/23/7
f 24/24/8 25/25/8 26/26/8
f 27/27/9 28/28/9 29/29/9
f 30/30/10 31/31/10 32/32/10
f 33/33/11 34/34/11 35/35/11
f 36/36/12 37/37/12 38/38/12
f 39/39/13 40/40/13 41/41/13
f 42/42/14 43/43/14 44/44/14
f 45/45/15 46/46/15 47/47/15
f 48/48/16 49/49/16 50/50/16
f 51/51/17 52/52/17 53/53/17
f 54/54/18 55/55/18 56/56/18
f 57/57/19 58/58/19 59/59/19
f 60/60/20 61/61/20 62/62/20
f 63/63/21 64/64/21 65/65/21
f 66/66/22 67/67/22 68/68/22
f 69/69/23 70/70/23 71/71/23
f 72/72/24 73/73/24 74/74/24
f 75/75/25 76/76/25 77/77/25
f 78/78/26 79/79/26 80/80/26
f 81/81/27 82/82/27 83/83/27 84/84/27
f 85/85/28 86/86/28 87/87/28 88/88/28
f 89/89/29 90/90/29 91/91/29 92/92/29
f 93/93/30 94/94/30 95/95/30 96/96/30
f 97/97/31 98/98/31 99/99/31 100/100/31
f 101/101/32 102/102/32 103/103/32
f 104/104/33 105/105/33 106/106/33
f 107/107/34 108/108/34 109/109/34
f 110/110/35 111/111/35 112/112/35
f 113/113/36 114/114/36 115/115/36
f 116/116/37 117/117/37 118/118/37
f 119/119/38 120/120/38 121/121/38
f 122/122/39 123/123/39 124/124/39
f 125/125/40 126/126/40 127/127/40
f 128/128/41 129/129/41 130/130/41
usemtl NDS_Material.003
f 323/131/42 324/132/42 325/133/42 326/134/42
f 327/135/43 328/136/43 329/137/43
f 330/138/44 331/139/44 332/140/44
usemtl NDS_Material.002
f 313/141/45 314/142/45 315/143/45 316/144/45
f 317/145/46 318/146/46 319/147/46
f 320/148/47 321/149/47 322/150/47
usemtl NDS_Material.004
f 333/151/48 334/152/48 335/153/48
f 336/154/49 337/155/49 338/156/49
f 339/157/50 340/158/50 341/159/50
f 342/160/51 343/161/51 344/162/51
usemtl NDS_Material.001
f 131/163/52 132/164/52 133/165/52 134/166/52
f 135/167/53 136/168/53 137/169/53 138/170/53
f 139/171/54 140/172/54 141/173/54 142/174/54
f 143/175/55 144/176/55 145/177/55 146/178/55
f 147/179/56 148/180/56 149/181/56 150/182/56
f 151/183/57 152/184/57 153/185/57 154/186/57
f 155/187/58 156/188/58 157/189/58 158/190/58
f 159/191/59 160/192/59 161/193/59 162/194/59
f 163/195/60 164/196/60 165/197/60
f 166/198/61 167/199/61 168/200/61
f 169/201/62 170/202/62 171/203/62
f 172/204/63 173/205/63 174/206/63
f 175/207/64 176/208/64 177/209/64
f 178/210/65 179/211/65 180/212/65
f 181/213/66 182/214/66 183/215/66
f 184/216/67 185/217/67 186/218/67
f 187/219/68 188/220/68 189/221/68 190/222/68
f 191/223/69 192/224/69 193/225/69 194/226/69
f 195/227/70 196/228/70 197/229/70 198/230/70
f 199/231/71 200/232/71 201/233/71 202/234/71
f 203/235/72 204/236/72 205/237/72 206/238/72
f 207/239/73 208/240/73 209/241/73 210/242/73
f 211/243/74 212/244/74 213/245/74 214/246/74
f 215/247/75 216/248/75 217/249/75 218/250/75
f 219/251/76 220/252/76 221/253/76 222/254/76
f 223/255/77 224/256/77 225/257/77 226/258/77
f 227/259/78 228/260/78 229/261/78 230/262/78
f 231/263/79 232/264/79 233/265/79 234/266/79
f 235/267/80 236/268/80 237/269/80
f 238/270/81 239/271/81 240/272/81
f 241/273/82 242/274/82 243/275/82
f 244/276/83 245/277/83 246/278/83
f 247/279/84 248/280/84 249/281/84
f 250/282/85 251/283/85 252/284/85
f 253/285/86 254/286/86 255/287/86
f 256/288/87 257/289/87 258/290/87
f 259/291/88 260/292/88 261/293/88
f 262/294/89 263/295/89 264/296/89
f 265/297/90 266/298/90 267/299/90
f 268/300/91 269/301/91 270/302/91
f 271/303/92 272/304/92 273/305/92
f 274/306/93 275/307/93 276/308/93
f 277/309/94 278/310/94 279/311/94
f 280/312/95 281/313/95 282/314/95
f 283/315/96 284/316/96 285/317/96
f 286/318/78 287/319/78 288/320/78
f 289/321/75 290/322/75 291/323/75
f 292/324/97 293/325/97 294/326/97
f 295/327/98 296/328/98 297/329/98
f 298/330/99 299/331/99 300/332/99
f 301/333/100 302/334/100 303/335/100
f 304/336/101 305/337/101 306/338/101
f 307/339/102 308/340/102 309/341/102
f 310/342/103 311/343/103 312/344/103
