# Blender v2.79 (sub 0) OBJ File: ''
# www.blender.org
mtllib Wolfen.mtl
o Melon_Rip
v -4.478868 1.808822 2.746393
v -4.539523 1.952260 -2.540881
v -3.559094 -2.981210 -2.581641
v -3.500820 -3.118804 2.494745
v -12.808282 -4.229725 19.566082
v -12.851095 1.673554 16.979710
v -12.842225 -5.155508 16.645830
v -12.842225 -5.155508 16.645830
v -12.851095 1.673554 16.979710
v -12.907517 2.989425 14.910252
v -13.256618 -3.172362 -19.473150
v -13.223982 -4.255018 -16.607986
v -13.236144 2.582229 -16.567022
v -13.236144 2.582229 -16.567022
v -13.223982 -4.255018 -16.607986
v -13.244396 3.783988 -14.427814
v 4.826187 6.287210 0.117563
v 4.874356 4.222393 -2.063313
v -15.450901 12.087534 0.506649
v -15.450901 12.087534 0.506649
v 4.874356 4.222393 -2.063313
v 3.681752 0.564698 -2.877575
v 4.826187 6.287210 0.117563
v -15.450901 12.087534 0.506649
v 4.923109 4.107430 2.180685
v 4.923109 4.107430 2.180685
v -15.450901 12.087534 0.506649
v 3.747174 0.410534 2.820207
v 3.681752 0.564698 -2.877575
v 5.621541 -2.208615 -2.863966
v -3.559094 -2.981210 -2.581641
v -4.539523 1.952260 -2.540881
v 3.747174 0.410534 2.820207
v -4.478868 1.808822 2.746393
v -3.500820 -3.118804 2.494745
v 5.684422 -2.356930 2.610744
v -5.632693 -3.400998 13.699313
v 2.839099 -24.322067 43.021114
v -12.842225 -5.155508 16.645830
v -5.619020 -3.057315 15.503881
v -12.842225 -5.155508 16.645830
v 2.839099 -24.322067 43.021114
v 0.920317 -1.162262 2.668230
v 0.914162 1.402567 2.738584
v 21.142683 0.142845 3.562902
v 0.914162 1.402567 2.738584
v 0.937051 1.348322 4.737524
v 21.142683 0.142845 3.562902
v 0.943215 -1.216285 4.667068
v 21.142683 0.142845 3.562902
v 0.937051 1.348322 4.737524
v 0.920317 -1.162262 2.668230
v 21.142683 0.142845 3.562902
v 0.943215 -1.216285 4.667068
v -1.629434 6.066905 1.651505
v 12.907971 20.600952 22.146133
v -1.632493 5.416901 1.748095
v -1.632493 5.416901 1.748095
v 12.907971 20.600952 22.146133
v -5.718976 7.721995 1.321019
v -1.629434 6.066905 1.651505
v -5.718976 7.721995 1.321019
v 12.907971 20.600952 22.146133
v -5.947763 -2.658012 -13.733904
v 2.011497 -4.611075 -4.789879
v -5.878938 -10.036423 -10.231949
v -5.975101 -2.217110 -15.516724
v -5.947763 -2.658012 -13.733904
v 1.835989 -21.956181 -44.342411
v -5.947763 -2.658012 -13.733904
v -13.223982 -4.255018 -16.607986
v 1.835989 -21.956181 -44.342411
v -5.975101 -2.217110 -15.516724
v 1.835989 -21.956181 -44.342411
v -13.223982 -4.255018 -16.607986
v 0.858211 -1.015424 -2.748125
v 21.055649 0.348376 -4.027985
v 0.852047 1.549184 -2.677668
v 0.852047 1.549184 -2.677668
v 21.055649 0.348376 -4.027985
v 0.828905 1.603207 -4.676528
v 0.835050 -0.961297 -4.746764
v 0.828905 1.603207 -4.676528
v 21.055649 0.348376 -4.027985
v 0.858211 -1.015424 -2.748125
v 0.835050 -0.961297 -4.746764
v 21.055649 0.348376 -4.027985
v -1.663188 6.146379 -1.279314
v -1.668798 5.502369 -1.411275
v 12.409442 21.776724 -21.271877
v -1.668798 5.502369 -1.411275
v -5.742992 7.778522 -0.765890
v 12.409442 21.776724 -21.271877
v -1.663188 6.146379 -1.279314
v 12.409442 21.776724 -21.271877
v -5.742992 7.778522 -0.765890
v 5.621541 -2.208615 -2.863966
v -2.026192 -6.611969 -0.158252
v -3.559094 -2.981210 -2.581641
v 5.684422 -2.356930 2.610744
v -2.026192 -6.611969 -0.158252
v -0.481510 -12.615561 -0.340170
v 3.747174 0.410534 2.820207
v -9.510773 5.740831 0.265256
v -4.478868 1.808822 2.746393
v 3.681752 0.564698 -2.877575
v -9.510773 5.740831 0.265256
v -15.450901 12.087534 0.506649
v -3.500820 -3.118804 2.494745
v -3.559094 -2.981210 -2.581641
v -2.026192 -6.611969 -0.158252
v 3.747174 0.410534 2.820207
v -15.450901 12.087534 0.506649
v -9.510773 5.740831 0.265256
v 5.684422 -2.356930 2.610744
v -3.500820 -3.118804 2.494745
v -2.026192 -6.611969 -0.158252
v 5.621541 -2.208615 -2.863966
v -0.481510 -12.615561 -0.340170
v -2.026192 -6.611969 -0.158252
v 3.681752 0.564698 -2.877575
v -4.539523 1.952260 -2.540881
v -9.510773 5.740831 0.265256
v 3.747174 0.410534 2.820207
v 29.013643 -5.457522 -0.478601
v 3.681752 0.564698 -2.877575
v -9.510773 5.740831 0.265256
v -4.539523 1.952260 -2.540881
v -4.478868 1.808822 2.746393
v 12.946796 4.060847 -1.264684
v 3.681752 0.564698 -2.877575
v 4.874356 4.222393 -2.063313
v 33.745201 1.850384 -0.332160
v 3.681752 0.564698 -2.877575
v 12.946796 4.060847 -1.264684
v -5.632693 -3.400998 13.699313
v -5.648916 -10.578758 9.797798
v 2.117984 -4.862025 4.483466
v 33.745201 1.850384 -0.332160
v 3.747174 0.410534 2.820207
v 3.681752 0.564698 -2.877575
v 5.621541 -2.208615 -2.863966
v 29.013643 -5.457522 -0.478601
v 7.982680 -8.026620 -0.310459
v 3.681752 0.564698 -2.877575
v 29.013643 -5.457522 -0.478601
v 5.621541 -2.208615 -2.863966
v 5.621541 -2.208615 -2.863966
v 7.982680 -8.026620 -0.310459
v -0.481510 -12.615561 -0.340170
v 12.975024 3.994390 1.191482
v 4.923109 4.107430 2.180685
v 3.747174 0.410534 2.820207
v 33.745201 1.850384 -0.332160
v 12.975024 3.994390 1.191482
v 3.747174 0.410534 2.820207
v -5.619020 -3.057315 15.503881
v 2.839099 -24.322067 43.021114
v -5.632693 -3.400998 13.699313
v 12.975024 3.994390 1.191482
v 33.745201 1.850384 -0.332160
v 12.946796 4.060847 -1.264684
v 5.684422 -2.356930 2.610744
v 7.982680 -8.026620 -0.310459
v 29.013643 -5.457522 -0.478601
v 3.747174 0.410534 2.820207
v 5.684422 -2.356930 2.610744
v 29.013643 -5.457522 -0.478601
v 5.684422 -2.356930 2.610744
v -0.481510 -12.615561 -0.340170
v 7.982680 -8.026620 -0.310459
v -5.648916 -10.578758 9.797798
v -5.703509 4.408738 9.085631
v 2.117984 -4.862025 4.483466
v 2.117984 -4.862025 4.483466
v -5.703509 4.408738 9.085631
v 2.096565 4.055310 4.731099
v 2.183064 -2.369705 10.787426
v -5.675663 3.791473 11.649785
v -5.619020 -3.057315 15.503881
v -5.619020 -3.057315 15.503881
v -5.675663 3.791473 11.649785
v -12.851095 1.673554 16.979710
v 1.933649 -1.781102 -10.947886
v -5.975101 -2.217110 -15.516724
v -5.939034 4.412907 -11.292995
v -5.939034 4.412907 -11.292995
v -5.975101 -2.217110 -15.516724
v -13.236144 2.582229 -16.567022
v 1.990104 4.306749 -4.548151
v -5.907685 4.890458 -8.698837
v 2.011497 -4.611075 -4.789879
v 2.011497 -4.611075 -4.789879
v -5.907685 4.890458 -8.698837
v -5.878938 -10.036423 -10.231949
v -5.703509 4.408738 9.085631
v -5.648916 -10.578758 9.797798
v -5.632693 -3.400998 13.699313
v -5.675663 3.791473 11.649785
v 2.096565 4.055310 4.731099
v 6.054438 2.759848 4.650528
v 6.161064 -2.629757 4.501842
v 2.117984 -4.862025 4.483466
v 1.990104 4.306749 -4.548151
v 2.011497 -4.611075 -4.789879
v 6.054605 -2.378319 -4.777409
v 5.947950 3.011168 -4.628397
v -5.907685 4.890458 -8.698837
v -5.939034 4.412907 -11.292995
v -5.947763 -2.658012 -13.733904
v -5.878938 -10.036423 -10.231949
v 0.943215 -1.216285 4.667068
v 0.937051 1.348322 4.737524
v 0.914162 1.402567 2.738584
v 0.920317 -1.162262 2.668230
v 0.835050 -0.961297 -4.746764
v 0.858211 -1.015424 -2.748125
v 0.852047 1.549184 -2.677668
v 0.828905 1.603207 -4.676528
v -12.851095 1.673554 16.979710
v -5.675663 3.791473 11.649785
v -12.907517 2.989425 14.910252
v 2.183064 -2.369705 10.787426
v 6.161064 -2.629757 4.501842
v 6.054438 2.759848 4.650528
v 6.054438 2.759848 4.650528
v 2.096565 4.055310 4.731099
v -5.675663 3.791473 11.649785
v -5.675663 3.791473 11.649785
v -5.632693 -3.400998 13.699313
v -12.907517 2.989425 14.910252
v -5.703509 4.408738 9.085631
v -5.675663 3.791473 11.649785
v 2.096565 4.055310 4.731099
v 2.183064 -2.369705 10.787426
v -5.632693 -3.400998 13.699313
v 2.117984 -4.862025 4.483466
v -5.619020 -3.057315 15.503881
v -12.808282 -4.229725 19.566082
v -12.842225 -5.155508 16.645830
v 2.183064 -2.369705 10.787426
v -5.619020 -3.057315 15.503881
v -5.632693 -3.400998 13.699313
v -5.632693 -3.400998 13.699313
v -12.842225 -5.155508 16.645830
v -12.907517 2.989425 14.910252
v 2.117984 -4.862025 4.483466
v 6.161064 -2.629757 4.501842
v 2.183064 -2.369705 10.787426
v -13.236144 2.582229 -16.567022
v -5.975101 -2.217110 -15.516724
v -13.256618 -3.172362 -19.473150
v 5.947950 3.011168 -4.628397
v 1.933649 -1.781102 -10.947886
v -5.939034 4.412907 -11.292995
v -13.236144 2.582229 -16.567022
v -13.244396 3.783988 -14.427814
v -5.939034 4.412907 -11.292995
v -12.851095 1.673554 16.979710
v -12.808282 -4.229725 19.566082
v -5.619020 -3.057315 15.503881
v 1.933649 -1.781102 -10.947886
v 5.947950 3.011168 -4.628397
v 6.054605 -2.378319 -4.777409
v 5.947950 3.011168 -4.628397
v -5.939034 4.412907 -11.292995
v 1.990104 4.306749 -4.548151
v 6.054438 2.759848 4.650528
v -5.675663 3.791473 11.649785
v 2.183064 -2.369705 10.787426
v -5.939034 4.412907 -11.292995
v -13.244396 3.783988 -14.427814
v -5.947763 -2.658012 -13.733904
v 1.933649 -1.781102 -10.947886
v 2.011497 -4.611075 -4.789879
v -5.947763 -2.658012 -13.733904
v -5.975101 -2.217110 -15.516724
v -13.223982 -4.255018 -16.607986
v -13.256618 -3.172362 -19.473150
v 1.933649 -1.781102 -10.947886
v -5.947763 -2.658012 -13.733904
v -5.975101 -2.217110 -15.516724
v -5.947763 -2.658012 -13.733904
v -13.244396 3.783988 -14.427814
v -13.223982 -4.255018 -16.607986
v -5.907685 4.890458 -8.698837
v 1.990104 4.306749 -4.548151
v -5.939034 4.412907 -11.292995
v 2.011497 -4.611075 -4.789879
v 1.933649 -1.781102 -10.947886
v 6.054605 -2.378319 -4.777409
v 12.946796 4.060847 -1.264684
v 4.874356 4.222393 -2.063313
v 4.826187 6.287210 0.117563
v 12.975024 3.994390 1.191482
v 4.826187 6.287210 0.117563
v 4.923109 4.107430 2.180685
v 12.946796 4.060847 -1.264684
v 4.826187 6.287210 0.117563
v 12.975024 3.994390 1.191482
vt -1.739258 -2.523438
vt -1.739258 -2.005859
vt -1.385742 -2.331055
vt -1.385742 -2.331055
vt -1.739258 -2.005859
vt -1.385742 -2.022461
vt 0.808594 -1.787109
vt 0.425781 -1.338867
vt 0.425293 -1.826172
vt 0.425293 -1.826172
vt 0.425781 -1.338867
vt 0.072754 -1.480469
vt 0.808594 -1.787109
vt 0.425293 -1.826172
vt 0.425781 -1.338867
vt 0.425781 -1.338867
vt 0.425293 -1.826172
vt 0.072754 -1.480469
vt -1.385742 -2.022461
vt -1.739258 -2.005859
vt -1.385742 -2.331055
vt -1.385742 -2.331055
vt -1.739258 -2.005859
vt -1.739258 -2.523438
vt -1.739258 -2.005859
vt -1.739258 -2.523438
vt -1.739746 -2.271484
vt -1.739746 -2.024414
vt -1.385742 -2.022461
vt -1.207520 -2.067383
vt -1.203125 -2.253906
vt -1.385742 -2.331055
vt -1.385742 -2.022461
vt -1.385742 -2.331055
vt -1.203125 -2.253906
vt -1.207520 -2.067383
vt -1.739258 -2.005859
vt -1.739746 -2.024414
vt -1.739746 -2.271484
vt -1.739258 -2.523438
vt -1.918457 -0.521484
vt -1.918457 -0.374023
vt -1.918457 -0.374023
vt -1.918457 -0.521484
vt -1.918457 -0.521484
vt -1.918457 -0.521484
vt -1.918457 -0.374023
vt -1.918457 -0.374023
vt 0.072754 -1.480469
vt 0.425781 -1.338867
vt 0.071289 -1.389648
vt 0.808594 -1.787109
vt 1.005859 -1.819336
vt 1.000977 -1.428711
vt 1.000977 -1.428711
vt 0.808594 -1.333984
vt 0.425781 -1.338867
vt -1.739746 -2.024414
vt -1.739746 -2.271484
vt -2.067383 -2.048828
vt 0.425781 -1.298828
vt 0.425781 -1.338867
vt 0.808594 -1.333984
vt 0.808594 -1.787109
vt 0.425781 -1.854492
vt 0.808594 -1.979492
vt 0.425293 -1.826172
vt 0.072266 -1.902344
vt 0.072266 -1.974609
vt 0.808594 -1.787109
vt 0.425293 -1.826172
vt 0.425781 -1.854492
vt -1.739746 -2.271484
vt -2.066406 -2.329102
vt -2.067383 -2.048828
vt 0.808594 -1.979492
vt 1.005859 -1.819336
vt 0.808594 -1.787109
vt 0.072754 -1.480469
vt 0.425293 -1.826172
vt 0.072266 -1.902344
vt 1.000977 -1.428711
vt 0.808594 -1.787109
vt 0.425781 -1.338867
vt 0.072754 -1.480469
vt 0.071289 -1.389648
vt 0.425781 -1.338867
vt 0.072754 -1.480469
vt 0.072266 -1.902344
vt 0.425293 -1.826172
vt 0.808594 -1.787109
vt 1.000977 -1.428711
vt 1.005859 -1.819336
vt 1.000977 -1.428711
vt 0.425781 -1.338867
vt 0.808594 -1.333984
vt 1.000977 -1.428711
vt 0.425781 -1.338867
vt 0.808594 -1.787109
vt -1.739746 -2.024414
vt -2.067383 -2.048828
vt -1.739746 -2.271484
vt 0.808594 -1.787109
vt 0.808594 -1.979492
vt 0.425781 -1.854492
vt 0.425293 -1.826172
vt 0.072266 -1.974609
vt 0.072266 -1.902344
vt 0.808594 -1.787109
vt 0.425781 -1.854492
vt 0.425293 -1.826172
vt -1.739746 -2.271484
vt -2.067383 -2.048828
vt -2.066406 -2.329102
vt 0.425781 -1.298828
vt 0.808594 -1.333984
vt 0.425781 -1.338867
vt 0.808594 -1.979492
vt 0.808594 -1.787109
vt 1.005859 -1.819336
vt 16.093750 -21.554688
vt 16.093750 -21.554688
vt 16.093750 -21.554688
vt 16.093750 -21.554688
vt 16.093750 -21.554688
vt 16.093750 -21.554688
vt 16.093750 -21.554688
vt 16.093750 -21.554688
vt 16.093750 -21.554688
vt 0.500000 0.500000
vt 0.000000 0.500000
vt 0.000000 0.000000
vt 0.500000 0.000000
vt 0.997070 0.870117
vt 0.190430 0.853516
vt 0.997070 0.621094
vt 0.997070 0.621094
vt 0.190430 0.853516
vt -0.052734 0.645508
vt 0.997070 0.870117
vt 0.997070 0.621094
vt 0.190430 0.853516
vt 0.190430 0.853516
vt 0.997070 0.621094
vt -0.052734 0.645508
vt 0.414551 0.780273
vt 0.417480 0.700195
vt -0.579102 1.000488
vt -0.579102 1.000488
vt 0.417480 0.700195
vt 0.359375 0.562012
vt 0.414551 0.780273
vt -0.579102 1.000488
vt 0.417480 0.700195
vt 0.417480 0.700195
vt -0.579102 1.000488
vt 0.359375 0.562012
vt 2.306152 0.725586
vt 2.393555 0.615723
vt 1.977051 0.586426
vt 1.933594 0.781738
vt 2.306152 0.725586
vt 1.933594 0.781738
vt 1.977051 0.586426
vt 2.393555 0.615723
vt 2.052734 -2.720215
vt 1.250488 -3.090332
vt 2.269043 -3.091309
vt 2.052734 -2.720215
vt 2.269043 -3.091309
vt 1.250488 -3.090332
vt -2.942871 1.242188
vt -2.942871 1.115723
vt -1.946777 1.179199
vt -1.215332 1.140137
vt -1.215332 1.230469
vt -0.644043 1.187500
vt -2.942871 1.116699
vt -1.946777 1.179688
vt -2.942871 1.243164
vt -1.215332 1.139648
vt -0.644043 1.186523
vt -1.215332 1.229492
vt -1.444824 0.317383
vt -1.445801 0.359863
vt -1.454590 0.316406
vt 1.747559 -1.821777
vt 0.520020 -2.025879
vt 1.944824 -2.038086
vt 1.752441 -1.812012
vt 1.944824 -2.038086
vt 0.520020 -2.025879
vt 1.000977 -0.348633
vt 1.399414 -0.415527
vt 1.001465 -0.604004
vt -1.236816 0.218262
vt -1.258789 0.217773
vt -1.252930 0.306641
vt 2.052734 -2.720215
vt 2.269043 -3.091309
vt 1.250488 -3.090332
vt 2.052734 -2.720215
vt 1.250488 -3.090332
vt 2.269043 -3.091309
vt -2.942871 1.242188
vt -1.946777 1.179199
vt -2.942871 1.115723
vt -1.215332 1.140137
vt -0.644043 1.187012
vt -1.215332 1.230469
vt -2.942871 1.116699
vt -2.942871 1.243164
vt -1.946777 1.180176
vt -1.215332 1.139160
vt -1.215332 1.229492
vt -0.644043 1.186523
vt -1.444824 0.317383
vt -1.454590 0.316406
vt -1.445801 0.359863
vt 1.747559 -1.821777
vt 1.944824 -2.038086
vt 0.520020 -2.025879
vt 1.752441 -1.812012
vt 0.520020 -2.025879
vt 1.944824 -2.038086
vt 2.393555 0.615723
vt 2.044922 0.444824
vt 1.977051 0.586426
vt 2.393555 0.615723
vt 2.044922 0.444824
vt 2.114258 0.206543
vt 0.359375 0.562012
vt -0.288574 0.761230
vt -0.043945 0.615234
vt 0.359375 0.562012
vt -0.288574 0.761230
vt -0.579102 1.000488
vt 1.977051 0.586426
vt 1.977051 0.586426
vt 2.044922 0.444824
vt 0.359375 0.562012
vt -0.579102 1.000488
vt -0.288574 0.761230
vt 2.393555 0.615723
vt 1.977051 0.586426
vt 2.044922 0.444824
vt 2.393555 0.615723
vt 2.114258 0.206543
vt 2.044922 0.444824
vt 0.359375 0.562012
vt -0.043945 0.615234
vt -0.288574 0.761230
vt 2.697754 -2.265137
vt 3.841309 -2.198242
vt 2.697754 -2.131836
vt -0.288574 0.761230
vt -0.043945 0.615234
vt -0.043945 0.615234
vt 0.812988 0.694336
vt 0.359375 0.562012
vt 0.417480 0.700195
vt 1.831543 0.610352
vt 0.359375 0.562012
vt 0.812988 0.694336
vt 1.000977 -0.348633
vt 1.001465 -0.604004
vt 1.399414 -0.415527
vt 4.056152 -2.198242
vt 2.697754 -2.265137
vt 2.697754 -2.131836
vt 2.393555 0.615723
vt 3.451172 0.487305
vt 2.498535 0.387695
vt 2.306152 0.725586
vt 3.451172 0.487305
vt 2.393555 0.615723
vt 2.393555 0.615723
vt 2.498535 0.387695
vt 2.114258 0.206543
vt 0.812988 0.694336
vt 0.417480 0.700195
vt 0.359375 0.562012
vt 1.831543 0.610352
vt 0.812988 0.694336
vt 0.359375 0.562012
vt -1.236816 0.218262
vt -1.252930 0.306641
vt -1.258789 0.217773
vt 3.246094 -3.612793
vt 4.186035 -3.516602
vt 3.246094 -3.420898
vt 2.393555 0.615723
vt 2.498535 0.387695
vt 3.451172 0.487305
vt 2.306152 0.725586
vt 2.393555 0.615723
vt 3.451172 0.487305
vt 2.393555 0.615723
vt 2.114258 0.206543
vt 2.498535 0.387695
vn -0.5430 -0.0418 -0.8387
vn -0.4865 0.0231 -0.8734
vn 0.4344 0.4445 0.7834
vn 0.4475 0.4414 0.7778
vn 0.4167 0.4868 -0.7677
vn 0.4299 0.4835 -0.7626
vn -0.4665 -0.0251 0.8842
vn -0.5238 -0.0880 0.8473
vn -0.9999 -0.0032 0.0100
vn -0.0110 0.0276 -0.9996
vn 0.0117 -0.0272 0.9996
vn -0.9999 -0.0032 0.0128
vn -0.9999 -0.0027 0.0114
vn -0.9999 -0.0027 0.0115
vn 0.1453 0.8367 0.5281
vn 0.8450 0.0020 0.5347
vn 0.2962 0.8821 0.3664
vn -0.3735 -0.2563 -0.8915
vn 0.1712 0.9583 0.2288
vn 0.2507 -0.9011 0.3537
vn 0.3086 -0.9077 0.2842
vn 0.1950 -0.9638 0.1821
vn -0.3288 -0.1993 -0.9231
vn 0.4563 -0.8291 0.3231
vn 0.3922 0.4136 -0.8217
vn 0.4584 0.5434 -0.7033
vn 0.1337 0.8642 -0.4850
vn 0.4111 0.3683 0.8339
vn 0.8326 0.0318 -0.5530
vn 0.2883 0.9008 -0.3247
vn 0.4747 0.5045 0.7212
vn -0.3533 -0.3049 0.8844
vn 0.2421 -0.8805 -0.4077
vn 0.3016 -0.8907 -0.3400
vn 0.1902 -0.9523 -0.2384
vn -0.3078 -0.2498 0.9181
vn 0.1665 0.9694 -0.1805
vn 0.4485 -0.8100 -0.3779
vn 0.0822 0.7246 -0.6842
vn 0.0982 0.6864 0.7206
vn 0.2680 0.9632 0.0230
vn -0.9808 -0.1950 0.0060
vn -0.9999 -0.0019 0.0122
vn -0.9997 -0.0026 0.0256
vn -0.9999 -0.0018 0.0107
vn -1.0000 -0.0018 -0.0029
vn 0.1916 0.7148 -0.6726
vn -0.0348 0.2280 -0.9730
vn 0.2073 0.6773 0.7059
vn -0.0126 0.1743 0.9846
vn -0.0359 -0.0101 -0.9993
vn -0.0132 -0.0648 0.9978
vn -0.0353 -0.8183 -0.5737
vn -0.1230 0.7666 0.6302
vn 0.0424 0.0275 -0.9987
vn 0.0611 0.9978 0.0264
vn 0.0564 -0.0273 0.9980
vn 0.0656 -0.9975 -0.0277
vn 0.8398 -0.0837 -0.5364
vn -0.3994 -0.5759 0.7134
vn 0.3192 0.6513 -0.6884
vn 0.6752 -0.3111 -0.6688
vn 0.9543 0.2931 0.0579
vn -0.0228 -0.8483 0.5290
vn -0.1368 0.7997 -0.5847
vn 0.0650 -0.0272 0.9975
vn 0.0611 0.9978 0.0263
vn 0.0337 0.0274 -0.9991
vn 0.0656 -0.9975 -0.0278
vn 0.8518 -0.1123 0.5118
vn -0.4160 -0.5364 -0.7344
vn 0.3353 0.6131 0.7153
vn 0.0205 -0.5490 -0.8355
vn -0.2857 -0.1024 0.9528
vn 0.0980 0.6178 0.7802
vn -0.3208 -0.2657 -0.9091
vn -0.9213 -0.3889 0.0000
vn -0.3002 -0.3152 0.9003
vn 0.0391 -0.5938 0.8036
vn -0.3073 -0.0503 -0.9503
vn 0.0807 0.6595 -0.7474
vn 0.2291 0.9731 0.0237
vn -0.6112 -0.7913 -0.0145
vn 0.1004 0.1849 -0.9776
vn 0.0706 0.2575 -0.9637
vn 0.6900 -0.3469 0.6353
vn 0.0450 -0.9986 -0.0275
vn 0.0400 -0.3879 -0.9208
vn 0.1112 0.0729 -0.9911
vn 0.1831 -0.3318 -0.9254
vn 0.1227 0.1311 0.9837
vn 0.0926 0.2045 0.9745
vn 0.9529 0.2966 -0.0637
vn 0.1045 0.9942 0.0257
vn 0.0606 -0.4376 0.8971
vn 0.1337 0.0186 0.9908
vn 0.2039 -0.3818 0.9015
usemtl NDS_Material.002
s 1
f 172/1/1 173/2/1 174/3/1
f 175/4/2 176/5/2 177/6/2
f 178/7/3 179/8/3 180/9/3
f 181/10/4 182/11/4 183/12/4
f 184/13/5 185/14/5 186/15/5
f 187/16/6 188/17/6 189/18/6
f 190/19/7 191/20/7 192/21/7
f 193/22/8 194/23/8 195/24/8
f 196/25/9 197/26/9 198/27/9 199/28/9
f 200/29/10 201/30/10 202/31/10 203/32/10
f 204/33/11 205/34/11 206/35/11 207/36/11
f 208/37/12 209/38/12 210/39/12 211/40/12
f 212/41/13 213/42/13 214/43/13 215/44/13
f 216/45/14 217/46/14 218/47/14 219/48/14
f 220/49/15 221/50/15 222/51/15
f 223/52/16 224/53/16 225/54/16
f 226/55/17 227/56/17 228/57/17
f 229/58/18 230/59/18 231/60/18
f 232/61/19 233/62/19 234/63/19
f 235/64/20 236/65/20 237/66/20
f 238/67/21 239/68/21 240/69/21
f 241/70/22 242/71/22 243/72/22
f 244/73/23 245/74/23 246/75/23
f 247/76/24 248/77/24 249/78/24
f 250/79/25 251/80/25 252/81/25
f 253/82/26 254/83/26 255/84/26
f 256/85/27 257/86/27 258/87/27
f 259/88/28 260/89/28 261/90/28
f 262/91/29 263/92/29 264/93/29
f 265/94/30 266/95/30 267/96/30
f 268/97/31 269/98/31 270/99/31
f 271/100/32 272/101/32 273/102/32
f 274/103/33 275/104/33 276/105/33
f 277/106/34 278/107/34 279/108/34
f 280/109/35 281/110/35 282/111/35
f 283/112/36 284/113/36 285/114/36
f 286/115/37 287/116/37 288/117/37
f 289/118/38 290/119/38 291/120/38
usemtl NDS_Material.003
f 292/121/39 293/122/39 294/123/39
f 295/124/40 296/125/40 297/126/40
f 298/127/41 299/128/41 300/129/41
usemtl NDS_Material
f 1/130/42 2/131/42 3/132/42 4/133/42
f 5/134/43 6/135/43 7/136/43
f 8/137/44 9/138/44 10/139/44
f 11/140/45 12/141/45 13/142/45
f 14/143/46 15/144/46 16/145/46
usemtl NDS_Material.001
f 17/146/47 18/147/47 19/148/47
f 20/149/48 21/150/48 22/151/48
f 23/152/49 24/153/49 25/154/49
f 26/155/50 27/156/50 28/157/50
f 29/158/51 30/159/51 31/160/51 32/161/51
f 33/162/52 34/163/52 35/164/52 36/165/52
f 37/166/53 38/167/53 39/168/53
f 40/169/54 41/170/54 42/171/54
f 43/172/55 44/173/55 45/174/55
f 46/175/56 47/176/56 48/177/56
f 49/178/57 50/179/57 51/180/57
f 52/181/58 53/182/58 54/183/58
f 55/184/59 56/185/59 57/186/59
f 58/187/60 59/188/60 60/189/60
f 61/190/61 62/191/61 63/192/61
f 64/193/62 65/194/62 66/195/62
f 67/196/63 68/197/63 69/198/63
f 70/199/64 71/200/64 72/201/64
f 73/202/65 74/203/65 75/204/65
f 76/205/66 77/206/66 78/207/66
f 79/208/67 80/209/67 81/210/67
f 82/211/68 83/212/68 84/213/68
f 85/214/69 86/215/69 87/216/69
f 88/217/70 89/218/70 90/219/70
f 91/220/71 92/221/71 93/222/71
f 94/223/72 95/224/72 96/225/72
f 97/226/73 98/227/73 99/228/73
f 100/229/74 101/230/74 102/231/74
f 103/232/75 104/233/75 105/234/75
f 106/235/76 107/236/76 108/237/76
f 109/238/77 110/239/77 111/240/77
f 112/241/78 113/242/78 114/243/78
f 115/244/79 116/245/79 117/246/79
f 118/247/80 119/248/80 120/249/80
f 121/250/81 122/251/81 123/252/81
f 124/253/82 125/254/82 126/255/82
f 127/256/83 128/257/83 129/258/83
f 130/259/84 131/260/84 132/261/84
f 133/262/85 134/263/85 135/264/85
f 136/265/86 137/266/86 138/267/86
f 139/268/87 140/269/87 141/270/87
f 142/271/88 143/272/88 144/273/88
f 145/274/89 146/275/89 147/276/89
f 148/277/90 149/278/90 150/279/90
f 151/280/91 152/281/91 153/282/91
f 154/283/92 155/284/92 156/285/92
f 157/286/93 158/287/93 159/288/93
f 160/289/94 161/290/94 162/291/94
f 163/292/95 164/293/95 165/294/95
f 166/295/96 167/296/96 168/297/96
f 169/298/97 170/299/97 171/300/97
